M48
;Layer_Color=9474304
;FILE_FORMAT=4:4
METRIC,LZ
;TYPE=PLATED
T01F00S00C0.3302
T03F00S00C1.0160
T04F00S00C1.0201
%
T01
X00683291Y00224821
X0069342Y0023876
X006858Y003302
X0069342Y0034417
X0060071Y0036576
Y00381
X0056134Y0046101
X00628269Y0048006
X0068834Y0047371
X00808157Y00458541
X008128Y004318
X0082169Y003429
X0083058Y003302
X00521716Y002921
X00525526Y002667
X00524256Y0023749
X0052705Y0041021
X0037719Y0042037
X0036195Y004318
X0035941Y0046228
X0023368Y0043053
X00254Y004064
Y00381
X00232541Y00333879
X0021463Y00340868
X00201775Y0041275
X0014986Y0040894
X0013335Y0039497
T03
X003048Y000508
X003302
X003556
X00381
Y001016
X003556
X003302
X003048
X004318
X004572
X004826
X00508
X004953Y000508
X005207
X004699
X004445
X0060833Y0014859
X0063373
X0065913
X0068453
X0072771Y0014732
X0075311
X0077851
X0080391
X0080645Y0019431
X0078105
X0075565
X0073025
X006858
X006604
X00635
X006096
X0055245Y0038989
X0078359Y0038481
X0080899
X0083439
X0085979
X0052705Y0038989
X0050165
X0047625
X0009779Y0037465
X0007239
X0004699
X0002159
T04
X0075946Y0023876
X0078486
X0079248Y002921
X0081788
X0073406Y0036322
Y0038862
X0069596Y0038989
Y0036449
X0058674Y0043561
Y0046101
X0042418Y0045593
Y0043053
X0019685Y0043561
Y0046101
X001778Y002032
X001524
X002286
Y001778
M30
