G04*
G04 #@! TF.GenerationSoftware,Altium Limited,Altium Designer,24.1.2 (44)*
G04*
G04 Layer_Color=8421504*
%FSLAX25Y25*%
%MOIN*%
G70*
G04*
G04 #@! TF.SameCoordinates,6E6146AE-10E2-4EE8-86B2-596FBE868B5F*
G04*
G04*
G04 #@! TF.FilePolarity,Positive*
G04*
G01*
G75*
%ADD19R,0.10433X0.02362*%
%ADD20R,0.04400X0.07100*%
%ADD21R,0.03300X0.06693*%
%ADD22R,0.12200X0.06693*%
%ADD23R,0.07100X0.04400*%
%ADD24R,0.13386X0.02362*%
D19*
X259835Y118500D02*
D03*
Y113500D02*
D03*
Y108500D02*
D03*
Y103500D02*
D03*
Y98500D02*
D03*
Y93500D02*
D03*
Y88500D02*
D03*
X282165D02*
D03*
Y93500D02*
D03*
Y98500D02*
D03*
Y103500D02*
D03*
Y108500D02*
D03*
Y113500D02*
D03*
X282000Y118500D02*
D03*
X67669Y55000D02*
D03*
Y50000D02*
D03*
Y45000D02*
D03*
Y40000D02*
D03*
Y35000D02*
D03*
Y30000D02*
D03*
Y25000D02*
D03*
X90000D02*
D03*
Y30000D02*
D03*
Y35000D02*
D03*
Y40000D02*
D03*
Y45000D02*
D03*
Y50000D02*
D03*
X89835Y55000D02*
D03*
D20*
X64100Y70000D02*
D03*
X75900D02*
D03*
X50000Y40000D02*
D03*
X38200D02*
D03*
X50000Y30000D02*
D03*
X38200D02*
D03*
X14100Y40000D02*
D03*
X25900D02*
D03*
X14100Y30000D02*
D03*
X25900D02*
D03*
X246900Y103500D02*
D03*
X235100D02*
D03*
X246900Y93500D02*
D03*
X235100D02*
D03*
X246900Y114000D02*
D03*
X235100D02*
D03*
X212500Y94000D02*
D03*
X224300D02*
D03*
X213000Y104500D02*
D03*
X224800D02*
D03*
X213000Y114500D02*
D03*
X224800D02*
D03*
X95900Y140000D02*
D03*
X84100D02*
D03*
X70000D02*
D03*
X58200D02*
D03*
X38200Y50000D02*
D03*
X50000D02*
D03*
X25900D02*
D03*
X14100D02*
D03*
D21*
X134100Y158221D02*
D03*
X125000Y159205D02*
D03*
X115900D02*
D03*
D22*
X125000Y184795D02*
D03*
D23*
X251500Y183400D02*
D03*
Y171600D02*
D03*
X210000Y170100D02*
D03*
Y181900D02*
D03*
X309500Y182900D02*
D03*
Y171100D02*
D03*
X323500Y104300D02*
D03*
Y92500D02*
D03*
X298500Y115900D02*
D03*
Y104100D02*
D03*
X100000Y98200D02*
D03*
Y110000D02*
D03*
X324500Y170100D02*
D03*
Y181900D02*
D03*
X189500Y181400D02*
D03*
Y169600D02*
D03*
X97500Y169100D02*
D03*
Y180900D02*
D03*
X148500Y172100D02*
D03*
Y183900D02*
D03*
X340000Y182300D02*
D03*
Y170500D02*
D03*
D24*
X267870Y182500D02*
D03*
Y177500D02*
D03*
Y172500D02*
D03*
Y167500D02*
D03*
X289130D02*
D03*
Y172500D02*
D03*
Y177500D02*
D03*
Y182500D02*
D03*
M02*
