G04*
G04 #@! TF.GenerationSoftware,Altium Limited,Altium Designer,24.1.2 (44)*
G04*
G04 Layer_Physical_Order=1*
G04 Layer_Color=255*
%FSLAX25Y25*%
%MOIN*%
G70*
G04*
G04 #@! TF.SameCoordinates,6E6146AE-10E2-4EE8-86B2-596FBE868B5F*
G04*
G04*
G04 #@! TF.FilePolarity,Positive*
G04*
G01*
G75*
%ADD10C,0.01500*%
%ADD11C,0.02000*%
%ADD12C,0.00600*%
%ADD19R,0.10433X0.02362*%
%ADD20R,0.04400X0.07100*%
%ADD21R,0.03300X0.06693*%
%ADD22R,0.12200X0.06693*%
%ADD23R,0.07100X0.04400*%
%ADD24R,0.13386X0.02362*%
%ADD37C,0.00200*%
%ADD38C,0.07000*%
%ADD39C,0.06378*%
%ADD40O,0.12992X0.07087*%
%ADD41O,0.07874X0.14961*%
%ADD42C,0.02500*%
D10*
X96000Y157000D02*
X101375D01*
X89000Y164000D02*
X96000Y157000D01*
X89000Y164000D02*
Y169375D01*
X222000Y139000D02*
X222500Y138500D01*
X212500Y139000D02*
X222000D01*
X252850Y171600D02*
X254200D01*
X252850Y169600D02*
X260258D01*
X272069Y167500D02*
X278939Y160630D01*
X271114Y168455D02*
X272069Y167500D01*
X185325Y148250D02*
X224007D01*
X225257Y149500D01*
X231000Y138500D02*
X236500Y144000D01*
X227743Y149500D02*
X228993Y148250D01*
X225257Y149500D02*
X227743D01*
X228993Y148250D02*
X234007D01*
X222500Y138500D02*
X231000D01*
X234007Y148250D02*
X235257Y147000D01*
X241243D01*
X113617Y180900D02*
X117150Y184433D01*
Y188867D01*
X118175Y189892D01*
X133608D01*
X141500Y182000D01*
X134100Y158221D02*
Y159917D01*
X134187Y178862D02*
X149963D01*
X125000Y185295D02*
X127753D01*
X147600Y173000D02*
X148500Y172100D01*
X142500Y162000D02*
Y170000D01*
X149963Y178862D02*
X160250Y168575D01*
X135000Y160817D02*
X141317D01*
X134100Y159917D02*
X135000Y160817D01*
X141317D02*
X142500Y162000D01*
X268257Y132500D02*
X268757Y133000D01*
X248000Y132500D02*
X268257D01*
X268757Y133000D02*
X271243D01*
X271743Y132500D01*
X321757D01*
X236500Y144000D02*
X248000Y132500D01*
X325243D02*
X325257D01*
X322257Y132000D02*
X324743D01*
X321757Y132500D02*
X322257Y132000D01*
X324743D02*
X325243Y132500D01*
X328743D02*
X331121D01*
X325757Y133000D02*
X328243D01*
X328743Y132500D01*
X325257D02*
X325757Y133000D01*
X332000Y98379D02*
Y131621D01*
X313375Y97055D02*
X330676D01*
X331121Y132500D02*
X332000Y131621D01*
X330676Y97055D02*
X332000Y98379D01*
X160250Y162750D02*
X167000Y169500D01*
X151124Y153624D02*
X160250Y162750D01*
X127753Y185295D02*
X134187Y178862D01*
X160250Y162750D02*
Y168575D01*
X114840Y140000D02*
X211621D01*
X212500Y139000D02*
Y139121D01*
X211621Y140000D02*
X212500Y139121D01*
X285770Y93931D02*
X286981D01*
X282596D02*
X285770D01*
X297451Y76549D02*
X297500Y76500D01*
X297451Y76549D02*
Y82250D01*
X285770Y93931D02*
X297451Y82250D01*
X99809Y160191D02*
Y162691D01*
X97500Y165000D02*
Y169100D01*
Y165000D02*
X99809Y162691D01*
X92000Y170500D02*
X97500Y165000D01*
X52309Y155691D02*
Y157576D01*
X45779Y162193D02*
X47692D01*
X52309Y157576D01*
Y155691D02*
X52500Y155500D01*
X55622Y143928D02*
Y176957D01*
X58200Y140000D02*
Y141350D01*
X55622Y143928D02*
X58200Y141350D01*
X59000Y161500D02*
X60000Y162500D01*
X59000Y161000D02*
Y161500D01*
X60000Y162500D02*
X79439D01*
X82439Y146564D02*
Y175936D01*
Y146564D02*
X83583Y145419D01*
X88050Y135725D02*
Y144275D01*
X86905Y145419D02*
X88050Y144275D01*
X83583Y145419D02*
X86905D01*
X82439Y175936D02*
X89000Y169375D01*
X106575Y151800D02*
X130014D01*
X101375Y157000D02*
X106575Y151800D01*
X99809Y160191D02*
X100000Y160000D01*
X90550Y134690D02*
Y146335D01*
X131814Y150000D02*
X183575D01*
X130014Y151800D02*
X131814Y150000D01*
X183575D02*
X185325Y148250D01*
X241243Y147000D02*
X242493Y148250D01*
X268750D01*
X269061Y148561D01*
X286981Y93931D02*
X297150Y104100D01*
X298500D01*
X310320Y94000D02*
X313375Y97055D01*
X309000Y94000D02*
X310320D01*
X236500Y150000D02*
X240000D01*
X100000Y110000D02*
Y125450D01*
X104550Y130000D01*
X205000Y20000D02*
X205250Y19750D01*
X10000Y24550D02*
X14100Y28650D01*
Y30000D01*
X10000Y20879D02*
Y24550D01*
Y20879D02*
X10879Y20000D01*
X48225D01*
X14100Y30000D02*
Y40000D01*
X60000Y80000D02*
Y104140D01*
X90550Y134690D01*
X180000Y35000D02*
X184379Y30621D01*
X180000Y35000D02*
Y40000D01*
X179121Y30000D02*
X180000Y30879D01*
Y35000D01*
X160000Y30000D02*
X179121D01*
X185621Y30621D02*
X190000Y35000D01*
X184379Y30621D02*
X185621D01*
X190000Y35000D02*
Y40000D01*
X150000D02*
X160000Y30000D01*
X76088Y13150D02*
X123150D01*
X67669Y21569D02*
X76088Y13150D01*
X123150D02*
X130000Y20000D01*
X67669Y21569D02*
Y25000D01*
X95900Y138650D02*
X104550Y130000D01*
X101840Y153000D02*
X114840Y140000D01*
X95900Y138650D02*
Y140000D01*
X130000Y20000D02*
X140000D01*
X150000D01*
X130000Y40000D02*
X140000D01*
X150000D01*
X161706Y20000D02*
X166956Y14750D01*
X179750D02*
X185000Y20000D01*
X150000D02*
X161706D01*
X166956Y14750D02*
X179750D01*
X190000Y40000D02*
X200000D01*
Y25000D02*
X205000Y20000D01*
X200000Y25000D02*
Y40000D01*
X185000Y20000D02*
X195000D01*
X205000D01*
X85965Y30000D02*
X90000D01*
X67669Y25000D02*
X80965D01*
X85965Y30000D01*
X14100Y40000D02*
Y50000D01*
X53225Y25000D02*
X67669D01*
X48225Y20000D02*
X53225Y25000D01*
X254300Y171050D02*
Y175975D01*
X252850Y169600D02*
X254300Y171050D01*
X257376Y179051D02*
Y182355D01*
X254300Y175975D02*
X257376Y179051D01*
Y182355D02*
X265021Y190000D01*
X260258Y169600D02*
X262358Y167500D01*
X270591Y168978D02*
X271114Y168455D01*
X262358Y167500D02*
X267870D01*
X265021Y190000D02*
X289121D01*
X97215Y153000D02*
X101840D01*
X90550Y146335D02*
X97215Y153000D01*
X95900Y140000D02*
Y141350D01*
X100000Y145450D01*
Y150000D01*
X16000Y140000D02*
X58200D01*
X8500Y147500D02*
X16000Y140000D01*
X269061Y137364D02*
Y148561D01*
X274000Y153500D01*
X278939Y148439D02*
Y160630D01*
X274000Y143500D02*
X278939Y148439D01*
X240000Y150000D02*
Y172500D01*
X231000Y181500D02*
X240000Y172500D01*
X202275Y181400D02*
X207484Y176192D01*
X226308D02*
X231000Y171500D01*
X189500Y181400D02*
X202275D01*
X207484Y176192D02*
X226308D01*
X188150Y181400D02*
X189500D01*
X187500Y153500D02*
Y162107D01*
X184200Y165407D02*
X187500Y162107D01*
X184200Y165407D02*
Y177450D01*
X188150Y181400D01*
X167000Y169500D02*
X181948Y154552D01*
X186448D01*
X187500Y153500D01*
X302142Y190000D02*
X339121D01*
X294642Y182500D02*
X302142Y190000D01*
X339121D02*
X340000Y189121D01*
X307000Y153000D02*
X308500Y151500D01*
X82439Y175936D02*
Y176561D01*
X77500Y181500D02*
X82439Y176561D01*
X289569Y182500D02*
X294642D01*
X289130D02*
X289569D01*
X340000Y182300D02*
Y189121D01*
X290000Y182931D02*
Y189121D01*
X289121Y190000D02*
X290000Y189121D01*
X289569Y182500D02*
X290000Y182931D01*
X267870Y167500D02*
X270160D01*
X270591Y167931D02*
Y168978D01*
X270160Y167500D02*
X270591Y167931D01*
X55622Y176957D02*
Y180500D01*
Y176957D02*
X61079Y171500D01*
X77500D01*
X99729Y150000D02*
X100000D01*
X97500Y169100D02*
X108201D01*
X115900Y161401D01*
Y159705D02*
Y161401D01*
X120000Y165501D01*
Y170000D01*
X97500Y180900D02*
X113617D01*
X131725Y153624D02*
X151124D01*
X128900Y159705D02*
X130313Y158292D01*
Y155037D02*
Y158292D01*
X125000Y159705D02*
X128900D01*
X130313Y155037D02*
X131725Y153624D01*
X96150Y180900D02*
X97500D01*
X148500Y183900D02*
X162600D01*
X167000Y179500D01*
X90611Y186439D02*
X96150Y180900D01*
X75454Y186439D02*
X90611D01*
X72561Y183546D02*
X75454Y186439D01*
X72561Y176439D02*
Y183546D01*
Y176439D02*
X77500Y171500D01*
D11*
X309209Y170809D02*
X309500Y171100D01*
D12*
X212300Y93800D02*
X212500Y94000D01*
X212550Y104950D02*
X213600Y106000D01*
X25900Y40000D02*
Y41300D01*
X27800Y43200D01*
X148500Y165500D02*
Y172100D01*
X262358Y182500D02*
X267870D01*
X270119D02*
X271000Y183381D01*
X267870Y182500D02*
X270119D01*
X271000Y183381D02*
Y186500D01*
X247713Y187187D02*
X251500Y183400D01*
X247713Y187187D02*
Y188637D01*
X247350Y189000D02*
X247713Y188637D01*
X251500Y183400D02*
X252850D01*
X210400Y181500D02*
X221000D01*
X210000Y181900D02*
X210400Y181500D01*
X207500Y153500D02*
Y161500D01*
X206400Y93500D02*
X212000D01*
X212300Y93800D01*
X206900Y105000D02*
X212500D01*
X213000Y104500D01*
X205400Y115000D02*
X212500D01*
X213000Y114500D01*
X298500Y115900D02*
X299400Y115000D01*
X312000D01*
X297150Y115900D02*
X298500D01*
X282000Y118500D02*
X294550D01*
X297150Y115900D01*
X270850Y135575D02*
X272925D01*
X269061Y137364D02*
X270850Y135575D01*
X272925D02*
X273000Y135500D01*
X270352Y130450D02*
X306550D01*
X270000Y130098D02*
X270352Y130450D01*
X270000Y130000D02*
Y130098D01*
X306550Y130450D02*
X322000Y115000D01*
X311288Y143000D02*
X319288Y135000D01*
X323500D01*
X326500Y129648D02*
X326852Y130000D01*
X326500Y113152D02*
Y129648D01*
X326852Y130000D02*
X327000D01*
X323500Y110152D02*
X326500Y113152D01*
X323500Y104300D02*
Y110152D01*
X282165Y81835D02*
X287500Y76500D01*
X282165Y81835D02*
Y88500D01*
X275649Y86780D02*
X277863Y84566D01*
X275649Y86780D02*
Y87745D01*
X270450Y92944D02*
Y100820D01*
X278130Y108500D01*
X277863Y66637D02*
Y84566D01*
X265951Y98500D02*
X268850Y95601D01*
X278130Y108500D02*
X282165D01*
X270450Y92944D02*
X275649Y87745D01*
X274800Y70588D02*
Y85366D01*
X271825Y88341D02*
X274800Y85366D01*
X268850Y92281D02*
X271825Y89306D01*
X268850Y92281D02*
Y95601D01*
X265200Y84700D02*
X269012Y88512D01*
X277863Y66637D02*
X286500Y58000D01*
X271825Y88341D02*
Y89306D01*
X273200Y94200D02*
Y95000D01*
X274630D01*
X278130Y98500D01*
X273000Y94000D02*
X273200Y94200D01*
X264700Y60488D02*
X274800Y70588D01*
X263870Y98500D02*
X265951D01*
X263870D02*
X266351Y100981D01*
Y106019D01*
X259835Y108500D02*
X263870D01*
X266351Y106019D01*
X293312Y113500D02*
X296961Y109850D01*
X282165Y113500D02*
X293312D01*
X296961Y109850D02*
X316600D01*
X322150Y104300D01*
X323500D01*
X263870Y118500D02*
X268870Y113500D01*
X282165D01*
X259835Y118500D02*
X263870D01*
Y108500D02*
X268870Y113500D01*
X235100Y62900D02*
Y93500D01*
Y62900D02*
X239500Y58500D01*
X90000Y129899D02*
X91550Y131448D01*
X84500Y134200D02*
X84625Y134325D01*
X86650D01*
X88050Y135725D01*
X91550Y131448D02*
X91552D01*
X265200Y74912D02*
Y84700D01*
X261988Y71700D02*
X265200Y74912D01*
X244800Y71700D02*
X261988D01*
X240000Y76500D02*
X244800Y71700D01*
X278130Y98500D02*
X282165D01*
X259835Y88500D02*
X260000Y88335D01*
Y76500D02*
Y88335D01*
X303489Y89511D02*
X311157D01*
X299000Y94000D02*
X303489Y89511D01*
X311157D02*
X314146Y92500D01*
X323500D01*
X282165Y103500D02*
X286201D01*
X290301Y107600D01*
X302589D01*
X303350Y106839D01*
Y101362D02*
Y106839D01*
X300078Y98089D02*
X303350Y101362D01*
X300078Y95078D02*
Y98089D01*
X299000Y94000D02*
X300078Y95078D01*
X207044Y6000D02*
X213788D01*
X264700Y56912D01*
Y60488D01*
X203044Y10000D02*
X207044Y6000D01*
X17980Y10000D02*
X203044D01*
X7950Y20030D02*
X17980Y10000D01*
X217500Y153500D02*
X217750Y153250D01*
X213600Y106000D02*
Y114500D01*
X212100Y104500D02*
X212550Y104950D01*
X212100Y94000D02*
Y104500D01*
X223900Y94000D02*
X224400Y93500D01*
X235100D01*
X246900D02*
X259835D01*
X223900Y104500D02*
X224900Y103500D01*
X235100D01*
X246900D02*
X259835D01*
X225400Y114500D02*
X225900Y114000D01*
X235100D01*
X246900D02*
X247400Y113500D01*
X259835D01*
X246900Y104850D02*
X248800Y106750D01*
X246900Y103500D02*
Y104850D01*
X100000Y94100D02*
X100499Y93601D01*
X100000Y94100D02*
Y98200D01*
X100499Y51200D02*
Y93601D01*
X100147Y50849D02*
X100499Y51200D01*
X96418Y54081D02*
X99650Y50849D01*
X100147D01*
X90000Y80000D02*
Y129899D01*
X84245Y47519D02*
X95755D01*
X90091Y52481D02*
X95755D01*
X84080Y52519D02*
X90053D01*
X95755Y52481D02*
X96517Y51720D01*
X113613Y46800D02*
X121363D01*
X96517Y48280D02*
Y51720D01*
X100663Y48400D02*
X169337D01*
X90053Y52519D02*
X90091Y52481D01*
X95065Y54119D02*
X95103Y54081D01*
X121363Y46800D02*
X125200Y42963D01*
X95755Y47519D02*
X96517Y48280D01*
X95103Y54081D02*
X96418D01*
X104332Y37519D02*
X113613Y46800D01*
X169337Y48400D02*
X170000Y47737D01*
X89835Y55000D02*
X90716Y54119D01*
X98144Y45881D02*
X100663Y48400D01*
X90716Y54119D02*
X95065D01*
X61952Y32481D02*
X107519D01*
X120000Y20000D01*
X90000Y37081D02*
X90438Y37519D01*
X104332D01*
X90000Y35000D02*
Y37081D01*
X81600Y48048D02*
X81951Y48400D01*
X81600Y44365D02*
Y48048D01*
X81951Y48400D02*
X83364D01*
X25900Y40000D02*
X38200D01*
X25900Y50000D02*
X38200D01*
Y51350D01*
X40100Y53250D01*
X7950Y20030D02*
Y51438D01*
X11512Y55000D02*
X67669D01*
X7950Y51438D02*
X11512Y55000D01*
X80000Y56599D02*
Y64550D01*
Y56599D02*
X84080Y52519D01*
X83364Y48400D02*
X84245Y47519D01*
X81600Y44365D02*
X85965Y40000D01*
X90000Y45000D02*
X90881Y45881D01*
X98144D01*
X75900Y70000D02*
Y74100D01*
X70000Y80000D02*
X75900Y74100D01*
Y68650D02*
Y70000D01*
Y68650D02*
X80000Y64550D01*
X64100Y68650D02*
X67669Y65081D01*
X64100Y68650D02*
Y70000D01*
X67669Y55000D02*
Y65081D01*
X85965Y40000D02*
X90000D01*
X170000D02*
Y47737D01*
X164606Y20000D02*
X175000D01*
X154787Y29818D02*
X164606Y20000D01*
X133394Y29818D02*
X154787D01*
X90000Y25000D02*
X103552D01*
X113352Y15200D01*
X121988D01*
X124800Y18012D01*
X67669Y35000D02*
X71705D01*
X80000Y43295D01*
X90000Y55165D02*
Y70000D01*
X89835Y55000D02*
X90000Y55165D01*
X125200Y38012D02*
X133394Y29818D01*
X125200Y38012D02*
Y42963D01*
X124800Y18012D02*
Y35200D01*
X120000Y40000D02*
X124800Y35200D01*
X59583Y34850D02*
X61952Y32481D01*
X42412Y30000D02*
X47262Y34850D01*
X59583D01*
X38200Y30000D02*
X42412D01*
X71705Y55000D02*
X77056Y49648D01*
X80000D01*
X67669Y55000D02*
X71705D01*
X67669Y45000D02*
X78295D01*
X80000Y43295D01*
X80352Y50000D02*
X90000D01*
X80000Y49648D02*
X80352Y50000D01*
X80000Y43295D02*
Y49648D01*
X25900Y30000D02*
X38200D01*
X50000D02*
X67669D01*
X50000Y40000D02*
X67669D01*
X50000Y50000D02*
X67669D01*
X189500Y169600D02*
X209500D01*
X210000Y170100D01*
Y181900D02*
X211350D01*
X251350D02*
X252850Y183400D01*
X281137Y174981D02*
X283618Y172500D01*
X278618Y177500D02*
X281137Y174981D01*
X283618Y172500D02*
X289130D01*
X267870Y177500D02*
X278618D01*
X310850Y171100D02*
X318500Y163450D01*
X309500Y171100D02*
X310850D01*
X318500Y151500D02*
Y163450D01*
Y151500D02*
X320000Y150000D01*
X289000Y143000D02*
X311288D01*
X288793Y153207D02*
Y157089D01*
X273382Y172500D02*
X288793Y157089D01*
Y153207D02*
X289000Y153000D01*
X267870Y172500D02*
X273382D01*
X70000Y140000D02*
X84100D01*
X289000Y153000D02*
X307000D01*
X311400Y181000D02*
X317820D01*
X309500Y182900D02*
X311400Y181000D01*
X289130Y177500D02*
X318750D01*
X309500Y182900D02*
Y186000D01*
X302694Y186352D02*
X309149D01*
X296361Y180019D02*
X302694Y186352D01*
X281936Y180019D02*
X296361D01*
X309149Y186352D02*
X309500Y186000D01*
X281137Y179220D02*
X281936Y180019D01*
X281137Y174981D02*
Y179220D01*
X325850Y181900D02*
X327750Y180000D01*
Y178650D02*
X335900Y170500D01*
X340000D01*
X324500Y181900D02*
X325850D01*
X327750Y178650D02*
Y180000D01*
X318750Y177500D02*
X323150Y181900D01*
X324500D01*
D19*
X259835Y118500D02*
D03*
Y113500D02*
D03*
Y108500D02*
D03*
Y103500D02*
D03*
Y98500D02*
D03*
Y93500D02*
D03*
Y88500D02*
D03*
X282165D02*
D03*
Y93500D02*
D03*
Y98500D02*
D03*
Y103500D02*
D03*
Y108500D02*
D03*
Y113500D02*
D03*
X282000Y118500D02*
D03*
X67669Y55000D02*
D03*
Y50000D02*
D03*
Y45000D02*
D03*
Y40000D02*
D03*
Y35000D02*
D03*
Y30000D02*
D03*
Y25000D02*
D03*
X90000D02*
D03*
Y30000D02*
D03*
Y35000D02*
D03*
Y40000D02*
D03*
Y45000D02*
D03*
Y50000D02*
D03*
X89835Y55000D02*
D03*
D20*
X64100Y70000D02*
D03*
X75900D02*
D03*
X50000Y40000D02*
D03*
X38200D02*
D03*
X50000Y30000D02*
D03*
X38200D02*
D03*
X14100Y40000D02*
D03*
X25900D02*
D03*
X14100Y30000D02*
D03*
X25900D02*
D03*
X246900Y103500D02*
D03*
X235100D02*
D03*
X246900Y93500D02*
D03*
X235100D02*
D03*
X246900Y114000D02*
D03*
X235100D02*
D03*
X212500Y94000D02*
D03*
X224300D02*
D03*
X213000Y104500D02*
D03*
X224800D02*
D03*
X213000Y114500D02*
D03*
X224800D02*
D03*
X95900Y140000D02*
D03*
X84100D02*
D03*
X70000D02*
D03*
X58200D02*
D03*
X38200Y50000D02*
D03*
X50000D02*
D03*
X25900D02*
D03*
X14100D02*
D03*
D21*
X134100Y158221D02*
D03*
X125000Y159205D02*
D03*
X115900D02*
D03*
D22*
X125000Y184795D02*
D03*
D23*
X251500Y183400D02*
D03*
Y171600D02*
D03*
X210000Y170100D02*
D03*
Y181900D02*
D03*
X309500Y182900D02*
D03*
Y171100D02*
D03*
X323500Y104300D02*
D03*
Y92500D02*
D03*
X298500Y115900D02*
D03*
Y104100D02*
D03*
X100000Y98200D02*
D03*
Y110000D02*
D03*
X324500Y170100D02*
D03*
Y181900D02*
D03*
X189500Y181400D02*
D03*
Y169600D02*
D03*
X97500Y169100D02*
D03*
Y180900D02*
D03*
X148500Y172100D02*
D03*
Y183900D02*
D03*
X340000Y182300D02*
D03*
Y170500D02*
D03*
D24*
X267870Y182500D02*
D03*
Y177500D02*
D03*
Y172500D02*
D03*
Y167500D02*
D03*
X289130D02*
D03*
Y172500D02*
D03*
Y177500D02*
D03*
Y182500D02*
D03*
D37*
X92000Y169500D02*
Y170500D01*
D38*
X190000Y40000D02*
D03*
X200000D02*
D03*
X170000D02*
D03*
X180000D02*
D03*
X195000Y20000D02*
D03*
X205000D02*
D03*
X175000D02*
D03*
X185000D02*
D03*
X140000Y40000D02*
D03*
X150000D02*
D03*
X120000D02*
D03*
X130000D02*
D03*
X140000Y20000D02*
D03*
X150000D02*
D03*
X120000D02*
D03*
X130000D02*
D03*
X207500Y153500D02*
D03*
X217500D02*
D03*
X187500D02*
D03*
X197500D02*
D03*
X297500Y76500D02*
D03*
X287500D02*
D03*
X317500D02*
D03*
X307500D02*
D03*
X260000D02*
D03*
X270000D02*
D03*
X240000D02*
D03*
X250000D02*
D03*
X296500Y58000D02*
D03*
X286500D02*
D03*
X316500D02*
D03*
X306500D02*
D03*
X249500Y58500D02*
D03*
X239500D02*
D03*
X269500D02*
D03*
X259500D02*
D03*
X18500Y147500D02*
D03*
X8500D02*
D03*
X38500D02*
D03*
X28500D02*
D03*
X318500Y151500D02*
D03*
X308500D02*
D03*
X338500D02*
D03*
X328500D02*
D03*
D39*
X70000Y80000D02*
D03*
X60000D02*
D03*
X231000Y181500D02*
D03*
Y171500D02*
D03*
X289000Y153000D02*
D03*
Y143000D02*
D03*
X274000Y153500D02*
D03*
Y143500D02*
D03*
X312000Y115000D02*
D03*
X322000D02*
D03*
X299000Y94000D02*
D03*
X309000D02*
D03*
X90000Y70000D02*
D03*
Y80000D02*
D03*
X77500Y171500D02*
D03*
Y181500D02*
D03*
X167000Y169500D02*
D03*
Y179500D02*
D03*
D40*
X45779Y162193D02*
D03*
D41*
X32000Y180500D02*
D03*
X55622D02*
D03*
D42*
X148500Y165500D02*
D03*
X271000Y186500D02*
D03*
X247350Y189000D02*
D03*
X221000Y181500D02*
D03*
X207500Y161500D02*
D03*
X206400Y93500D02*
D03*
X206900Y105000D02*
D03*
X205400Y115000D02*
D03*
X141500Y182000D02*
D03*
X142500Y170000D02*
D03*
X273000Y135500D02*
D03*
X270000Y130000D02*
D03*
X323500Y135000D02*
D03*
X327000Y130000D02*
D03*
X236500Y144000D02*
D03*
X269012Y88512D02*
D03*
X273000Y94000D02*
D03*
X52500Y155500D02*
D03*
X59000Y161000D02*
D03*
X79439Y162500D02*
D03*
X92000Y169500D02*
D03*
X84500Y134200D02*
D03*
X91552Y131448D02*
D03*
X236500Y150000D02*
D03*
X320000Y170000D02*
D03*
X318172Y180528D02*
D03*
X100000Y150000D02*
D03*
Y160000D02*
D03*
M02*
