G04*
G04 #@! TF.GenerationSoftware,Altium Limited,Altium Designer,24.1.2 (44)*
G04*
G04 Layer_Color=2752767*
%FSLAX25Y25*%
%MOIN*%
G70*
G04*
G04 #@! TF.SameCoordinates,6E6146AE-10E2-4EE8-86B2-596FBE868B5F*
G04*
G04*
G04 #@! TF.FilePolarity,Positive*
G04*
G01*
G75*
%ADD15C,0.00500*%
%ADD43C,0.00667*%
D15*
X68000Y78000D02*
Y82000D01*
X72000D01*
Y78000D01*
X68000D01*
X58000D02*
Y82000D01*
X62000D01*
Y78000D01*
X58000D01*
X229000Y179500D02*
Y183500D01*
X233000D01*
Y179500D01*
X229000D01*
Y169500D02*
Y173500D01*
X233000D01*
Y169500D01*
X229000D01*
X287000Y151000D02*
Y155000D01*
X291000D01*
Y151000D01*
X287000D01*
Y141000D02*
Y145000D01*
X291000D01*
Y141000D01*
X287000D01*
X272000Y151500D02*
Y155500D01*
X276000D01*
Y151500D01*
X272000D01*
Y141500D02*
Y145500D01*
X276000D01*
Y141500D01*
X272000D01*
X310000Y113000D02*
Y117000D01*
X314000D01*
Y113000D01*
X310000D01*
X320000D02*
Y117000D01*
X324000D01*
Y113000D01*
X320000D01*
X297000Y92000D02*
Y96000D01*
X301000D01*
Y92000D01*
X297000D01*
X307000D02*
Y96000D01*
X311000D01*
Y92000D01*
X307000D01*
X88000Y68000D02*
Y72000D01*
X92000D01*
Y68000D01*
X88000D01*
Y78000D02*
Y82000D01*
X92000D01*
Y78000D01*
X88000D01*
X45779Y160193D02*
X46780Y161193D01*
X47780D01*
X46780Y162193D01*
X47780Y163193D01*
X46780D01*
X45779Y164193D01*
X44780Y163193D01*
X43780D01*
X44780Y162193D01*
X43780Y161193D01*
X44780D01*
X45779Y160193D01*
X32000Y178500D02*
X30000Y182500D01*
X34000D01*
X32000Y178500D01*
X55622D02*
X53622Y182500D01*
X57622D01*
X55622Y178500D01*
X75500Y169500D02*
Y173500D01*
X79500D01*
Y169500D01*
X75500D01*
Y179500D02*
Y183500D01*
X79500D01*
Y179500D01*
X75500D01*
X165000Y167500D02*
Y171500D01*
X169000D01*
Y167500D01*
X165000D01*
Y177500D02*
Y181500D01*
X169000D01*
Y177500D01*
X165000D01*
X146500Y163500D02*
X147500Y165500D01*
X146500Y167500D01*
X148500Y166500D01*
X150500Y167500D01*
X149500Y165500D01*
X150500Y163500D01*
X148500Y164500D01*
X146500Y163500D01*
X269000Y184500D02*
X270000Y186500D01*
X269000Y188500D01*
X271000Y187500D01*
X273000Y188500D01*
X272000Y186500D01*
X273000Y184500D01*
X271000Y185500D01*
X269000Y184500D01*
X245350Y187000D02*
X246350Y189000D01*
X245350Y191000D01*
X247350Y190000D01*
X249350Y191000D01*
X248350Y189000D01*
X249350Y187000D01*
X247350Y188000D01*
X245350Y187000D01*
X219000Y179500D02*
X220000Y181500D01*
X219000Y183500D01*
X221000Y182500D01*
X223000Y183500D01*
X222000Y181500D01*
X223000Y179500D01*
X221000Y180500D01*
X219000Y179500D01*
X205500Y159500D02*
X206500Y161500D01*
X205500Y163500D01*
X207500Y162500D01*
X209500Y163500D01*
X208500Y161500D01*
X209500Y159500D01*
X207500Y160500D01*
X205500Y159500D01*
X204400Y91500D02*
X205400Y93500D01*
X204400Y95500D01*
X206400Y94500D01*
X208400Y95500D01*
X207400Y93500D01*
X208400Y91500D01*
X206400Y92500D01*
X204400Y91500D01*
X204900Y103000D02*
X205900Y105000D01*
X204900Y107000D01*
X206900Y106000D01*
X208900Y107000D01*
X207900Y105000D01*
X208900Y103000D01*
X206900Y104000D01*
X204900Y103000D01*
X203400Y113000D02*
X204400Y115000D01*
X203400Y117000D01*
X205400Y116000D01*
X207400Y117000D01*
X206400Y115000D01*
X207400Y113000D01*
X205400Y114000D01*
X203400Y113000D01*
X139500Y180000D02*
X140500Y182000D01*
X139500Y184000D01*
X141500Y183000D01*
X143500Y184000D01*
X142500Y182000D01*
X143500Y180000D01*
X141500Y181000D01*
X139500Y180000D01*
X140500Y168000D02*
X141500Y170000D01*
X140500Y172000D01*
X142500Y171000D01*
X144500Y172000D01*
X143500Y170000D01*
X144500Y168000D01*
X142500Y169000D01*
X140500Y168000D01*
X271000Y133500D02*
X272000Y135500D01*
X271000Y137500D01*
X273000Y136500D01*
X275000Y137500D01*
X274000Y135500D01*
X275000Y133500D01*
X273000Y134500D01*
X271000Y133500D01*
X268000Y128000D02*
X269000Y130000D01*
X268000Y132000D01*
X270000Y131000D01*
X272000Y132000D01*
X271000Y130000D01*
X272000Y128000D01*
X270000Y129000D01*
X268000Y128000D01*
X321500Y133000D02*
X322500Y135000D01*
X321500Y137000D01*
X323500Y136000D01*
X325500Y137000D01*
X324500Y135000D01*
X325500Y133000D01*
X323500Y134000D01*
X321500Y133000D01*
X325000Y128000D02*
X326000Y130000D01*
X325000Y132000D01*
X327000Y131000D01*
X329000Y132000D01*
X328000Y130000D01*
X329000Y128000D01*
X327000Y129000D01*
X325000Y128000D01*
X234500Y142000D02*
X235500Y144000D01*
X234500Y146000D01*
X236500Y145000D01*
X238500Y146000D01*
X237500Y144000D01*
X238500Y142000D01*
X236500Y143000D01*
X234500Y142000D01*
X267012Y86512D02*
X268012Y88512D01*
X267012Y90512D01*
X269012Y89512D01*
X271012Y90512D01*
X270012Y88512D01*
X271012Y86512D01*
X269012Y87512D01*
X267012Y86512D01*
X271000Y92000D02*
X272000Y94000D01*
X271000Y96000D01*
X273000Y95000D01*
X275000Y96000D01*
X274000Y94000D01*
X275000Y92000D01*
X273000Y93000D01*
X271000Y92000D01*
X50500Y153500D02*
X51500Y155500D01*
X50500Y157500D01*
X52500Y156500D01*
X54500Y157500D01*
X53500Y155500D01*
X54500Y153500D01*
X52500Y154500D01*
X50500Y153500D01*
X57000Y159000D02*
X58000Y161000D01*
X57000Y163000D01*
X59000Y162000D01*
X61000Y163000D01*
X60000Y161000D01*
X61000Y159000D01*
X59000Y160000D01*
X57000Y159000D01*
X77439Y160500D02*
X78439Y162500D01*
X77439Y164500D01*
X79439Y163500D01*
X81439Y164500D01*
X80439Y162500D01*
X81439Y160500D01*
X79439Y161500D01*
X77439Y160500D01*
X90000Y167500D02*
X91000Y169500D01*
X90000Y171500D01*
X92000Y170500D01*
X94000Y171500D01*
X93000Y169500D01*
X94000Y167500D01*
X92000Y168500D01*
X90000Y167500D01*
X82500Y132200D02*
X83500Y134200D01*
X82500Y136200D01*
X84500Y135200D01*
X86500Y136200D01*
X85500Y134200D01*
X86500Y132200D01*
X84500Y133200D01*
X82500Y132200D01*
X89552Y129448D02*
X90552Y131448D01*
X89552Y133449D01*
X91552Y132448D01*
X93551Y133449D01*
X92551Y131448D01*
X93551Y129448D01*
X91552Y130448D01*
X89552Y129448D01*
X234500Y148000D02*
X235500Y150000D01*
X234500Y152000D01*
X236500Y151000D01*
X238500Y152000D01*
X237500Y150000D01*
X238500Y148000D01*
X236500Y149000D01*
X234500Y148000D01*
X318000Y168000D02*
X319000Y170000D01*
X318000Y172000D01*
X320000Y171000D01*
X322000Y172000D01*
X321000Y170000D01*
X322000Y168000D01*
X320000Y169000D01*
X318000Y168000D01*
X316172Y178528D02*
X317172Y180528D01*
X316172Y182528D01*
X318172Y181528D01*
X320172Y182528D01*
X319172Y180528D01*
X320172Y178528D01*
X318172Y179528D01*
X316172Y178528D01*
X98000Y148000D02*
X99000Y150000D01*
X98000Y152000D01*
X100000Y151000D01*
X102000Y152000D01*
X101000Y150000D01*
X102000Y148000D01*
X100000Y149000D01*
X98000Y148000D01*
Y158000D02*
X99000Y160000D01*
X98000Y162000D01*
X100000Y161000D01*
X102000Y162000D01*
X101000Y160000D01*
X102000Y158000D01*
X100000Y159000D01*
X98000Y158000D01*
D43*
X192000Y40000D02*
G03*
X192000Y40000I-2000J0D01*
G01*
X202000D02*
G03*
X202000Y40000I-2000J0D01*
G01*
X172000D02*
G03*
X172000Y40000I-2000J0D01*
G01*
X182000D02*
G03*
X182000Y40000I-2000J0D01*
G01*
X197000Y20000D02*
G03*
X197000Y20000I-2000J0D01*
G01*
X207000D02*
G03*
X207000Y20000I-2000J0D01*
G01*
X177000D02*
G03*
X177000Y20000I-2000J0D01*
G01*
X187000D02*
G03*
X187000Y20000I-2000J0D01*
G01*
X142000Y40000D02*
G03*
X142000Y40000I-2000J0D01*
G01*
X152000D02*
G03*
X152000Y40000I-2000J0D01*
G01*
X122000D02*
G03*
X122000Y40000I-2000J0D01*
G01*
X132000D02*
G03*
X132000Y40000I-2000J0D01*
G01*
X142000Y20000D02*
G03*
X142000Y20000I-2000J0D01*
G01*
X152000D02*
G03*
X152000Y20000I-2000J0D01*
G01*
X122000D02*
G03*
X122000Y20000I-2000J0D01*
G01*
X132000D02*
G03*
X132000Y20000I-2000J0D01*
G01*
X209500Y153500D02*
G03*
X209500Y153500I-2000J0D01*
G01*
X219500D02*
G03*
X219500Y153500I-2000J0D01*
G01*
X189500D02*
G03*
X189500Y153500I-2000J0D01*
G01*
X199500D02*
G03*
X199500Y153500I-2000J0D01*
G01*
X299500Y76500D02*
G03*
X299500Y76500I-2000J0D01*
G01*
X289500D02*
G03*
X289500Y76500I-2000J0D01*
G01*
X319500D02*
G03*
X319500Y76500I-2000J0D01*
G01*
X309500D02*
G03*
X309500Y76500I-2000J0D01*
G01*
X262000D02*
G03*
X262000Y76500I-2000J0D01*
G01*
X272000D02*
G03*
X272000Y76500I-2000J0D01*
G01*
X242000D02*
G03*
X242000Y76500I-2000J0D01*
G01*
X252000D02*
G03*
X252000Y76500I-2000J0D01*
G01*
X298500Y58000D02*
G03*
X298500Y58000I-2000J0D01*
G01*
X288500D02*
G03*
X288500Y58000I-2000J0D01*
G01*
X318500D02*
G03*
X318500Y58000I-2000J0D01*
G01*
X308500D02*
G03*
X308500Y58000I-2000J0D01*
G01*
X251500Y58500D02*
G03*
X251500Y58500I-2000J0D01*
G01*
X241500D02*
G03*
X241500Y58500I-2000J0D01*
G01*
X271500D02*
G03*
X271500Y58500I-2000J0D01*
G01*
X261500D02*
G03*
X261500Y58500I-2000J0D01*
G01*
X20500Y147500D02*
G03*
X20500Y147500I-2000J0D01*
G01*
X10500D02*
G03*
X10500Y147500I-2000J0D01*
G01*
X40500D02*
G03*
X40500Y147500I-2000J0D01*
G01*
X30500D02*
G03*
X30500Y147500I-2000J0D01*
G01*
X320500Y151500D02*
G03*
X320500Y151500I-2000J0D01*
G01*
X310500D02*
G03*
X310500Y151500I-2000J0D01*
G01*
X340500D02*
G03*
X340500Y151500I-2000J0D01*
G01*
X330500D02*
G03*
X330500Y151500I-2000J0D01*
G01*
M02*
