G04*
G04 #@! TF.GenerationSoftware,Altium Limited,Altium Designer,24.1.2 (44)*
G04*
G04 Layer_Color=16711935*
%FSLAX25Y25*%
%MOIN*%
G70*
G04*
G04 #@! TF.SameCoordinates,6E6146AE-10E2-4EE8-86B2-596FBE868B5F*
G04*
G04*
G04 #@! TF.FilePolarity,Negative*
G04*
G01*
G75*
%ADD25C,0.00000*%
%ADD32C,0.07800*%
%ADD33C,0.07178*%
%ADD34O,0.13792X0.07887*%
%ADD35O,0.08674X0.15761*%
%ADD36C,0.03300*%
D25*
X73390Y80000D02*
G03*
X73390Y80000I-3390J0D01*
G01*
X63390D02*
G03*
X63390Y80000I-3390J0D01*
G01*
X234390Y181500D02*
G03*
X234390Y181500I-3390J0D01*
G01*
Y171500D02*
G03*
X234390Y171500I-3390J0D01*
G01*
X292390Y153000D02*
G03*
X292390Y153000I-3390J0D01*
G01*
Y143000D02*
G03*
X292390Y143000I-3390J0D01*
G01*
X277390Y153500D02*
G03*
X277390Y153500I-3390J0D01*
G01*
Y143500D02*
G03*
X277390Y143500I-3390J0D01*
G01*
X315390Y115000D02*
G03*
X315390Y115000I-3390J0D01*
G01*
X325390D02*
G03*
X325390Y115000I-3390J0D01*
G01*
X302390Y94000D02*
G03*
X302390Y94000I-3390J0D01*
G01*
X312390D02*
G03*
X312390Y94000I-3390J0D01*
G01*
X93390Y70000D02*
G03*
X93390Y70000I-3390J0D01*
G01*
Y80000D02*
G03*
X93390Y80000I-3390J0D01*
G01*
X80890Y171500D02*
G03*
X80890Y171500I-3390J0D01*
G01*
Y181500D02*
G03*
X80890Y181500I-3390J0D01*
G01*
X170390Y169500D02*
G03*
X170390Y169500I-3390J0D01*
G01*
Y179500D02*
G03*
X170390Y179500I-3390J0D01*
G01*
D32*
X190000Y40000D02*
D03*
X200000D02*
D03*
X170000D02*
D03*
X180000D02*
D03*
X195000Y20000D02*
D03*
X205000D02*
D03*
X175000D02*
D03*
X185000D02*
D03*
X140000Y40000D02*
D03*
X150000D02*
D03*
X120000D02*
D03*
X130000D02*
D03*
X140000Y20000D02*
D03*
X150000D02*
D03*
X120000D02*
D03*
X130000D02*
D03*
X207500Y153500D02*
D03*
X217500D02*
D03*
X187500D02*
D03*
X197500D02*
D03*
X297500Y76500D02*
D03*
X287500D02*
D03*
X317500D02*
D03*
X307500D02*
D03*
X260000D02*
D03*
X270000D02*
D03*
X240000D02*
D03*
X250000D02*
D03*
X296500Y58000D02*
D03*
X286500D02*
D03*
X316500D02*
D03*
X306500D02*
D03*
X249500Y58500D02*
D03*
X239500D02*
D03*
X269500D02*
D03*
X259500D02*
D03*
X18500Y147500D02*
D03*
X8500D02*
D03*
X38500D02*
D03*
X28500D02*
D03*
X318500Y151500D02*
D03*
X308500D02*
D03*
X338500D02*
D03*
X328500D02*
D03*
D33*
X70000Y80000D02*
D03*
X60000D02*
D03*
X231000Y181500D02*
D03*
Y171500D02*
D03*
X289000Y153000D02*
D03*
Y143000D02*
D03*
X274000Y153500D02*
D03*
Y143500D02*
D03*
X312000Y115000D02*
D03*
X322000D02*
D03*
X299000Y94000D02*
D03*
X309000D02*
D03*
X90000Y70000D02*
D03*
Y80000D02*
D03*
X77500Y171500D02*
D03*
Y181500D02*
D03*
X167000Y169500D02*
D03*
Y179500D02*
D03*
D34*
X45779Y162193D02*
D03*
D35*
X32000Y180500D02*
D03*
X55622D02*
D03*
D36*
X148500Y165500D02*
D03*
X271000Y186500D02*
D03*
X247350Y189000D02*
D03*
X221000Y181500D02*
D03*
X207500Y161500D02*
D03*
X206400Y93500D02*
D03*
X206900Y105000D02*
D03*
X205400Y115000D02*
D03*
X141500Y182000D02*
D03*
X142500Y170000D02*
D03*
X273000Y135500D02*
D03*
X270000Y130000D02*
D03*
X323500Y135000D02*
D03*
X327000Y130000D02*
D03*
X236500Y144000D02*
D03*
X269012Y88512D02*
D03*
X273000Y94000D02*
D03*
X52500Y155500D02*
D03*
X59000Y161000D02*
D03*
X79439Y162500D02*
D03*
X92000Y169500D02*
D03*
X84500Y134200D02*
D03*
X91552Y131448D02*
D03*
X236500Y150000D02*
D03*
X320000Y170000D02*
D03*
X318172Y180528D02*
D03*
X100000Y150000D02*
D03*
Y160000D02*
D03*
M02*
