G04*
G04 #@! TF.GenerationSoftware,Altium Limited,Altium Designer,24.1.2 (44)*
G04*
G04 Layer_Color=2752767*
%FSLAX25Y25*%
%MOIN*%
G70*
G04*
G04 #@! TF.SameCoordinates,DF6D4255-D543-4343-BE3F-48429236DA3E*
G04*
G04*
G04 #@! TF.FilePolarity,Positive*
G04*
G01*
G75*
%ADD13C,0.00500*%
%ADD37C,0.00667*%
D13*
X45779Y159693D02*
X43780Y163693D01*
X47780D01*
X45779Y159693D01*
X34000Y134000D02*
Y138000D01*
X38000D01*
Y134000D01*
X34000D01*
X44000D02*
Y138000D01*
X48000D01*
Y134000D01*
X44000D01*
X14000D02*
Y138000D01*
X18000D01*
Y134000D01*
X14000D01*
X24000D02*
Y138000D01*
X28000D01*
Y134000D01*
X24000D01*
X168000Y27000D02*
Y31000D01*
X172000D01*
Y27000D01*
X168000D01*
Y17000D02*
Y21000D01*
X172000D01*
Y17000D01*
X168000D01*
Y47000D02*
Y51000D01*
X172000D01*
Y47000D01*
X168000D01*
Y37000D02*
Y41000D01*
X172000D01*
Y37000D01*
X168000D01*
X110000Y124000D02*
X111000Y125000D01*
X112000D01*
X111000Y126000D01*
X112000Y127000D01*
X111000D01*
X110000Y128000D01*
X109000Y127000D01*
X108000D01*
X109000Y126000D01*
X108000Y125000D01*
X109000D01*
X110000Y124000D01*
Y134000D02*
X111000Y135000D01*
X112000D01*
X111000Y136000D01*
X112000Y137000D01*
X111000D01*
X110000Y138000D01*
X109000Y137000D01*
X108000D01*
X109000Y136000D01*
X108000Y135000D01*
X109000D01*
X110000Y134000D01*
X170000Y90000D02*
X171000Y91000D01*
X172000D01*
X171000Y92000D01*
X172000Y93000D01*
X171000D01*
X170000Y94000D01*
X169000Y93000D01*
X168000D01*
X169000Y92000D01*
X168000Y91000D01*
X169000D01*
X170000Y90000D01*
X180000D02*
X181000Y91000D01*
X182000D01*
X181000Y92000D01*
X182000Y93000D01*
X181000D01*
X180000Y94000D01*
X179000Y93000D01*
X178000D01*
X179000Y92000D01*
X178000Y91000D01*
X179000D01*
X180000Y90000D01*
X330000Y23000D02*
Y27000D01*
X334000D01*
Y23000D01*
X330000D01*
Y13000D02*
Y17000D01*
X334000D01*
Y13000D01*
X330000D01*
Y43000D02*
Y47000D01*
X334000D01*
Y43000D01*
X330000D01*
Y33000D02*
Y37000D01*
X334000D01*
Y33000D01*
X330000D01*
X95000Y86000D02*
Y85000D01*
X97000D01*
Y86000D01*
X98000D01*
Y88000D01*
X97000D01*
Y89000D01*
X95000D01*
Y88000D01*
X94000D01*
Y86000D01*
X95000D01*
X99000Y77000D02*
Y76000D01*
X101000D01*
Y77000D01*
X102000D01*
Y79000D01*
X101000D01*
Y80000D01*
X99000D01*
Y79000D01*
X98000D01*
Y77000D01*
X99000D01*
X127000Y46000D02*
Y45000D01*
X129000D01*
Y46000D01*
X130000D01*
Y48000D01*
X129000D01*
Y49000D01*
X127000D01*
Y48000D01*
X126000D01*
Y46000D01*
X127000D01*
Y60000D02*
Y59000D01*
X129000D01*
Y60000D01*
X130000D01*
Y62000D01*
X129000D01*
Y63000D01*
X127000D01*
Y62000D01*
X126000D01*
Y60000D01*
X127000D01*
X179000Y172000D02*
Y171000D01*
X181000D01*
Y172000D01*
X182000D01*
Y174000D01*
X181000D01*
Y175000D01*
X179000D01*
Y174000D01*
X178000D01*
Y172000D01*
X179000D01*
X85000Y156000D02*
Y155000D01*
X87000D01*
Y156000D01*
X88000D01*
Y158000D01*
X87000D01*
Y159000D01*
X85000D01*
Y158000D01*
X84000D01*
Y156000D01*
X85000D01*
X73000Y89000D02*
Y88000D01*
X75000D01*
Y89000D01*
X76000D01*
Y91000D01*
X75000D01*
Y92000D01*
X73000D01*
Y91000D01*
X72000D01*
Y89000D01*
X73000D01*
X305000Y36000D02*
Y35000D01*
X307000D01*
Y36000D01*
X308000D01*
Y38000D01*
X307000D01*
Y39000D01*
X305000D01*
Y38000D01*
X304000D01*
Y36000D01*
X305000D01*
X277000Y37000D02*
Y36000D01*
X279000D01*
Y37000D01*
X280000D01*
Y39000D01*
X279000D01*
Y40000D01*
X277000D01*
Y39000D01*
X276000D01*
Y37000D01*
X277000D01*
X247000D02*
Y36000D01*
X249000D01*
Y37000D01*
X250000D01*
Y39000D01*
X249000D01*
Y40000D01*
X247000D01*
Y39000D01*
X246000D01*
Y37000D01*
X247000D01*
X217000D02*
Y36000D01*
X219000D01*
Y37000D01*
X220000D01*
Y39000D01*
X219000D01*
Y40000D01*
X217000D01*
Y39000D01*
X216000D01*
Y37000D01*
X217000D01*
X148000Y91000D02*
Y90000D01*
X150000D01*
Y91000D01*
X151000D01*
Y93000D01*
X150000D01*
Y94000D01*
X148000D01*
Y93000D01*
X147000D01*
Y91000D01*
X148000D01*
X46000Y20000D02*
Y19000D01*
X48000D01*
Y20000D01*
X49000D01*
Y22000D01*
X48000D01*
Y23000D01*
X46000D01*
Y22000D01*
X45000D01*
Y20000D01*
X46000D01*
D37*
X34000Y180000D02*
G03*
X34000Y180000I-2000J0D01*
G01*
X57622D02*
G03*
X57622Y180000I-2000J0D01*
G01*
M02*
