G04*
G04 #@! TF.GenerationSoftware,Altium Limited,Altium Designer,24.1.2 (44)*
G04*
G04 Layer_Color=8421504*
%FSLAX25Y25*%
%MOIN*%
G70*
G04*
G04 #@! TF.SameCoordinates,DF6D4255-D543-4343-BE3F-48429236DA3E*
G04*
G04*
G04 #@! TF.FilePolarity,Positive*
G04*
G01*
G75*
%ADD19R,0.13386X0.02362*%
%ADD20R,0.07100X0.04400*%
%ADD21R,0.04400X0.07100*%
D19*
X87370Y89500D02*
D03*
Y84500D02*
D03*
Y79500D02*
D03*
Y74500D02*
D03*
X108630D02*
D03*
Y79500D02*
D03*
Y84500D02*
D03*
Y89500D02*
D03*
D20*
X86000Y166000D02*
D03*
Y177800D02*
D03*
X48000Y107800D02*
D03*
Y96000D02*
D03*
Y74850D02*
D03*
Y63050D02*
D03*
X305000Y81100D02*
D03*
Y92900D02*
D03*
X277000Y82000D02*
D03*
Y93800D02*
D03*
X247000Y82100D02*
D03*
Y93900D02*
D03*
X218000Y82100D02*
D03*
Y93900D02*
D03*
X248000Y59900D02*
D03*
Y48100D02*
D03*
X306000Y59900D02*
D03*
Y48100D02*
D03*
X218000Y59900D02*
D03*
Y48100D02*
D03*
X278000Y59900D02*
D03*
Y48100D02*
D03*
X47162Y30100D02*
D03*
Y41900D02*
D03*
D21*
X126900Y175000D02*
D03*
X115100D02*
D03*
X152100Y173000D02*
D03*
X163900D02*
D03*
X130100Y92000D02*
D03*
X141900D02*
D03*
M02*
