G04*
G04 #@! TF.GenerationSoftware,Altium Limited,Altium Designer,24.1.2 (44)*
G04*
G04 Layer_Color=2752767*
%FSLAX44Y44*%
%MOMM*%
G71*
G04*
G04 #@! TF.SameCoordinates,A56E43B2-B914-4F06-BF03-FB78D576DE16*
G04*
G04*
G04 #@! TF.FilePolarity,Positive*
G04*
G01*
G75*
%ADD18C,0.1270*%
%ADD59C,0.1693*%
D18*
X14921Y814440D02*
Y811900D01*
X20001D01*
Y814440D01*
X22541D01*
Y819520D01*
X20001D01*
Y822060D01*
X14921D01*
Y819520D01*
X12382D01*
Y814440D01*
X14921D01*
X62421D02*
Y811900D01*
X67502D01*
Y814440D01*
X70041D01*
Y819520D01*
X67502D01*
Y822060D01*
X62421D01*
Y819520D01*
X59882D01*
Y814440D01*
X62421D01*
Y740040D02*
Y737500D01*
X67502D01*
Y740040D01*
X70041D01*
Y745120D01*
X67502D01*
Y747660D01*
X62421D01*
Y745120D01*
X59882D01*
Y740040D01*
X62421D01*
X68899Y758501D02*
X71438D01*
X73979Y761041D01*
X76519Y758501D01*
X79058D01*
Y761041D01*
X76519Y763581D01*
X79058Y766121D01*
Y768661D01*
X76519D01*
X73979Y766121D01*
X71438Y768661D01*
X68899D01*
Y766121D01*
X71438Y763581D01*
X68899Y761041D01*
Y758501D01*
Y774501D02*
X71438D01*
X73979Y777041D01*
X76519Y774501D01*
X79058D01*
Y777041D01*
X76519Y779581D01*
X79058Y782121D01*
Y784661D01*
X76519D01*
X73979Y782121D01*
X71438Y784661D01*
X68899D01*
Y782121D01*
X71438Y779581D01*
X68899Y777041D01*
Y774501D01*
X56862Y766502D02*
X59401D01*
X61941Y769042D01*
X64482Y766502D01*
X67021D01*
Y769042D01*
X64482Y771582D01*
X67021Y774122D01*
Y776662D01*
X64482D01*
X61941Y774122D01*
X59401Y776662D01*
X56862D01*
Y774122D01*
X59401Y771582D01*
X56862Y769042D01*
Y766502D01*
Y782502D02*
X59401D01*
X61941Y785042D01*
X64482Y782502D01*
X67021D01*
Y785042D01*
X64482Y787582D01*
X67021Y790122D01*
Y792662D01*
X64482D01*
X61941Y790122D01*
X59401Y792662D01*
X56862D01*
Y790122D01*
X59401Y787582D01*
X56862Y785042D01*
Y782502D01*
X68899Y790500D02*
X71438D01*
X73979Y793040D01*
X76519Y790500D01*
X79058D01*
Y793040D01*
X76519Y795580D01*
X79058Y798120D01*
Y800660D01*
X76519D01*
X73979Y798120D01*
X71438Y800660D01*
X68899D01*
Y798120D01*
X71438Y795580D01*
X68899Y793040D01*
Y790500D01*
X14921Y740040D02*
Y737500D01*
X20001D01*
Y740040D01*
X22541D01*
Y745120D01*
X20001D01*
Y747660D01*
X14921D01*
Y745120D01*
X12382D01*
Y740040D01*
X14921D01*
X60960Y510540D02*
Y520700D01*
X71120D01*
Y510540D01*
X60960D01*
X35560D02*
Y520700D01*
X45720D01*
Y510540D01*
X35560D01*
X111760D02*
Y520700D01*
X121920D01*
Y510540D01*
X111760D01*
X86360D02*
Y520700D01*
X96520D01*
Y510540D01*
X86360D01*
X307340Y462280D02*
Y472440D01*
X317500D01*
Y462280D01*
X307340D01*
Y487680D02*
Y497840D01*
X317500D01*
Y487680D01*
X307340D01*
Y411480D02*
Y421640D01*
X317500D01*
Y411480D01*
X307340D01*
Y436880D02*
Y447040D01*
X317500D01*
Y436880D01*
X307340D01*
X347980Y302260D02*
X350520Y307340D01*
X347980Y312420D01*
X353060Y309880D01*
X358140Y312420D01*
X355600Y307340D01*
X358140Y302260D01*
X353060Y304800D01*
X347980Y302260D01*
Y276860D02*
X350520Y281940D01*
X347980Y287020D01*
X353060Y284480D01*
X358140Y287020D01*
X355600Y281940D01*
X358140Y276860D01*
X353060Y279400D01*
X347980Y276860D01*
X259080Y213360D02*
X261620Y215900D01*
X264160D01*
X261620Y218440D01*
X264160Y220980D01*
X261620D01*
X259080Y223520D01*
X256540Y220980D01*
X254000D01*
X256540Y218440D01*
X254000Y215900D01*
X256540D01*
X259080Y213360D01*
Y238760D02*
X261620Y241300D01*
X264160D01*
X261620Y243840D01*
X264160Y246380D01*
X261620D01*
X259080Y248920D01*
X256540Y246380D01*
X254000D01*
X256540Y243840D01*
X254000Y241300D01*
X256540D01*
X259080Y238760D01*
Y264160D02*
X261620Y266700D01*
X264160D01*
X261620Y269240D01*
X264160Y271780D01*
X261620D01*
X259080Y274320D01*
X256540Y271780D01*
X254000D01*
X256540Y269240D01*
X254000Y266700D01*
X256540D01*
X259080Y264160D01*
X304800Y116840D02*
Y127000D01*
X314960D01*
Y116840D01*
X304800D01*
Y91440D02*
Y101600D01*
X314960D01*
Y91440D01*
X304800D01*
Y167640D02*
Y177800D01*
X314960D01*
Y167640D01*
X304800D01*
Y142240D02*
Y152400D01*
X314960D01*
Y142240D01*
X304800D01*
X736600Y734060D02*
X739140Y736600D01*
X741680D01*
X739140Y739140D01*
X741680Y741680D01*
X739140D01*
X736600Y744220D01*
X734060Y741680D01*
X731520D01*
X734060Y739140D01*
X731520Y736600D01*
X734060D01*
X736600Y734060D01*
X762000D02*
X764540Y736600D01*
X767080D01*
X764540Y739140D01*
X767080Y741680D01*
X764540D01*
X762000Y744220D01*
X759460Y741680D01*
X756920D01*
X759460Y739140D01*
X756920Y736600D01*
X759460D01*
X762000Y734060D01*
X787400D02*
X789940Y736600D01*
X792480D01*
X789940Y739140D01*
X792480Y741680D01*
X789940D01*
X787400Y744220D01*
X784860Y741680D01*
X782320D01*
X784860Y739140D01*
X782320Y736600D01*
X784860D01*
X787400Y734060D01*
X812800D02*
X815340Y736600D01*
X817880D01*
X815340Y739140D01*
X817880Y741680D01*
X815340D01*
X812800Y744220D01*
X810260Y741680D01*
X807720D01*
X810260Y739140D01*
X807720Y736600D01*
X810260D01*
X812800Y734060D01*
X838200D02*
X840740Y736600D01*
X843280D01*
X840740Y739140D01*
X843280Y741680D01*
X840740D01*
X838200Y744220D01*
X835660Y741680D01*
X833120D01*
X835660Y739140D01*
X833120Y736600D01*
X835660D01*
X838200Y734060D01*
X863600D02*
X866140Y736600D01*
X868680D01*
X866140Y739140D01*
X868680Y741680D01*
X866140D01*
X863600Y744220D01*
X861060Y741680D01*
X858520D01*
X861060Y739140D01*
X858520Y736600D01*
X861060D01*
X863600Y734060D01*
X889000D02*
X891540Y736600D01*
X894080D01*
X891540Y739140D01*
X894080Y741680D01*
X891540D01*
X889000Y744220D01*
X886460Y741680D01*
X883920D01*
X886460Y739140D01*
X883920Y736600D01*
X886460D01*
X889000Y734060D01*
X914400D02*
X916940Y736600D01*
X919480D01*
X916940Y739140D01*
X919480Y741680D01*
X916940D01*
X914400Y744220D01*
X911860Y741680D01*
X909320D01*
X911860Y739140D01*
X909320Y736600D01*
X911860D01*
X914400Y734060D01*
X48260Y645160D02*
Y655320D01*
X58420D01*
Y645160D01*
X48260D01*
Y619760D02*
Y629920D01*
X58420D01*
Y619760D01*
X48260D01*
Y695960D02*
Y706120D01*
X58420D01*
Y695960D01*
X48260D01*
Y670560D02*
Y680720D01*
X58420D01*
Y670560D01*
X48260D01*
X695960Y734060D02*
X698500Y736600D01*
X701040D01*
X698500Y739140D01*
X701040Y741680D01*
X698500D01*
X695960Y744220D01*
X693420Y741680D01*
X690880D01*
X693420Y739140D01*
X690880Y736600D01*
X693420D01*
X695960Y734060D01*
X670560D02*
X673100Y736600D01*
X675640D01*
X673100Y739140D01*
X675640Y741680D01*
X673100D01*
X670560Y744220D01*
X668020Y741680D01*
X665480D01*
X668020Y739140D01*
X665480Y736600D01*
X668020D01*
X670560Y734060D01*
X645160D02*
X647700Y736600D01*
X650240D01*
X647700Y739140D01*
X650240Y741680D01*
X647700D01*
X645160Y744220D01*
X642620Y741680D01*
X640080D01*
X642620Y739140D01*
X640080Y736600D01*
X642620D01*
X645160Y734060D01*
X619760D02*
X622300Y736600D01*
X624840D01*
X622300Y739140D01*
X624840Y741680D01*
X622300D01*
X619760Y744220D01*
X617220Y741680D01*
X614680D01*
X617220Y739140D01*
X614680Y736600D01*
X617220D01*
X619760Y734060D01*
X594360D02*
X596900Y736600D01*
X599440D01*
X596900Y739140D01*
X599440Y741680D01*
X596900D01*
X594360Y744220D01*
X591820Y741680D01*
X589280D01*
X591820Y739140D01*
X589280Y736600D01*
X591820D01*
X594360Y734060D01*
X568960D02*
X571500Y736600D01*
X574040D01*
X571500Y739140D01*
X574040Y741680D01*
X571500D01*
X568960Y744220D01*
X566420Y741680D01*
X563880D01*
X566420Y739140D01*
X563880Y736600D01*
X566420D01*
X568960Y734060D01*
X543560D02*
X546100Y736600D01*
X548640D01*
X546100Y739140D01*
X548640Y741680D01*
X546100D01*
X543560Y744220D01*
X541020Y741680D01*
X538480D01*
X541020Y739140D01*
X538480Y736600D01*
X541020D01*
X543560Y734060D01*
X518160D02*
X520700Y736600D01*
X523240D01*
X520700Y739140D01*
X523240Y741680D01*
X520700D01*
X518160Y744220D01*
X515620Y741680D01*
X513080D01*
X515620Y739140D01*
X513080Y736600D01*
X515620D01*
X518160Y734060D01*
X492760D02*
X495300Y736600D01*
X497840D01*
X495300Y739140D01*
X497840Y741680D01*
X495300D01*
X492760Y744220D01*
X490220Y741680D01*
X487680D01*
X490220Y739140D01*
X487680Y736600D01*
X490220D01*
X492760Y734060D01*
X467360D02*
X469900Y736600D01*
X472440D01*
X469900Y739140D01*
X472440Y741680D01*
X469900D01*
X467360Y744220D01*
X464820Y741680D01*
X462280D01*
X464820Y739140D01*
X462280Y736600D01*
X464820D01*
X467360Y734060D01*
X736600Y251460D02*
X739140Y254000D01*
X741680D01*
X739140Y256540D01*
X741680Y259080D01*
X739140D01*
X736600Y261620D01*
X734060Y259080D01*
X731520D01*
X734060Y256540D01*
X731520Y254000D01*
X734060D01*
X736600Y251460D01*
X711200D02*
X713740Y254000D01*
X716280D01*
X713740Y256540D01*
X716280Y259080D01*
X713740D01*
X711200Y261620D01*
X708660Y259080D01*
X706120D01*
X708660Y256540D01*
X706120Y254000D01*
X708660D01*
X711200Y251460D01*
X685800D02*
X688340Y254000D01*
X690880D01*
X688340Y256540D01*
X690880Y259080D01*
X688340D01*
X685800Y261620D01*
X683260Y259080D01*
X680720D01*
X683260Y256540D01*
X680720Y254000D01*
X683260D01*
X685800Y251460D01*
X660400D02*
X662940Y254000D01*
X665480D01*
X662940Y256540D01*
X665480Y259080D01*
X662940D01*
X660400Y261620D01*
X657860Y259080D01*
X655320D01*
X657860Y256540D01*
X655320Y254000D01*
X657860D01*
X660400Y251460D01*
X635000D02*
X637540Y254000D01*
X640080D01*
X637540Y256540D01*
X640080Y259080D01*
X637540D01*
X635000Y261620D01*
X632460Y259080D01*
X629920D01*
X632460Y256540D01*
X629920Y254000D01*
X632460D01*
X635000Y251460D01*
X609600D02*
X612140Y254000D01*
X614680D01*
X612140Y256540D01*
X614680Y259080D01*
X612140D01*
X609600Y261620D01*
X607060Y259080D01*
X604520D01*
X607060Y256540D01*
X604520Y254000D01*
X607060D01*
X609600Y251460D01*
X584200D02*
X586740Y254000D01*
X589280D01*
X586740Y256540D01*
X589280Y259080D01*
X586740D01*
X584200Y261620D01*
X581660Y259080D01*
X579120D01*
X581660Y256540D01*
X579120Y254000D01*
X581660D01*
X584200Y251460D01*
X558800D02*
X561340Y254000D01*
X563880D01*
X561340Y256540D01*
X563880Y259080D01*
X561340D01*
X558800Y261620D01*
X556260Y259080D01*
X553720D01*
X556260Y256540D01*
X553720Y254000D01*
X556260D01*
X558800Y251460D01*
X914400D02*
X916940Y254000D01*
X919480D01*
X916940Y256540D01*
X919480Y259080D01*
X916940D01*
X914400Y261620D01*
X911860Y259080D01*
X909320D01*
X911860Y256540D01*
X909320Y254000D01*
X911860D01*
X914400Y251460D01*
X889000D02*
X891540Y254000D01*
X894080D01*
X891540Y256540D01*
X894080Y259080D01*
X891540D01*
X889000Y261620D01*
X886460Y259080D01*
X883920D01*
X886460Y256540D01*
X883920Y254000D01*
X886460D01*
X889000Y251460D01*
X863600D02*
X866140Y254000D01*
X868680D01*
X866140Y256540D01*
X868680Y259080D01*
X866140D01*
X863600Y261620D01*
X861060Y259080D01*
X858520D01*
X861060Y256540D01*
X858520Y254000D01*
X861060D01*
X863600Y251460D01*
X838200D02*
X840740Y254000D01*
X843280D01*
X840740Y256540D01*
X843280Y259080D01*
X840740D01*
X838200Y261620D01*
X835660Y259080D01*
X833120D01*
X835660Y256540D01*
X833120Y254000D01*
X835660D01*
X838200Y251460D01*
X812800D02*
X815340Y254000D01*
X817880D01*
X815340Y256540D01*
X817880Y259080D01*
X815340D01*
X812800Y261620D01*
X810260Y259080D01*
X807720D01*
X810260Y256540D01*
X807720Y254000D01*
X810260D01*
X812800Y251460D01*
X787400D02*
X789940Y254000D01*
X792480D01*
X789940Y256540D01*
X792480Y259080D01*
X789940D01*
X787400Y261620D01*
X784860Y259080D01*
X782320D01*
X784860Y256540D01*
X782320Y254000D01*
X784860D01*
X787400Y251460D01*
X127400Y169400D02*
X122320Y179560D01*
X132480D01*
X127400Y169400D01*
X160020Y429260D02*
Y439420D01*
X170180D01*
Y429260D01*
X160020D01*
Y454660D02*
Y464820D01*
X170180D01*
Y454660D01*
X160020D01*
Y378460D02*
Y388620D01*
X170180D01*
Y378460D01*
X160020D01*
Y403860D02*
Y414020D01*
X170180D01*
Y403860D01*
X160020D01*
X904240Y408940D02*
Y419100D01*
X914400D01*
Y408940D01*
X904240D01*
Y434340D02*
Y444500D01*
X914400D01*
Y434340D01*
X904240D01*
Y358140D02*
Y368300D01*
X914400D01*
Y358140D01*
X904240D01*
Y383540D02*
Y393700D01*
X914400D01*
Y383540D01*
X904240D01*
X177800Y817880D02*
Y828040D01*
X187960D01*
Y817880D01*
X177800D01*
X203200D02*
Y828040D01*
X213360D01*
Y817880D01*
X203200D01*
X127000D02*
Y828040D01*
X137160D01*
Y817880D01*
X127000D01*
X152400D02*
Y828040D01*
X162560D01*
Y817880D01*
X152400D01*
X693801Y508000D02*
X698881Y513080D01*
X703961Y508000D01*
X698881Y502920D01*
X693801Y508000D01*
X676783Y505603D02*
X681863Y510683D01*
X686943Y505603D01*
X681863Y500523D01*
X676783Y505603D01*
X683260Y526675D02*
X688340Y531755D01*
X693420Y526675D01*
X688340Y521595D01*
X683260Y526675D01*
X689737Y562225D02*
X694817Y567305D01*
X699897Y562225D01*
X694817Y557145D01*
X689737Y562225D01*
X708787Y554605D02*
X713867Y559685D01*
X718947Y554605D01*
X713867Y549525D01*
X708787Y554605D01*
X703954Y614807D02*
X709034Y619887D01*
X714114Y614807D01*
X709034Y609727D01*
X703954Y614807D01*
X636000Y646700D02*
X641080Y651780D01*
X646160Y646700D01*
X641080Y641620D01*
X636000Y646700D01*
X708950Y526773D02*
X714030Y531853D01*
X719110Y526773D01*
X714030Y521693D01*
X708950Y526773D01*
X676910Y617855D02*
X681990Y622935D01*
X687070Y617855D01*
X681990Y612775D01*
X676910Y617855D01*
X627984Y495904D02*
X633064Y500984D01*
X638144Y495904D01*
X633064Y490824D01*
X627984Y495904D01*
X614680Y485140D02*
X619760Y490220D01*
X624840Y485140D01*
X619760Y480060D01*
X614680Y485140D01*
X500380Y541274D02*
X505460Y546354D01*
X510540Y541274D01*
X505460Y536194D01*
X500380Y541274D01*
X618998Y503586D02*
X624078Y508666D01*
X629158Y503586D01*
X624078Y498506D01*
X618998Y503586D01*
X497840Y520700D02*
X502920Y525780D01*
X508000Y520700D01*
X502920Y515620D01*
X497840Y520700D01*
X480304Y500136D02*
X485384Y505216D01*
X490464Y500136D01*
X485384Y495056D01*
X480304Y500136D01*
X469900Y513080D02*
X474980Y518160D01*
X480060Y513080D01*
X474980Y508000D01*
X469900Y513080D01*
X505714Y574040D02*
X510794Y579120D01*
X515874Y574040D01*
X510794Y568960D01*
X505714Y574040D01*
X469900Y617220D02*
X474980Y622300D01*
X480060Y617220D01*
X474980Y612140D01*
X469900Y617220D01*
Y632460D02*
X474980Y637540D01*
X480060Y632460D01*
X474980Y627380D01*
X469900Y632460D01*
X579120Y778764D02*
X584200Y783844D01*
X589280Y778764D01*
X584200Y773684D01*
X579120Y778764D01*
X578358Y753618D02*
X583438Y758698D01*
X588518Y753618D01*
X583438Y748538D01*
X578358Y753618D01*
X609600Y718820D02*
X614680Y723900D01*
X619760Y718820D01*
X614680Y713740D01*
X609600Y718820D01*
X591820D02*
X596900Y723900D01*
X601980Y718820D01*
X596900Y713740D01*
X591820Y718820D01*
X601980Y502920D02*
X607060Y508000D01*
X612140Y502920D01*
X607060Y497840D01*
X601980Y502920D01*
X534670Y574040D02*
X539750Y579120D01*
X544830Y574040D01*
X539750Y568960D01*
X534670Y574040D01*
X518160D02*
X523240Y579120D01*
X528320Y574040D01*
X523240Y568960D01*
X518160Y574040D01*
X492760D02*
X497840Y579120D01*
X502920Y574040D01*
X497840Y568960D01*
X492760Y574040D01*
X500380Y612628D02*
X505460Y617708D01*
X510540Y612628D01*
X505460Y607548D01*
X500380Y612628D01*
X485140Y614680D02*
X490220Y619760D01*
X495300Y614680D01*
X490220Y609600D01*
X485140Y614680D01*
Y629920D02*
X490220Y635000D01*
X495300Y629920D01*
X490220Y624840D01*
X485140Y629920D01*
X497840Y629646D02*
X502920Y634726D01*
X508000Y629646D01*
X502920Y624566D01*
X497840Y629646D01*
X580908Y593217D02*
X585988Y598297D01*
X591068Y593217D01*
X585988Y588137D01*
X580908Y593217D01*
X543560Y622300D02*
X548640Y627380D01*
X553720Y622300D01*
X548640Y617220D01*
X543560Y622300D01*
Y601345D02*
X548640Y606425D01*
X553720Y601345D01*
X548640Y596265D01*
X543560Y601345D01*
X645160Y596494D02*
X650240Y601574D01*
X655320Y596494D01*
X650240Y591414D01*
X645160Y596494D01*
X622300Y596646D02*
X627380Y601726D01*
X632460Y596646D01*
X627380Y591566D01*
X622300Y596646D01*
X604520Y597281D02*
X609600Y602361D01*
X614680Y597281D01*
X609600Y592201D01*
X604520Y597281D01*
X594360D02*
X599440Y602361D01*
X604520Y597281D01*
X599440Y592201D01*
X594360Y597281D01*
X568960D02*
X574040Y602361D01*
X579120Y597281D01*
X574040Y592201D01*
X568960Y597281D01*
X581660Y617855D02*
X586740Y622935D01*
X591820Y617855D01*
X586740Y612775D01*
X581660Y617855D01*
X604520Y756158D02*
X609600Y761238D01*
X614680Y756158D01*
X609600Y751078D01*
X604520Y756158D01*
X620122Y652780D02*
X625202Y657860D01*
X630282Y652780D01*
X625202Y647700D01*
X620122Y652780D01*
X596866Y653016D02*
X601946Y658096D01*
X607026Y653016D01*
X601946Y647936D01*
X596866Y653016D01*
X579120Y683260D02*
X584200Y688340D01*
X589280Y683260D01*
X584200Y678180D01*
X579120Y683260D01*
X571500Y618490D02*
X576580Y623570D01*
X581660Y618490D01*
X576580Y613410D01*
X571500Y618490D01*
X558650Y622327D02*
X563730Y627407D01*
X568810Y622327D01*
X563730Y617247D01*
X558650Y622327D01*
X462280Y754380D02*
X467360Y759460D01*
X472440Y754380D01*
X467360Y749300D01*
X462280Y754380D01*
Y779780D02*
X467360Y784860D01*
X472440Y779780D01*
X467360Y774700D01*
X462280Y779780D01*
X604520Y777240D02*
X609600Y782320D01*
X614680Y777240D01*
X609600Y772160D01*
X604520Y777240D01*
X916940Y274320D02*
X922020Y279400D01*
X927100Y274320D01*
X922020Y269240D01*
X916940Y274320D01*
X868680Y230886D02*
X873760Y235966D01*
X878840Y230886D01*
X873760Y225806D01*
X868680Y230886D01*
Y243840D02*
X873760Y248920D01*
X878840Y243840D01*
X873760Y238760D01*
X868680Y243840D01*
X927370Y282210D02*
X932450Y287290D01*
X937530Y282210D01*
X932450Y277130D01*
X927370Y282210D01*
X400050Y624840D02*
X405130Y629920D01*
X410210Y624840D01*
X405130Y619760D01*
X400050Y624840D01*
X416560Y627380D02*
X421640Y632460D01*
X426720Y627380D01*
X421640Y622300D01*
X416560Y627380D01*
X487680Y756920D02*
X492760Y762000D01*
X497840Y756920D01*
X492760Y751840D01*
X487680Y756920D01*
Y779780D02*
X492760Y784860D01*
X497840Y779780D01*
X492760Y774700D01*
X487680Y779780D01*
X813468Y652112D02*
X818548Y657192D01*
X823628Y652112D01*
X818548Y647032D01*
X813468Y652112D01*
X789940Y675640D02*
X795020Y680720D01*
X800100Y675640D01*
X795020Y670560D01*
X789940Y675640D01*
X335459Y736421D02*
X340539Y741501D01*
X345619Y736421D01*
X340539Y731341D01*
X335459Y736421D01*
X762000Y721360D02*
X767080Y726440D01*
X772160Y721360D01*
X767080Y716280D01*
X762000Y721360D01*
X741680D02*
X746760Y726440D01*
X751840Y721360D01*
X746760Y716280D01*
X741680Y721360D01*
X256540Y299720D02*
X261620Y304800D01*
X266700Y299720D01*
X261620Y294640D01*
X256540Y299720D01*
X271780Y284480D02*
X276860Y289560D01*
X281940Y284480D01*
X276860Y279400D01*
X271780Y284480D01*
X296195Y308461D02*
X301275Y313541D01*
X306355Y308461D01*
X301275Y303381D01*
X296195Y308461D01*
X307340Y294640D02*
X312420Y299720D01*
X317500Y294640D01*
X312420Y289560D01*
X307340Y294640D01*
X594360Y621919D02*
X599440Y626999D01*
X604520Y621919D01*
X599440Y616839D01*
X594360Y621919D01*
X603758D02*
X608838Y626999D01*
X613918Y621919D01*
X608838Y616839D01*
X603758Y621919D01*
X645160Y637540D02*
X650240Y642620D01*
X655320Y637540D01*
X650240Y632460D01*
X645160Y637540D01*
Y622300D02*
X650240Y627380D01*
X655320Y622300D01*
X650240Y617220D01*
X645160Y622300D01*
X467360Y306070D02*
X472440Y311150D01*
X477520Y306070D01*
X472440Y300990D01*
X467360Y306070D01*
Y289560D02*
X472440Y294640D01*
X477520Y289560D01*
X472440Y284480D01*
X467360Y289560D01*
X452120Y277495D02*
X457200Y282575D01*
X462280Y277495D01*
X457200Y272415D01*
X452120Y277495D01*
X449580Y260985D02*
X454660Y266065D01*
X459740Y260985D01*
X454660Y255905D01*
X449580Y260985D01*
X109220Y50800D02*
X114300Y55880D01*
X119380Y50800D01*
X114300Y45720D01*
X109220Y50800D01*
X190500Y58420D02*
X195580Y63500D01*
X200660Y58420D01*
X195580Y53340D01*
X190500Y58420D01*
X501406Y235194D02*
X506486Y240274D01*
X511566Y235194D01*
X506486Y230114D01*
X501406Y235194D01*
X513080Y223520D02*
X518160Y228600D01*
X523240Y223520D01*
X518160Y218440D01*
X513080Y223520D01*
X695960Y429260D02*
X701040Y434340D01*
X706120Y429260D01*
X701040Y424180D01*
X695960Y429260D01*
X770557Y626443D02*
X775637Y631523D01*
X780717Y626443D01*
X775637Y621363D01*
X770557Y626443D01*
X515620Y627380D02*
X520700Y632460D01*
X525780Y627380D01*
X520700Y622300D01*
X515620Y627380D01*
X708660Y650240D02*
X713740Y655320D01*
X718820Y650240D01*
X713740Y645160D01*
X708660Y650240D01*
X622300Y680720D02*
X627380Y685800D01*
X632460Y680720D01*
X627380Y675640D01*
X622300Y680720D01*
Y617220D02*
X627380Y622300D01*
X632460Y617220D01*
X627380Y612140D01*
X622300Y617220D01*
X508000Y406400D02*
X513080Y411480D01*
X518160Y406400D01*
X513080Y401320D01*
X508000Y406400D01*
X744117Y617323D02*
X749196Y622403D01*
X754277Y617323D01*
X749196Y612243D01*
X744117Y617323D01*
X752006Y606894D02*
X757086Y611974D01*
X762166Y606894D01*
X757086Y601814D01*
X752006Y606894D01*
X760063Y616617D02*
X765144Y621697D01*
X770223Y616617D01*
X765144Y611536D01*
X760063Y616617D01*
X749300Y629920D02*
X754380Y635000D01*
X759460Y629920D01*
X754380Y624840D01*
X749300Y629920D01*
X754380Y640080D02*
X759460Y645160D01*
X764540Y640080D01*
X759460Y635000D01*
X754380Y640080D01*
X241300Y589534D02*
X246380Y594614D01*
X251460Y589534D01*
X246380Y584454D01*
X241300Y589534D01*
Y576580D02*
X246380Y581660D01*
X251460Y576580D01*
X246380Y571500D01*
X241300Y576580D01*
X276860Y731520D02*
X281940Y736600D01*
X287020Y731520D01*
X281940Y726440D01*
X276860Y731520D01*
X243840Y469900D02*
X248920Y474980D01*
X254000Y469900D01*
X248920Y464820D01*
X243840Y469900D01*
X30480Y304800D02*
X35560Y309880D01*
X40640Y304800D01*
X35560Y299720D01*
X30480Y304800D01*
X25400Y350520D02*
X30480Y355600D01*
X35560Y350520D01*
X30480Y345440D01*
X25400Y350520D01*
Y383540D02*
X30480Y388620D01*
X35560Y383540D01*
X30480Y378460D01*
X25400Y383540D01*
D59*
X157480Y220980D02*
G03*
X157480Y220980I-5080J0D01*
G01*
X97480D02*
G03*
X97480Y220980I-5080J0D01*
G01*
M02*
