G04*
G04 #@! TF.GenerationSoftware,Altium Limited,Altium Designer,24.1.2 (44)*
G04*
G04 Layer_Color=128*
%FSLAX44Y44*%
%MOMM*%
G71*
G04*
G04 #@! TF.SameCoordinates,A56E43B2-B914-4F06-BF03-FB78D576DE16*
G04*
G04*
G04 #@! TF.FilePolarity,Positive*
G04*
G01*
G75*
%ADD18C,0.1270*%
D18*
X13462Y816980D02*
X21462D01*
X17462Y812980D02*
Y820980D01*
X60961Y816980D02*
X68962D01*
X64962Y812980D02*
Y820980D01*
X60961Y742580D02*
X68962D01*
X64962Y738580D02*
Y746580D01*
X69978Y763581D02*
X77979D01*
X73979Y759581D02*
Y767581D01*
X69978Y779581D02*
X77979D01*
X73979Y775581D02*
Y783581D01*
X57941Y771582D02*
X65941D01*
X61941Y767582D02*
Y775582D01*
X57941Y787582D02*
X65941D01*
X61941Y783582D02*
Y791582D01*
X69978Y795580D02*
X77979D01*
X73979Y791580D02*
Y799580D01*
X13462Y742580D02*
X21462D01*
X17462Y738580D02*
Y746580D01*
X60960Y515620D02*
X71120D01*
X66040Y510540D02*
Y520700D01*
X35560Y515620D02*
X45720D01*
X40640Y510540D02*
Y520700D01*
X111760Y515620D02*
X121920D01*
X116840Y510540D02*
Y520700D01*
X86360Y515620D02*
X96520D01*
X91440Y510540D02*
Y520700D01*
X307340Y467360D02*
X317500D01*
X312420Y462280D02*
Y472440D01*
X307340Y492760D02*
X317500D01*
X312420Y487680D02*
Y497840D01*
X307340Y416560D02*
X317500D01*
X312420Y411480D02*
Y421640D01*
X307340Y441960D02*
X317500D01*
X312420Y436880D02*
Y447040D01*
X347960Y307340D02*
X358160D01*
X353060Y302240D02*
Y312440D01*
X347960Y281940D02*
X358160D01*
X353060Y276840D02*
Y287040D01*
X253580Y218440D02*
X264580D01*
X259080Y212940D02*
Y223940D01*
X253580Y243840D02*
X264580D01*
X259080Y238340D02*
Y249340D01*
X253580Y269240D02*
X264580D01*
X259080Y263740D02*
Y274740D01*
X304800Y121920D02*
X314960D01*
X309880Y116840D02*
Y127000D01*
X304800Y96520D02*
X314960D01*
X309880Y91440D02*
Y101600D01*
X304800Y172720D02*
X314960D01*
X309880Y167640D02*
Y177800D01*
X304800Y147320D02*
X314960D01*
X309880Y142240D02*
Y152400D01*
X731100Y739140D02*
X742100D01*
X736600Y733640D02*
Y744640D01*
X756500Y739140D02*
X767500D01*
X762000Y733640D02*
Y744640D01*
X781900Y739140D02*
X792900D01*
X787400Y733640D02*
Y744640D01*
X807300Y739140D02*
X818300D01*
X812800Y733640D02*
Y744640D01*
X832700Y739140D02*
X843700D01*
X838200Y733640D02*
Y744640D01*
X858100Y739140D02*
X869100D01*
X863600Y733640D02*
Y744640D01*
X883500Y739140D02*
X894500D01*
X889000Y733640D02*
Y744640D01*
X908900Y739140D02*
X919900D01*
X914400Y733640D02*
Y744640D01*
X48260Y650240D02*
X58420D01*
X53340Y645160D02*
Y655320D01*
X48260Y624840D02*
X58420D01*
X53340Y619760D02*
Y629920D01*
X48260Y701040D02*
X58420D01*
X53340Y695960D02*
Y706120D01*
X48260Y675640D02*
X58420D01*
X53340Y670560D02*
Y680720D01*
X690460Y739140D02*
X701460D01*
X695960Y733640D02*
Y744640D01*
X665060Y739140D02*
X676060D01*
X670560Y733640D02*
Y744640D01*
X639660Y739140D02*
X650660D01*
X645160Y733640D02*
Y744640D01*
X614260Y739140D02*
X625260D01*
X619760Y733640D02*
Y744640D01*
X588860Y739140D02*
X599860D01*
X594360Y733640D02*
Y744640D01*
X563460Y739140D02*
X574460D01*
X568960Y733640D02*
Y744640D01*
X538060Y739140D02*
X549060D01*
X543560Y733640D02*
Y744640D01*
X512660Y739140D02*
X523660D01*
X518160Y733640D02*
Y744640D01*
X487260Y739140D02*
X498260D01*
X492760Y733640D02*
Y744640D01*
X461860Y739140D02*
X472860D01*
X467360Y733640D02*
Y744640D01*
X731100Y256540D02*
X742100D01*
X736600Y251040D02*
Y262040D01*
X705700Y256540D02*
X716700D01*
X711200Y251040D02*
Y262040D01*
X680300Y256540D02*
X691300D01*
X685800Y251040D02*
Y262040D01*
X654900Y256540D02*
X665900D01*
X660400Y251040D02*
Y262040D01*
X629500Y256540D02*
X640500D01*
X635000Y251040D02*
Y262040D01*
X604100Y256540D02*
X615100D01*
X609600Y251040D02*
Y262040D01*
X578700Y256540D02*
X589700D01*
X584200Y251040D02*
Y262040D01*
X553300Y256540D02*
X564300D01*
X558800Y251040D02*
Y262040D01*
X908900Y256540D02*
X919900D01*
X914400Y251040D02*
Y262040D01*
X883500Y256540D02*
X894500D01*
X889000Y251040D02*
Y262040D01*
X858100Y256540D02*
X869100D01*
X863600Y251040D02*
Y262040D01*
X832700Y256540D02*
X843700D01*
X838200Y251040D02*
Y262040D01*
X807300Y256540D02*
X818300D01*
X812800Y251040D02*
Y262040D01*
X781900Y256540D02*
X792900D01*
X787400Y251040D02*
Y262040D01*
X146400Y220980D02*
X158400D01*
X152400Y214980D02*
Y226980D01*
X86400Y220980D02*
X98400D01*
X92400Y214980D02*
Y226980D01*
X122400Y174480D02*
X132400D01*
X127400Y169480D02*
Y179480D01*
X160020Y434340D02*
X170180D01*
X165100Y429260D02*
Y439420D01*
X160020Y459740D02*
X170180D01*
X165100Y454660D02*
Y464820D01*
X160020Y383540D02*
X170180D01*
X165100Y378460D02*
Y388620D01*
X160020Y408940D02*
X170180D01*
X165100Y403860D02*
Y414020D01*
X904240D02*
X914400D01*
X909320Y408940D02*
Y419100D01*
X904240Y439420D02*
X914400D01*
X909320Y434340D02*
Y444500D01*
X904240Y363220D02*
X914400D01*
X909320Y358140D02*
Y368300D01*
X904240Y388620D02*
X914400D01*
X909320Y383540D02*
Y393700D01*
X177800Y822960D02*
X187960D01*
X182880Y817880D02*
Y828040D01*
X203200Y822960D02*
X213360D01*
X208280Y817880D02*
Y828040D01*
X127000Y822960D02*
X137160D01*
X132080Y817880D02*
Y828040D01*
X152400Y822960D02*
X162560D01*
X157480Y817880D02*
Y828040D01*
X697230Y508000D02*
X700532D01*
X698881Y506349D02*
Y509651D01*
X680212Y505603D02*
X683514D01*
X681863Y503952D02*
Y507254D01*
X686689Y526675D02*
X689991D01*
X688340Y525024D02*
Y528326D01*
X693166Y562225D02*
X696468D01*
X694817Y560574D02*
Y563876D01*
X712216Y554605D02*
X715518D01*
X713867Y552954D02*
Y556256D01*
X707383Y614807D02*
X710685D01*
X709034Y613156D02*
Y616458D01*
X639429Y646700D02*
X642731D01*
X641080Y645049D02*
Y648351D01*
X712379Y526773D02*
X715681D01*
X714030Y525122D02*
Y528424D01*
X680339Y617855D02*
X683641D01*
X681990Y616204D02*
Y619506D01*
X631413Y495904D02*
X634715D01*
X633064Y494253D02*
Y497555D01*
X618109Y485140D02*
X621411D01*
X619760Y483489D02*
Y486791D01*
X503809Y541274D02*
X507111D01*
X505460Y539623D02*
Y542925D01*
X622427Y503586D02*
X625729D01*
X624078Y501935D02*
Y505237D01*
X501269Y520700D02*
X504571D01*
X502920Y519049D02*
Y522351D01*
X483733Y500136D02*
X487035D01*
X485384Y498485D02*
Y501787D01*
X473329Y513080D02*
X476631D01*
X474980Y511429D02*
Y514731D01*
X509143Y574040D02*
X512445D01*
X510794Y572389D02*
Y575691D01*
X473329Y617220D02*
X476631D01*
X474980Y615569D02*
Y618871D01*
X473329Y632460D02*
X476631D01*
X474980Y630809D02*
Y634111D01*
X582549Y778764D02*
X585851D01*
X584200Y777113D02*
Y780415D01*
X581787Y753618D02*
X585089D01*
X583438Y751967D02*
Y755269D01*
X613029Y718820D02*
X616331D01*
X614680Y717169D02*
Y720471D01*
X595249Y718820D02*
X598551D01*
X596900Y717169D02*
Y720471D01*
X605409Y502920D02*
X608711D01*
X607060Y501269D02*
Y504571D01*
X538099Y574040D02*
X541401D01*
X539750Y572389D02*
Y575691D01*
X521589Y574040D02*
X524891D01*
X523240Y572389D02*
Y575691D01*
X496189Y574040D02*
X499491D01*
X497840Y572389D02*
Y575691D01*
X503809Y612628D02*
X507111D01*
X505460Y610977D02*
Y614279D01*
X488569Y614680D02*
X491871D01*
X490220Y613029D02*
Y616331D01*
X488569Y629920D02*
X491871D01*
X490220Y628269D02*
Y631571D01*
X501269Y629646D02*
X504571D01*
X502920Y627995D02*
Y631297D01*
X584337Y593217D02*
X587639D01*
X585988Y591566D02*
Y594868D01*
X546989Y622300D02*
X550291D01*
X548640Y620649D02*
Y623951D01*
X546989Y601345D02*
X550291D01*
X548640Y599694D02*
Y602996D01*
X648589Y596494D02*
X651891D01*
X650240Y594843D02*
Y598145D01*
X625729Y596646D02*
X629031D01*
X627380Y594995D02*
Y598297D01*
X607949Y597281D02*
X611251D01*
X609600Y595630D02*
Y598932D01*
X597789Y597281D02*
X601091D01*
X599440Y595630D02*
Y598932D01*
X572389Y597281D02*
X575691D01*
X574040Y595630D02*
Y598932D01*
X585089Y617855D02*
X588391D01*
X586740Y616204D02*
Y619506D01*
X607949Y756158D02*
X611251D01*
X609600Y754507D02*
Y757809D01*
X623551Y652780D02*
X626853D01*
X625202Y651129D02*
Y654431D01*
X600295Y653016D02*
X603597D01*
X601946Y651365D02*
Y654667D01*
X582549Y683260D02*
X585851D01*
X584200Y681609D02*
Y684911D01*
X574929Y618490D02*
X578231D01*
X576580Y616839D02*
Y620141D01*
X562079Y622327D02*
X565381D01*
X563730Y620676D02*
Y623978D01*
X465709Y754380D02*
X469011D01*
X467360Y752729D02*
Y756031D01*
X465709Y779780D02*
X469011D01*
X467360Y778129D02*
Y781431D01*
X607949Y777240D02*
X611251D01*
X609600Y775589D02*
Y778891D01*
X920369Y274320D02*
X923671D01*
X922020Y272669D02*
Y275971D01*
X872109Y230886D02*
X875411D01*
X873760Y229235D02*
Y232537D01*
X872109Y243840D02*
X875411D01*
X873760Y242189D02*
Y245491D01*
X930799Y282210D02*
X934101D01*
X932450Y280559D02*
Y283861D01*
X403479Y624840D02*
X406781D01*
X405130Y623189D02*
Y626491D01*
X419989Y627380D02*
X423291D01*
X421640Y625729D02*
Y629031D01*
X491109Y756920D02*
X494411D01*
X492760Y755269D02*
Y758571D01*
X491109Y779780D02*
X494411D01*
X492760Y778129D02*
Y781431D01*
X816897Y652112D02*
X820199D01*
X818548Y650461D02*
Y653763D01*
X793369Y675640D02*
X796671D01*
X795020Y673989D02*
Y677291D01*
X338888Y736421D02*
X342190D01*
X340539Y734770D02*
Y738072D01*
X765429Y721360D02*
X768731D01*
X767080Y719709D02*
Y723011D01*
X745109Y721360D02*
X748411D01*
X746760Y719709D02*
Y723011D01*
X259969Y299720D02*
X263271D01*
X261620Y298069D02*
Y301371D01*
X275209Y284480D02*
X278511D01*
X276860Y282829D02*
Y286131D01*
X299624Y308461D02*
X302926D01*
X301275Y306810D02*
Y310112D01*
X310769Y294640D02*
X314071D01*
X312420Y292989D02*
Y296291D01*
X597789Y621919D02*
X601091D01*
X599440Y620268D02*
Y623570D01*
X607187Y621919D02*
X610489D01*
X608838Y620268D02*
Y623570D01*
X648589Y637540D02*
X651891D01*
X650240Y635889D02*
Y639191D01*
X648589Y622300D02*
X651891D01*
X650240Y620649D02*
Y623951D01*
X470789Y306070D02*
X474091D01*
X472440Y304419D02*
Y307721D01*
X470789Y289560D02*
X474091D01*
X472440Y287909D02*
Y291211D01*
X455549Y277495D02*
X458851D01*
X457200Y275844D02*
Y279146D01*
X453009Y260985D02*
X456311D01*
X454660Y259334D02*
Y262636D01*
X112649Y50800D02*
X115951D01*
X114300Y49149D02*
Y52451D01*
X193929Y58420D02*
X197231D01*
X195580Y56769D02*
Y60071D01*
X504835Y235194D02*
X508137D01*
X506486Y233543D02*
Y236845D01*
X516509Y223520D02*
X519811D01*
X518160Y221869D02*
Y225171D01*
X699389Y429260D02*
X702691D01*
X701040Y427609D02*
Y430911D01*
X773986Y626443D02*
X777288D01*
X775637Y624792D02*
Y628094D01*
X519049Y627380D02*
X522351D01*
X520700Y625729D02*
Y629031D01*
X712089Y650240D02*
X715391D01*
X713740Y648589D02*
Y651891D01*
X625729Y680720D02*
X629031D01*
X627380Y679069D02*
Y682371D01*
X625729Y617220D02*
X629031D01*
X627380Y615569D02*
Y618871D01*
X511429Y406400D02*
X514731D01*
X513080Y404749D02*
Y408051D01*
X747545Y617323D02*
X750847D01*
X749196Y615672D02*
Y618974D01*
X755435Y606894D02*
X758737D01*
X757086Y605243D02*
Y608545D01*
X763493Y616617D02*
X766795D01*
X765144Y614966D02*
Y618268D01*
X752729Y629920D02*
X756031D01*
X754380Y628269D02*
Y631571D01*
X757809Y640080D02*
X761111D01*
X759460Y638429D02*
Y641731D01*
X244729Y589534D02*
X248031D01*
X246380Y587883D02*
Y591185D01*
X244729Y576580D02*
X248031D01*
X246380Y574929D02*
Y578231D01*
X280289Y731520D02*
X283591D01*
X281940Y729869D02*
Y733171D01*
X247269Y469900D02*
X250571D01*
X248920Y468249D02*
Y471551D01*
X33909Y304800D02*
X37211D01*
X35560Y303149D02*
Y306451D01*
X28829Y350520D02*
X32131D01*
X30480Y348869D02*
Y352171D01*
X28829Y383540D02*
X32131D01*
X30480Y381889D02*
Y385191D01*
M02*
