G04*
G04 #@! TF.GenerationSoftware,Altium Limited,Altium Designer,24.1.2 (44)*
G04*
G04 Layer_Color=255*
%FSLAX44Y44*%
%MOMM*%
G71*
G04*
G04 #@! TF.SameCoordinates,A56E43B2-B914-4F06-BF03-FB78D576DE16*
G04*
G04*
G04 #@! TF.FilePolarity,Positive*
G04*
G01*
G75*
%ADD19R,1.1176X1.8034*%
%ADD20R,1.8034X1.1176*%
%ADD21R,1.4000X1.8000*%
%ADD22O,2.2000X0.6096*%
%ADD23R,1.5000X1.2000*%
%ADD24R,1.8542X1.3716*%
%ADD25R,0.5080X1.6500*%
%ADD26R,1.6500X0.5080*%
%ADD27R,0.8382X1.7000*%
%ADD28R,3.0988X1.7000*%
%ADD29R,1.8000X1.4000*%
%ADD50O,2.4000X1.2000*%
%ADD51C,1.2000*%
%ADD52C,1.7780*%
%ADD53C,1.6200*%
%ADD54C,1.6500*%
%ADD55C,1.5240*%
%ADD56O,2.0000X3.8000*%
%ADD57O,3.3000X1.8000*%
D19*
X665734Y650240D02*
D03*
X695706D02*
D03*
X559054Y698500D02*
D03*
X589026D02*
D03*
X294386Y538480D02*
D03*
X264414D02*
D03*
X51054Y304800D02*
D03*
X81026D02*
D03*
X454660Y307340D02*
D03*
X424688D02*
D03*
X223266Y116840D02*
D03*
X193294D02*
D03*
X127254Y50800D02*
D03*
X157226D02*
D03*
X558546Y406400D02*
D03*
X528574D02*
D03*
X675640Y317500D02*
D03*
X705612D02*
D03*
X277114Y774700D02*
D03*
X307086D02*
D03*
X914654Y518160D02*
D03*
X944626D02*
D03*
X226314Y629920D02*
D03*
X256286D02*
D03*
X225806Y76200D02*
D03*
X195834D02*
D03*
X45974Y350520D02*
D03*
X75946D02*
D03*
X373126Y754380D02*
D03*
X343154D02*
D03*
D20*
X627380Y667512D02*
D03*
Y637540D02*
D03*
X523240Y640334D02*
D03*
Y670306D02*
D03*
X226060Y395986D02*
D03*
Y366014D02*
D03*
X947420Y449834D02*
D03*
Y479806D02*
D03*
X226060Y571754D02*
D03*
Y601726D02*
D03*
X883920Y586486D02*
D03*
Y556514D02*
D03*
X855980Y406654D02*
D03*
Y436626D02*
D03*
X236220Y774446D02*
D03*
Y744474D02*
D03*
X175260Y672592D02*
D03*
Y642620D02*
D03*
X208280Y670814D02*
D03*
Y700786D02*
D03*
X228600Y469646D02*
D03*
Y439674D02*
D03*
X124460Y335026D02*
D03*
Y305054D02*
D03*
D21*
X563840Y639580D02*
D03*
X583240Y665980D02*
D03*
Y639580D02*
D03*
X563840Y665980D02*
D03*
D22*
X287782Y715010D02*
D03*
Y702310D02*
D03*
Y689610D02*
D03*
Y676910D02*
D03*
Y664210D02*
D03*
Y651510D02*
D03*
Y638810D02*
D03*
Y626110D02*
D03*
X347218D02*
D03*
Y638810D02*
D03*
Y651510D02*
D03*
Y664210D02*
D03*
Y676910D02*
D03*
Y689610D02*
D03*
Y702310D02*
D03*
Y715010D02*
D03*
D23*
X63520Y131840D02*
D03*
X129520Y101840D02*
D03*
Y131840D02*
D03*
X63520Y101840D02*
D03*
D24*
X528320Y522859D02*
D03*
Y554101D02*
D03*
D25*
X726440Y540640D02*
D03*
X718566D02*
D03*
X710438D02*
D03*
X702564D02*
D03*
X694436D02*
D03*
X686562D02*
D03*
X678434D02*
D03*
X670560D02*
D03*
Y455040D02*
D03*
X678434D02*
D03*
X686562D02*
D03*
X694436D02*
D03*
X702564D02*
D03*
X710438D02*
D03*
X718566D02*
D03*
X726440D02*
D03*
D26*
X655700Y526270D02*
D03*
Y518396D02*
D03*
Y510268D02*
D03*
Y502394D02*
D03*
Y494266D02*
D03*
Y486392D02*
D03*
Y478264D02*
D03*
Y470390D02*
D03*
X741300D02*
D03*
Y478264D02*
D03*
Y486392D02*
D03*
Y494266D02*
D03*
Y502394D02*
D03*
Y510268D02*
D03*
Y518396D02*
D03*
Y526270D02*
D03*
D27*
X91694Y381560D02*
D03*
X68580Y384060D02*
D03*
X45466D02*
D03*
D28*
X68580Y449060D02*
D03*
D29*
X263660Y589320D02*
D03*
X290060Y569920D02*
D03*
X263660D02*
D03*
X290060Y589320D02*
D03*
D50*
X17462Y816980D02*
D03*
X64962D02*
D03*
Y742580D02*
D03*
X17462D02*
D03*
D51*
X73979Y763581D02*
D03*
Y779581D02*
D03*
X61941Y771582D02*
D03*
Y787582D02*
D03*
X73979Y795580D02*
D03*
D52*
X66040Y515620D02*
D03*
X40640D02*
D03*
X116840D02*
D03*
X91440D02*
D03*
X312420Y467360D02*
D03*
Y492760D02*
D03*
Y416560D02*
D03*
Y441960D02*
D03*
X309880Y121920D02*
D03*
Y96520D02*
D03*
Y172720D02*
D03*
Y147320D02*
D03*
X53340Y650240D02*
D03*
Y624840D02*
D03*
Y701040D02*
D03*
Y675640D02*
D03*
X165100Y434340D02*
D03*
Y459740D02*
D03*
Y383540D02*
D03*
Y408940D02*
D03*
X909320Y414020D02*
D03*
Y439420D02*
D03*
Y363220D02*
D03*
Y388620D02*
D03*
X182880Y822960D02*
D03*
X208280D02*
D03*
X132080D02*
D03*
X157480D02*
D03*
D53*
X353060Y307340D02*
D03*
Y281940D02*
D03*
D54*
X259080Y218440D02*
D03*
Y243840D02*
D03*
Y269240D02*
D03*
D55*
X736600Y739140D02*
D03*
X762000D02*
D03*
X787400D02*
D03*
X812800D02*
D03*
X838200D02*
D03*
X863600D02*
D03*
X889000D02*
D03*
X914400D02*
D03*
X695960D02*
D03*
X670560D02*
D03*
X645160D02*
D03*
X619760D02*
D03*
X594360D02*
D03*
X568960D02*
D03*
X543560D02*
D03*
X518160D02*
D03*
X492760D02*
D03*
X467360D02*
D03*
X736600Y256540D02*
D03*
X711200D02*
D03*
X685800D02*
D03*
X660400D02*
D03*
X635000D02*
D03*
X609600D02*
D03*
X584200D02*
D03*
X558800D02*
D03*
X914400D02*
D03*
X889000D02*
D03*
X863600D02*
D03*
X838200D02*
D03*
X812800D02*
D03*
X787400D02*
D03*
D56*
X152400Y220980D02*
D03*
X92400D02*
D03*
D57*
X127400Y174480D02*
D03*
M02*
