G04*
G04 #@! TF.GenerationSoftware,Altium Limited,Altium Designer,24.1.2 (44)*
G04*
G04 Layer_Color=8388736*
%FSLAX44Y44*%
%MOMM*%
G71*
G04*
G04 #@! TF.SameCoordinates,A56E43B2-B914-4F06-BF03-FB78D576DE16*
G04*
G04*
G04 #@! TF.FilePolarity,Negative*
G04*
G01*
G75*
%ADD24R,1.8542X1.3716*%
%ADD30C,0.0000*%
%ADD31R,1.3208X2.0066*%
%ADD32R,2.0066X1.3208*%
%ADD33R,1.6032X2.0032*%
%ADD34O,2.4032X0.8128*%
%ADD35R,1.7032X1.4032*%
%ADD36R,0.5588X1.7008*%
%ADD37R,1.7008X0.5588*%
%ADD38R,1.0414X1.9032*%
%ADD39R,3.3020X1.9032*%
%ADD40R,2.0032X1.6032*%
%ADD41O,2.6032X1.4032*%
%ADD42C,1.4032*%
%ADD43C,1.9812*%
%ADD44C,1.8232*%
%ADD45C,1.8532*%
%ADD46C,1.7272*%
%ADD47O,2.2032X4.0032*%
%ADD48O,3.5032X2.0032*%
%ADD49C,0.8382*%
D24*
X528320Y522859D02*
D03*
Y554101D02*
D03*
D30*
X361671Y307340D02*
G03*
X361671Y307340I-8611J0D01*
G01*
Y281940D02*
G03*
X361671Y281940I-8611J0D01*
G01*
D31*
X665734Y650240D02*
D03*
X695706D02*
D03*
X559054Y698500D02*
D03*
X589026D02*
D03*
X294386Y538480D02*
D03*
X264414D02*
D03*
X51054Y304800D02*
D03*
X81026D02*
D03*
X454660Y307340D02*
D03*
X424688D02*
D03*
X223266Y116840D02*
D03*
X193294D02*
D03*
X127254Y50800D02*
D03*
X157226D02*
D03*
X558546Y406400D02*
D03*
X528574D02*
D03*
X675640Y317500D02*
D03*
X705612D02*
D03*
X277114Y774700D02*
D03*
X307086D02*
D03*
X914654Y518160D02*
D03*
X944626D02*
D03*
X226314Y629920D02*
D03*
X256286D02*
D03*
X225806Y76200D02*
D03*
X195834D02*
D03*
X45974Y350520D02*
D03*
X75946D02*
D03*
X373126Y754380D02*
D03*
X343154D02*
D03*
D32*
X627380Y667512D02*
D03*
Y637540D02*
D03*
X523240Y640334D02*
D03*
Y670306D02*
D03*
X226060Y395986D02*
D03*
Y366014D02*
D03*
X947420Y449834D02*
D03*
Y479806D02*
D03*
X226060Y571754D02*
D03*
Y601726D02*
D03*
X883920Y586486D02*
D03*
Y556514D02*
D03*
X855980Y406654D02*
D03*
Y436626D02*
D03*
X236220Y774446D02*
D03*
Y744474D02*
D03*
X175260Y672592D02*
D03*
Y642620D02*
D03*
X208280Y670814D02*
D03*
Y700786D02*
D03*
X228600Y469646D02*
D03*
Y439674D02*
D03*
X124460Y335026D02*
D03*
Y305054D02*
D03*
D33*
X563840Y639580D02*
D03*
X583240Y665980D02*
D03*
Y639580D02*
D03*
X563840Y665980D02*
D03*
D34*
X287782Y715010D02*
D03*
Y702310D02*
D03*
Y689610D02*
D03*
Y676910D02*
D03*
Y664210D02*
D03*
Y651510D02*
D03*
Y638810D02*
D03*
Y626110D02*
D03*
X347218D02*
D03*
Y638810D02*
D03*
Y651510D02*
D03*
Y664210D02*
D03*
Y676910D02*
D03*
Y689610D02*
D03*
Y702310D02*
D03*
Y715010D02*
D03*
D35*
X63520Y131840D02*
D03*
X129520Y101840D02*
D03*
Y131840D02*
D03*
X63520Y101840D02*
D03*
D36*
X726440Y540640D02*
D03*
X718566D02*
D03*
X710438D02*
D03*
X702564D02*
D03*
X694436D02*
D03*
X686562D02*
D03*
X678434D02*
D03*
X670560D02*
D03*
Y455040D02*
D03*
X678434D02*
D03*
X686562D02*
D03*
X694436D02*
D03*
X702564D02*
D03*
X710438D02*
D03*
X718566D02*
D03*
X726440D02*
D03*
D37*
X655700Y526270D02*
D03*
Y518396D02*
D03*
Y510268D02*
D03*
Y502394D02*
D03*
Y494266D02*
D03*
Y486392D02*
D03*
Y478264D02*
D03*
Y470390D02*
D03*
X741300D02*
D03*
Y478264D02*
D03*
Y486392D02*
D03*
Y494266D02*
D03*
Y502394D02*
D03*
Y510268D02*
D03*
Y518396D02*
D03*
Y526270D02*
D03*
D38*
X91694Y381560D02*
D03*
X68580Y384060D02*
D03*
X45466D02*
D03*
D39*
X68580Y449060D02*
D03*
D40*
X263660Y589320D02*
D03*
X290060Y569920D02*
D03*
X263660D02*
D03*
X290060Y589320D02*
D03*
D41*
X17462Y816980D02*
D03*
X64962D02*
D03*
Y742580D02*
D03*
X17462D02*
D03*
D42*
X73979Y763581D02*
D03*
Y779581D02*
D03*
X61941Y771582D02*
D03*
Y787582D02*
D03*
X73979Y795580D02*
D03*
D43*
X66040Y515620D02*
D03*
X40640D02*
D03*
X116840D02*
D03*
X91440D02*
D03*
X312420Y467360D02*
D03*
Y492760D02*
D03*
Y416560D02*
D03*
Y441960D02*
D03*
X309880Y121920D02*
D03*
Y96520D02*
D03*
Y172720D02*
D03*
Y147320D02*
D03*
X53340Y650240D02*
D03*
Y624840D02*
D03*
Y701040D02*
D03*
Y675640D02*
D03*
X165100Y434340D02*
D03*
Y459740D02*
D03*
Y383540D02*
D03*
Y408940D02*
D03*
X909320Y414020D02*
D03*
Y439420D02*
D03*
Y363220D02*
D03*
Y388620D02*
D03*
X182880Y822960D02*
D03*
X208280D02*
D03*
X132080D02*
D03*
X157480D02*
D03*
D44*
X353060Y307340D02*
D03*
Y281940D02*
D03*
D45*
X259080Y218440D02*
D03*
Y243840D02*
D03*
Y269240D02*
D03*
D46*
X736600Y739140D02*
D03*
X762000D02*
D03*
X787400D02*
D03*
X812800D02*
D03*
X838200D02*
D03*
X863600D02*
D03*
X889000D02*
D03*
X914400D02*
D03*
X695960D02*
D03*
X670560D02*
D03*
X645160D02*
D03*
X619760D02*
D03*
X594360D02*
D03*
X568960D02*
D03*
X543560D02*
D03*
X518160D02*
D03*
X492760D02*
D03*
X467360D02*
D03*
X736600Y256540D02*
D03*
X711200D02*
D03*
X685800D02*
D03*
X660400D02*
D03*
X635000D02*
D03*
X609600D02*
D03*
X584200D02*
D03*
X558800D02*
D03*
X914400D02*
D03*
X889000D02*
D03*
X863600D02*
D03*
X838200D02*
D03*
X812800D02*
D03*
X787400D02*
D03*
D47*
X152400Y220980D02*
D03*
X92400D02*
D03*
D48*
X127400Y174480D02*
D03*
D49*
X698881Y508000D02*
D03*
X681863Y505603D02*
D03*
X688340Y526675D02*
D03*
X694817Y562225D02*
D03*
X713867Y554605D02*
D03*
X709034Y614807D02*
D03*
X641080Y646700D02*
D03*
X714030Y526773D02*
D03*
X681990Y617855D02*
D03*
X633064Y495904D02*
D03*
X619760Y485140D02*
D03*
X505460Y541274D02*
D03*
X624078Y503586D02*
D03*
X502920Y520700D02*
D03*
X485384Y500136D02*
D03*
X474980Y513080D02*
D03*
X510794Y574040D02*
D03*
X474980Y617220D02*
D03*
Y632460D02*
D03*
X584200Y778764D02*
D03*
X583438Y753618D02*
D03*
X614680Y718820D02*
D03*
X596900D02*
D03*
X607060Y502920D02*
D03*
X539750Y574040D02*
D03*
X523240D02*
D03*
X497840D02*
D03*
X505460Y612628D02*
D03*
X490220Y614680D02*
D03*
Y629920D02*
D03*
X502920Y629646D02*
D03*
X585988Y593217D02*
D03*
X548640Y622300D02*
D03*
Y601345D02*
D03*
X650240Y596494D02*
D03*
X627380Y596646D02*
D03*
X609600Y597281D02*
D03*
X599440D02*
D03*
X574040D02*
D03*
X586740Y617855D02*
D03*
X609600Y756158D02*
D03*
X625202Y652780D02*
D03*
X601946Y653016D02*
D03*
X584200Y683260D02*
D03*
X576580Y618490D02*
D03*
X563730Y622327D02*
D03*
X467360Y754380D02*
D03*
Y779780D02*
D03*
X609600Y777240D02*
D03*
X922020Y274320D02*
D03*
X873760Y230886D02*
D03*
Y243840D02*
D03*
X932450Y282210D02*
D03*
X405130Y624840D02*
D03*
X421640Y627380D02*
D03*
X492760Y756920D02*
D03*
Y779780D02*
D03*
X818548Y652112D02*
D03*
X795020Y675640D02*
D03*
X340539Y736421D02*
D03*
X767080Y721360D02*
D03*
X746760D02*
D03*
X261620Y299720D02*
D03*
X276860Y284480D02*
D03*
X301275Y308461D02*
D03*
X312420Y294640D02*
D03*
X599440Y621919D02*
D03*
X608838D02*
D03*
X650240Y637540D02*
D03*
Y622300D02*
D03*
X472440Y306070D02*
D03*
Y289560D02*
D03*
X457200Y277495D02*
D03*
X454660Y260985D02*
D03*
X114300Y50800D02*
D03*
X195580Y58420D02*
D03*
X506486Y235194D02*
D03*
X518160Y223520D02*
D03*
X701040Y429260D02*
D03*
X775637Y626443D02*
D03*
X520700Y627380D02*
D03*
X713740Y650240D02*
D03*
X627380Y680720D02*
D03*
Y617220D02*
D03*
X513080Y406400D02*
D03*
X749196Y617323D02*
D03*
X757086Y606894D02*
D03*
X765144Y616617D02*
D03*
X754380Y629920D02*
D03*
X759460Y640080D02*
D03*
X246380Y589534D02*
D03*
Y576580D02*
D03*
X281940Y731520D02*
D03*
X248920Y469900D02*
D03*
X35560Y304800D02*
D03*
X30480Y350520D02*
D03*
Y383540D02*
D03*
M02*
