M48
;Layer_Color=9474304
;FILE_FORMAT=4:4
METRIC,LZ
;TYPE=PLATED
T01F00S00C0.3302
T02F00S00C0.8000
T05F00S00C1.0160
T06F00S00C1.0201
T07F00S00C1.1000
%
T01
X001143Y000508
X0019558Y0005842
X0087376Y00230886
Y0024384
X0092202Y0027432
X0093245Y0028221
X0070104Y0042926
X00698881Y00508
X00681863Y00505603
X0068834Y00526675
X0071403Y00526773
X00633064Y00495904
X00624078Y00503586
X0060706Y0050292
X0061976Y0048514
X00485384Y00500136
X0047498Y0051308
X0050292Y005207
X0051308Y004064
X0047244Y0030607
Y0028956
X004572Y00277495
X0045466Y00260985
X00506486Y00235194
X0051816Y0022352
X0031242Y0029464
X00301275Y00308461
X0026162Y0029972
X0027686Y0028448
X0024892Y004699
X0003048Y0038354
Y0035052
X0003556Y003048
X0024638Y0057658
Y00589534
X0028194Y0073152
X00340539Y00736421
X0046736Y0075438
Y0077978
X0049276
Y0075692
X0049022Y0062992
X0050292Y00629646
X0050546Y00612628
X0049022Y0061468
X0047498Y0061722
Y0063246
X005207Y0062738
X0052324Y0057404
X00510794
X0049784
X0050546Y00541274
X0042164Y0062738
X0040513Y0062484
X0054864Y006223
X0056373Y00622327
X0057658Y0061849
X0058674Y00617855
X0059944Y00621919
X00608838
X0062738Y0061722
Y00596646
X006096Y00597281
X0059944
X00585988Y00593217
X0057404Y00597281
X0054864Y00601345
X0053975Y0057404
X0065024Y00596494
Y006223
Y0063754
X0064108Y006467
X00625202Y0065278
X00601946Y00653016
X005842Y0068326
X0062738Y0068072
X0061468Y0071882
X005969
X00583438Y00753618
X005842Y00778764
X006096Y0077724
Y00756158
X0074676Y0072136
X0076708
X0079502Y0067564
X00818548Y00652112
X00775637Y00626443
X00765144Y00616617
X00749196Y00617323
X0075438Y0062992
X0075946Y0064008
X00757086Y00606894
X00709034Y00614807
X0068199Y00617855
X0071374Y0065024
X00713867Y00554605
X00694817Y00562225
T02
X00061941Y00771582
Y00787582
X00073979Y0079558
Y00779581
Y00763581
T05
X0030988Y0009652
Y0012192
X0090932Y0036322
Y0038862
Y0041402
Y0043942
X0031242Y0044196
Y0046736
Y0049276
Y0041656
X001651Y0040894
Y0043434
Y0045974
Y0038354
X0030988Y0017272
Y0014732
X0011684Y0051562
X0009144
X0006604
X0004064
X0005334Y0062484
Y0065024
Y0067564
Y0070104
X0013208Y0082296
X0015748
X0018288
X0020828
T06
X0035306Y0028194
Y0030734
T07
X005588Y0025654
X005842
X006096
X00635
X006604
X006858
X007112
X007366
X007874
X008128
X008382
X008636
X00889
X009144
X0025908Y0024384
Y0021844
Y0026924
X0046736Y0073914
X0049276
X0051816
X0054356
X0056896
X0059436
X0061976
X0064516
X0067056
X0069596
X007366
X00762
X007874
X008128
X008382
X008636
X00889
X009144
M30
