G04*
G04 #@! TF.GenerationSoftware,Altium Limited,Altium Designer,24.1.2 (44)*
G04*
G04 Layer_Physical_Order=2*
G04 Layer_Color=16711680*
%FSLAX44Y44*%
%MOMM*%
G71*
G04*
G04 #@! TF.SameCoordinates,A56E43B2-B914-4F06-BF03-FB78D576DE16*
G04*
G04*
G04 #@! TF.FilePolarity,Positive*
G04*
G01*
G75*
%ADD12C,0.5080*%
%ADD14C,0.1524*%
%ADD50O,2.4000X1.2000*%
%ADD51C,1.2000*%
%ADD52C,1.7780*%
%ADD53C,1.6200*%
%ADD54C,1.6500*%
%ADD55C,1.5240*%
%ADD56O,2.0000X3.8000*%
%ADD57O,3.3000X1.8000*%
%ADD58C,0.6350*%
G36*
X985421Y5179D02*
X5179D01*
Y317500D01*
Y735035D01*
X6449Y735662D01*
X7155Y735121D01*
X9232Y734260D01*
X11461Y733967D01*
X16192D01*
Y742580D01*
Y751194D01*
X11461D01*
X9232Y750901D01*
X7155Y750040D01*
X6449Y749499D01*
X5179Y750125D01*
Y809435D01*
X6449Y810061D01*
X7155Y809520D01*
X9232Y808659D01*
X11461Y808366D01*
X16192D01*
Y816980D01*
Y825593D01*
X11461D01*
X9232Y825300D01*
X7155Y824439D01*
X6449Y823898D01*
X5179Y824525D01*
Y985421D01*
X985421D01*
Y5179D01*
D02*
G37*
%LPC*%
G36*
X184385Y834390D02*
X184150D01*
Y824230D01*
X194310D01*
Y824465D01*
X193531Y827372D01*
X192026Y829978D01*
X189898Y832106D01*
X187292Y833611D01*
X184385Y834390D01*
D02*
G37*
G36*
X158985D02*
X158750D01*
Y824230D01*
X168910D01*
Y824465D01*
X168131Y827372D01*
X166626Y829978D01*
X164498Y832106D01*
X161892Y833611D01*
X158985Y834390D01*
D02*
G37*
G36*
X133585D02*
X133350D01*
Y824230D01*
X143510D01*
Y824465D01*
X142731Y827372D01*
X141226Y829978D01*
X139098Y832106D01*
X136492Y833611D01*
X133585Y834390D01*
D02*
G37*
G36*
X181610D02*
X181375D01*
X178468Y833611D01*
X175862Y832106D01*
X173734Y829978D01*
X172229Y827372D01*
X171450Y824465D01*
Y824230D01*
X181610D01*
Y834390D01*
D02*
G37*
G36*
X156210D02*
X155975D01*
X153068Y833611D01*
X150462Y832106D01*
X148334Y829978D01*
X146829Y827372D01*
X146050Y824465D01*
Y824230D01*
X156210D01*
Y834390D01*
D02*
G37*
G36*
X130810D02*
X130575D01*
X127668Y833611D01*
X125062Y832106D01*
X122934Y829978D01*
X121429Y827372D01*
X120650Y824465D01*
Y824230D01*
X130810D01*
Y834390D01*
D02*
G37*
G36*
X70961Y825593D02*
X66231D01*
Y818250D01*
X79408D01*
X79282Y819209D01*
X78421Y821286D01*
X77052Y823070D01*
X75268Y824439D01*
X73191Y825300D01*
X70961Y825593D01*
D02*
G37*
G36*
X23461D02*
X18731D01*
Y818250D01*
X31908D01*
X31782Y819209D01*
X30921Y821286D01*
X29552Y823070D01*
X27768Y824439D01*
X25691Y825300D01*
X23461Y825593D01*
D02*
G37*
G36*
X63692D02*
X58962D01*
X56732Y825300D01*
X54655Y824439D01*
X52871Y823070D01*
X51502Y821286D01*
X50641Y819209D01*
X50515Y818250D01*
X63692D01*
Y825593D01*
D02*
G37*
G36*
X209785Y834390D02*
X206775D01*
X203868Y833611D01*
X201262Y832106D01*
X199134Y829978D01*
X197629Y827372D01*
X196850Y824465D01*
Y821455D01*
X197629Y818548D01*
X199134Y815942D01*
X201262Y813814D01*
X203868Y812309D01*
X206775Y811530D01*
X209785D01*
X212692Y812309D01*
X215298Y813814D01*
X217426Y815942D01*
X218931Y818548D01*
X219710Y821455D01*
Y824465D01*
X218931Y827372D01*
X217426Y829978D01*
X215298Y832106D01*
X212692Y833611D01*
X209785Y834390D01*
D02*
G37*
G36*
X194310Y821690D02*
X184150D01*
Y811530D01*
X184385D01*
X187292Y812309D01*
X189898Y813814D01*
X192026Y815942D01*
X193531Y818548D01*
X194310Y821455D01*
Y821690D01*
D02*
G37*
G36*
X181610D02*
X171450D01*
Y821455D01*
X172229Y818548D01*
X173734Y815942D01*
X175862Y813814D01*
X178468Y812309D01*
X181375Y811530D01*
X181610D01*
Y821690D01*
D02*
G37*
G36*
X168910D02*
X158750D01*
Y811530D01*
X158985D01*
X161892Y812309D01*
X164498Y813814D01*
X166626Y815942D01*
X168131Y818548D01*
X168910Y821455D01*
Y821690D01*
D02*
G37*
G36*
X156210D02*
X146050D01*
Y821455D01*
X146829Y818548D01*
X148334Y815942D01*
X150462Y813814D01*
X153068Y812309D01*
X155975Y811530D01*
X156210D01*
Y821690D01*
D02*
G37*
G36*
X143510D02*
X133350D01*
Y811530D01*
X133585D01*
X136492Y812309D01*
X139098Y813814D01*
X141226Y815942D01*
X142731Y818548D01*
X143510Y821455D01*
Y821690D01*
D02*
G37*
G36*
X130810D02*
X120650D01*
Y821455D01*
X121429Y818548D01*
X122934Y815942D01*
X125062Y813814D01*
X127668Y812309D01*
X130575Y811530D01*
X130810D01*
Y821690D01*
D02*
G37*
G36*
X79408Y815710D02*
X66231D01*
Y808366D01*
X70961D01*
X73191Y808659D01*
X75268Y809520D01*
X77052Y810889D01*
X78421Y812673D01*
X79282Y814750D01*
X79408Y815710D01*
D02*
G37*
G36*
X63692D02*
X50515D01*
X50641Y814750D01*
X51502Y812673D01*
X52871Y810889D01*
X54655Y809520D01*
X56732Y808659D01*
X58962Y808366D01*
X63692D01*
Y815710D01*
D02*
G37*
G36*
X31908D02*
X18731D01*
Y808366D01*
X23461D01*
X25691Y808659D01*
X27768Y809520D01*
X29552Y810889D01*
X30921Y812673D01*
X31782Y814750D01*
X31908Y815710D01*
D02*
G37*
G36*
X75103Y804120D02*
X72854D01*
X70682Y803538D01*
X68735Y802414D01*
X67145Y800824D01*
X66020Y798876D01*
X65438Y796704D01*
X64169Y795826D01*
X63066Y796122D01*
X60817D01*
X58645Y795540D01*
X56698Y794415D01*
X55108Y792825D01*
X53983Y790878D01*
X53401Y788706D01*
Y786457D01*
X53983Y784285D01*
X55108Y782338D01*
X56698Y780748D01*
X57447Y780315D01*
Y778849D01*
X56698Y778416D01*
X55108Y776826D01*
X53983Y774878D01*
X53401Y772707D01*
Y770458D01*
X53983Y768286D01*
X55108Y766339D01*
X56698Y764749D01*
X58645Y763624D01*
X60817Y763042D01*
X63066D01*
X64169Y763338D01*
X65438Y762457D01*
X66020Y760285D01*
X67145Y758337D01*
X68735Y756748D01*
X70682Y755623D01*
X72709Y755080D01*
Y763581D01*
X73979D01*
Y764851D01*
X82479D01*
X81937Y766878D01*
X80812Y768825D01*
X79222Y770415D01*
X78473Y770848D01*
Y772314D01*
X79222Y772747D01*
X80812Y774337D01*
X81937Y776284D01*
X82519Y778456D01*
Y780705D01*
X81937Y782877D01*
X80812Y784824D01*
X79222Y786414D01*
X78473Y786847D01*
Y788314D01*
X79222Y788746D01*
X80812Y790336D01*
X81937Y792284D01*
X82519Y794456D01*
Y796704D01*
X81937Y798876D01*
X80812Y800824D01*
X79222Y802414D01*
X77275Y803538D01*
X75103Y804120D01*
D02*
G37*
G36*
X82479Y762311D02*
X75248D01*
Y755080D01*
X77275Y755623D01*
X79222Y756748D01*
X80812Y758337D01*
X81937Y760285D01*
X82479Y762311D01*
D02*
G37*
G36*
X493897Y785495D02*
X491623D01*
X489523Y784625D01*
X487915Y783017D01*
X487045Y780917D01*
Y778643D01*
X487915Y776543D01*
X489393Y775064D01*
Y761636D01*
X487915Y760157D01*
X487045Y758057D01*
Y755783D01*
X487915Y753683D01*
X489523Y752075D01*
X491623Y751205D01*
X493897D01*
X495997Y752075D01*
X497605Y753683D01*
X498475Y755783D01*
Y758057D01*
X497605Y760157D01*
X496127Y761636D01*
Y775064D01*
X497605Y776543D01*
X498475Y778643D01*
Y780917D01*
X497605Y783017D01*
X495997Y784625D01*
X493897Y785495D01*
D02*
G37*
G36*
X610737Y782955D02*
X608463D01*
X606363Y782085D01*
X604755Y780477D01*
X603885Y778377D01*
Y776103D01*
X604755Y774003D01*
X606233Y772524D01*
Y760873D01*
X604755Y759395D01*
X603885Y757295D01*
Y755021D01*
X604755Y752921D01*
X606363Y751313D01*
X608463Y750443D01*
X610737D01*
X612837Y751313D01*
X614445Y752921D01*
X615315Y755021D01*
Y757295D01*
X614445Y759395D01*
X612967Y760873D01*
Y772524D01*
X614445Y774003D01*
X615315Y776103D01*
Y778377D01*
X614445Y780477D01*
X612837Y782085D01*
X610737Y782955D01*
D02*
G37*
G36*
X585337Y784479D02*
X583063D01*
X580963Y783609D01*
X579355Y782001D01*
X578485Y779901D01*
Y777627D01*
X579355Y775527D01*
X580833Y774048D01*
Y758725D01*
X580201Y758463D01*
X578593Y756855D01*
X577723Y754755D01*
Y752481D01*
X578593Y750381D01*
X580201Y748773D01*
X582301Y747903D01*
X584575D01*
X586675Y748773D01*
X588283Y750381D01*
X589153Y752481D01*
Y754755D01*
X588283Y756855D01*
X587567Y757571D01*
Y774048D01*
X589045Y775527D01*
X589915Y777627D01*
Y779901D01*
X589045Y782001D01*
X587437Y783609D01*
X585337Y784479D01*
D02*
G37*
G36*
X70961Y751194D02*
X66231D01*
Y743850D01*
X79408D01*
X79282Y744810D01*
X78421Y746887D01*
X77052Y748671D01*
X75268Y750040D01*
X73191Y750901D01*
X70961Y751194D01*
D02*
G37*
G36*
X23461D02*
X18731D01*
Y743850D01*
X31908D01*
X31782Y744810D01*
X30921Y746887D01*
X29552Y748671D01*
X27768Y750040D01*
X25691Y750901D01*
X23461Y751194D01*
D02*
G37*
G36*
X63692D02*
X58962D01*
X56732Y750901D01*
X54655Y750040D01*
X52871Y748671D01*
X51502Y746887D01*
X50641Y744810D01*
X50515Y743850D01*
X63692D01*
Y751194D01*
D02*
G37*
G36*
X544898Y749300D02*
X544830D01*
Y740410D01*
X553720D01*
Y740478D01*
X553028Y743062D01*
X551690Y745378D01*
X549798Y747270D01*
X547482Y748608D01*
X544898Y749300D01*
D02*
G37*
G36*
X542290D02*
X542222D01*
X539638Y748608D01*
X537322Y747270D01*
X535430Y745378D01*
X534092Y743062D01*
X533400Y740478D01*
Y740410D01*
X542290D01*
Y749300D01*
D02*
G37*
G36*
X79408Y741310D02*
X66231D01*
Y733967D01*
X70961D01*
X73191Y734260D01*
X75268Y735121D01*
X77052Y736490D01*
X78421Y738274D01*
X79282Y740351D01*
X79408Y741310D01*
D02*
G37*
G36*
X63692D02*
X50515D01*
X50641Y740351D01*
X51502Y738274D01*
X52871Y736490D01*
X54655Y735121D01*
X56732Y734260D01*
X58962Y733967D01*
X63692D01*
Y741310D01*
D02*
G37*
G36*
X31908D02*
X18731D01*
Y733967D01*
X23461D01*
X25691Y734260D01*
X27768Y735121D01*
X29552Y736490D01*
X30921Y738274D01*
X31782Y740351D01*
X31908Y741310D01*
D02*
G37*
G36*
X915738Y749300D02*
X913062D01*
X910478Y748608D01*
X908162Y747270D01*
X906270Y745378D01*
X904932Y743062D01*
X904240Y740478D01*
Y737802D01*
X904932Y735218D01*
X906270Y732902D01*
X908162Y731010D01*
X910478Y729672D01*
X913062Y728980D01*
X915738D01*
X918322Y729672D01*
X920638Y731010D01*
X922530Y732902D01*
X923868Y735218D01*
X924560Y737802D01*
Y740478D01*
X923868Y743062D01*
X922530Y745378D01*
X920638Y747270D01*
X918322Y748608D01*
X915738Y749300D01*
D02*
G37*
G36*
X890338D02*
X887662D01*
X885078Y748608D01*
X882762Y747270D01*
X880870Y745378D01*
X879532Y743062D01*
X878840Y740478D01*
Y737802D01*
X879532Y735218D01*
X880870Y732902D01*
X882762Y731010D01*
X885078Y729672D01*
X887662Y728980D01*
X890338D01*
X892922Y729672D01*
X895238Y731010D01*
X897130Y732902D01*
X898468Y735218D01*
X899160Y737802D01*
Y740478D01*
X898468Y743062D01*
X897130Y745378D01*
X895238Y747270D01*
X892922Y748608D01*
X890338Y749300D01*
D02*
G37*
G36*
X864938D02*
X862262D01*
X859678Y748608D01*
X857362Y747270D01*
X855470Y745378D01*
X854132Y743062D01*
X853440Y740478D01*
Y737802D01*
X854132Y735218D01*
X855470Y732902D01*
X857362Y731010D01*
X859678Y729672D01*
X862262Y728980D01*
X864938D01*
X867522Y729672D01*
X869838Y731010D01*
X871730Y732902D01*
X873068Y735218D01*
X873760Y737802D01*
Y740478D01*
X873068Y743062D01*
X871730Y745378D01*
X869838Y747270D01*
X867522Y748608D01*
X864938Y749300D01*
D02*
G37*
G36*
X839538D02*
X836862D01*
X834278Y748608D01*
X831962Y747270D01*
X830070Y745378D01*
X828732Y743062D01*
X828040Y740478D01*
Y737802D01*
X828732Y735218D01*
X830070Y732902D01*
X831962Y731010D01*
X834278Y729672D01*
X836862Y728980D01*
X839538D01*
X842122Y729672D01*
X844438Y731010D01*
X846330Y732902D01*
X847668Y735218D01*
X848360Y737802D01*
Y740478D01*
X847668Y743062D01*
X846330Y745378D01*
X844438Y747270D01*
X842122Y748608D01*
X839538Y749300D01*
D02*
G37*
G36*
X814138D02*
X811462D01*
X808878Y748608D01*
X806562Y747270D01*
X804670Y745378D01*
X803332Y743062D01*
X802640Y740478D01*
Y737802D01*
X803332Y735218D01*
X804670Y732902D01*
X806562Y731010D01*
X808878Y729672D01*
X811462Y728980D01*
X814138D01*
X816722Y729672D01*
X819038Y731010D01*
X820930Y732902D01*
X822268Y735218D01*
X822960Y737802D01*
Y740478D01*
X822268Y743062D01*
X820930Y745378D01*
X819038Y747270D01*
X816722Y748608D01*
X814138Y749300D01*
D02*
G37*
G36*
X788738D02*
X786062D01*
X783478Y748608D01*
X781162Y747270D01*
X779270Y745378D01*
X777932Y743062D01*
X777240Y740478D01*
Y737802D01*
X777932Y735218D01*
X779270Y732902D01*
X781162Y731010D01*
X783478Y729672D01*
X786062Y728980D01*
X788738D01*
X791322Y729672D01*
X793638Y731010D01*
X795530Y732902D01*
X796868Y735218D01*
X797560Y737802D01*
Y740478D01*
X796868Y743062D01*
X795530Y745378D01*
X793638Y747270D01*
X791322Y748608D01*
X788738Y749300D01*
D02*
G37*
G36*
X763338D02*
X760662D01*
X758078Y748608D01*
X755762Y747270D01*
X753870Y745378D01*
X752532Y743062D01*
X751840Y740478D01*
Y737802D01*
X752532Y735218D01*
X753870Y732902D01*
X755762Y731010D01*
X758078Y729672D01*
X760662Y728980D01*
X763338D01*
X765922Y729672D01*
X768238Y731010D01*
X770130Y732902D01*
X771468Y735218D01*
X772160Y737802D01*
Y740478D01*
X771468Y743062D01*
X770130Y745378D01*
X768238Y747270D01*
X765922Y748608D01*
X763338Y749300D01*
D02*
G37*
G36*
X737938D02*
X735262D01*
X732678Y748608D01*
X730362Y747270D01*
X728470Y745378D01*
X727132Y743062D01*
X726440Y740478D01*
Y737802D01*
X727132Y735218D01*
X728470Y732902D01*
X730362Y731010D01*
X732678Y729672D01*
X735262Y728980D01*
X737938D01*
X740522Y729672D01*
X742838Y731010D01*
X744730Y732902D01*
X746068Y735218D01*
X746760Y737802D01*
Y740478D01*
X746068Y743062D01*
X744730Y745378D01*
X742838Y747270D01*
X740522Y748608D01*
X737938Y749300D01*
D02*
G37*
G36*
X697298D02*
X694622D01*
X692038Y748608D01*
X689722Y747270D01*
X687830Y745378D01*
X686492Y743062D01*
X685800Y740478D01*
Y737802D01*
X686492Y735218D01*
X687830Y732902D01*
X689722Y731010D01*
X692038Y729672D01*
X694622Y728980D01*
X697298D01*
X699882Y729672D01*
X702198Y731010D01*
X704090Y732902D01*
X705428Y735218D01*
X706120Y737802D01*
Y740478D01*
X705428Y743062D01*
X704090Y745378D01*
X702198Y747270D01*
X699882Y748608D01*
X697298Y749300D01*
D02*
G37*
G36*
X671898D02*
X669222D01*
X666638Y748608D01*
X664322Y747270D01*
X662430Y745378D01*
X661092Y743062D01*
X660400Y740478D01*
Y737802D01*
X661092Y735218D01*
X662430Y732902D01*
X664322Y731010D01*
X666638Y729672D01*
X669222Y728980D01*
X671898D01*
X674482Y729672D01*
X676798Y731010D01*
X678690Y732902D01*
X680028Y735218D01*
X680720Y737802D01*
Y740478D01*
X680028Y743062D01*
X678690Y745378D01*
X676798Y747270D01*
X674482Y748608D01*
X671898Y749300D01*
D02*
G37*
G36*
X646498D02*
X643822D01*
X641238Y748608D01*
X638922Y747270D01*
X637030Y745378D01*
X635692Y743062D01*
X635000Y740478D01*
Y737802D01*
X635692Y735218D01*
X637030Y732902D01*
X638922Y731010D01*
X641238Y729672D01*
X643822Y728980D01*
X646498D01*
X649082Y729672D01*
X651398Y731010D01*
X653290Y732902D01*
X654628Y735218D01*
X655320Y737802D01*
Y740478D01*
X654628Y743062D01*
X653290Y745378D01*
X651398Y747270D01*
X649082Y748608D01*
X646498Y749300D01*
D02*
G37*
G36*
X621098D02*
X618422D01*
X615838Y748608D01*
X613522Y747270D01*
X611630Y745378D01*
X610292Y743062D01*
X609600Y740478D01*
Y737802D01*
X610292Y735218D01*
X611630Y732902D01*
X613522Y731010D01*
X615838Y729672D01*
X618422Y728980D01*
X621098D01*
X623682Y729672D01*
X625998Y731010D01*
X627890Y732902D01*
X629228Y735218D01*
X629920Y737802D01*
Y740478D01*
X629228Y743062D01*
X627890Y745378D01*
X625998Y747270D01*
X623682Y748608D01*
X621098Y749300D01*
D02*
G37*
G36*
X595698D02*
X593022D01*
X590438Y748608D01*
X588122Y747270D01*
X586230Y745378D01*
X584892Y743062D01*
X584200Y740478D01*
Y737802D01*
X584892Y735218D01*
X586230Y732902D01*
X588122Y731010D01*
X590438Y729672D01*
X593022Y728980D01*
X595698D01*
X598282Y729672D01*
X600598Y731010D01*
X602490Y732902D01*
X603828Y735218D01*
X604520Y737802D01*
Y740478D01*
X603828Y743062D01*
X602490Y745378D01*
X600598Y747270D01*
X598282Y748608D01*
X595698Y749300D01*
D02*
G37*
G36*
X570298D02*
X567622D01*
X565038Y748608D01*
X562722Y747270D01*
X560830Y745378D01*
X559492Y743062D01*
X558800Y740478D01*
Y737802D01*
X559492Y735218D01*
X560830Y732902D01*
X562722Y731010D01*
X565038Y729672D01*
X567622Y728980D01*
X570298D01*
X572882Y729672D01*
X575198Y731010D01*
X577090Y732902D01*
X578428Y735218D01*
X579120Y737802D01*
Y740478D01*
X578428Y743062D01*
X577090Y745378D01*
X575198Y747270D01*
X572882Y748608D01*
X570298Y749300D01*
D02*
G37*
G36*
X553720Y737870D02*
X544830D01*
Y728980D01*
X544898D01*
X547482Y729672D01*
X549798Y731010D01*
X551690Y732902D01*
X553028Y735218D01*
X553720Y737802D01*
Y737870D01*
D02*
G37*
G36*
X542290D02*
X533400D01*
Y737802D01*
X534092Y735218D01*
X535430Y732902D01*
X537322Y731010D01*
X539638Y729672D01*
X542222Y728980D01*
X542290D01*
Y737870D01*
D02*
G37*
G36*
X519498Y749300D02*
X516822D01*
X514238Y748608D01*
X511922Y747270D01*
X510030Y745378D01*
X508692Y743062D01*
X508000Y740478D01*
Y737802D01*
X508692Y735218D01*
X510030Y732902D01*
X511922Y731010D01*
X514238Y729672D01*
X516822Y728980D01*
X519498D01*
X522082Y729672D01*
X524398Y731010D01*
X526290Y732902D01*
X527628Y735218D01*
X528320Y737802D01*
Y740478D01*
X527628Y743062D01*
X526290Y745378D01*
X524398Y747270D01*
X522082Y748608D01*
X519498Y749300D01*
D02*
G37*
G36*
X494098D02*
X491422D01*
X488838Y748608D01*
X486522Y747270D01*
X484630Y745378D01*
X483292Y743062D01*
X482600Y740478D01*
Y737802D01*
X483292Y735218D01*
X484630Y732902D01*
X486522Y731010D01*
X488838Y729672D01*
X491422Y728980D01*
X494098D01*
X496682Y729672D01*
X498998Y731010D01*
X500890Y732902D01*
X502228Y735218D01*
X502920Y737802D01*
Y740478D01*
X502228Y743062D01*
X500890Y745378D01*
X498998Y747270D01*
X496682Y748608D01*
X494098Y749300D01*
D02*
G37*
G36*
X468497Y785495D02*
X466223D01*
X464123Y784625D01*
X462515Y783017D01*
X461645Y780917D01*
Y778643D01*
X462515Y776543D01*
X463993Y775064D01*
Y759096D01*
X462515Y757617D01*
X461645Y755517D01*
Y753243D01*
X462515Y751143D01*
X463673Y749985D01*
X463455Y748702D01*
X463379Y748573D01*
X461122Y747270D01*
X459230Y745378D01*
X457892Y743062D01*
X457200Y740478D01*
Y737802D01*
X457892Y735218D01*
X459230Y732902D01*
X461122Y731010D01*
X463438Y729672D01*
X466022Y728980D01*
X468698D01*
X471282Y729672D01*
X473598Y731010D01*
X475490Y732902D01*
X476828Y735218D01*
X477520Y737802D01*
Y740478D01*
X476828Y743062D01*
X475490Y745378D01*
X473598Y747270D01*
X471341Y748573D01*
X471265Y748702D01*
X471047Y749985D01*
X472205Y751143D01*
X473075Y753243D01*
Y755517D01*
X472205Y757617D01*
X470727Y759096D01*
Y775064D01*
X472205Y776543D01*
X473075Y778643D01*
Y780917D01*
X472205Y783017D01*
X470597Y784625D01*
X468497Y785495D01*
D02*
G37*
G36*
X768217Y727075D02*
X765943D01*
X763843Y726205D01*
X762365Y724727D01*
X751476D01*
X749997Y726205D01*
X747897Y727075D01*
X745623D01*
X743523Y726205D01*
X741915Y724597D01*
X741045Y722497D01*
Y720223D01*
X741915Y718123D01*
X743523Y716515D01*
X745623Y715645D01*
X747897D01*
X749997Y716515D01*
X751476Y717993D01*
X762365D01*
X763843Y716515D01*
X765943Y715645D01*
X768217D01*
X770317Y716515D01*
X771925Y718123D01*
X772795Y720223D01*
Y722497D01*
X771925Y724597D01*
X770317Y726205D01*
X768217Y727075D01*
D02*
G37*
G36*
X615817Y724535D02*
X613543D01*
X611443Y723665D01*
X609964Y722187D01*
X601615D01*
X600137Y723665D01*
X598037Y724535D01*
X595763D01*
X593663Y723665D01*
X592055Y722057D01*
X591185Y719957D01*
Y717683D01*
X592055Y715583D01*
X593663Y713975D01*
X595763Y713105D01*
X598037D01*
X600137Y713975D01*
X601615Y715453D01*
X609964D01*
X611443Y713975D01*
X613543Y713105D01*
X615817D01*
X617917Y713975D01*
X619525Y715583D01*
X620395Y717683D01*
Y719957D01*
X619525Y722057D01*
X617917Y723665D01*
X615817Y724535D01*
D02*
G37*
G36*
X54845Y712470D02*
X54610D01*
Y702310D01*
X64770D01*
Y702545D01*
X63991Y705452D01*
X62486Y708058D01*
X60358Y710186D01*
X57752Y711691D01*
X54845Y712470D01*
D02*
G37*
G36*
X52070D02*
X51835D01*
X48928Y711691D01*
X46322Y710186D01*
X44194Y708058D01*
X42689Y705452D01*
X41910Y702545D01*
Y702310D01*
X52070D01*
Y712470D01*
D02*
G37*
G36*
X64770Y699770D02*
X54610D01*
Y689610D01*
X54845D01*
X57752Y690389D01*
X60358Y691894D01*
X62486Y694022D01*
X63991Y696628D01*
X64770Y699535D01*
Y699770D01*
D02*
G37*
G36*
X52070D02*
X41910D01*
Y699535D01*
X42689Y696628D01*
X44194Y694022D01*
X46322Y691894D01*
X48928Y690389D01*
X51835Y689610D01*
X52070D01*
Y699770D01*
D02*
G37*
G36*
X54845Y687070D02*
X54610D01*
Y676910D01*
X64770D01*
Y677145D01*
X63991Y680052D01*
X62486Y682658D01*
X60358Y684786D01*
X57752Y686291D01*
X54845Y687070D01*
D02*
G37*
G36*
X52070D02*
X51835D01*
X48928Y686291D01*
X46322Y684786D01*
X44194Y682658D01*
X42689Y680052D01*
X41910Y677145D01*
Y676910D01*
X52070D01*
Y687070D01*
D02*
G37*
G36*
X64770Y674370D02*
X54610D01*
Y664210D01*
X54845D01*
X57752Y664989D01*
X60358Y666494D01*
X62486Y668622D01*
X63991Y671228D01*
X64770Y674135D01*
Y674370D01*
D02*
G37*
G36*
X52070D02*
X41910D01*
Y674135D01*
X42689Y671228D01*
X44194Y668622D01*
X46322Y666494D01*
X48928Y664989D01*
X51835Y664210D01*
X52070D01*
Y674370D01*
D02*
G37*
G36*
X54845Y661670D02*
X54610D01*
Y651510D01*
X64770D01*
Y651745D01*
X63991Y654652D01*
X62486Y657258D01*
X60358Y659386D01*
X57752Y660891D01*
X54845Y661670D01*
D02*
G37*
G36*
X52070D02*
X51835D01*
X48928Y660891D01*
X46322Y659386D01*
X44194Y657258D01*
X42689Y654652D01*
X41910Y651745D01*
Y651510D01*
X52070D01*
Y661670D01*
D02*
G37*
G36*
X603083Y658731D02*
X600810D01*
X598709Y657861D01*
X597102Y656254D01*
X596231Y654153D01*
Y651880D01*
X597102Y649779D01*
X598709Y648171D01*
X600810Y647301D01*
X603083D01*
X605184Y648171D01*
X606172Y649159D01*
X620741D01*
X621965Y647935D01*
X624065Y647065D01*
X626339D01*
X628439Y647935D01*
X630047Y649543D01*
X630917Y651643D01*
Y653917D01*
X630047Y656017D01*
X628439Y657625D01*
X626339Y658495D01*
X624065D01*
X621965Y657625D01*
X620357Y656017D01*
X620305Y655893D01*
X606941D01*
X606791Y656254D01*
X605184Y657861D01*
X603083Y658731D01*
D02*
G37*
G36*
X796157Y681355D02*
X793883D01*
X791783Y680485D01*
X790175Y678877D01*
X789305Y676777D01*
Y674503D01*
X790175Y672403D01*
X791783Y670795D01*
X793883Y669925D01*
X795974D01*
X812833Y653065D01*
Y650975D01*
X813703Y648875D01*
X815311Y647267D01*
X817411Y646397D01*
X819685D01*
X821786Y647267D01*
X823393Y648875D01*
X824263Y650975D01*
Y653249D01*
X823393Y655349D01*
X821786Y656957D01*
X819685Y657827D01*
X817595D01*
X800735Y674686D01*
Y676777D01*
X799865Y678877D01*
X798257Y680485D01*
X796157Y681355D01*
D02*
G37*
G36*
X64770Y648970D02*
X54610D01*
Y638810D01*
X54845D01*
X57752Y639589D01*
X60358Y641094D01*
X62486Y643222D01*
X63991Y645828D01*
X64770Y648735D01*
Y648970D01*
D02*
G37*
G36*
X52070D02*
X41910D01*
Y648735D01*
X42689Y645828D01*
X44194Y643222D01*
X46322Y641094D01*
X48928Y639589D01*
X51835Y638810D01*
X52070D01*
Y648970D01*
D02*
G37*
G36*
X642217Y652415D02*
X639943D01*
X637843Y651545D01*
X636235Y649937D01*
X635365Y647837D01*
Y645563D01*
X636235Y643463D01*
X637843Y641855D01*
X639943Y640985D01*
X642034D01*
X644525Y638494D01*
Y636403D01*
X645395Y634303D01*
X647003Y632695D01*
X649103Y631825D01*
X651377D01*
X653477Y632695D01*
X655085Y634303D01*
X655955Y636403D01*
Y638677D01*
X655085Y640777D01*
X653477Y642385D01*
X651377Y643255D01*
X649286D01*
X646795Y645746D01*
Y647837D01*
X645925Y649937D01*
X644317Y651545D01*
X642217Y652415D01*
D02*
G37*
G36*
X422777Y633095D02*
X420503D01*
X418403Y632225D01*
X416795Y630617D01*
X416415Y629700D01*
X415745Y629567D01*
X414653Y628837D01*
X414022Y628207D01*
X409846D01*
X408367Y629685D01*
X406267Y630555D01*
X403993D01*
X401893Y629685D01*
X400285Y628077D01*
X399415Y625977D01*
Y623703D01*
X400285Y621603D01*
X401893Y619995D01*
X403993Y619125D01*
X406267D01*
X408367Y619995D01*
X409846Y621473D01*
X415417D01*
X416705Y621730D01*
X417798Y622459D01*
X418138Y622800D01*
X418403Y622535D01*
X420503Y621665D01*
X422777D01*
X424877Y622535D01*
X426485Y624143D01*
X427355Y626243D01*
Y628517D01*
X426485Y630617D01*
X424877Y632225D01*
X422777Y633095D01*
D02*
G37*
G36*
X609975Y627634D02*
X607701D01*
X605601Y626764D01*
X604139Y625302D01*
X602677Y626764D01*
X600577Y627634D01*
X598303D01*
X596203Y626764D01*
X594595Y625156D01*
X593725Y623056D01*
Y620782D01*
X594595Y618682D01*
X596073Y617203D01*
Y601996D01*
X594595Y600518D01*
X593725Y598418D01*
Y596144D01*
X594595Y594044D01*
X596203Y592436D01*
X598303Y591566D01*
X600577D01*
X602677Y592436D01*
X603690Y593449D01*
X604520Y593912D01*
X605350Y593449D01*
X606363Y592436D01*
X608463Y591566D01*
X610737D01*
X612837Y592436D01*
X614445Y594044D01*
X615315Y596144D01*
Y598418D01*
X614445Y600518D01*
X612967Y601996D01*
Y617966D01*
X613683Y618682D01*
X614553Y620782D01*
Y623056D01*
X613683Y625156D01*
X612075Y626764D01*
X609975Y627634D01*
D02*
G37*
G36*
X760597Y645795D02*
X758323D01*
X756223Y644925D01*
X754615Y643317D01*
X753745Y641217D01*
Y638943D01*
X754615Y636843D01*
X754027Y635635D01*
X753243D01*
X751143Y634765D01*
X749535Y633157D01*
X748665Y631057D01*
Y628783D01*
X749535Y626683D01*
X751143Y625075D01*
X753243Y624205D01*
X755334D01*
X760119Y619420D01*
X759428Y617753D01*
Y615480D01*
X760299Y613379D01*
X760735Y612943D01*
X760015Y611866D01*
X758223Y612609D01*
X756285D01*
Y613116D01*
X756029Y614404D01*
X755299Y615496D01*
X754823Y615972D01*
X754911Y616187D01*
Y618460D01*
X754042Y620561D01*
X752434Y622168D01*
X750333Y623038D01*
X748060D01*
X745959Y622168D01*
X744352Y620561D01*
X743482Y618460D01*
Y616187D01*
X744352Y614086D01*
X745959Y612478D01*
X748060Y611609D01*
X749552D01*
Y611062D01*
X749808Y609773D01*
X750538Y608681D01*
X751371Y607847D01*
Y605757D01*
X752241Y603656D01*
X753849Y602049D01*
X755950Y601179D01*
X758223D01*
X760324Y602049D01*
X761931Y603656D01*
X762801Y605757D01*
Y608030D01*
X761931Y610131D01*
X761495Y610567D01*
X762214Y611644D01*
X764007Y610901D01*
X766280D01*
X768381Y611772D01*
X769988Y613379D01*
X770859Y615480D01*
Y617753D01*
X769988Y619854D01*
X768381Y621461D01*
X766843Y622099D01*
X766601Y622461D01*
X760095Y628966D01*
Y631057D01*
X759546Y632383D01*
X760305Y633736D01*
X760956Y633823D01*
X769793Y624986D01*
X770155Y624744D01*
X770792Y623205D01*
X772400Y621598D01*
X774500Y620728D01*
X776774D01*
X778875Y621598D01*
X780482Y623205D01*
X781352Y625306D01*
Y627580D01*
X780482Y629680D01*
X778875Y631288D01*
X776774Y632158D01*
X774500D01*
X772834Y631467D01*
X765175Y639126D01*
Y641217D01*
X764305Y643317D01*
X762697Y644925D01*
X760597Y645795D01*
D02*
G37*
G36*
X54845Y636270D02*
X51835D01*
X48928Y635491D01*
X46322Y633986D01*
X44194Y631858D01*
X42689Y629252D01*
X41910Y626345D01*
Y623335D01*
X42689Y620428D01*
X44194Y617822D01*
X46322Y615694D01*
X48928Y614189D01*
X51835Y613410D01*
X54845D01*
X57752Y614189D01*
X60358Y615694D01*
X62486Y617822D01*
X63991Y620428D01*
X64770Y623335D01*
Y626345D01*
X63991Y629252D01*
X62486Y631858D01*
X60358Y633986D01*
X57752Y635491D01*
X54845Y636270D01*
D02*
G37*
G36*
X476117Y638175D02*
X473843D01*
X471743Y637305D01*
X470135Y635697D01*
X469265Y633597D01*
Y631323D01*
X470135Y629223D01*
X471613Y627744D01*
Y621936D01*
X470135Y620457D01*
X469265Y618357D01*
Y616083D01*
X470135Y613983D01*
X471743Y612375D01*
X473843Y611505D01*
X476117D01*
X478217Y612375D01*
X479825Y613983D01*
X480695Y616083D01*
Y618357D01*
X479825Y620457D01*
X478347Y621936D01*
Y627744D01*
X479825Y629223D01*
X480695Y631323D01*
Y633597D01*
X479825Y635697D01*
X478217Y637305D01*
X476117Y638175D01*
D02*
G37*
G36*
X683127Y623570D02*
X680853D01*
X678753Y622700D01*
X677145Y621092D01*
X676275Y618992D01*
Y616718D01*
X677145Y614618D01*
X678753Y613010D01*
X680853Y612140D01*
X683127D01*
X685227Y613010D01*
X686388Y614171D01*
X696788D01*
X698532Y612426D01*
X699625Y611697D01*
X700913Y611440D01*
X704319D01*
X705797Y609962D01*
X707897Y609092D01*
X710171D01*
X712271Y609962D01*
X713879Y611570D01*
X714749Y613670D01*
Y615944D01*
X713879Y618044D01*
X712271Y619652D01*
X710171Y620522D01*
X707897D01*
X705797Y619652D01*
X704319Y618174D01*
X702308D01*
X700563Y619918D01*
X699471Y620648D01*
X698183Y620904D01*
X686913D01*
X686835Y621092D01*
X685227Y622700D01*
X683127Y623570D01*
D02*
G37*
G36*
X491357Y635635D02*
X489083D01*
X486983Y634765D01*
X485375Y633157D01*
X484505Y631057D01*
Y628783D01*
X485375Y626683D01*
X486853Y625205D01*
Y619395D01*
X485375Y617917D01*
X484505Y615817D01*
Y613543D01*
X485375Y611443D01*
X486983Y609835D01*
X489083Y608965D01*
X491357D01*
X493457Y609835D01*
X495065Y611443D01*
X495935Y613543D01*
Y615817D01*
X495065Y617917D01*
X493587Y619395D01*
Y625205D01*
X495065Y626683D01*
X495935Y628783D01*
Y631057D01*
X495065Y633157D01*
X493457Y634765D01*
X491357Y635635D01*
D02*
G37*
G36*
X504057Y635361D02*
X501783D01*
X499683Y634491D01*
X498075Y632884D01*
X497205Y630783D01*
Y628510D01*
X498075Y626409D01*
X499683Y624801D01*
X500078Y624638D01*
X500539Y623947D01*
X502093Y622393D01*
Y617344D01*
X500615Y615866D01*
X499745Y613765D01*
Y611492D01*
X500615Y609391D01*
X502223Y607784D01*
X504323Y606913D01*
X506597D01*
X508697Y607784D01*
X510305Y609391D01*
X511175Y611492D01*
Y613765D01*
X510305Y615866D01*
X508827Y617344D01*
Y623788D01*
X508570Y625076D01*
X507841Y626169D01*
X507683Y626327D01*
X507765Y626409D01*
X508635Y628510D01*
Y630783D01*
X507765Y632884D01*
X506157Y634491D01*
X504057Y635361D01*
D02*
G37*
G36*
X549777Y628015D02*
X547503D01*
X545403Y627145D01*
X543795Y625537D01*
X542925Y623437D01*
Y621163D01*
X543795Y619063D01*
X545273Y617584D01*
Y606060D01*
X543795Y604582D01*
X542925Y602482D01*
Y600208D01*
X543795Y598108D01*
X545403Y596500D01*
X547503Y595630D01*
X549777D01*
X551877Y596500D01*
X553485Y598108D01*
X554355Y600208D01*
Y602482D01*
X553485Y604582D01*
X552007Y606060D01*
Y617584D01*
X553485Y619063D01*
X554355Y621163D01*
Y623437D01*
X553485Y625537D01*
X551877Y627145D01*
X549777Y628015D01*
D02*
G37*
G36*
X628517Y622935D02*
X626243D01*
X624143Y622065D01*
X622535Y620457D01*
X621665Y618357D01*
Y616083D01*
X622535Y613983D01*
X624013Y612505D01*
Y601362D01*
X622535Y599883D01*
X621665Y597783D01*
Y595509D01*
X622535Y593409D01*
X624143Y591801D01*
X626243Y590931D01*
X628517D01*
X630617Y591801D01*
X632225Y593409D01*
X633095Y595509D01*
Y597783D01*
X632225Y599883D01*
X630747Y601362D01*
Y612505D01*
X632225Y613983D01*
X633095Y616083D01*
Y618357D01*
X632225Y620457D01*
X630617Y622065D01*
X628517Y622935D01*
D02*
G37*
G36*
X651377Y628015D02*
X649103D01*
X647003Y627145D01*
X645395Y625537D01*
X644525Y623437D01*
Y621163D01*
X645395Y619063D01*
X646873Y617584D01*
Y601210D01*
X645395Y599731D01*
X644525Y597631D01*
Y595357D01*
X645395Y593257D01*
X647003Y591649D01*
X649103Y590779D01*
X651377D01*
X653477Y591649D01*
X655085Y593257D01*
X655955Y595357D01*
Y597631D01*
X655085Y599731D01*
X653607Y601210D01*
Y617584D01*
X655085Y619063D01*
X655955Y621163D01*
Y623437D01*
X655085Y625537D01*
X653477Y627145D01*
X651377Y628015D01*
D02*
G37*
G36*
X577717Y624205D02*
X575443D01*
X573343Y623335D01*
X571735Y621727D01*
X570865Y619627D01*
Y617353D01*
X571735Y615253D01*
X573213Y613774D01*
Y612438D01*
X571659Y610884D01*
X570930Y609792D01*
X570673Y608503D01*
Y601996D01*
X569195Y600518D01*
X568325Y598418D01*
Y596144D01*
X569195Y594044D01*
X570803Y592436D01*
X572903Y591566D01*
X575177D01*
X577277Y592436D01*
X578885Y594044D01*
X579003Y594329D01*
X580273Y594076D01*
Y592080D01*
X581143Y589980D01*
X582751Y588372D01*
X584851Y587502D01*
X587125D01*
X589225Y588372D01*
X590833Y589980D01*
X591703Y592080D01*
Y594354D01*
X590833Y596454D01*
X590107Y597181D01*
Y613139D01*
X591585Y614618D01*
X592455Y616718D01*
Y618992D01*
X591585Y621092D01*
X589977Y622700D01*
X587877Y623570D01*
X585603D01*
X583503Y622700D01*
X582721Y621918D01*
X581425Y621727D01*
X579817Y623335D01*
X577717Y624205D01*
D02*
G37*
G36*
X540887Y579755D02*
X538613D01*
X536513Y578885D01*
X535034Y577407D01*
X527956D01*
X526477Y578885D01*
X524377Y579755D01*
X522103D01*
X520003Y578885D01*
X518395Y577277D01*
X517682Y575557D01*
X516352D01*
X515639Y577277D01*
X514031Y578885D01*
X511931Y579755D01*
X509657D01*
X507557Y578885D01*
X506078Y577407D01*
X502556D01*
X501077Y578885D01*
X498977Y579755D01*
X496703D01*
X494603Y578885D01*
X492995Y577277D01*
X492125Y575177D01*
Y572903D01*
X492995Y570803D01*
X494603Y569195D01*
X496703Y568325D01*
X498977D01*
X501077Y569195D01*
X502556Y570673D01*
X506078D01*
X507557Y569195D01*
X509657Y568325D01*
X511931D01*
X514031Y569195D01*
X515639Y570803D01*
X516352Y572523D01*
X517682D01*
X518395Y570803D01*
X520003Y569195D01*
X522103Y568325D01*
X524377D01*
X526477Y569195D01*
X527956Y570673D01*
X535034D01*
X536513Y569195D01*
X538613Y568325D01*
X540887D01*
X542987Y569195D01*
X544595Y570803D01*
X545465Y572903D01*
Y575177D01*
X544595Y577277D01*
X542987Y578885D01*
X540887Y579755D01*
D02*
G37*
G36*
X247517Y595249D02*
X245243D01*
X243143Y594379D01*
X241535Y592771D01*
X240665Y590671D01*
Y588397D01*
X241535Y586297D01*
X243013Y584818D01*
Y581296D01*
X241535Y579817D01*
X240665Y577717D01*
Y575443D01*
X241535Y573343D01*
X243143Y571735D01*
X245243Y570865D01*
X247517D01*
X249617Y571735D01*
X251225Y573343D01*
X252095Y575443D01*
Y577717D01*
X251225Y579817D01*
X249747Y581296D01*
Y584818D01*
X251225Y586297D01*
X252095Y588397D01*
Y590671D01*
X251225Y592771D01*
X249617Y594379D01*
X247517Y595249D01*
D02*
G37*
G36*
X715004Y560320D02*
X712730D01*
X710630Y559450D01*
X709022Y557842D01*
X708152Y555742D01*
Y553468D01*
X709022Y551368D01*
X710582Y549808D01*
Y531407D01*
X709185Y530010D01*
X708315Y527909D01*
Y525636D01*
X709185Y523535D01*
X710792Y521928D01*
X712893Y521058D01*
X715166D01*
X717267Y521928D01*
X718875Y523535D01*
X719745Y525636D01*
Y527909D01*
X718875Y530010D01*
X717315Y531570D01*
Y549971D01*
X718712Y551368D01*
X719582Y553468D01*
Y555742D01*
X718712Y557842D01*
X717104Y559450D01*
X715004Y560320D01*
D02*
G37*
G36*
X695954Y567940D02*
X693680D01*
X691580Y567070D01*
X689972Y565462D01*
X689102Y563362D01*
Y561088D01*
X689972Y558988D01*
X691450Y557509D01*
Y534547D01*
X689294Y532390D01*
X687203D01*
X685103Y531520D01*
X683495Y529912D01*
X682625Y527812D01*
Y525538D01*
X683495Y523438D01*
X685103Y521830D01*
X687203Y520960D01*
X689477D01*
X691577Y521830D01*
X693185Y523438D01*
X694055Y525538D01*
Y527629D01*
X697198Y530771D01*
X697927Y531864D01*
X698184Y533152D01*
Y557509D01*
X699662Y558988D01*
X700532Y561088D01*
Y563362D01*
X699662Y565462D01*
X698054Y567070D01*
X695954Y567940D01*
D02*
G37*
G36*
X118345Y527050D02*
X118110D01*
Y516890D01*
X128270D01*
Y517125D01*
X127491Y520032D01*
X125986Y522638D01*
X123858Y524766D01*
X121252Y526271D01*
X118345Y527050D01*
D02*
G37*
G36*
X115570D02*
X115335D01*
X112428Y526271D01*
X109822Y524766D01*
X107694Y522638D01*
X106189Y520032D01*
X105410Y517125D01*
Y516890D01*
X115570D01*
Y527050D01*
D02*
G37*
G36*
X92945D02*
X92710D01*
Y516890D01*
X102870D01*
Y517125D01*
X102091Y520032D01*
X100586Y522638D01*
X98458Y524766D01*
X95852Y526271D01*
X92945Y527050D01*
D02*
G37*
G36*
X90170D02*
X89935D01*
X87028Y526271D01*
X84422Y524766D01*
X82294Y522638D01*
X80789Y520032D01*
X80010Y517125D01*
Y516890D01*
X90170D01*
Y527050D01*
D02*
G37*
G36*
X67545D02*
X67310D01*
Y516890D01*
X77470D01*
Y517125D01*
X76691Y520032D01*
X75186Y522638D01*
X73058Y524766D01*
X70452Y526271D01*
X67545Y527050D01*
D02*
G37*
G36*
X64770D02*
X64535D01*
X61628Y526271D01*
X59022Y524766D01*
X56894Y522638D01*
X55389Y520032D01*
X54610Y517125D01*
Y516890D01*
X64770D01*
Y527050D01*
D02*
G37*
G36*
X506597Y546989D02*
X504323D01*
X502223Y546119D01*
X500615Y544511D01*
X499745Y542411D01*
Y540137D01*
X500615Y538037D01*
X501088Y537564D01*
X500539Y537015D01*
X499810Y535923D01*
X499553Y534634D01*
Y525415D01*
X498075Y523937D01*
X497205Y521837D01*
Y519563D01*
X498075Y517463D01*
X499683Y515855D01*
X501783Y514985D01*
X504057D01*
X506157Y515855D01*
X507765Y517463D01*
X508635Y519563D01*
Y521837D01*
X507765Y523937D01*
X506287Y525415D01*
Y533240D01*
X506917Y533870D01*
X507647Y534962D01*
X507871Y536087D01*
X508697Y536429D01*
X510305Y538037D01*
X511175Y540137D01*
Y542411D01*
X510305Y544511D01*
X508697Y546119D01*
X506597Y546989D01*
D02*
G37*
G36*
X625215Y509301D02*
X622941D01*
X620841Y508431D01*
X619233Y506823D01*
X619149Y506620D01*
X611442D01*
X610297Y507765D01*
X608197Y508635D01*
X605923D01*
X603823Y507765D01*
X602215Y506157D01*
X601345Y504057D01*
Y501783D01*
X602215Y499683D01*
X603823Y498075D01*
X605923Y497205D01*
X608197D01*
X610297Y498075D01*
X611905Y499683D01*
X611989Y499886D01*
X619696D01*
X620841Y498741D01*
X622941Y497871D01*
X625215D01*
X626507Y498406D01*
X627220Y497361D01*
X620714Y490855D01*
X618623D01*
X616523Y489985D01*
X614915Y488377D01*
X614045Y486277D01*
Y484003D01*
X614915Y481903D01*
X616523Y480295D01*
X618623Y479425D01*
X620897D01*
X622997Y480295D01*
X624605Y481903D01*
X625475Y484003D01*
Y486094D01*
X630260Y490879D01*
X631927Y490188D01*
X634200D01*
X636301Y491059D01*
X637909Y492666D01*
X638778Y494767D01*
Y497040D01*
X637909Y499141D01*
X636301Y500748D01*
X634200Y501618D01*
X631927D01*
X630595Y501067D01*
X629623Y502039D01*
X629793Y502449D01*
Y504723D01*
X628923Y506823D01*
X627315Y508431D01*
X625215Y509301D01*
D02*
G37*
G36*
X128270Y514350D02*
X118110D01*
Y504190D01*
X118345D01*
X121252Y504969D01*
X123858Y506474D01*
X125986Y508602D01*
X127491Y511208D01*
X128270Y514115D01*
Y514350D01*
D02*
G37*
G36*
X115570D02*
X105410D01*
Y514115D01*
X106189Y511208D01*
X107694Y508602D01*
X109822Y506474D01*
X112428Y504969D01*
X115335Y504190D01*
X115570D01*
Y514350D01*
D02*
G37*
G36*
X102870D02*
X92710D01*
Y504190D01*
X92945D01*
X95852Y504969D01*
X98458Y506474D01*
X100586Y508602D01*
X102091Y511208D01*
X102870Y514115D01*
Y514350D01*
D02*
G37*
G36*
X90170D02*
X80010D01*
Y514115D01*
X80789Y511208D01*
X82294Y508602D01*
X84422Y506474D01*
X87028Y504969D01*
X89935Y504190D01*
X90170D01*
Y514350D01*
D02*
G37*
G36*
X77470D02*
X67310D01*
Y504190D01*
X67545D01*
X70452Y504969D01*
X73058Y506474D01*
X75186Y508602D01*
X76691Y511208D01*
X77470Y514115D01*
Y514350D01*
D02*
G37*
G36*
X64770D02*
X54610D01*
Y514115D01*
X55389Y511208D01*
X56894Y508602D01*
X59022Y506474D01*
X61628Y504969D01*
X64535Y504190D01*
X64770D01*
Y514350D01*
D02*
G37*
G36*
X42145Y527050D02*
X39135D01*
X36228Y526271D01*
X33622Y524766D01*
X31494Y522638D01*
X29989Y520032D01*
X29210Y517125D01*
Y514115D01*
X29989Y511208D01*
X31494Y508602D01*
X33622Y506474D01*
X36228Y504969D01*
X39135Y504190D01*
X42145D01*
X45052Y504969D01*
X47658Y506474D01*
X49786Y508602D01*
X51291Y511208D01*
X52070Y514115D01*
Y517125D01*
X51291Y520032D01*
X49786Y522638D01*
X47658Y524766D01*
X45052Y526271D01*
X42145Y527050D01*
D02*
G37*
G36*
X700018Y513715D02*
X697744D01*
X695644Y512845D01*
X694036Y511237D01*
X693166Y509137D01*
Y507427D01*
X688983Y503244D01*
X687578Y504649D01*
Y506740D01*
X686708Y508840D01*
X685100Y510448D01*
X683000Y511318D01*
X680726D01*
X678626Y510448D01*
X677018Y508840D01*
X676148Y506740D01*
Y504466D01*
X677018Y502366D01*
X678626Y500758D01*
X680726Y499888D01*
X682817D01*
X685971Y496734D01*
X687063Y496004D01*
X688352Y495747D01*
X689614D01*
X690902Y496004D01*
X691995Y496734D01*
X697604Y502343D01*
X697744Y502285D01*
X700018D01*
X702118Y503155D01*
X703726Y504763D01*
X704596Y506863D01*
Y509137D01*
X703726Y511237D01*
X702118Y512845D01*
X700018Y513715D01*
D02*
G37*
G36*
X476117Y518795D02*
X473843D01*
X471743Y517925D01*
X470135Y516317D01*
X469265Y514217D01*
Y511943D01*
X470135Y509843D01*
X471743Y508235D01*
X473843Y507365D01*
X474664D01*
X479988Y502041D01*
X479669Y501273D01*
Y498999D01*
X480539Y496898D01*
X482147Y495291D01*
X484248Y494421D01*
X486521D01*
X488622Y495291D01*
X490229Y496898D01*
X491099Y498999D01*
Y501273D01*
X490229Y503373D01*
X488622Y504981D01*
X486521Y505851D01*
X485701D01*
X480377Y511175D01*
X480695Y511943D01*
Y514217D01*
X479825Y516317D01*
X478217Y517925D01*
X476117Y518795D01*
D02*
G37*
G36*
X313925Y504190D02*
X310915D01*
X308008Y503411D01*
X305402Y501906D01*
X303274Y499778D01*
X301769Y497172D01*
X300990Y494265D01*
Y491255D01*
X301769Y488348D01*
X303274Y485742D01*
X305402Y483614D01*
X308008Y482109D01*
X310915Y481330D01*
X313925D01*
X316832Y482109D01*
X319438Y483614D01*
X321566Y485742D01*
X323071Y488348D01*
X323850Y491255D01*
Y494265D01*
X323071Y497172D01*
X321566Y499778D01*
X319438Y501906D01*
X316832Y503411D01*
X313925Y504190D01*
D02*
G37*
G36*
Y478790D02*
X313690D01*
Y468630D01*
X323850D01*
Y468865D01*
X323071Y471772D01*
X321566Y474378D01*
X319438Y476506D01*
X316832Y478011D01*
X313925Y478790D01*
D02*
G37*
G36*
X311150D02*
X310915D01*
X308008Y478011D01*
X305402Y476506D01*
X303274Y474378D01*
X301769Y471772D01*
X300990Y468865D01*
Y468630D01*
X311150D01*
Y478790D01*
D02*
G37*
G36*
X166605Y471170D02*
X166370D01*
Y461010D01*
X176530D01*
Y461245D01*
X175751Y464152D01*
X174246Y466758D01*
X172118Y468886D01*
X169512Y470391D01*
X166605Y471170D01*
D02*
G37*
G36*
X163830D02*
X163595D01*
X160688Y470391D01*
X158082Y468886D01*
X155954Y466758D01*
X154449Y464152D01*
X153670Y461245D01*
Y461010D01*
X163830D01*
Y471170D01*
D02*
G37*
G36*
X323850Y466090D02*
X313690D01*
Y455930D01*
X313925D01*
X316832Y456709D01*
X319438Y458214D01*
X321566Y460342D01*
X323071Y462948D01*
X323850Y465855D01*
Y466090D01*
D02*
G37*
G36*
X311150D02*
X300990D01*
Y465855D01*
X301769Y462948D01*
X303274Y460342D01*
X305402Y458214D01*
X308008Y456709D01*
X310915Y455930D01*
X311150D01*
Y466090D01*
D02*
G37*
G36*
X176530Y458470D02*
X166370D01*
Y448310D01*
X166605D01*
X169512Y449089D01*
X172118Y450594D01*
X174246Y452722D01*
X175751Y455328D01*
X176530Y458235D01*
Y458470D01*
D02*
G37*
G36*
X163830D02*
X153670D01*
Y458235D01*
X154449Y455328D01*
X155954Y452722D01*
X158082Y450594D01*
X160688Y449089D01*
X163595Y448310D01*
X163830D01*
Y458470D01*
D02*
G37*
G36*
X313925Y453390D02*
X313690D01*
Y443230D01*
X323850D01*
Y443465D01*
X323071Y446372D01*
X321566Y448978D01*
X319438Y451106D01*
X316832Y452611D01*
X313925Y453390D01*
D02*
G37*
G36*
X311150D02*
X310915D01*
X308008Y452611D01*
X305402Y451106D01*
X303274Y448978D01*
X301769Y446372D01*
X300990Y443465D01*
Y443230D01*
X311150D01*
Y453390D01*
D02*
G37*
G36*
X166605Y445770D02*
X166370D01*
Y435610D01*
X176530D01*
Y435845D01*
X175751Y438752D01*
X174246Y441358D01*
X172118Y443486D01*
X169512Y444991D01*
X166605Y445770D01*
D02*
G37*
G36*
X163830D02*
X163595D01*
X160688Y444991D01*
X158082Y443486D01*
X155954Y441358D01*
X154449Y438752D01*
X153670Y435845D01*
Y435610D01*
X163830D01*
Y445770D01*
D02*
G37*
G36*
X323850Y440690D02*
X313690D01*
Y430530D01*
X313925D01*
X316832Y431309D01*
X319438Y432814D01*
X321566Y434942D01*
X323071Y437548D01*
X323850Y440455D01*
Y440690D01*
D02*
G37*
G36*
X311150D02*
X300990D01*
Y440455D01*
X301769Y437548D01*
X303274Y434942D01*
X305402Y432814D01*
X308008Y431309D01*
X310915Y430530D01*
X311150D01*
Y440690D01*
D02*
G37*
G36*
X910825Y450850D02*
X907815D01*
X904908Y450071D01*
X902302Y448566D01*
X900174Y446438D01*
X898669Y443832D01*
X897890Y440925D01*
Y437915D01*
X898669Y435008D01*
X900174Y432402D01*
X902302Y430274D01*
X904908Y428769D01*
X907815Y427990D01*
X910825D01*
X913732Y428769D01*
X916338Y430274D01*
X918466Y432402D01*
X919971Y435008D01*
X920750Y437915D01*
Y440925D01*
X919971Y443832D01*
X918466Y446438D01*
X916338Y448566D01*
X913732Y450071D01*
X910825Y450850D01*
D02*
G37*
G36*
X176530Y433070D02*
X166370D01*
Y422910D01*
X166605D01*
X169512Y423689D01*
X172118Y425194D01*
X174246Y427322D01*
X175751Y429928D01*
X176530Y432835D01*
Y433070D01*
D02*
G37*
G36*
X163830D02*
X153670D01*
Y432835D01*
X154449Y429928D01*
X155954Y427322D01*
X158082Y425194D01*
X160688Y423689D01*
X163595Y422910D01*
X163830D01*
Y433070D01*
D02*
G37*
G36*
X313925Y427990D02*
X313690D01*
Y417830D01*
X323850D01*
Y418065D01*
X323071Y420972D01*
X321566Y423578D01*
X319438Y425706D01*
X316832Y427211D01*
X313925Y427990D01*
D02*
G37*
G36*
X311150D02*
X310915D01*
X308008Y427211D01*
X305402Y425706D01*
X303274Y423578D01*
X301769Y420972D01*
X300990Y418065D01*
Y417830D01*
X311150D01*
Y427990D01*
D02*
G37*
G36*
X910825Y425450D02*
X910590D01*
Y415290D01*
X920750D01*
Y415525D01*
X919971Y418432D01*
X918466Y421038D01*
X916338Y423166D01*
X913732Y424671D01*
X910825Y425450D01*
D02*
G37*
G36*
X908050D02*
X907815D01*
X904908Y424671D01*
X902302Y423166D01*
X900174Y421038D01*
X898669Y418432D01*
X897890Y415525D01*
Y415290D01*
X908050D01*
Y425450D01*
D02*
G37*
G36*
X166605Y420370D02*
X166370D01*
Y410210D01*
X176530D01*
Y410445D01*
X175751Y413352D01*
X174246Y415958D01*
X172118Y418086D01*
X169512Y419591D01*
X166605Y420370D01*
D02*
G37*
G36*
X163830D02*
X163595D01*
X160688Y419591D01*
X158082Y418086D01*
X155954Y415958D01*
X154449Y413352D01*
X153670Y410445D01*
Y410210D01*
X163830D01*
Y420370D01*
D02*
G37*
G36*
X323850Y415290D02*
X313690D01*
Y405130D01*
X313925D01*
X316832Y405909D01*
X319438Y407414D01*
X321566Y409542D01*
X323071Y412148D01*
X323850Y415055D01*
Y415290D01*
D02*
G37*
G36*
X311150D02*
X300990D01*
Y415055D01*
X301769Y412148D01*
X303274Y409542D01*
X305402Y407414D01*
X308008Y405909D01*
X310915Y405130D01*
X311150D01*
Y415290D01*
D02*
G37*
G36*
X920750Y412750D02*
X910590D01*
Y402590D01*
X910825D01*
X913732Y403369D01*
X916338Y404874D01*
X918466Y407002D01*
X919971Y409608D01*
X920750Y412515D01*
Y412750D01*
D02*
G37*
G36*
X908050D02*
X897890D01*
Y412515D01*
X898669Y409608D01*
X900174Y407002D01*
X902302Y404874D01*
X904908Y403369D01*
X907815Y402590D01*
X908050D01*
Y412750D01*
D02*
G37*
G36*
X176530Y407670D02*
X166370D01*
Y397510D01*
X166605D01*
X169512Y398289D01*
X172118Y399794D01*
X174246Y401922D01*
X175751Y404528D01*
X176530Y407435D01*
Y407670D01*
D02*
G37*
G36*
X163830D02*
X153670D01*
Y407435D01*
X154449Y404528D01*
X155954Y401922D01*
X158082Y399794D01*
X160688Y398289D01*
X163595Y397510D01*
X163830D01*
Y407670D01*
D02*
G37*
G36*
X910825Y400050D02*
X910590D01*
Y389890D01*
X920750D01*
Y390125D01*
X919971Y393032D01*
X918466Y395638D01*
X916338Y397766D01*
X913732Y399271D01*
X910825Y400050D01*
D02*
G37*
G36*
X908050D02*
X907815D01*
X904908Y399271D01*
X902302Y397766D01*
X900174Y395638D01*
X898669Y393032D01*
X897890Y390125D01*
Y389890D01*
X908050D01*
Y400050D01*
D02*
G37*
G36*
X920750Y387350D02*
X910590D01*
Y377190D01*
X910825D01*
X913732Y377969D01*
X916338Y379474D01*
X918466Y381602D01*
X919971Y384208D01*
X920750Y387115D01*
Y387350D01*
D02*
G37*
G36*
X908050D02*
X897890D01*
Y387115D01*
X898669Y384208D01*
X900174Y381602D01*
X902302Y379474D01*
X904908Y377969D01*
X907815Y377190D01*
X908050D01*
Y387350D01*
D02*
G37*
G36*
X166605Y394970D02*
X163595D01*
X160688Y394191D01*
X158082Y392686D01*
X155954Y390558D01*
X154449Y387952D01*
X153670Y385045D01*
Y382035D01*
X154449Y379128D01*
X155954Y376522D01*
X158082Y374394D01*
X160688Y372889D01*
X163595Y372110D01*
X166605D01*
X169512Y372889D01*
X172118Y374394D01*
X174246Y376522D01*
X175751Y379128D01*
X176530Y382035D01*
Y385045D01*
X175751Y387952D01*
X174246Y390558D01*
X172118Y392686D01*
X169512Y394191D01*
X166605Y394970D01*
D02*
G37*
G36*
X910825Y374650D02*
X910590D01*
Y364490D01*
X920750D01*
Y364725D01*
X919971Y367632D01*
X918466Y370238D01*
X916338Y372366D01*
X913732Y373871D01*
X910825Y374650D01*
D02*
G37*
G36*
X908050D02*
X907815D01*
X904908Y373871D01*
X902302Y372366D01*
X900174Y370238D01*
X898669Y367632D01*
X897890Y364725D01*
Y364490D01*
X908050D01*
Y374650D01*
D02*
G37*
G36*
X920750Y361950D02*
X910590D01*
Y351790D01*
X910825D01*
X913732Y352569D01*
X916338Y354074D01*
X918466Y356202D01*
X919971Y358808D01*
X920750Y361715D01*
Y361950D01*
D02*
G37*
G36*
X908050D02*
X897890D01*
Y361715D01*
X898669Y358808D01*
X900174Y356202D01*
X902302Y354074D01*
X904908Y352569D01*
X907815Y351790D01*
X908050D01*
Y361950D01*
D02*
G37*
G36*
X354461Y317980D02*
X351659D01*
X348953Y317255D01*
X346527Y315854D01*
X344546Y313873D01*
X343145Y311447D01*
X342420Y308741D01*
Y305939D01*
X343145Y303233D01*
X344546Y300807D01*
X346527Y298826D01*
X348953Y297425D01*
X351659Y296700D01*
X354461D01*
X357167Y297425D01*
X359593Y298826D01*
X361574Y300807D01*
X362975Y303233D01*
X363700Y305939D01*
Y308741D01*
X362975Y311447D01*
X361574Y313873D01*
X359593Y315854D01*
X357167Y317255D01*
X354461Y317980D01*
D02*
G37*
G36*
X302412Y314176D02*
X300138D01*
X298037Y313306D01*
X296430Y311698D01*
X295560Y309598D01*
Y307324D01*
X296376Y305355D01*
X296733Y303560D01*
X297855Y301880D01*
X307040Y292696D01*
X307575Y291403D01*
X309183Y289795D01*
X311283Y288925D01*
X313557D01*
X315657Y289795D01*
X317265Y291403D01*
X318135Y293503D01*
Y295777D01*
X317265Y297877D01*
X315657Y299485D01*
X314364Y300020D01*
X306990Y307395D01*
Y309598D01*
X306120Y311698D01*
X304512Y313306D01*
X302412Y314176D01*
D02*
G37*
G36*
X473577Y311785D02*
X471303D01*
X469203Y310915D01*
X467595Y309307D01*
X466725Y307207D01*
Y304933D01*
X467595Y302833D01*
X469073Y301355D01*
Y294275D01*
X467595Y292797D01*
X466725Y290697D01*
Y288423D01*
X467595Y286323D01*
X469203Y284715D01*
X471303Y283845D01*
X473577D01*
X475677Y284715D01*
X477285Y286323D01*
X478155Y288423D01*
Y290697D01*
X477285Y292797D01*
X475807Y294275D01*
Y301355D01*
X477285Y302833D01*
X478155Y304933D01*
Y307207D01*
X477285Y309307D01*
X475677Y310915D01*
X473577Y311785D01*
D02*
G37*
G36*
X262757Y305435D02*
X260483D01*
X258383Y304565D01*
X256775Y302957D01*
X255905Y300857D01*
Y298583D01*
X256775Y296483D01*
X258383Y294875D01*
X259676Y294340D01*
X271480Y282535D01*
X272015Y281243D01*
X273623Y279635D01*
X275723Y278765D01*
X277997D01*
X280097Y279635D01*
X281705Y281243D01*
X282575Y283343D01*
Y285617D01*
X281705Y287717D01*
X280097Y289325D01*
X278804Y289860D01*
X267000Y301665D01*
X266465Y302957D01*
X264857Y304565D01*
X262757Y305435D01*
D02*
G37*
G36*
X933587Y287925D02*
X931313D01*
X929213Y287055D01*
X927605Y285447D01*
X926968Y283909D01*
X926606Y283667D01*
X922974Y280035D01*
X920883D01*
X918783Y279165D01*
X917175Y277557D01*
X916305Y275457D01*
Y273183D01*
X917175Y271083D01*
X918783Y269475D01*
X920883Y268605D01*
X923157D01*
X925257Y269475D01*
X926865Y271083D01*
X927735Y273183D01*
Y275274D01*
X929646Y277185D01*
X931313Y276495D01*
X933587D01*
X935687Y277365D01*
X937295Y278973D01*
X938165Y281073D01*
Y283347D01*
X937295Y285447D01*
X935687Y287055D01*
X933587Y287925D01*
D02*
G37*
G36*
X354461Y292580D02*
X351659D01*
X348953Y291855D01*
X346527Y290454D01*
X344546Y288473D01*
X343145Y286047D01*
X342420Y283341D01*
Y280539D01*
X343145Y277833D01*
X344546Y275407D01*
X346527Y273426D01*
X348953Y272025D01*
X351659Y271300D01*
X354461D01*
X357167Y272025D01*
X359593Y273426D01*
X361574Y275407D01*
X362975Y277833D01*
X363700Y280539D01*
Y283341D01*
X362975Y286047D01*
X361574Y288473D01*
X359593Y290454D01*
X357167Y291855D01*
X354461Y292580D01*
D02*
G37*
G36*
X260501Y280030D02*
X257659D01*
X254915Y279295D01*
X252455Y277874D01*
X250446Y275865D01*
X249025Y273405D01*
X248290Y270660D01*
Y267819D01*
X249025Y265075D01*
X250446Y262615D01*
X252455Y260606D01*
X254915Y259185D01*
X257659Y258450D01*
X260501D01*
X263245Y259185D01*
X265705Y260606D01*
X267714Y262615D01*
X269135Y265075D01*
X269870Y267819D01*
Y270660D01*
X269135Y273405D01*
X267714Y275865D01*
X265705Y277874D01*
X263245Y279295D01*
X260501Y280030D01*
D02*
G37*
G36*
X712538Y266700D02*
X712470D01*
Y257810D01*
X721360D01*
Y257878D01*
X720668Y260462D01*
X719330Y262778D01*
X717438Y264670D01*
X715122Y266008D01*
X712538Y266700D01*
D02*
G37*
G36*
X687138D02*
X687070D01*
Y257810D01*
X695960D01*
Y257878D01*
X695268Y260462D01*
X693930Y262778D01*
X692038Y264670D01*
X689722Y266008D01*
X687138Y266700D01*
D02*
G37*
G36*
X709930D02*
X709862D01*
X707278Y266008D01*
X704962Y264670D01*
X703070Y262778D01*
X701732Y260462D01*
X701040Y257878D01*
Y257810D01*
X709930D01*
Y266700D01*
D02*
G37*
G36*
X684530D02*
X684462D01*
X681878Y266008D01*
X679562Y264670D01*
X677670Y262778D01*
X676332Y260462D01*
X675640Y257878D01*
Y257810D01*
X684530D01*
Y266700D01*
D02*
G37*
G36*
X458337Y283210D02*
X456063D01*
X453963Y282340D01*
X452355Y280732D01*
X451485Y278632D01*
Y276358D01*
X451873Y275422D01*
X451550Y274937D01*
X451293Y273649D01*
Y265700D01*
X449815Y264222D01*
X448945Y262122D01*
Y259848D01*
X449815Y257748D01*
X451423Y256140D01*
X453523Y255270D01*
X455797D01*
X457897Y256140D01*
X459505Y257748D01*
X460375Y259848D01*
Y262122D01*
X459505Y264222D01*
X458027Y265700D01*
Y271780D01*
X458337D01*
X460437Y272650D01*
X462045Y274258D01*
X462915Y276358D01*
Y278632D01*
X462045Y280732D01*
X460437Y282340D01*
X458337Y283210D01*
D02*
G37*
G36*
X915738Y266700D02*
X913062D01*
X910478Y266008D01*
X908162Y264670D01*
X906270Y262778D01*
X904932Y260462D01*
X904240Y257878D01*
Y255202D01*
X904932Y252618D01*
X906270Y250302D01*
X908162Y248410D01*
X910478Y247072D01*
X913062Y246380D01*
X915738D01*
X918322Y247072D01*
X920638Y248410D01*
X922530Y250302D01*
X923868Y252618D01*
X924560Y255202D01*
Y257878D01*
X923868Y260462D01*
X922530Y262778D01*
X920638Y264670D01*
X918322Y266008D01*
X915738Y266700D01*
D02*
G37*
G36*
X890338D02*
X887662D01*
X885078Y266008D01*
X882762Y264670D01*
X880870Y262778D01*
X879532Y260462D01*
X878840Y257878D01*
Y255202D01*
X879532Y252618D01*
X880870Y250302D01*
X882762Y248410D01*
X885078Y247072D01*
X887662Y246380D01*
X890338D01*
X892922Y247072D01*
X895238Y248410D01*
X897130Y250302D01*
X898468Y252618D01*
X899160Y255202D01*
Y257878D01*
X898468Y260462D01*
X897130Y262778D01*
X895238Y264670D01*
X892922Y266008D01*
X890338Y266700D01*
D02*
G37*
G36*
X839538D02*
X836862D01*
X834278Y266008D01*
X831962Y264670D01*
X830070Y262778D01*
X828732Y260462D01*
X828040Y257878D01*
Y255202D01*
X828732Y252618D01*
X830070Y250302D01*
X831962Y248410D01*
X834278Y247072D01*
X836862Y246380D01*
X839538D01*
X842122Y247072D01*
X844438Y248410D01*
X846330Y250302D01*
X847668Y252618D01*
X848360Y255202D01*
Y257878D01*
X847668Y260462D01*
X846330Y262778D01*
X844438Y264670D01*
X842122Y266008D01*
X839538Y266700D01*
D02*
G37*
G36*
X814138D02*
X811462D01*
X808878Y266008D01*
X806562Y264670D01*
X804670Y262778D01*
X803332Y260462D01*
X802640Y257878D01*
Y255202D01*
X803332Y252618D01*
X804670Y250302D01*
X806562Y248410D01*
X808878Y247072D01*
X811462Y246380D01*
X814138D01*
X816722Y247072D01*
X819038Y248410D01*
X820930Y250302D01*
X822268Y252618D01*
X822960Y255202D01*
Y257878D01*
X822268Y260462D01*
X820930Y262778D01*
X819038Y264670D01*
X816722Y266008D01*
X814138Y266700D01*
D02*
G37*
G36*
X788738D02*
X786062D01*
X783478Y266008D01*
X781162Y264670D01*
X779270Y262778D01*
X777932Y260462D01*
X777240Y257878D01*
Y255202D01*
X777932Y252618D01*
X779270Y250302D01*
X781162Y248410D01*
X783478Y247072D01*
X786062Y246380D01*
X788738D01*
X791322Y247072D01*
X793638Y248410D01*
X795530Y250302D01*
X796868Y252618D01*
X797560Y255202D01*
Y257878D01*
X796868Y260462D01*
X795530Y262778D01*
X793638Y264670D01*
X791322Y266008D01*
X788738Y266700D01*
D02*
G37*
G36*
X737938D02*
X735262D01*
X732678Y266008D01*
X730362Y264670D01*
X728470Y262778D01*
X727132Y260462D01*
X726440Y257878D01*
Y255202D01*
X727132Y252618D01*
X728470Y250302D01*
X730362Y248410D01*
X732678Y247072D01*
X735262Y246380D01*
X737938D01*
X740522Y247072D01*
X742838Y248410D01*
X744730Y250302D01*
X746068Y252618D01*
X746760Y255202D01*
Y257878D01*
X746068Y260462D01*
X744730Y262778D01*
X742838Y264670D01*
X740522Y266008D01*
X737938Y266700D01*
D02*
G37*
G36*
X721360Y255270D02*
X712470D01*
Y246380D01*
X712538D01*
X715122Y247072D01*
X717438Y248410D01*
X719330Y250302D01*
X720668Y252618D01*
X721360Y255202D01*
Y255270D01*
D02*
G37*
G36*
X709930D02*
X701040D01*
Y255202D01*
X701732Y252618D01*
X703070Y250302D01*
X704962Y248410D01*
X707278Y247072D01*
X709862Y246380D01*
X709930D01*
Y255270D01*
D02*
G37*
G36*
X695960D02*
X687070D01*
Y246380D01*
X687138D01*
X689722Y247072D01*
X692038Y248410D01*
X693930Y250302D01*
X695268Y252618D01*
X695960Y255202D01*
Y255270D01*
D02*
G37*
G36*
X684530D02*
X675640D01*
Y255202D01*
X676332Y252618D01*
X677670Y250302D01*
X679562Y248410D01*
X681878Y247072D01*
X684462Y246380D01*
X684530D01*
Y255270D01*
D02*
G37*
G36*
X661738Y266700D02*
X659062D01*
X656478Y266008D01*
X654162Y264670D01*
X652270Y262778D01*
X650932Y260462D01*
X650240Y257878D01*
Y255202D01*
X650932Y252618D01*
X652270Y250302D01*
X654162Y248410D01*
X656478Y247072D01*
X659062Y246380D01*
X661738D01*
X664322Y247072D01*
X666638Y248410D01*
X668530Y250302D01*
X669868Y252618D01*
X670560Y255202D01*
Y257878D01*
X669868Y260462D01*
X668530Y262778D01*
X666638Y264670D01*
X664322Y266008D01*
X661738Y266700D01*
D02*
G37*
G36*
X636338D02*
X633662D01*
X631078Y266008D01*
X628762Y264670D01*
X626870Y262778D01*
X625532Y260462D01*
X624840Y257878D01*
Y255202D01*
X625532Y252618D01*
X626870Y250302D01*
X628762Y248410D01*
X631078Y247072D01*
X633662Y246380D01*
X636338D01*
X638922Y247072D01*
X641238Y248410D01*
X643130Y250302D01*
X644468Y252618D01*
X645160Y255202D01*
Y257878D01*
X644468Y260462D01*
X643130Y262778D01*
X641238Y264670D01*
X638922Y266008D01*
X636338Y266700D01*
D02*
G37*
G36*
X610938D02*
X608262D01*
X605678Y266008D01*
X603362Y264670D01*
X601470Y262778D01*
X600132Y260462D01*
X599440Y257878D01*
Y255202D01*
X600132Y252618D01*
X601470Y250302D01*
X603362Y248410D01*
X605678Y247072D01*
X608262Y246380D01*
X610938D01*
X613522Y247072D01*
X615838Y248410D01*
X617730Y250302D01*
X619068Y252618D01*
X619760Y255202D01*
Y257878D01*
X619068Y260462D01*
X617730Y262778D01*
X615838Y264670D01*
X613522Y266008D01*
X610938Y266700D01*
D02*
G37*
G36*
X585538D02*
X582862D01*
X580278Y266008D01*
X577962Y264670D01*
X576070Y262778D01*
X574732Y260462D01*
X574040Y257878D01*
Y255202D01*
X574732Y252618D01*
X576070Y250302D01*
X577962Y248410D01*
X580278Y247072D01*
X582862Y246380D01*
X585538D01*
X588122Y247072D01*
X590438Y248410D01*
X592330Y250302D01*
X593668Y252618D01*
X594360Y255202D01*
Y257878D01*
X593668Y260462D01*
X592330Y262778D01*
X590438Y264670D01*
X588122Y266008D01*
X585538Y266700D01*
D02*
G37*
G36*
X560138D02*
X557462D01*
X554878Y266008D01*
X552562Y264670D01*
X550670Y262778D01*
X549332Y260462D01*
X548640Y257878D01*
Y255202D01*
X549332Y252618D01*
X550670Y250302D01*
X552562Y248410D01*
X554878Y247072D01*
X557462Y246380D01*
X560138D01*
X562722Y247072D01*
X565038Y248410D01*
X566930Y250302D01*
X568268Y252618D01*
X568960Y255202D01*
Y257878D01*
X568268Y260462D01*
X566930Y262778D01*
X565038Y264670D01*
X562722Y266008D01*
X560138Y266700D01*
D02*
G37*
G36*
X260501Y254630D02*
X257659D01*
X254915Y253895D01*
X252455Y252474D01*
X250446Y250465D01*
X249025Y248005D01*
X248290Y245261D01*
Y242419D01*
X249025Y239675D01*
X250446Y237215D01*
X252455Y235206D01*
X254915Y233785D01*
X257659Y233050D01*
X260501D01*
X263245Y233785D01*
X265705Y235206D01*
X267714Y237215D01*
X269135Y239675D01*
X269870Y242419D01*
Y245261D01*
X269135Y248005D01*
X267714Y250465D01*
X265705Y252474D01*
X263245Y253895D01*
X260501Y254630D01*
D02*
G37*
G36*
X864938Y266700D02*
X862262D01*
X859678Y266008D01*
X857362Y264670D01*
X855470Y262778D01*
X854132Y260462D01*
X853440Y257878D01*
Y255202D01*
X854132Y252618D01*
X855470Y250302D01*
X857362Y248410D01*
X859678Y247072D01*
X862262Y246380D01*
X864938D01*
X867522Y247072D01*
X867544Y247085D01*
X868552Y246201D01*
X868045Y244977D01*
Y242703D01*
X868915Y240603D01*
X870393Y239125D01*
Y235602D01*
X868915Y234123D01*
X868045Y232023D01*
Y229749D01*
X868915Y227649D01*
X870523Y226041D01*
X872623Y225171D01*
X874897D01*
X876997Y226041D01*
X878605Y227649D01*
X879475Y229749D01*
Y232023D01*
X878605Y234123D01*
X877127Y235602D01*
Y239125D01*
X878605Y240603D01*
X879475Y242703D01*
Y244977D01*
X878605Y247077D01*
X876997Y248685D01*
X874897Y249555D01*
X872691D01*
X872671Y249571D01*
X872460Y249809D01*
X871926Y250641D01*
X873068Y252618D01*
X873760Y255202D01*
Y257878D01*
X873068Y260462D01*
X871730Y262778D01*
X869838Y264670D01*
X867522Y266008D01*
X864938Y266700D01*
D02*
G37*
G36*
X93670Y242461D02*
Y222250D01*
X105048D01*
Y229980D01*
X104617Y233254D01*
X103354Y236304D01*
X101344Y238924D01*
X98724Y240934D01*
X95674Y242197D01*
X93670Y242461D01*
D02*
G37*
G36*
X91130D02*
X89126Y242197D01*
X86076Y240934D01*
X83456Y238924D01*
X81446Y236304D01*
X80183Y233254D01*
X79752Y229980D01*
Y222250D01*
X91130D01*
Y242461D01*
D02*
G37*
G36*
X507622Y240909D02*
X505349D01*
X503248Y240039D01*
X501641Y238432D01*
X500771Y236331D01*
Y234058D01*
X501641Y231957D01*
X503248Y230349D01*
X505349Y229479D01*
X507439D01*
X512445Y224474D01*
Y222383D01*
X513315Y220283D01*
X514923Y218675D01*
X517023Y217805D01*
X519297D01*
X521397Y218675D01*
X523005Y220283D01*
X523875Y222383D01*
Y224657D01*
X523005Y226757D01*
X521397Y228365D01*
X519297Y229235D01*
X517206D01*
X512201Y234241D01*
Y236331D01*
X511331Y238432D01*
X509723Y240039D01*
X507622Y240909D01*
D02*
G37*
G36*
X260501Y229230D02*
X257659D01*
X254915Y228495D01*
X252455Y227074D01*
X250446Y225065D01*
X249025Y222605D01*
X248290Y219860D01*
Y217020D01*
X249025Y214275D01*
X250446Y211815D01*
X252455Y209806D01*
X254915Y208385D01*
X257659Y207650D01*
X260501D01*
X263245Y208385D01*
X265705Y209806D01*
X267714Y211815D01*
X269135Y214275D01*
X269870Y217020D01*
Y219860D01*
X269135Y222605D01*
X267714Y225065D01*
X265705Y227074D01*
X263245Y228495D01*
X260501Y229230D01*
D02*
G37*
G36*
X105048Y219710D02*
X93670D01*
Y199499D01*
X95674Y199763D01*
X98724Y201026D01*
X101344Y203036D01*
X103354Y205656D01*
X104617Y208706D01*
X105048Y211980D01*
Y219710D01*
D02*
G37*
G36*
X91130D02*
X79752D01*
Y211980D01*
X80183Y208706D01*
X81446Y205656D01*
X83456Y203036D01*
X86076Y201026D01*
X89126Y199763D01*
X91130Y199499D01*
Y219710D01*
D02*
G37*
G36*
X152400Y242628D02*
X149126Y242197D01*
X146076Y240934D01*
X143456Y238924D01*
X141446Y236304D01*
X140183Y233254D01*
X139752Y229980D01*
Y211980D01*
X140183Y208706D01*
X141446Y205656D01*
X143456Y203036D01*
X146076Y201026D01*
X149126Y199763D01*
X152400Y199332D01*
X155674Y199763D01*
X158724Y201026D01*
X161344Y203036D01*
X163354Y205656D01*
X164617Y208706D01*
X165048Y211980D01*
Y229980D01*
X164617Y233254D01*
X163354Y236304D01*
X161344Y238924D01*
X158724Y240934D01*
X155674Y242197D01*
X152400Y242628D01*
D02*
G37*
G36*
X134900Y186119D02*
X128670D01*
Y175750D01*
X146372D01*
X146143Y177493D01*
X144980Y180300D01*
X143130Y182710D01*
X140720Y184560D01*
X137913Y185723D01*
X134900Y186119D01*
D02*
G37*
G36*
X126130D02*
X119900D01*
X116887Y185723D01*
X114080Y184560D01*
X111670Y182710D01*
X109820Y180300D01*
X108657Y177493D01*
X108428Y175750D01*
X126130D01*
Y186119D01*
D02*
G37*
G36*
X146372Y173210D02*
X128670D01*
Y162840D01*
X134900D01*
X137913Y163237D01*
X140720Y164400D01*
X143130Y166250D01*
X144980Y168660D01*
X146143Y171467D01*
X146372Y173210D01*
D02*
G37*
G36*
X126130D02*
X108428D01*
X108657Y171467D01*
X109820Y168660D01*
X111670Y166250D01*
X114080Y164400D01*
X116887Y163237D01*
X119900Y162840D01*
X126130D01*
Y173210D01*
D02*
G37*
G36*
X311385Y184150D02*
X308375D01*
X305468Y183371D01*
X302862Y181866D01*
X300734Y179738D01*
X299229Y177132D01*
X298450Y174225D01*
Y171215D01*
X299229Y168308D01*
X300734Y165702D01*
X302862Y163574D01*
X305468Y162069D01*
X308375Y161290D01*
X311385D01*
X314292Y162069D01*
X316898Y163574D01*
X319026Y165702D01*
X320531Y168308D01*
X321310Y171215D01*
Y174225D01*
X320531Y177132D01*
X319026Y179738D01*
X316898Y181866D01*
X314292Y183371D01*
X311385Y184150D01*
D02*
G37*
G36*
Y158750D02*
X311150D01*
Y148590D01*
X321310D01*
Y148825D01*
X320531Y151732D01*
X319026Y154338D01*
X316898Y156466D01*
X314292Y157971D01*
X311385Y158750D01*
D02*
G37*
G36*
X308610D02*
X308375D01*
X305468Y157971D01*
X302862Y156466D01*
X300734Y154338D01*
X299229Y151732D01*
X298450Y148825D01*
Y148590D01*
X308610D01*
Y158750D01*
D02*
G37*
G36*
X321310Y146050D02*
X311150D01*
Y135890D01*
X311385D01*
X314292Y136669D01*
X316898Y138174D01*
X319026Y140302D01*
X320531Y142908D01*
X321310Y145815D01*
Y146050D01*
D02*
G37*
G36*
X308610D02*
X298450D01*
Y145815D01*
X299229Y142908D01*
X300734Y140302D01*
X302862Y138174D01*
X305468Y136669D01*
X308375Y135890D01*
X308610D01*
Y146050D01*
D02*
G37*
G36*
X311385Y133350D02*
X311150D01*
Y123190D01*
X321310D01*
Y123425D01*
X320531Y126332D01*
X319026Y128938D01*
X316898Y131066D01*
X314292Y132571D01*
X311385Y133350D01*
D02*
G37*
G36*
X308610D02*
X308375D01*
X305468Y132571D01*
X302862Y131066D01*
X300734Y128938D01*
X299229Y126332D01*
X298450Y123425D01*
Y123190D01*
X308610D01*
Y133350D01*
D02*
G37*
G36*
X321310Y120650D02*
X311150D01*
Y110490D01*
X311385D01*
X314292Y111269D01*
X316898Y112774D01*
X319026Y114902D01*
X320531Y117508D01*
X321310Y120415D01*
Y120650D01*
D02*
G37*
G36*
X308610D02*
X298450D01*
Y120415D01*
X299229Y117508D01*
X300734Y114902D01*
X302862Y112774D01*
X305468Y111269D01*
X308375Y110490D01*
X308610D01*
Y120650D01*
D02*
G37*
G36*
X311385Y107950D02*
X311150D01*
Y97790D01*
X321310D01*
Y98025D01*
X320531Y100932D01*
X319026Y103538D01*
X316898Y105666D01*
X314292Y107171D01*
X311385Y107950D01*
D02*
G37*
G36*
X308610D02*
X308375D01*
X305468Y107171D01*
X302862Y105666D01*
X300734Y103538D01*
X299229Y100932D01*
X298450Y98025D01*
Y97790D01*
X308610D01*
Y107950D01*
D02*
G37*
G36*
X321310Y95250D02*
X311150D01*
Y85090D01*
X311385D01*
X314292Y85869D01*
X316898Y87374D01*
X319026Y89502D01*
X320531Y92108D01*
X321310Y95015D01*
Y95250D01*
D02*
G37*
G36*
X308610D02*
X298450D01*
Y95015D01*
X299229Y92108D01*
X300734Y89502D01*
X302862Y87374D01*
X305468Y85869D01*
X308375Y85090D01*
X308610D01*
Y95250D01*
D02*
G37*
%LPD*%
D12*
X261620Y299720D02*
X276860Y284480D01*
X301518Y305542D02*
X312420Y294640D01*
X301275Y308461D02*
X301518Y308218D01*
Y305542D02*
Y308218D01*
D14*
X688352Y499114D02*
X689614D01*
X698500Y508000D01*
X681863Y505603D02*
X688352Y499114D01*
X698500Y508000D02*
X698881D01*
X694817Y533152D02*
Y562225D01*
X688340Y526675D02*
X694817Y533152D01*
X713948Y526854D02*
Y554524D01*
X713867Y554605D02*
X713948Y554524D01*
X700913Y614807D02*
X709034D01*
X698183Y617537D02*
X700913Y614807D01*
X641080Y646700D02*
X650240Y637540D01*
X713948Y526854D02*
X714030Y526773D01*
X682308Y617537D02*
X698183D01*
X681990Y617855D02*
X682308Y617537D01*
X619760Y485140D02*
X629600Y494980D01*
X632140D02*
X633064Y495904D01*
X629600Y494980D02*
X632140D01*
X502920Y534634D02*
X504537Y536251D01*
Y540351D01*
X505460Y541274D01*
X623745Y503253D02*
X624078Y503586D01*
X607393Y503253D02*
X623745D01*
X502920Y520700D02*
Y534634D01*
X474980Y511810D02*
Y513080D01*
Y511810D02*
X485384Y501406D01*
Y500136D02*
Y501406D01*
X497840Y574040D02*
X510794D01*
X474980Y617220D02*
Y632460D01*
X584200Y754380D02*
Y778764D01*
X583438Y753618D02*
X584200Y754380D01*
X596900Y718820D02*
X614680D01*
X607060Y502920D02*
X607393Y503253D01*
X523240Y574040D02*
X539750D01*
X505460Y612628D02*
Y623788D01*
X502920Y626328D02*
X505460Y623788D01*
X490220Y614680D02*
Y629920D01*
X502920Y626328D02*
Y629646D01*
X585988Y593217D02*
X586740Y593969D01*
X548640Y601345D02*
Y622300D01*
X599440Y597281D02*
Y621919D01*
X627380Y596646D02*
Y617220D01*
X609600Y597281D02*
Y621157D01*
X650240Y596494D02*
Y622300D01*
X574040Y597281D02*
Y608503D01*
X586740Y593969D02*
Y617855D01*
X609600Y756158D02*
Y777240D01*
X602437Y652526D02*
X624948D01*
X625202Y652780D01*
X601946Y653016D02*
X602437Y652526D01*
X574040Y608503D02*
X576580Y611043D01*
Y618490D01*
X467360Y754380D02*
Y779780D01*
X922020Y274320D02*
X928987Y281287D01*
X873760Y230886D02*
Y243840D01*
X928987Y281287D02*
X931526D01*
X932450Y282210D01*
X405130Y624840D02*
X415417D01*
X417034Y626457D02*
X420717D01*
X421640Y627380D01*
X415417Y624840D02*
X417034Y626457D01*
X492760Y756920D02*
Y779780D01*
X795020Y675640D02*
X818548Y652112D01*
X746760Y721360D02*
X767080D01*
X608838Y621919D02*
X609600Y621157D01*
X472440Y289560D02*
Y306070D01*
X454660Y260985D02*
Y273649D01*
X457200Y276189D02*
Y277495D01*
X454660Y273649D02*
X457200Y276189D01*
X506486Y235194D02*
X518160Y223520D01*
X774714Y627366D02*
X775637Y626443D01*
X772174Y627366D02*
X774714D01*
X759460Y640080D02*
X772174Y627366D01*
X749196Y616837D02*
X752918Y613116D01*
X749196Y616837D02*
Y617323D01*
X752918Y611062D02*
X757086Y606894D01*
X754380Y629920D02*
X764220Y620080D01*
Y617540D02*
X765144Y616617D01*
X764220Y617540D02*
Y620080D01*
X752918Y611062D02*
Y613116D01*
X246380Y576580D02*
Y589534D01*
D50*
X17462Y816980D02*
D03*
X64962D02*
D03*
Y742580D02*
D03*
X17462D02*
D03*
D51*
X73979Y763581D02*
D03*
Y779581D02*
D03*
X61941Y771582D02*
D03*
Y787582D02*
D03*
X73979Y795580D02*
D03*
D52*
X66040Y515620D02*
D03*
X40640D02*
D03*
X116840D02*
D03*
X91440D02*
D03*
X312420Y467360D02*
D03*
Y492760D02*
D03*
Y416560D02*
D03*
Y441960D02*
D03*
X309880Y121920D02*
D03*
Y96520D02*
D03*
Y172720D02*
D03*
Y147320D02*
D03*
X53340Y650240D02*
D03*
Y624840D02*
D03*
Y701040D02*
D03*
Y675640D02*
D03*
X165100Y434340D02*
D03*
Y459740D02*
D03*
Y383540D02*
D03*
Y408940D02*
D03*
X909320Y414020D02*
D03*
Y439420D02*
D03*
Y363220D02*
D03*
Y388620D02*
D03*
X182880Y822960D02*
D03*
X208280D02*
D03*
X132080D02*
D03*
X157480D02*
D03*
D53*
X353060Y307340D02*
D03*
Y281940D02*
D03*
D54*
X259080Y218440D02*
D03*
Y243840D02*
D03*
Y269240D02*
D03*
D55*
X736600Y739140D02*
D03*
X762000D02*
D03*
X787400D02*
D03*
X812800D02*
D03*
X838200D02*
D03*
X863600D02*
D03*
X889000D02*
D03*
X914400D02*
D03*
X695960D02*
D03*
X670560D02*
D03*
X645160D02*
D03*
X619760D02*
D03*
X594360D02*
D03*
X568960D02*
D03*
X543560D02*
D03*
X518160D02*
D03*
X492760D02*
D03*
X467360D02*
D03*
X736600Y256540D02*
D03*
X711200D02*
D03*
X685800D02*
D03*
X660400D02*
D03*
X635000D02*
D03*
X609600D02*
D03*
X584200D02*
D03*
X558800D02*
D03*
X914400D02*
D03*
X889000D02*
D03*
X863600D02*
D03*
X838200D02*
D03*
X812800D02*
D03*
X787400D02*
D03*
D56*
X152400Y220980D02*
D03*
X92400D02*
D03*
D57*
X127400Y174480D02*
D03*
D58*
X698881Y508000D02*
D03*
X681863Y505603D02*
D03*
X688340Y526675D02*
D03*
X694817Y562225D02*
D03*
X713867Y554605D02*
D03*
X709034Y614807D02*
D03*
X641080Y646700D02*
D03*
X714030Y526773D02*
D03*
X681990Y617855D02*
D03*
X633064Y495904D02*
D03*
X619760Y485140D02*
D03*
X505460Y541274D02*
D03*
X624078Y503586D02*
D03*
X502920Y520700D02*
D03*
X485384Y500136D02*
D03*
X474980Y513080D02*
D03*
X510794Y574040D02*
D03*
X474980Y617220D02*
D03*
Y632460D02*
D03*
X584200Y778764D02*
D03*
X583438Y753618D02*
D03*
X614680Y718820D02*
D03*
X596900D02*
D03*
X607060Y502920D02*
D03*
X539750Y574040D02*
D03*
X523240D02*
D03*
X497840D02*
D03*
X505460Y612628D02*
D03*
X490220Y614680D02*
D03*
Y629920D02*
D03*
X502920Y629646D02*
D03*
X585988Y593217D02*
D03*
X548640Y622300D02*
D03*
Y601345D02*
D03*
X650240Y596494D02*
D03*
X627380Y596646D02*
D03*
X609600Y597281D02*
D03*
X599440D02*
D03*
X574040D02*
D03*
X586740Y617855D02*
D03*
X609600Y756158D02*
D03*
X625202Y652780D02*
D03*
X601946Y653016D02*
D03*
X584200Y683260D02*
D03*
X576580Y618490D02*
D03*
X563730Y622327D02*
D03*
X467360Y754380D02*
D03*
Y779780D02*
D03*
X609600Y777240D02*
D03*
X922020Y274320D02*
D03*
X873760Y230886D02*
D03*
Y243840D02*
D03*
X932450Y282210D02*
D03*
X405130Y624840D02*
D03*
X421640Y627380D02*
D03*
X492760Y756920D02*
D03*
Y779780D02*
D03*
X818548Y652112D02*
D03*
X795020Y675640D02*
D03*
X340539Y736421D02*
D03*
X767080Y721360D02*
D03*
X746760D02*
D03*
X261620Y299720D02*
D03*
X276860Y284480D02*
D03*
X301275Y308461D02*
D03*
X312420Y294640D02*
D03*
X599440Y621919D02*
D03*
X608838D02*
D03*
X650240Y637540D02*
D03*
Y622300D02*
D03*
X472440Y306070D02*
D03*
Y289560D02*
D03*
X457200Y277495D02*
D03*
X454660Y260985D02*
D03*
X114300Y50800D02*
D03*
X195580Y58420D02*
D03*
X506486Y235194D02*
D03*
X518160Y223520D02*
D03*
X701040Y429260D02*
D03*
X775637Y626443D02*
D03*
X520700Y627380D02*
D03*
X713740Y650240D02*
D03*
X627380Y680720D02*
D03*
Y617220D02*
D03*
X513080Y406400D02*
D03*
X749196Y617323D02*
D03*
X757086Y606894D02*
D03*
X765144Y616617D02*
D03*
X754380Y629920D02*
D03*
X759460Y640080D02*
D03*
X246380Y589534D02*
D03*
Y576580D02*
D03*
X281940Y731520D02*
D03*
X248920Y469900D02*
D03*
X35560Y304800D02*
D03*
X30480Y350520D02*
D03*
Y383540D02*
D03*
M02*
