G04*
G04 #@! TF.GenerationSoftware,Altium Limited,Altium Designer,24.1.2 (44)*
G04*
G04 Layer_Color=128*
%FSLAX44Y44*%
%MOMM*%
G71*
G04*
G04 #@! TF.SameCoordinates,2C86CFE1-E18B-4F6B-AC91-37C5E2943870*
G04*
G04*
G04 #@! TF.FilePolarity,Positive*
G04*
G01*
G75*
%ADD18C,0.1270*%
D18*
X781900Y256540D02*
X792900D01*
X787400Y251040D02*
Y262040D01*
X807300Y256540D02*
X818300D01*
X812800Y251040D02*
Y262040D01*
X832700Y256540D02*
X843700D01*
X838200Y251040D02*
Y262040D01*
X858100Y256540D02*
X869100D01*
X863600Y251040D02*
Y262040D01*
X883500Y256540D02*
X894500D01*
X889000Y251040D02*
Y262040D01*
X908900Y256540D02*
X919900D01*
X914400Y251040D02*
Y262040D01*
X908900Y739140D02*
X919900D01*
X914400Y733640D02*
Y744640D01*
X883500Y739140D02*
X894500D01*
X889000Y733640D02*
Y744640D01*
X858100Y739140D02*
X869100D01*
X863600Y733640D02*
Y744640D01*
X832700Y739140D02*
X843700D01*
X838200Y733640D02*
Y744640D01*
X807300Y739140D02*
X818300D01*
X812800Y733640D02*
Y744640D01*
X781900Y739140D02*
X792900D01*
X787400Y733640D02*
Y744640D01*
X756500Y739140D02*
X767500D01*
X762000Y733640D02*
Y744640D01*
X731100Y739140D02*
X742100D01*
X736600Y733640D02*
Y744640D01*
X690460Y739140D02*
X701460D01*
X695960Y733640D02*
Y744640D01*
X665060Y739140D02*
X676060D01*
X670560Y733640D02*
Y744640D01*
X639660Y739140D02*
X650660D01*
X645160Y733640D02*
Y744640D01*
X614260Y739140D02*
X625260D01*
X619760Y733640D02*
Y744640D01*
X588860Y739140D02*
X599860D01*
X594360Y733640D02*
Y744640D01*
X563460Y739140D02*
X574460D01*
X568960Y733640D02*
Y744640D01*
X538060Y739140D02*
X549060D01*
X543560Y733640D02*
Y744640D01*
X512660Y739140D02*
X523660D01*
X518160Y733640D02*
Y744640D01*
X487260Y739140D02*
X498260D01*
X492760Y733640D02*
Y744640D01*
X461860Y739140D02*
X472860D01*
X467360Y733640D02*
Y744640D01*
X13462Y816980D02*
X21462D01*
X17462Y812980D02*
Y820980D01*
X60961Y816980D02*
X68962D01*
X64962Y812980D02*
Y820980D01*
X60961Y742580D02*
X68962D01*
X64962Y738580D02*
Y746580D01*
X69978Y763581D02*
X77979D01*
X73979Y759581D02*
Y767581D01*
X69978Y779581D02*
X77979D01*
X73979Y775581D02*
Y783581D01*
X57941Y771582D02*
X65941D01*
X61941Y767582D02*
Y775582D01*
X57941Y787582D02*
X65941D01*
X61941Y783582D02*
Y791582D01*
X69978Y795580D02*
X77979D01*
X73979Y791580D02*
Y799580D01*
X13462Y742580D02*
X21462D01*
X17462Y738580D02*
Y746580D01*
X60960Y515620D02*
X71120D01*
X66040Y510540D02*
Y520700D01*
X35560Y515620D02*
X45720D01*
X40640Y510540D02*
Y520700D01*
X111760Y515620D02*
X121920D01*
X116840Y510540D02*
Y520700D01*
X86360Y515620D02*
X96520D01*
X91440Y510540D02*
Y520700D01*
X647700Y695960D02*
X657860D01*
X652780Y690880D02*
Y701040D01*
X673100Y695960D02*
X683260D01*
X678180Y690880D02*
Y701040D01*
X596900Y695960D02*
X607060D01*
X601980Y690880D02*
Y701040D01*
X622300Y695960D02*
X632460D01*
X627380Y690880D02*
Y701040D01*
X347960Y307340D02*
X358160D01*
X353060Y302240D02*
Y312440D01*
X347960Y281940D02*
X358160D01*
X353060Y276840D02*
Y287040D01*
X253580Y218440D02*
X264580D01*
X259080Y212940D02*
Y223940D01*
X253580Y243840D02*
X264580D01*
X259080Y238340D02*
Y249340D01*
X253580Y269240D02*
X264580D01*
X259080Y263740D02*
Y274740D01*
X304800Y121920D02*
X314960D01*
X309880Y116840D02*
Y127000D01*
X304800Y96520D02*
X314960D01*
X309880Y91440D02*
Y101600D01*
X304800Y172720D02*
X314960D01*
X309880Y167640D02*
Y177800D01*
X304800Y147320D02*
X314960D01*
X309880Y142240D02*
Y152400D01*
X48260Y650240D02*
X58420D01*
X53340Y645160D02*
Y655320D01*
X48260Y624840D02*
X58420D01*
X53340Y619760D02*
Y629920D01*
X48260Y701040D02*
X58420D01*
X53340Y695960D02*
Y706120D01*
X48260Y675640D02*
X58420D01*
X53340Y670560D02*
Y680720D01*
X731100Y256540D02*
X742100D01*
X736600Y251040D02*
Y262040D01*
X705700Y256540D02*
X716700D01*
X711200Y251040D02*
Y262040D01*
X680300Y256540D02*
X691300D01*
X685800Y251040D02*
Y262040D01*
X654900Y256540D02*
X665900D01*
X660400Y251040D02*
Y262040D01*
X629500Y256540D02*
X640500D01*
X635000Y251040D02*
Y262040D01*
X604100Y256540D02*
X615100D01*
X609600Y251040D02*
Y262040D01*
X578700Y256540D02*
X589700D01*
X584200Y251040D02*
Y262040D01*
X553300Y256540D02*
X564300D01*
X558800Y251040D02*
Y262040D01*
X146400Y220980D02*
X158400D01*
X152400Y214980D02*
Y226980D01*
X86400Y220980D02*
X98400D01*
X92400Y214980D02*
Y226980D01*
X122400Y174480D02*
X132400D01*
X127400Y169480D02*
Y179480D01*
X160020Y434340D02*
X170180D01*
X165100Y429260D02*
Y439420D01*
X160020Y459740D02*
X170180D01*
X165100Y454660D02*
Y464820D01*
X160020Y383540D02*
X170180D01*
X165100Y378460D02*
Y388620D01*
X160020Y408940D02*
X170180D01*
X165100Y403860D02*
Y414020D01*
X904240D02*
X914400D01*
X909320Y408940D02*
Y419100D01*
X904240Y439420D02*
X914400D01*
X909320Y434340D02*
Y444500D01*
X904240Y363220D02*
X914400D01*
X909320Y358140D02*
Y368300D01*
X904240Y388620D02*
X914400D01*
X909320Y383540D02*
Y393700D01*
X177800Y822960D02*
X187960D01*
X182880Y817880D02*
Y828040D01*
X203200Y822960D02*
X213360D01*
X208280Y817880D02*
Y828040D01*
X127000Y822960D02*
X137160D01*
X132080Y817880D02*
Y828040D01*
X152400Y822960D02*
X162560D01*
X157480Y817880D02*
Y828040D01*
X470789Y306070D02*
X474091D01*
X472440Y304419D02*
Y307721D01*
X874649Y752602D02*
X877951D01*
X876300Y750951D02*
Y754253D01*
X872109Y769620D02*
X875411D01*
X873760Y767969D02*
Y771271D01*
X884539Y274050D02*
X887841D01*
X886190Y272399D02*
Y275701D01*
X894969Y281940D02*
X898271D01*
X896620Y280289D02*
Y283591D01*
X470789Y289560D02*
X474091D01*
X472440Y287909D02*
Y291211D01*
X800989Y783971D02*
X804291D01*
X802640Y782320D02*
Y785622D01*
X800989Y806958D02*
X804291D01*
X802640Y805307D02*
Y808609D01*
X615569Y581660D02*
X618871D01*
X617220Y580009D02*
Y583311D01*
X280289Y731520D02*
X283591D01*
X281940Y729869D02*
Y733171D01*
X712089Y563880D02*
X715391D01*
X713740Y562229D02*
Y565531D01*
X743839Y239395D02*
X747141D01*
X745490Y237744D02*
Y241046D01*
X727329Y238760D02*
X730631D01*
X728980Y237109D02*
Y240411D01*
X582549Y586740D02*
X585851D01*
X584200Y585089D02*
Y588391D01*
X394589Y779780D02*
X397891D01*
X396240Y778129D02*
Y781431D01*
X397129Y759460D02*
X400431D01*
X398780Y757809D02*
Y761111D01*
X453009Y260985D02*
X456311D01*
X454660Y259334D02*
Y262636D01*
X455549Y277495D02*
X458851D01*
X457200Y275844D02*
Y279146D01*
X299624Y308461D02*
X302926D01*
X301275Y306810D02*
Y310112D01*
X635889Y642620D02*
X639191D01*
X637540Y640969D02*
Y644271D01*
X704469Y645160D02*
X707771D01*
X706120Y643509D02*
Y646811D01*
X666369Y645160D02*
X669671D01*
X668020Y643509D02*
Y646811D01*
X701929Y444500D02*
X705231D01*
X703580Y442849D02*
Y446151D01*
X691769Y566420D02*
X695071D01*
X693420Y564769D02*
Y568071D01*
X338888Y736421D02*
X342190D01*
X340539Y734770D02*
Y738072D01*
X259969Y299720D02*
X263271D01*
X261620Y298069D02*
Y301371D01*
X275209Y284480D02*
X278511D01*
X276860Y282829D02*
Y286131D01*
X310769Y294640D02*
X314071D01*
X312420Y292989D02*
Y296291D01*
X112649Y50800D02*
X115951D01*
X114300Y49149D02*
Y52451D01*
X193929Y58420D02*
X197231D01*
X195580Y56769D02*
Y60071D01*
X504835Y235194D02*
X508137D01*
X506486Y233543D02*
Y236845D01*
X516509Y223520D02*
X519811D01*
X518160Y221869D02*
Y225171D01*
X643509Y353060D02*
X646811D01*
X645160Y351409D02*
Y354711D01*
X244729Y589534D02*
X248031D01*
X246380Y587883D02*
Y591185D01*
X244729Y576580D02*
X248031D01*
X246380Y574929D02*
Y578231D01*
X247269Y469900D02*
X250571D01*
X248920Y468249D02*
Y471551D01*
X33909Y304800D02*
X37211D01*
X35560Y303149D02*
Y306451D01*
X28829Y350520D02*
X32131D01*
X30480Y348869D02*
Y352171D01*
X28829Y383540D02*
X32131D01*
X30480Y381889D02*
Y385191D01*
M02*
