G04*
G04 #@! TF.GenerationSoftware,Altium Limited,Altium Designer,24.1.2 (44)*
G04*
G04 Layer_Color=65535*
%FSLAX44Y44*%
%MOMM*%
G71*
G04*
G04 #@! TF.SameCoordinates,264AB7AF-67A9-449C-BE9F-4602C0ED76BB*
G04*
G04*
G04 #@! TF.FilePolarity,Positive*
G04*
G01*
G75*
%ADD10C,0.2540*%
%ADD11C,0.1000*%
%ADD12C,0.5080*%
%ADD13C,0.4000*%
%ADD14C,0.1524*%
%ADD15C,0.3810*%
%ADD16C,0.2286*%
%ADD17C,0.1999*%
%ADD18C,0.1270*%
G36*
X886338Y164335D02*
X886638D01*
Y164186D01*
X886937D01*
Y164036D01*
X887087D01*
Y163886D01*
X887237D01*
Y163736D01*
X887387D01*
Y163586D01*
X887537D01*
Y163286D01*
X887687D01*
Y162987D01*
X887837D01*
Y161788D01*
X887687D01*
Y161488D01*
X887537D01*
Y161188D01*
X887387D01*
Y161038D01*
X887237D01*
Y160889D01*
X887087D01*
Y160739D01*
X886937D01*
Y160589D01*
X886638D01*
Y160439D01*
X886338D01*
Y160289D01*
X885139D01*
Y160439D01*
X884839D01*
Y160589D01*
X884540D01*
Y160739D01*
X884390D01*
Y160889D01*
X884240D01*
Y161038D01*
X884090D01*
Y161188D01*
X883940D01*
Y161338D01*
Y161488D01*
X883791D01*
Y161788D01*
X883641D01*
Y162987D01*
X883791D01*
Y163286D01*
X883940D01*
Y163586D01*
X884090D01*
Y163736D01*
X884240D01*
Y163886D01*
X884390D01*
Y164036D01*
X884540D01*
Y164186D01*
X884839D01*
Y164335D01*
X885139D01*
Y164485D01*
X886338D01*
Y164335D01*
D02*
G37*
G36*
X877946D02*
X878246D01*
Y164186D01*
X878545D01*
Y164036D01*
X878695D01*
Y163886D01*
X878845D01*
Y163736D01*
X878995D01*
Y163586D01*
X879145D01*
Y163286D01*
X879295D01*
Y162987D01*
X879445D01*
Y161788D01*
X879295D01*
Y161488D01*
X879145D01*
Y161188D01*
X878995D01*
Y161038D01*
X878845D01*
Y160889D01*
X878695D01*
Y160739D01*
X878545D01*
Y160589D01*
X878246D01*
Y160439D01*
X877946D01*
Y160289D01*
X876747D01*
Y160439D01*
X876447D01*
Y160589D01*
X876148D01*
Y160739D01*
X875998D01*
Y160889D01*
X875848D01*
Y161038D01*
X875698D01*
Y161188D01*
X875548D01*
Y161488D01*
X875398D01*
Y161788D01*
X875248D01*
Y162387D01*
Y162537D01*
Y162987D01*
X875398D01*
Y163286D01*
X875548D01*
Y163586D01*
X875698D01*
Y163736D01*
X875848D01*
Y163886D01*
X875998D01*
Y164036D01*
X876148D01*
Y164186D01*
X876447D01*
Y164335D01*
X876747D01*
Y164485D01*
X877946D01*
Y164335D01*
D02*
G37*
G36*
X865358D02*
X865657D01*
Y164186D01*
X865957D01*
Y164036D01*
X866107D01*
Y163886D01*
X866257D01*
Y163736D01*
X866407D01*
Y163586D01*
X866557D01*
Y163286D01*
X866706D01*
Y162987D01*
X866856D01*
Y157592D01*
X866706D01*
Y157292D01*
X866557D01*
Y156992D01*
X866407D01*
Y156842D01*
X866257D01*
Y156693D01*
X866107D01*
Y156543D01*
X865957D01*
Y156393D01*
X865657D01*
Y156243D01*
X865358D01*
Y156093D01*
X864159D01*
Y156243D01*
X863859D01*
Y156393D01*
X863559D01*
Y156543D01*
X863410D01*
Y156693D01*
X863260D01*
Y156842D01*
X863110D01*
Y156992D01*
X862960D01*
Y157292D01*
X862810D01*
Y157592D01*
X862660D01*
Y162537D01*
Y162687D01*
Y162987D01*
X862810D01*
Y163286D01*
X862960D01*
Y163586D01*
X863110D01*
Y163736D01*
X863260D01*
Y163886D01*
X863410D01*
Y164036D01*
X863559D01*
Y164186D01*
X863859D01*
Y164335D01*
X864159D01*
Y164485D01*
X865358D01*
Y164335D01*
D02*
G37*
G36*
X852769D02*
X853069D01*
Y164186D01*
X853369D01*
Y164036D01*
X853519D01*
Y163886D01*
X853669D01*
Y163736D01*
X853819D01*
Y163586D01*
X853968D01*
Y163286D01*
X854118D01*
Y162987D01*
X854268D01*
Y157592D01*
X854118D01*
Y157292D01*
X853968D01*
Y156992D01*
X853819D01*
Y156842D01*
X853669D01*
Y156693D01*
X853519D01*
Y156543D01*
X853369D01*
Y156393D01*
X853069D01*
Y156243D01*
X852769D01*
Y156093D01*
X847374D01*
Y156243D01*
X847075D01*
Y156393D01*
X846775D01*
Y156543D01*
X846625D01*
Y156693D01*
X846475D01*
Y156842D01*
X846326D01*
Y156992D01*
X846176D01*
Y157292D01*
X846026D01*
Y157592D01*
X845876D01*
Y160289D01*
X841680D01*
Y157592D01*
X841530D01*
Y157292D01*
X841380D01*
Y156992D01*
X841230D01*
Y156842D01*
X841080D01*
Y156693D01*
X840930D01*
Y156543D01*
X840781D01*
Y156393D01*
X840481D01*
Y156243D01*
X840181D01*
Y156093D01*
X834786D01*
Y156243D01*
X834486D01*
Y156393D01*
X834187D01*
Y156543D01*
X834037D01*
Y156693D01*
X833887D01*
Y156842D01*
X833737D01*
Y156992D01*
X833587D01*
Y157292D01*
X833438D01*
Y157592D01*
X833288D01*
Y158791D01*
X833438D01*
Y159090D01*
X833587D01*
Y159390D01*
X833737D01*
Y159540D01*
X833887D01*
Y159690D01*
X834037D01*
Y159840D01*
X834187D01*
Y159990D01*
X834486D01*
Y160139D01*
X834786D01*
Y160289D01*
X837484D01*
Y162987D01*
X837634D01*
Y163286D01*
X837783D01*
Y163586D01*
X837933D01*
Y163736D01*
X838083D01*
Y163886D01*
X838233D01*
Y164036D01*
X838383D01*
Y164186D01*
X838683D01*
Y164335D01*
X838982D01*
Y164485D01*
X852769D01*
Y164335D01*
D02*
G37*
G36*
X856965Y155943D02*
X857265D01*
Y155793D01*
X857565D01*
Y155644D01*
X857715D01*
Y155494D01*
X857865D01*
Y155344D01*
X858015D01*
Y155194D01*
X858164D01*
Y154894D01*
X858314D01*
Y154595D01*
X858464D01*
Y153396D01*
X858314D01*
Y153096D01*
X858164D01*
Y152946D01*
Y152796D01*
X858015D01*
Y152646D01*
X857865D01*
Y152497D01*
X857715D01*
Y152347D01*
X857565D01*
Y152197D01*
X857265D01*
Y152047D01*
X856965D01*
Y151897D01*
X855767D01*
Y152047D01*
X855467D01*
Y152197D01*
X855167D01*
Y152347D01*
X855017D01*
Y152497D01*
X854867D01*
Y152646D01*
X854718D01*
Y152796D01*
X854568D01*
Y153096D01*
X854418D01*
Y153396D01*
X854268D01*
Y154595D01*
X854418D01*
Y154894D01*
X854568D01*
Y155194D01*
X854718D01*
Y155344D01*
X854867D01*
Y155494D01*
X855017D01*
Y155644D01*
X855167D01*
Y155793D01*
X855467D01*
Y155943D01*
X855767D01*
Y156093D01*
X856965D01*
Y155943D01*
D02*
G37*
G36*
X823397Y160139D02*
X823697D01*
Y159990D01*
X823996D01*
Y159840D01*
X824146D01*
Y159690D01*
X824296D01*
Y159540D01*
X824446D01*
Y159390D01*
X824596D01*
Y159090D01*
X824746D01*
Y158791D01*
X824895D01*
Y153396D01*
X824746D01*
Y153096D01*
X824596D01*
Y152796D01*
X824446D01*
Y152646D01*
X824296D01*
Y152497D01*
X824146D01*
Y152347D01*
X823996D01*
Y152197D01*
X823697D01*
Y152047D01*
X823397D01*
Y151897D01*
X818002D01*
Y152047D01*
X817702D01*
Y152197D01*
X817402D01*
Y152347D01*
X817253D01*
Y152497D01*
X817103D01*
Y152646D01*
X816953D01*
Y152796D01*
X816803D01*
Y153096D01*
X816653D01*
Y153396D01*
X816503D01*
Y158791D01*
X816653D01*
Y159090D01*
X816803D01*
Y159390D01*
X816953D01*
Y159540D01*
X817103D01*
Y159690D01*
X817253D01*
Y159840D01*
X817402D01*
Y159990D01*
X817702D01*
Y160139D01*
X818002D01*
Y160289D01*
X823397D01*
Y160139D01*
D02*
G37*
G36*
X869554Y155943D02*
X869854D01*
Y155793D01*
X870153D01*
Y155644D01*
X870303D01*
Y155494D01*
X870453D01*
Y155344D01*
X870603D01*
Y155194D01*
X870753D01*
Y154894D01*
X870902D01*
Y154595D01*
X871052D01*
Y154295D01*
Y154145D01*
Y149200D01*
X870902D01*
Y148900D01*
X870753D01*
Y148600D01*
X870603D01*
Y148450D01*
X870453D01*
Y148300D01*
X870303D01*
Y148151D01*
X870153D01*
Y148001D01*
X869854D01*
Y147851D01*
X869554D01*
Y147701D01*
X868355D01*
Y147851D01*
X868055D01*
Y148001D01*
X867755D01*
Y148151D01*
X867606D01*
Y148300D01*
X867456D01*
Y148450D01*
X867306D01*
Y148600D01*
X867156D01*
Y148900D01*
X867006D01*
Y149200D01*
X866856D01*
Y154595D01*
X867006D01*
Y154894D01*
X867156D01*
Y155194D01*
X867306D01*
Y155344D01*
X867456D01*
Y155494D01*
X867606D01*
Y155644D01*
X867755D01*
Y155793D01*
X868055D01*
Y155943D01*
X868355D01*
Y156093D01*
X869554D01*
Y155943D01*
D02*
G37*
G36*
X861162Y151747D02*
X861461D01*
Y151597D01*
X861761D01*
Y151447D01*
X861911D01*
Y151298D01*
X862061D01*
Y151148D01*
X862211D01*
Y150998D01*
X862361D01*
Y150698D01*
X862510D01*
Y150399D01*
X862660D01*
Y149200D01*
X862510D01*
Y148900D01*
X862361D01*
Y148600D01*
X862211D01*
Y148300D01*
X861911D01*
Y148151D01*
X861761D01*
Y148001D01*
X861461D01*
Y147851D01*
X861162D01*
Y147701D01*
X859963D01*
Y147851D01*
X859663D01*
Y148001D01*
X859363D01*
Y148151D01*
X859213D01*
Y148300D01*
X859064D01*
Y148450D01*
X858914D01*
Y148600D01*
X858764D01*
Y148900D01*
X858614D01*
Y149200D01*
X858464D01*
Y150399D01*
X858614D01*
Y150698D01*
X858764D01*
Y150998D01*
X858914D01*
Y151148D01*
X859064D01*
Y151298D01*
X859213D01*
Y151447D01*
X859363D01*
Y151597D01*
X859663D01*
Y151747D01*
X859963D01*
Y151897D01*
X861162D01*
Y151747D01*
D02*
G37*
G36*
X865358Y147551D02*
X865657D01*
Y147401D01*
X865957D01*
Y147251D01*
X866107D01*
Y147102D01*
X866257D01*
Y146952D01*
X866407D01*
Y146802D01*
X866557D01*
Y146502D01*
X866706D01*
Y146202D01*
X866856D01*
Y146053D01*
Y145003D01*
X866706D01*
Y144704D01*
X866557D01*
Y144404D01*
X866407D01*
Y144254D01*
X866257D01*
Y144104D01*
X866107D01*
Y143954D01*
X865957D01*
Y143805D01*
X865807D01*
Y143655D01*
X865358D01*
Y143505D01*
X864159D01*
Y143655D01*
X863859D01*
Y143805D01*
X863559D01*
Y143954D01*
X863410D01*
Y144104D01*
X863260D01*
Y144254D01*
X863110D01*
Y144404D01*
X862960D01*
Y144704D01*
X862810D01*
Y145003D01*
X862660D01*
Y146202D01*
X862810D01*
Y146502D01*
X862960D01*
Y146802D01*
X863110D01*
Y146952D01*
X863260D01*
Y147102D01*
X863410D01*
Y147251D01*
X863559D01*
Y147401D01*
X863859D01*
Y147551D01*
X864159D01*
Y147701D01*
X865358D01*
Y147551D01*
D02*
G37*
G36*
X844377Y155943D02*
X844677D01*
Y155793D01*
X844977D01*
Y155644D01*
X845127D01*
Y155494D01*
X845276D01*
Y155344D01*
X845426D01*
Y155194D01*
X845576D01*
Y154894D01*
X845726D01*
Y154595D01*
X845876D01*
Y151897D01*
X852769D01*
Y151747D01*
X853069D01*
Y151597D01*
X853369D01*
Y151447D01*
X853519D01*
Y151298D01*
X853669D01*
Y151148D01*
X853819D01*
Y150998D01*
X853968D01*
Y150698D01*
X854118D01*
Y150399D01*
X854268D01*
Y145003D01*
X854118D01*
Y144704D01*
X853968D01*
Y144404D01*
X853819D01*
Y144254D01*
X853669D01*
Y144104D01*
X853519D01*
Y143954D01*
X853369D01*
Y143805D01*
X853069D01*
Y143655D01*
X852769D01*
Y143505D01*
X843178D01*
Y143655D01*
X842729D01*
Y143805D01*
X842579D01*
Y143954D01*
X842429D01*
Y144104D01*
X842279D01*
Y144254D01*
X842129D01*
Y144404D01*
X841980D01*
Y144704D01*
X841830D01*
Y145003D01*
X841680D01*
Y147701D01*
X837484D01*
Y136611D01*
X837334D01*
Y136312D01*
X837184D01*
Y136012D01*
X837034D01*
Y135862D01*
X836884D01*
Y135712D01*
X836734D01*
Y135562D01*
X836585D01*
Y135413D01*
X836435D01*
Y135263D01*
X835985D01*
Y135113D01*
X834786D01*
Y135263D01*
X834486D01*
Y135413D01*
X834187D01*
Y135562D01*
X834037D01*
Y135712D01*
X833887D01*
Y135862D01*
X833737D01*
Y136012D01*
X833587D01*
Y136312D01*
X833438D01*
Y136611D01*
X833288D01*
Y139309D01*
X829092D01*
Y135113D01*
X831789D01*
Y134963D01*
X832089D01*
Y134813D01*
X832389D01*
Y134663D01*
X832538D01*
Y134513D01*
X832688D01*
Y134363D01*
X832838D01*
Y134214D01*
X832988D01*
Y133914D01*
X833138D01*
Y133614D01*
X833288D01*
Y128219D01*
X833138D01*
Y127920D01*
X832988D01*
Y127620D01*
X832838D01*
Y127470D01*
X832688D01*
Y127320D01*
X832538D01*
Y127170D01*
X832389D01*
Y127020D01*
X832239D01*
Y126870D01*
X831789D01*
Y126721D01*
X822198D01*
Y126870D01*
X821898D01*
Y127020D01*
X821599D01*
Y127170D01*
X821449D01*
Y127320D01*
X821299D01*
Y127470D01*
X821149D01*
Y127620D01*
X820999D01*
Y127920D01*
X820849D01*
Y128219D01*
X820699D01*
Y130917D01*
X818002D01*
Y131067D01*
X817702D01*
Y131216D01*
X817402D01*
Y131366D01*
X817253D01*
Y131516D01*
X817103D01*
Y131666D01*
X816953D01*
Y131816D01*
X816803D01*
Y132116D01*
X816653D01*
Y132415D01*
X816503D01*
Y137810D01*
X816653D01*
Y138110D01*
X816803D01*
Y138410D01*
X816953D01*
Y138560D01*
X817103D01*
Y138709D01*
X817253D01*
Y138859D01*
X817402D01*
Y139009D01*
X817702D01*
Y139159D01*
X818002D01*
Y139309D01*
X819201D01*
Y139159D01*
X819501D01*
Y139009D01*
X819800D01*
Y138859D01*
X819950D01*
Y138709D01*
X820100D01*
Y138560D01*
X820250D01*
Y138410D01*
X820400D01*
Y138110D01*
X820549D01*
Y137810D01*
X820699D01*
Y135113D01*
X824895D01*
Y139309D01*
X822198D01*
Y139459D01*
X821748D01*
Y139609D01*
X821599D01*
Y139758D01*
X821449D01*
Y139908D01*
X821299D01*
Y140058D01*
X821149D01*
Y140208D01*
X820999D01*
Y140508D01*
X820849D01*
Y140807D01*
X820699D01*
Y142006D01*
X820849D01*
Y142306D01*
X820999D01*
Y142606D01*
X821149D01*
Y142756D01*
X821299D01*
Y142906D01*
X821449D01*
Y143055D01*
X821599D01*
Y143205D01*
X821898D01*
Y143355D01*
X822198D01*
Y143505D01*
X829092D01*
Y146202D01*
X829241D01*
Y146502D01*
X829391D01*
Y146802D01*
X829541D01*
Y146952D01*
X829691D01*
Y147102D01*
X829841D01*
Y147251D01*
X829991D01*
Y147401D01*
X830290D01*
Y147551D01*
X830590D01*
Y147701D01*
X833288D01*
Y150399D01*
X833438D01*
Y150698D01*
X833587D01*
Y150998D01*
X833737D01*
Y151148D01*
X833887D01*
Y151298D01*
X834037D01*
Y151447D01*
X834187D01*
Y151597D01*
X834486D01*
Y151747D01*
X834786D01*
Y151897D01*
X841680D01*
Y154595D01*
X841830D01*
Y154894D01*
X841980D01*
Y155194D01*
X842129D01*
Y155344D01*
X842279D01*
Y155494D01*
X842429D01*
Y155644D01*
X842579D01*
Y155793D01*
X842879D01*
Y155943D01*
X843178D01*
Y156093D01*
X844377D01*
Y155943D01*
D02*
G37*
G36*
X819201Y147551D02*
X819501D01*
Y147401D01*
X819800D01*
Y147251D01*
X819950D01*
Y147102D01*
X820100D01*
Y146952D01*
X820250D01*
Y146802D01*
X820400D01*
Y146502D01*
X820549D01*
Y146202D01*
X820699D01*
Y145003D01*
X820549D01*
Y144704D01*
X820400D01*
Y144404D01*
X820250D01*
Y144254D01*
X820100D01*
Y144104D01*
X819950D01*
Y143954D01*
X819800D01*
Y143805D01*
X819501D01*
Y143655D01*
X819201D01*
Y143505D01*
X818002D01*
Y143655D01*
X817702D01*
Y143805D01*
X817402D01*
Y143954D01*
X817253D01*
Y144104D01*
X817103D01*
Y144254D01*
X816953D01*
Y144404D01*
X816803D01*
Y144704D01*
X816653D01*
Y145003D01*
X816503D01*
Y146202D01*
X816653D01*
Y146352D01*
Y146502D01*
X816803D01*
Y146802D01*
X816953D01*
Y146952D01*
X817103D01*
Y147102D01*
X817253D01*
Y147251D01*
X817402D01*
Y147401D01*
X817702D01*
Y147551D01*
X818002D01*
Y147701D01*
X819201D01*
Y147551D01*
D02*
G37*
G36*
X882142Y160139D02*
X882442D01*
Y159990D01*
X882741D01*
Y159840D01*
X882891D01*
Y159690D01*
X883041D01*
Y159540D01*
X883191D01*
Y159390D01*
X883341D01*
Y159090D01*
X883491D01*
Y158791D01*
X883641D01*
Y157442D01*
Y157292D01*
Y153396D01*
X883491D01*
Y153096D01*
X883341D01*
Y152796D01*
X883191D01*
Y152646D01*
X883041D01*
Y152497D01*
X882891D01*
Y152347D01*
X882741D01*
Y152197D01*
X882442D01*
Y152047D01*
X882142D01*
Y151897D01*
X879445D01*
Y147701D01*
X882142D01*
Y147551D01*
X882442D01*
Y147401D01*
X882741D01*
Y147251D01*
X882891D01*
Y147102D01*
X883041D01*
Y146952D01*
X883191D01*
Y146802D01*
X883341D01*
Y146502D01*
X883491D01*
Y146202D01*
X883641D01*
Y140807D01*
X883491D01*
Y140508D01*
X883341D01*
Y140208D01*
X883191D01*
Y140058D01*
X883041D01*
Y139908D01*
X882891D01*
Y139758D01*
X882741D01*
Y139609D01*
X882442D01*
Y139459D01*
X882142D01*
Y139309D01*
X880943D01*
Y139459D01*
X880643D01*
Y139609D01*
X880344D01*
Y139758D01*
X880194D01*
Y139908D01*
X880044D01*
Y140058D01*
X879894D01*
Y140208D01*
X879744D01*
Y140508D01*
X879594D01*
Y140807D01*
X879445D01*
Y143505D01*
X876747D01*
Y143655D01*
X876447D01*
Y143805D01*
X876148D01*
Y143954D01*
X875998D01*
Y144104D01*
X875848D01*
Y144254D01*
X875698D01*
Y144404D01*
X875548D01*
Y144704D01*
X875398D01*
Y145003D01*
X875248D01*
Y154595D01*
X875398D01*
Y154894D01*
X875548D01*
Y155194D01*
X875698D01*
Y155344D01*
X875848D01*
Y155494D01*
X875998D01*
Y155644D01*
X876148D01*
Y155793D01*
X876447D01*
Y155943D01*
X876747D01*
Y156093D01*
X879445D01*
Y158791D01*
X879594D01*
Y159090D01*
X879744D01*
Y159390D01*
X879894D01*
Y159540D01*
X880044D01*
Y159690D01*
X880194D01*
Y159840D01*
X880344D01*
Y159990D01*
X880643D01*
Y160139D01*
X880943D01*
Y160289D01*
X882142D01*
Y160139D01*
D02*
G37*
G36*
X919907Y164335D02*
X920206D01*
Y164186D01*
X920506D01*
Y164036D01*
X920656D01*
Y163886D01*
X920806D01*
Y163736D01*
X920956D01*
Y163586D01*
X921106D01*
Y163286D01*
X921255D01*
Y162987D01*
X921405D01*
Y136611D01*
X921255D01*
Y136312D01*
X921106D01*
Y136012D01*
X920956D01*
Y135862D01*
X920806D01*
Y135712D01*
X920656D01*
Y135562D01*
X920506D01*
Y135413D01*
X920206D01*
Y135263D01*
X919907D01*
Y135113D01*
X893531D01*
Y135263D01*
X893232D01*
Y135413D01*
X892932D01*
Y135562D01*
X892782D01*
Y135712D01*
X892632D01*
Y135862D01*
X892482D01*
Y136012D01*
X892333D01*
Y136312D01*
X892183D01*
Y136611D01*
X892033D01*
Y162987D01*
X892183D01*
Y163286D01*
X892333D01*
Y163586D01*
X892482D01*
Y163736D01*
X892632D01*
Y163886D01*
X892782D01*
Y164036D01*
X892932D01*
Y164186D01*
X893232D01*
Y164335D01*
X893531D01*
Y164485D01*
X919907D01*
Y164335D01*
D02*
G37*
G36*
X869554Y139159D02*
X869854D01*
Y139009D01*
X870153D01*
Y138859D01*
X870303D01*
Y138709D01*
X870453D01*
Y138560D01*
X870603D01*
Y138410D01*
X870753D01*
Y138110D01*
X870902D01*
Y137810D01*
X871052D01*
Y136611D01*
X870902D01*
Y136312D01*
X870753D01*
Y136012D01*
X870603D01*
Y135862D01*
X870453D01*
Y135712D01*
X870303D01*
Y135562D01*
X870153D01*
Y135413D01*
X870003D01*
Y135263D01*
X869554D01*
Y135113D01*
X868355D01*
Y135263D01*
X868055D01*
Y135413D01*
X867755D01*
Y135562D01*
X867606D01*
Y135712D01*
X867456D01*
Y135862D01*
X867306D01*
Y136012D01*
X867156D01*
Y136312D01*
X867006D01*
Y136611D01*
X866856D01*
Y137810D01*
X867006D01*
Y138110D01*
X867156D01*
Y138410D01*
X867306D01*
Y138560D01*
X867456D01*
Y138709D01*
X867606D01*
Y138859D01*
X867755D01*
Y139009D01*
X868055D01*
Y139159D01*
X868355D01*
Y139309D01*
X869554D01*
Y139159D01*
D02*
G37*
G36*
X810809Y164335D02*
X811108D01*
Y164186D01*
X811408D01*
Y164036D01*
X811558D01*
Y163886D01*
X811708D01*
Y163736D01*
X811858D01*
Y163586D01*
X812008D01*
Y163286D01*
X812157D01*
Y162987D01*
X812307D01*
Y136611D01*
X812157D01*
Y136312D01*
X812008D01*
Y136012D01*
X811858D01*
Y135862D01*
X811708D01*
Y135712D01*
X811558D01*
Y135562D01*
X811408D01*
Y135413D01*
X811108D01*
Y135263D01*
X810809D01*
Y135113D01*
X784433D01*
Y135263D01*
X784134D01*
Y135413D01*
X783834D01*
Y135562D01*
X783684D01*
Y135712D01*
X783534D01*
Y135862D01*
X783384D01*
Y136012D01*
X783234D01*
Y136312D01*
X783084D01*
Y136611D01*
X782935D01*
Y162987D01*
X783084D01*
Y163286D01*
X783234D01*
Y163586D01*
X783384D01*
Y163736D01*
X783534D01*
Y163886D01*
X783684D01*
Y164036D01*
X783834D01*
Y164186D01*
X784134D01*
Y164335D01*
X784433D01*
Y164485D01*
X810809D01*
Y164335D01*
D02*
G37*
G36*
X886338Y139159D02*
X886638D01*
Y139009D01*
X886937D01*
Y138859D01*
X887087D01*
Y138709D01*
X887237D01*
Y138560D01*
X887387D01*
Y138410D01*
X887537D01*
Y138110D01*
X887687D01*
Y137810D01*
X887837D01*
Y130917D01*
X894730D01*
Y130767D01*
X895030D01*
Y130617D01*
X895330D01*
Y130467D01*
X895480D01*
Y130317D01*
X895629D01*
Y130167D01*
X895779D01*
Y130017D01*
X895929D01*
Y129718D01*
X896079D01*
Y129418D01*
X896229D01*
Y124023D01*
X896079D01*
Y123723D01*
X895929D01*
Y123424D01*
X895779D01*
Y123274D01*
X895629D01*
Y123124D01*
X895480D01*
Y122974D01*
X895330D01*
Y122824D01*
X895030D01*
Y122674D01*
X894730D01*
Y122524D01*
X887837D01*
Y119827D01*
X887687D01*
Y119527D01*
X887537D01*
Y119228D01*
X887387D01*
Y119078D01*
X887237D01*
Y118928D01*
X887087D01*
Y118778D01*
X886937D01*
Y118628D01*
X886638D01*
Y118478D01*
X886338D01*
Y118328D01*
X879445D01*
Y111435D01*
X879295D01*
Y111135D01*
X879145D01*
Y110835D01*
X878995D01*
Y110686D01*
X878845D01*
Y110536D01*
X878695D01*
Y110386D01*
X878545D01*
Y110236D01*
X878246D01*
Y110086D01*
X877946D01*
Y109936D01*
X876747D01*
Y110086D01*
X876298D01*
Y110236D01*
X876148D01*
Y110386D01*
X875998D01*
Y110536D01*
X875848D01*
Y110686D01*
X875698D01*
Y110835D01*
X875548D01*
Y111135D01*
X875398D01*
Y111435D01*
X875248D01*
Y114132D01*
X866856D01*
Y103043D01*
X866706D01*
Y102743D01*
X866557D01*
Y102443D01*
X866407D01*
Y102293D01*
X866257D01*
Y102144D01*
X866107D01*
Y101994D01*
X865957D01*
Y101844D01*
X865657D01*
Y101694D01*
X865358D01*
Y101544D01*
X859963D01*
Y101694D01*
X859663D01*
Y101844D01*
X859363D01*
Y101994D01*
X859213D01*
Y102144D01*
X859064D01*
Y102293D01*
X858914D01*
Y102443D01*
X858764D01*
Y102743D01*
X858614D01*
Y103043D01*
X858464D01*
Y108438D01*
X858614D01*
Y108737D01*
X858764D01*
Y109037D01*
X858914D01*
Y109187D01*
X859064D01*
Y109337D01*
X859213D01*
Y109487D01*
X859363D01*
Y109637D01*
X859663D01*
Y109786D01*
X859963D01*
Y109936D01*
X862660D01*
Y116830D01*
X862810D01*
Y117130D01*
X862960D01*
Y117429D01*
X863110D01*
Y117579D01*
X863260D01*
Y117729D01*
X863410D01*
Y117879D01*
X863559D01*
Y118029D01*
X863859D01*
Y118179D01*
X864159D01*
Y118328D01*
X871052D01*
Y126721D01*
X868355D01*
Y126870D01*
X868055D01*
Y127020D01*
X867755D01*
Y127170D01*
X867606D01*
Y127320D01*
X867456D01*
Y127470D01*
X867306D01*
Y127620D01*
X867156D01*
Y127920D01*
X867006D01*
Y128219D01*
X866856D01*
Y129418D01*
X867006D01*
Y129718D01*
X867156D01*
Y130017D01*
X867306D01*
Y130167D01*
X867456D01*
Y130317D01*
X867606D01*
Y130467D01*
X867755D01*
Y130617D01*
X868055D01*
Y130767D01*
X868355D01*
Y130917D01*
X875248D01*
Y137810D01*
X875398D01*
Y138110D01*
X875548D01*
Y138410D01*
X875698D01*
Y138560D01*
X875848D01*
Y138709D01*
X875998D01*
Y138859D01*
X876148D01*
Y139009D01*
X876447D01*
Y139159D01*
X876747D01*
Y139309D01*
X877946D01*
Y139159D01*
X878246D01*
Y139009D01*
X878545D01*
Y138859D01*
X878695D01*
Y138709D01*
X878845D01*
Y138560D01*
X878995D01*
Y138410D01*
X879145D01*
Y138110D01*
X879295D01*
Y137810D01*
X879445D01*
Y130917D01*
X883641D01*
Y137810D01*
X883791D01*
Y138110D01*
X883940D01*
Y138410D01*
X884090D01*
Y138560D01*
X884240D01*
Y138709D01*
X884390D01*
Y138859D01*
X884540D01*
Y139009D01*
X884839D01*
Y139159D01*
X885139D01*
Y139309D01*
X886338D01*
Y139159D01*
D02*
G37*
G36*
X861162D02*
X861461D01*
Y139009D01*
X861761D01*
Y138859D01*
X861911D01*
Y138709D01*
X862061D01*
Y138560D01*
X862211D01*
Y138410D01*
X862361D01*
Y138110D01*
X862510D01*
Y137810D01*
X862660D01*
Y128219D01*
X862510D01*
Y127920D01*
X862361D01*
Y127620D01*
X862211D01*
Y127470D01*
X862061D01*
Y127320D01*
X861911D01*
Y127170D01*
X861761D01*
Y127020D01*
X861461D01*
Y126870D01*
X861162D01*
Y126721D01*
X858464D01*
Y124023D01*
X858314D01*
Y123723D01*
X858164D01*
Y123424D01*
X858015D01*
Y123274D01*
X857865D01*
Y123124D01*
X857715D01*
Y122974D01*
X857565D01*
Y122824D01*
X857265D01*
Y122674D01*
X856965D01*
Y122524D01*
X847374D01*
Y122674D01*
X847075D01*
Y122824D01*
X846775D01*
Y122974D01*
X846625D01*
Y123124D01*
X846475D01*
Y123274D01*
X846326D01*
Y123424D01*
X846176D01*
Y123723D01*
X846026D01*
Y124023D01*
X845876D01*
Y125222D01*
X846026D01*
Y125522D01*
X846176D01*
Y125821D01*
X846326D01*
Y125971D01*
X846475D01*
Y126121D01*
X846625D01*
Y126271D01*
X846775D01*
Y126421D01*
X847075D01*
Y126571D01*
X847374D01*
Y126721D01*
X850072D01*
Y137810D01*
X850222D01*
Y138110D01*
X850372D01*
Y138410D01*
X850521D01*
Y138560D01*
X850671D01*
Y138709D01*
X850821D01*
Y138859D01*
X850971D01*
Y139009D01*
X851271D01*
Y139159D01*
X851571D01*
Y139309D01*
X852769D01*
Y139159D01*
X853069D01*
Y139009D01*
X853369D01*
Y138859D01*
X853519D01*
Y138709D01*
X853669D01*
Y138560D01*
X853819D01*
Y138410D01*
X853968D01*
Y138110D01*
X854118D01*
Y137810D01*
X854268D01*
Y130917D01*
X858464D01*
Y137810D01*
X858614D01*
Y138110D01*
X858764D01*
Y138410D01*
X858914D01*
Y138560D01*
X859064D01*
Y138709D01*
X859213D01*
Y138859D01*
X859363D01*
Y139009D01*
X859663D01*
Y139159D01*
X859963D01*
Y139309D01*
X861162D01*
Y139159D01*
D02*
G37*
G36*
X844377D02*
X844677D01*
Y139009D01*
X844977D01*
Y138859D01*
X845127D01*
Y138709D01*
X845276D01*
Y138560D01*
X845426D01*
Y138410D01*
X845576D01*
Y138110D01*
X845726D01*
Y137810D01*
X845876D01*
Y133464D01*
Y133314D01*
Y132415D01*
X845726D01*
Y132116D01*
X845576D01*
Y131816D01*
X845426D01*
Y131666D01*
X845276D01*
Y131516D01*
X845127D01*
Y131366D01*
X844977D01*
Y131216D01*
X844677D01*
Y131067D01*
X844377D01*
Y130917D01*
X838982D01*
Y131067D01*
X838533D01*
Y131216D01*
X838383D01*
Y131366D01*
X838233D01*
Y131516D01*
X838083D01*
Y131666D01*
X837933D01*
Y131816D01*
X837783D01*
Y132116D01*
X837634D01*
Y132415D01*
X837484D01*
Y133614D01*
X837634D01*
Y133914D01*
X837783D01*
Y134214D01*
X837933D01*
Y134363D01*
X838083D01*
Y134513D01*
X838233D01*
Y134663D01*
X838383D01*
Y134813D01*
X838683D01*
Y134963D01*
X838982D01*
Y135113D01*
X841680D01*
Y137810D01*
X841830D01*
Y138110D01*
X841980D01*
Y138410D01*
X842129D01*
Y138560D01*
X842279D01*
Y138709D01*
X842429D01*
Y138859D01*
X842579D01*
Y139009D01*
X842879D01*
Y139159D01*
X843178D01*
Y139309D01*
X844377D01*
Y139159D01*
D02*
G37*
G36*
X903122Y130767D02*
X903422D01*
Y130617D01*
X903722D01*
Y130467D01*
X903872D01*
Y130317D01*
X904022D01*
Y130167D01*
X904171D01*
Y130017D01*
X904321D01*
Y129718D01*
X904471D01*
Y129418D01*
X904621D01*
Y128219D01*
X904471D01*
Y127920D01*
X904321D01*
Y127620D01*
X904171D01*
Y127470D01*
X904022D01*
Y127320D01*
X903872D01*
Y127170D01*
X903722D01*
Y127020D01*
X903422D01*
Y126870D01*
X903122D01*
Y126721D01*
X901924D01*
Y126870D01*
X901624D01*
Y127020D01*
X901324D01*
Y127170D01*
X901174D01*
Y127320D01*
X901024D01*
Y127470D01*
X900874D01*
Y127620D01*
X900725D01*
Y127920D01*
X900575D01*
Y128219D01*
X900425D01*
Y129418D01*
X900575D01*
Y129718D01*
X900725D01*
Y130017D01*
X900874D01*
Y130167D01*
X901024D01*
Y130317D01*
X901174D01*
Y130467D01*
X901324D01*
Y130617D01*
X901624D01*
Y130767D01*
X901924D01*
Y130917D01*
X903122D01*
Y130767D01*
D02*
G37*
G36*
X815005D02*
X815304D01*
Y130617D01*
X815604D01*
Y130467D01*
X815754D01*
Y130317D01*
X815904D01*
Y130167D01*
X816054D01*
Y130017D01*
X816204D01*
Y129718D01*
X816354D01*
Y129418D01*
X816503D01*
Y128369D01*
Y128219D01*
X816354D01*
Y127920D01*
X816204D01*
Y127620D01*
X816054D01*
Y127470D01*
X815904D01*
Y127320D01*
X815754D01*
Y127170D01*
X815604D01*
Y127020D01*
X815304D01*
Y126870D01*
X815005D01*
Y126721D01*
X809610D01*
Y126870D01*
X809310D01*
Y127020D01*
X809010D01*
Y127170D01*
X808860D01*
Y127320D01*
X808711D01*
Y127470D01*
X808561D01*
Y127620D01*
X808411D01*
Y127920D01*
X808261D01*
Y128219D01*
X808111D01*
Y129418D01*
X808261D01*
Y129718D01*
X808411D01*
Y130017D01*
X808561D01*
Y130167D01*
X808711D01*
Y130317D01*
X808860D01*
Y130467D01*
X809010D01*
Y130617D01*
X809310D01*
Y130767D01*
X809610D01*
Y130917D01*
X815005D01*
Y130767D01*
D02*
G37*
G36*
X840181Y126571D02*
X840481D01*
Y126421D01*
X840781D01*
Y126271D01*
X840930D01*
Y126121D01*
X841080D01*
Y125971D01*
X841230D01*
Y125821D01*
X841380D01*
Y125522D01*
X841530D01*
Y125222D01*
X841680D01*
Y124023D01*
X841530D01*
Y123723D01*
X841380D01*
Y123424D01*
X841230D01*
Y123274D01*
X841080D01*
Y123124D01*
X840930D01*
Y122974D01*
X840781D01*
Y122824D01*
X840481D01*
Y122674D01*
X840181D01*
Y122524D01*
X838982D01*
Y122674D01*
X838683D01*
Y122824D01*
X838383D01*
Y122974D01*
X838233D01*
Y123124D01*
X838083D01*
Y123274D01*
X837933D01*
Y123424D01*
X837783D01*
Y123723D01*
X837634D01*
Y124023D01*
X837484D01*
Y125222D01*
X837634D01*
Y125522D01*
X837783D01*
Y125821D01*
X837933D01*
Y125971D01*
X838083D01*
Y126121D01*
X838233D01*
Y126271D01*
X838383D01*
Y126421D01*
X838683D01*
Y126571D01*
X838982D01*
Y126721D01*
X840181D01*
Y126571D01*
D02*
G37*
G36*
X819201D02*
X819501D01*
Y126421D01*
X819800D01*
Y126271D01*
X819950D01*
Y126121D01*
X820100D01*
Y125971D01*
X820250D01*
Y125821D01*
X820400D01*
Y125522D01*
X820549D01*
Y125222D01*
X820699D01*
Y124023D01*
X820549D01*
Y123723D01*
X820400D01*
Y123424D01*
X820250D01*
Y123274D01*
X820100D01*
Y123124D01*
X819950D01*
Y122974D01*
X819800D01*
Y122824D01*
X819501D01*
Y122674D01*
X819201D01*
Y122524D01*
X818002D01*
Y122674D01*
X817702D01*
Y122824D01*
X817402D01*
Y122974D01*
X817253D01*
Y123124D01*
X817103D01*
Y123274D01*
X816953D01*
Y123424D01*
X816803D01*
Y123723D01*
X816653D01*
Y124023D01*
X816503D01*
Y125222D01*
X816653D01*
Y125522D01*
X816803D01*
Y125821D01*
X816953D01*
Y125971D01*
X817103D01*
Y126121D01*
X817253D01*
Y126271D01*
X817402D01*
Y126421D01*
X817702D01*
Y126571D01*
X818002D01*
Y126721D01*
X819201D01*
Y126571D01*
D02*
G37*
G36*
X898926Y122375D02*
X899226D01*
Y122225D01*
X899526D01*
Y122075D01*
X899676D01*
Y121925D01*
X899826D01*
Y121775D01*
X899975D01*
Y121625D01*
X900125D01*
Y121326D01*
X900275D01*
Y121026D01*
X900425D01*
Y119827D01*
X900275D01*
Y119527D01*
X900125D01*
Y119228D01*
X899975D01*
Y119078D01*
X899826D01*
Y118928D01*
X899676D01*
Y118778D01*
X899526D01*
Y118628D01*
X899226D01*
Y118478D01*
X898926D01*
Y118328D01*
X897727D01*
Y118478D01*
X897428D01*
Y118628D01*
X897128D01*
Y118778D01*
X896978D01*
Y118928D01*
X896828D01*
Y119078D01*
X896678D01*
Y119228D01*
X896529D01*
Y119527D01*
X896379D01*
Y119827D01*
X896229D01*
Y121026D01*
X896379D01*
Y121326D01*
X896529D01*
Y121625D01*
X896678D01*
Y121775D01*
X896828D01*
Y121925D01*
X896978D01*
Y122075D01*
X897128D01*
Y122225D01*
X897428D01*
Y122375D01*
X897727D01*
Y122524D01*
X898926D01*
Y122375D01*
D02*
G37*
G36*
X861162D02*
X861461D01*
Y122225D01*
X861761D01*
Y122075D01*
X861911D01*
Y121925D01*
X862061D01*
Y121775D01*
X862211D01*
Y121625D01*
X862361D01*
Y121326D01*
X862510D01*
Y121026D01*
X862660D01*
Y119827D01*
X862510D01*
Y119527D01*
X862361D01*
Y119228D01*
X862211D01*
Y119078D01*
X862061D01*
Y118928D01*
X861911D01*
Y118778D01*
X861761D01*
Y118628D01*
X861461D01*
Y118478D01*
X861162D01*
Y118328D01*
X859963D01*
Y118478D01*
X859513D01*
Y118628D01*
X859363D01*
Y118778D01*
X859213D01*
Y118928D01*
X859064D01*
Y119078D01*
X858914D01*
Y119228D01*
X858764D01*
Y119527D01*
X858614D01*
Y119827D01*
X858464D01*
Y121026D01*
X858614D01*
Y121326D01*
X858764D01*
Y121625D01*
X858914D01*
Y121775D01*
X859064D01*
Y121925D01*
X859213D01*
Y122075D01*
X859363D01*
Y122225D01*
X859663D01*
Y122375D01*
X859963D01*
Y122524D01*
X861162D01*
Y122375D01*
D02*
G37*
G36*
X844377D02*
X844677D01*
Y122225D01*
X844977D01*
Y122075D01*
X845127D01*
Y121925D01*
X845276D01*
Y121775D01*
X845426D01*
Y121625D01*
X845576D01*
Y121326D01*
X845726D01*
Y121026D01*
X845876D01*
Y119827D01*
X845726D01*
Y119527D01*
X845576D01*
Y119228D01*
X845426D01*
Y119078D01*
X845276D01*
Y118928D01*
X845127D01*
Y118778D01*
X844977D01*
Y118628D01*
X844677D01*
Y118478D01*
X844377D01*
Y118328D01*
X843178D01*
Y118478D01*
X842729D01*
Y118628D01*
X842579D01*
Y118778D01*
X842429D01*
Y118928D01*
X842279D01*
Y119078D01*
X842129D01*
Y119228D01*
X841980D01*
Y119527D01*
X841830D01*
Y119827D01*
X841680D01*
Y121026D01*
X841830D01*
Y121326D01*
X841980D01*
Y121625D01*
X842129D01*
Y121775D01*
X842279D01*
Y121925D01*
X842429D01*
Y122075D01*
X842579D01*
Y122225D01*
X842879D01*
Y122375D01*
X843178D01*
Y122524D01*
X844377D01*
Y122375D01*
D02*
G37*
G36*
X815005D02*
X815304D01*
Y122225D01*
X815604D01*
Y122075D01*
X815754D01*
Y121925D01*
X815904D01*
Y121775D01*
X816054D01*
Y121625D01*
X816204D01*
Y121475D01*
Y121326D01*
X816354D01*
Y121026D01*
X816503D01*
Y119827D01*
X816354D01*
Y119527D01*
X816204D01*
Y119228D01*
X816054D01*
Y119078D01*
X815904D01*
Y118928D01*
X815754D01*
Y118778D01*
X815604D01*
Y118628D01*
X815454D01*
Y118478D01*
X815005D01*
Y118328D01*
X809610D01*
Y118478D01*
X809310D01*
Y118628D01*
X809010D01*
Y118778D01*
X808860D01*
Y118928D01*
X808711D01*
Y119078D01*
X808561D01*
Y119228D01*
X808411D01*
Y119527D01*
X808261D01*
Y119827D01*
X808111D01*
Y121026D01*
X808261D01*
Y121326D01*
X808411D01*
Y121625D01*
X808561D01*
Y121775D01*
X808711D01*
Y121925D01*
X808860D01*
Y122075D01*
X809010D01*
Y122225D01*
X809310D01*
Y122375D01*
X809610D01*
Y122524D01*
X815005D01*
Y122375D01*
D02*
G37*
G36*
X802417Y130767D02*
X802716D01*
Y130617D01*
X803016D01*
Y130467D01*
X803166D01*
Y130317D01*
X803316D01*
Y130167D01*
X803465D01*
Y130017D01*
X803615D01*
Y129718D01*
X803765D01*
Y129418D01*
X803915D01*
Y128219D01*
X803765D01*
Y127920D01*
X803615D01*
Y127620D01*
X803465D01*
Y127470D01*
X803316D01*
Y127320D01*
X803166D01*
Y127170D01*
X803016D01*
Y127020D01*
X802716D01*
Y126870D01*
X802417D01*
Y126721D01*
X795523D01*
Y122524D01*
X798220D01*
Y122375D01*
X798520D01*
Y122225D01*
X798820D01*
Y122075D01*
X798970D01*
Y121925D01*
X799120D01*
Y121775D01*
X799269D01*
Y121625D01*
X799419D01*
Y121326D01*
X799569D01*
Y121026D01*
X799719D01*
Y119827D01*
X799569D01*
Y119527D01*
X799419D01*
Y119228D01*
X799269D01*
Y119078D01*
X799120D01*
Y118928D01*
X798970D01*
Y118778D01*
X798820D01*
Y118628D01*
X798520D01*
Y118478D01*
X798220D01*
Y118328D01*
X792825D01*
Y118478D01*
X792526D01*
Y118628D01*
X792226D01*
Y118778D01*
X792076D01*
Y118928D01*
X791926D01*
Y119078D01*
X791776D01*
Y119228D01*
X791627D01*
Y119527D01*
X791477D01*
Y119827D01*
X791327D01*
Y126721D01*
X784433D01*
Y126870D01*
X784134D01*
Y127020D01*
X783834D01*
Y127170D01*
X783684D01*
Y127320D01*
X783534D01*
Y127470D01*
X783384D01*
Y127620D01*
X783234D01*
Y127920D01*
X783084D01*
Y128219D01*
X782935D01*
Y129418D01*
X783084D01*
Y129718D01*
X783234D01*
Y130017D01*
X783384D01*
Y130167D01*
X783534D01*
Y130317D01*
X783684D01*
Y130467D01*
X783834D01*
Y130617D01*
X784134D01*
Y130767D01*
X784433D01*
Y130917D01*
X802417D01*
Y130767D01*
D02*
G37*
G36*
X890534Y118179D02*
X890834D01*
Y118029D01*
X891134D01*
Y117879D01*
X891283D01*
Y117729D01*
X891433D01*
Y117579D01*
X891583D01*
Y117429D01*
X891733D01*
Y117130D01*
X891883D01*
Y116830D01*
X892033D01*
Y115631D01*
X891883D01*
Y115331D01*
X891733D01*
Y115031D01*
X891583D01*
Y114882D01*
X891433D01*
Y114732D01*
X891283D01*
Y114582D01*
X891134D01*
Y114432D01*
X890834D01*
Y114282D01*
X890534D01*
Y114132D01*
X889335D01*
Y114282D01*
X889036D01*
Y114432D01*
X888736D01*
Y114582D01*
X888586D01*
Y114732D01*
X888436D01*
Y114882D01*
X888286D01*
Y115031D01*
X888136D01*
Y115331D01*
X887987D01*
Y115631D01*
X887837D01*
Y116830D01*
X887987D01*
Y117130D01*
X888136D01*
Y117429D01*
X888286D01*
Y117579D01*
X888436D01*
Y117729D01*
X888586D01*
Y117879D01*
X888736D01*
Y118029D01*
X889036D01*
Y118179D01*
X889335D01*
Y118328D01*
X890534D01*
Y118179D01*
D02*
G37*
G36*
X856965D02*
X857265D01*
Y118029D01*
X857565D01*
Y117879D01*
X857715D01*
Y117729D01*
X857865D01*
Y117579D01*
X858015D01*
Y117429D01*
X858164D01*
Y117130D01*
X858314D01*
Y116830D01*
X858464D01*
Y116530D01*
Y116380D01*
Y115631D01*
X858314D01*
Y115331D01*
X858164D01*
Y115031D01*
X858015D01*
Y114882D01*
X857865D01*
Y114732D01*
X857715D01*
Y114582D01*
X857565D01*
Y114432D01*
X857415D01*
Y114282D01*
X856965D01*
Y114132D01*
X855767D01*
Y114282D01*
X855467D01*
Y114432D01*
X855167D01*
Y114582D01*
X855017D01*
Y114732D01*
X854867D01*
Y114882D01*
X854718D01*
Y115031D01*
X854568D01*
Y115331D01*
X854418D01*
Y115631D01*
X854268D01*
Y116830D01*
X854418D01*
Y117130D01*
X854568D01*
Y117429D01*
X854718D01*
Y117579D01*
X854867D01*
Y117729D01*
X855017D01*
Y117879D01*
X855167D01*
Y118029D01*
X855467D01*
Y118179D01*
X855767D01*
Y118328D01*
X856965D01*
Y118179D01*
D02*
G37*
G36*
X823397D02*
X823697D01*
Y118029D01*
X823996D01*
Y117879D01*
X824146D01*
Y117729D01*
X824296D01*
Y117579D01*
X824446D01*
Y117429D01*
X824596D01*
Y117130D01*
X824746D01*
Y116830D01*
X824895D01*
Y115631D01*
X824746D01*
Y115331D01*
X824596D01*
Y115031D01*
X824446D01*
Y114882D01*
X824296D01*
Y114732D01*
X824146D01*
Y114582D01*
X823996D01*
Y114432D01*
X823697D01*
Y114282D01*
X823397D01*
Y114132D01*
X822198D01*
Y114282D01*
X821898D01*
Y114432D01*
X821599D01*
Y114582D01*
X821449D01*
Y114732D01*
X821299D01*
Y114882D01*
X821149D01*
Y115031D01*
X820999D01*
Y115331D01*
X820849D01*
Y115631D01*
X820699D01*
Y116830D01*
X820849D01*
Y117130D01*
X820999D01*
Y117429D01*
X821149D01*
Y117579D01*
X821299D01*
Y117729D01*
X821449D01*
Y117879D01*
X821599D01*
Y118029D01*
X821898D01*
Y118179D01*
X822198D01*
Y118328D01*
X823397D01*
Y118179D01*
D02*
G37*
G36*
X852769Y113982D02*
X853069D01*
Y113833D01*
X853369D01*
Y113683D01*
X853519D01*
Y113533D01*
X853669D01*
Y113383D01*
X853819D01*
Y113233D01*
X853968D01*
Y112934D01*
X854118D01*
Y112634D01*
X854268D01*
Y111435D01*
X854118D01*
Y111135D01*
X853968D01*
Y110835D01*
X853819D01*
Y110686D01*
X853669D01*
Y110536D01*
X853519D01*
Y110386D01*
X853369D01*
Y110236D01*
X853219D01*
Y110086D01*
X852769D01*
Y109936D01*
X851571D01*
Y110086D01*
X851271D01*
Y110236D01*
X850971D01*
Y110386D01*
X850821D01*
Y110536D01*
X850671D01*
Y110686D01*
X850521D01*
Y110835D01*
X850372D01*
Y111135D01*
X850222D01*
Y111435D01*
X850072D01*
Y112634D01*
X850222D01*
Y112934D01*
X850372D01*
Y113233D01*
X850521D01*
Y113383D01*
X850671D01*
Y113533D01*
X850821D01*
Y113683D01*
X850971D01*
Y113833D01*
X851271D01*
Y113982D01*
X851571D01*
Y114132D01*
X852769D01*
Y113982D01*
D02*
G37*
G36*
X785632Y118179D02*
X785932D01*
Y118029D01*
X786232D01*
Y117879D01*
X786382D01*
Y117729D01*
X786531D01*
Y117579D01*
X786681D01*
Y117429D01*
X786831D01*
Y117130D01*
X786981D01*
Y116830D01*
X787131D01*
Y111435D01*
X786981D01*
Y111135D01*
X786831D01*
Y110835D01*
X786681D01*
Y110686D01*
X786531D01*
Y110536D01*
X786382D01*
Y110386D01*
X786232D01*
Y110236D01*
X785932D01*
Y110086D01*
X785632D01*
Y109936D01*
X784433D01*
Y110086D01*
X784134D01*
Y110236D01*
X783834D01*
Y110386D01*
X783684D01*
Y110536D01*
X783534D01*
Y110686D01*
X783384D01*
Y110835D01*
X783234D01*
Y111135D01*
X783084D01*
Y111435D01*
X782935D01*
Y116830D01*
X783084D01*
Y117130D01*
X783234D01*
Y117429D01*
X783384D01*
Y117579D01*
X783534D01*
Y117729D01*
X783684D01*
Y117879D01*
X783834D01*
Y118029D01*
X784134D01*
Y118179D01*
X784433D01*
Y118328D01*
X785632D01*
Y118179D01*
D02*
G37*
G36*
X915711Y130767D02*
X916010D01*
Y130617D01*
X916310D01*
Y130467D01*
X916460D01*
Y130317D01*
X916610D01*
Y130167D01*
X916760D01*
Y130017D01*
X916909D01*
Y129718D01*
X917059D01*
Y129418D01*
X917209D01*
Y122524D01*
X919907D01*
Y122375D01*
X920206D01*
Y122225D01*
X920506D01*
Y122075D01*
X920656D01*
Y121925D01*
X920806D01*
Y121775D01*
X920956D01*
Y121625D01*
X921106D01*
Y121326D01*
X921255D01*
Y121026D01*
X921405D01*
Y107239D01*
X921255D01*
Y106939D01*
X921106D01*
Y106639D01*
X920956D01*
Y106489D01*
X920806D01*
Y106340D01*
X920656D01*
Y106190D01*
X920506D01*
Y106040D01*
X920206D01*
Y105890D01*
X919907D01*
Y105740D01*
X918708D01*
Y105890D01*
X918408D01*
Y106040D01*
X918108D01*
Y106190D01*
X917959D01*
Y106340D01*
X917809D01*
Y106489D01*
X917659D01*
Y106639D01*
X917509D01*
Y106939D01*
X917359D01*
Y107239D01*
X917209D01*
Y118328D01*
X914512D01*
Y118478D01*
X914062D01*
Y118628D01*
X913912D01*
Y118778D01*
X913763D01*
Y118928D01*
X913613D01*
Y119078D01*
X913463D01*
Y119228D01*
X913313D01*
Y119527D01*
X913163D01*
Y119827D01*
X913013D01*
Y126721D01*
X910316D01*
Y126870D01*
X910016D01*
Y127020D01*
X909716D01*
Y127170D01*
X909566D01*
Y127320D01*
X909417D01*
Y127470D01*
X909267D01*
Y127620D01*
X909117D01*
Y127920D01*
X908967D01*
Y128219D01*
X908817D01*
Y129418D01*
X908967D01*
Y129718D01*
X909117D01*
Y130017D01*
X909267D01*
Y130167D01*
X909417D01*
Y130317D01*
X909566D01*
Y130467D01*
X909716D01*
Y130617D01*
X910016D01*
Y130767D01*
X910316D01*
Y130917D01*
X915711D01*
Y130767D01*
D02*
G37*
G36*
X911515Y118179D02*
X911814D01*
Y118029D01*
X912114D01*
Y117879D01*
X912264D01*
Y117729D01*
X912414D01*
Y117579D01*
X912564D01*
Y117429D01*
X912713D01*
Y117130D01*
X912863D01*
Y116830D01*
X913013D01*
Y111435D01*
X912863D01*
Y111135D01*
X912713D01*
Y110835D01*
X912564D01*
Y110686D01*
X912414D01*
Y110536D01*
X912264D01*
Y110386D01*
X912114D01*
Y110236D01*
X911814D01*
Y110086D01*
X911515D01*
Y109936D01*
X904621D01*
Y107239D01*
X904471D01*
Y106939D01*
X904321D01*
Y106639D01*
X904171D01*
Y106489D01*
X904022D01*
Y106340D01*
X903872D01*
Y106190D01*
X903722D01*
Y106040D01*
X903422D01*
Y105890D01*
X903122D01*
Y105740D01*
X901924D01*
Y105890D01*
X901624D01*
Y106040D01*
X901324D01*
Y106190D01*
X901174D01*
Y106340D01*
X901024D01*
Y106489D01*
X900874D01*
Y106639D01*
X900725D01*
Y106939D01*
X900575D01*
Y107239D01*
X900425D01*
Y116830D01*
X900575D01*
Y117130D01*
X900725D01*
Y117429D01*
X900874D01*
Y117579D01*
X901024D01*
Y117729D01*
X901174D01*
Y117879D01*
X901324D01*
Y118029D01*
X901624D01*
Y118179D01*
X901924D01*
Y118328D01*
X911515D01*
Y118179D01*
D02*
G37*
G36*
X886338Y113982D02*
X886638D01*
Y113833D01*
X886937D01*
Y113683D01*
X887087D01*
Y113533D01*
X887237D01*
Y113383D01*
X887387D01*
Y113233D01*
X887537D01*
Y112934D01*
X887687D01*
Y112634D01*
X887837D01*
Y111585D01*
Y111435D01*
Y107239D01*
X887687D01*
Y106939D01*
X887537D01*
Y106639D01*
X887387D01*
Y106489D01*
X887237D01*
Y106340D01*
X887087D01*
Y106190D01*
X886937D01*
Y106040D01*
X886638D01*
Y105890D01*
X886338D01*
Y105740D01*
X880943D01*
Y105890D01*
X880643D01*
Y106040D01*
X880344D01*
Y106190D01*
X880194D01*
Y106340D01*
X880044D01*
Y106489D01*
X879894D01*
Y106639D01*
X879744D01*
Y106939D01*
X879594D01*
Y107239D01*
X879445D01*
Y108438D01*
X879594D01*
Y108737D01*
X879744D01*
Y109037D01*
X879894D01*
Y109187D01*
X880044D01*
Y109337D01*
X880194D01*
Y109487D01*
X880344D01*
Y109637D01*
X880643D01*
Y109786D01*
X880943D01*
Y109936D01*
X883641D01*
Y112634D01*
X883791D01*
Y112934D01*
X883940D01*
Y113233D01*
X884090D01*
Y113383D01*
X884240D01*
Y113533D01*
X884390D01*
Y113683D01*
X884540D01*
Y113833D01*
X884839D01*
Y113982D01*
X885139D01*
Y114132D01*
X886338D01*
Y113982D01*
D02*
G37*
G36*
X835985Y122375D02*
X836285D01*
Y122225D01*
X836585D01*
Y122075D01*
X836734D01*
Y121925D01*
X836884D01*
Y121775D01*
X837034D01*
Y121625D01*
X837184D01*
Y121326D01*
X837334D01*
Y121026D01*
X837484D01*
Y118328D01*
X840181D01*
Y118179D01*
X840481D01*
Y118029D01*
X840781D01*
Y117879D01*
X840930D01*
Y117729D01*
X841080D01*
Y117579D01*
X841230D01*
Y117429D01*
X841380D01*
Y117130D01*
X841530D01*
Y116830D01*
X841680D01*
Y115631D01*
X841530D01*
Y115331D01*
X841380D01*
Y115031D01*
X841230D01*
Y114882D01*
X841080D01*
Y114732D01*
X840930D01*
Y114582D01*
X840781D01*
Y114432D01*
X840481D01*
Y114282D01*
X840181D01*
Y114132D01*
X837484D01*
Y109936D01*
X840181D01*
Y109786D01*
X840481D01*
Y109637D01*
X840781D01*
Y109487D01*
X840930D01*
Y109337D01*
X841080D01*
Y109187D01*
X841230D01*
Y109037D01*
X841380D01*
Y108737D01*
X841530D01*
Y108438D01*
X841680D01*
Y107239D01*
X841530D01*
Y106939D01*
X841380D01*
Y106639D01*
X841230D01*
Y106489D01*
X841080D01*
Y106340D01*
X840930D01*
Y106190D01*
X840781D01*
Y106040D01*
X840481D01*
Y105890D01*
X840181D01*
Y105740D01*
X837484D01*
Y98847D01*
X837334D01*
Y98547D01*
X837184D01*
Y98247D01*
X837034D01*
Y98097D01*
X836884D01*
Y97948D01*
X836734D01*
Y97798D01*
X836585D01*
Y97648D01*
X836285D01*
Y97498D01*
X835985D01*
Y97348D01*
X833288D01*
Y88956D01*
X844377D01*
Y88806D01*
X844677D01*
Y88656D01*
X844977D01*
Y88506D01*
X845127D01*
Y88356D01*
X845276D01*
Y88207D01*
X845426D01*
Y88057D01*
X845576D01*
Y87757D01*
X845726D01*
Y87457D01*
X845876D01*
Y80564D01*
X850072D01*
Y87457D01*
X850222D01*
Y87757D01*
X850372D01*
Y88057D01*
X850521D01*
Y88207D01*
X850671D01*
Y88356D01*
X850821D01*
Y88506D01*
X850971D01*
Y88656D01*
X851271D01*
Y88806D01*
X851571D01*
Y88956D01*
X852769D01*
Y88806D01*
X853069D01*
Y88656D01*
X853369D01*
Y88506D01*
X853519D01*
Y88356D01*
X853669D01*
Y88207D01*
X853819D01*
Y88057D01*
X853968D01*
Y87757D01*
X854118D01*
Y87457D01*
X854268D01*
Y84760D01*
X856965D01*
Y84610D01*
X857265D01*
Y84460D01*
X857565D01*
Y84310D01*
X857715D01*
Y84160D01*
X857865D01*
Y84010D01*
X858015D01*
Y83861D01*
X858164D01*
Y83561D01*
X858314D01*
Y83261D01*
X858464D01*
Y76368D01*
X862660D01*
Y79065D01*
X862810D01*
Y79365D01*
X862960D01*
Y79665D01*
X863110D01*
Y79814D01*
X863260D01*
Y79964D01*
X863410D01*
Y80114D01*
X863559D01*
Y80264D01*
X863859D01*
Y80414D01*
X864159D01*
Y80564D01*
X865358D01*
Y80414D01*
X865657D01*
Y80264D01*
X865957D01*
Y80114D01*
X866107D01*
Y79964D01*
X866257D01*
Y79814D01*
X866407D01*
Y79665D01*
X866557D01*
Y79365D01*
X866706D01*
Y79065D01*
X866856D01*
Y73670D01*
X866706D01*
Y73370D01*
X866557D01*
Y73071D01*
X866407D01*
Y72921D01*
X866257D01*
Y72771D01*
X866107D01*
Y72621D01*
X865957D01*
Y72471D01*
X865657D01*
Y72321D01*
X865358D01*
Y72172D01*
X862660D01*
Y69474D01*
X862510D01*
Y69174D01*
X862361D01*
Y68875D01*
X862211D01*
Y68725D01*
X862061D01*
Y68575D01*
X861911D01*
Y68425D01*
X861761D01*
Y68275D01*
X861461D01*
Y68125D01*
X861162D01*
Y67976D01*
X859963D01*
Y68125D01*
X859513D01*
Y68275D01*
X859363D01*
Y68425D01*
X859213D01*
Y68575D01*
X858914D01*
Y68875D01*
X858764D01*
Y69174D01*
X858614D01*
Y69474D01*
X858464D01*
Y72172D01*
X843178D01*
Y72321D01*
X842729D01*
Y72471D01*
X842579D01*
Y72621D01*
X842429D01*
Y72771D01*
X842279D01*
Y72921D01*
X842129D01*
Y73071D01*
X841980D01*
Y73370D01*
X841830D01*
Y73670D01*
X841680D01*
Y76368D01*
X833288D01*
Y67976D01*
X840181D01*
Y67826D01*
X840481D01*
Y67676D01*
X840781D01*
Y67526D01*
X840930D01*
Y67376D01*
X841080D01*
Y67226D01*
X841230D01*
Y67076D01*
X841380D01*
Y66777D01*
X841530D01*
Y66477D01*
X841680D01*
Y63779D01*
X844377D01*
Y63629D01*
X844677D01*
Y63480D01*
X844977D01*
Y63330D01*
X845127D01*
Y63180D01*
X845276D01*
Y63030D01*
X845426D01*
Y62880D01*
X845576D01*
Y62580D01*
X845726D01*
Y62281D01*
X845876D01*
Y56886D01*
X845726D01*
Y56586D01*
X845576D01*
Y56286D01*
X845426D01*
Y56136D01*
X845276D01*
Y55987D01*
X845127D01*
Y55837D01*
X844977D01*
Y55687D01*
X844827D01*
Y55537D01*
X844377D01*
Y55387D01*
X843178D01*
Y55537D01*
X842879D01*
Y55687D01*
X842579D01*
Y55837D01*
X842429D01*
Y55987D01*
X842279D01*
Y56136D01*
X842129D01*
Y56286D01*
X841980D01*
Y56586D01*
X841830D01*
Y56886D01*
X841680D01*
Y59583D01*
X838982D01*
Y59733D01*
X838683D01*
Y59883D01*
X838383D01*
Y60033D01*
X838233D01*
Y60183D01*
X838083D01*
Y60333D01*
X837933D01*
Y60483D01*
X837783D01*
Y60782D01*
X837634D01*
Y61082D01*
X837484D01*
Y63779D01*
X830590D01*
Y63929D01*
X830290D01*
Y64079D01*
X829991D01*
Y64229D01*
X829841D01*
Y64379D01*
X829541D01*
Y64679D01*
X829391D01*
Y64978D01*
X829241D01*
Y65278D01*
X829092D01*
Y67976D01*
X826394D01*
Y68125D01*
X826094D01*
Y68275D01*
X825795D01*
Y68425D01*
X825645D01*
Y68575D01*
X825495D01*
Y68725D01*
X825345D01*
Y68875D01*
X825195D01*
Y69174D01*
X825045D01*
Y69474D01*
X824895D01*
Y72172D01*
X820699D01*
Y65278D01*
X820549D01*
Y64978D01*
X820400D01*
Y64679D01*
X820250D01*
Y64529D01*
X820100D01*
Y64379D01*
X819950D01*
Y64229D01*
X819800D01*
Y64079D01*
X819501D01*
Y63929D01*
X819201D01*
Y63779D01*
X818002D01*
Y63929D01*
X817702D01*
Y64079D01*
X817402D01*
Y64229D01*
X817253D01*
Y64379D01*
X817103D01*
Y64529D01*
X816953D01*
Y64679D01*
X816803D01*
Y64978D01*
X816653D01*
Y65278D01*
X816503D01*
Y72172D01*
X813806D01*
Y72321D01*
X813506D01*
Y72471D01*
X813206D01*
Y72621D01*
X813056D01*
Y72771D01*
X812907D01*
Y72921D01*
X812757D01*
Y73071D01*
X812607D01*
Y73370D01*
X812457D01*
Y73670D01*
X812307D01*
Y74869D01*
X812457D01*
Y75169D01*
X812607D01*
Y75469D01*
X812757D01*
Y75618D01*
X812907D01*
Y75768D01*
X813056D01*
Y75918D01*
X813206D01*
Y76068D01*
X813506D01*
Y76218D01*
X813806D01*
Y76368D01*
X829092D01*
Y79065D01*
X829241D01*
Y79365D01*
X829391D01*
Y79665D01*
X829541D01*
Y79814D01*
X829691D01*
Y79964D01*
X829841D01*
Y80114D01*
X829991D01*
Y80264D01*
X830290D01*
Y80414D01*
X830590D01*
Y80564D01*
X833288D01*
Y84760D01*
X822198D01*
Y84910D01*
X821898D01*
Y85059D01*
X821599D01*
Y85209D01*
X821449D01*
Y85359D01*
X821299D01*
Y85509D01*
X821149D01*
Y85659D01*
X820999D01*
Y85959D01*
X820849D01*
Y86258D01*
X820699D01*
Y93152D01*
X816503D01*
Y82062D01*
X816354D01*
Y81763D01*
X816204D01*
Y81463D01*
X816054D01*
Y81313D01*
X815904D01*
Y81163D01*
X815754D01*
Y81013D01*
X815604D01*
Y80863D01*
X815304D01*
Y80714D01*
X815005D01*
Y80564D01*
X813806D01*
Y80714D01*
X813356D01*
Y80863D01*
X813206D01*
Y81013D01*
X813056D01*
Y81163D01*
X812907D01*
Y81313D01*
X812757D01*
Y81463D01*
X812607D01*
Y81763D01*
X812457D01*
Y82062D01*
X812307D01*
Y84760D01*
X809610D01*
Y84910D01*
X809310D01*
Y85059D01*
X809010D01*
Y85209D01*
X808860D01*
Y85359D01*
X808711D01*
Y85509D01*
X808561D01*
Y85659D01*
X808411D01*
Y85959D01*
X808261D01*
Y86258D01*
X808111D01*
Y87457D01*
X808261D01*
Y87757D01*
X808411D01*
Y88057D01*
X808561D01*
Y88207D01*
X808711D01*
Y88356D01*
X808860D01*
Y88506D01*
X809010D01*
Y88656D01*
X809310D01*
Y88806D01*
X809610D01*
Y88956D01*
X812307D01*
Y93152D01*
X808111D01*
Y90455D01*
X807961D01*
Y90155D01*
X807811D01*
Y89855D01*
X807662D01*
Y89705D01*
X807512D01*
Y89555D01*
X807362D01*
Y89405D01*
X807212D01*
Y89256D01*
X806912D01*
Y89106D01*
X806613D01*
Y88956D01*
X805414D01*
Y89106D01*
X804964D01*
Y89256D01*
X804814D01*
Y89405D01*
X804664D01*
Y89555D01*
X804514D01*
Y89705D01*
X804365D01*
Y89855D01*
X804215D01*
Y90155D01*
X804065D01*
Y90455D01*
X803915D01*
Y93152D01*
X801218D01*
Y93302D01*
X800918D01*
Y93452D01*
X800618D01*
Y93602D01*
X800468D01*
Y93751D01*
X800318D01*
Y93901D01*
X800169D01*
Y94051D01*
X800019D01*
Y94351D01*
X799869D01*
Y94651D01*
X799719D01*
Y95849D01*
X799869D01*
Y96149D01*
X800019D01*
Y96449D01*
X800169D01*
Y96599D01*
X800318D01*
Y96749D01*
X800468D01*
Y96898D01*
X800618D01*
Y97048D01*
X800918D01*
Y97198D01*
X801218D01*
Y97348D01*
X823397D01*
Y97198D01*
X823697D01*
Y97048D01*
X823996D01*
Y96898D01*
X824146D01*
Y96749D01*
X824296D01*
Y96599D01*
X824446D01*
Y96449D01*
X824596D01*
Y96149D01*
X824746D01*
Y95849D01*
X824895D01*
Y88956D01*
X829092D01*
Y89256D01*
Y89405D01*
Y101544D01*
X805414D01*
Y101694D01*
X805114D01*
Y101844D01*
X804814D01*
Y101994D01*
X804664D01*
Y102144D01*
X804514D01*
Y102293D01*
X804365D01*
Y102443D01*
X804215D01*
Y102743D01*
X804065D01*
Y103043D01*
X803915D01*
Y109936D01*
X799719D01*
Y107239D01*
X799569D01*
Y106939D01*
X799419D01*
Y106639D01*
X799269D01*
Y106489D01*
X799120D01*
Y106340D01*
X798970D01*
Y106190D01*
X798820D01*
Y106040D01*
X798520D01*
Y105890D01*
X798220D01*
Y105740D01*
X795523D01*
Y103043D01*
X795373D01*
Y102743D01*
X795223D01*
Y102443D01*
X795073D01*
Y102293D01*
X794923D01*
Y102144D01*
X794774D01*
Y101994D01*
X794624D01*
Y101844D01*
X794324D01*
Y101694D01*
X794024D01*
Y101544D01*
X791327D01*
Y98847D01*
X791177D01*
Y98547D01*
X791027D01*
Y98247D01*
X790877D01*
Y98097D01*
X790727D01*
Y97948D01*
X790577D01*
Y97798D01*
X790428D01*
Y97648D01*
X790128D01*
Y97498D01*
X789828D01*
Y97348D01*
X787131D01*
Y90455D01*
X786981D01*
Y90155D01*
X786831D01*
Y89855D01*
X786681D01*
Y89705D01*
X786531D01*
Y89555D01*
X786382D01*
Y89405D01*
X786232D01*
Y89256D01*
X785932D01*
Y89106D01*
X785632D01*
Y88956D01*
X784433D01*
Y89106D01*
X784134D01*
Y89256D01*
X783834D01*
Y89405D01*
X783684D01*
Y89555D01*
X783534D01*
Y89705D01*
X783384D01*
Y89855D01*
X783234D01*
Y90155D01*
X783084D01*
Y90455D01*
X782935D01*
Y104242D01*
X783084D01*
Y104541D01*
X783234D01*
Y104841D01*
X783384D01*
Y104991D01*
X783534D01*
Y105141D01*
X783684D01*
Y105291D01*
X783834D01*
Y105441D01*
X784134D01*
Y105590D01*
X784433D01*
Y105740D01*
X791327D01*
Y112634D01*
X791477D01*
Y112934D01*
X791627D01*
Y113233D01*
X791776D01*
Y113383D01*
X791926D01*
Y113533D01*
X792076D01*
Y113683D01*
X792226D01*
Y113833D01*
X792526D01*
Y113982D01*
X792825D01*
Y114132D01*
X803915D01*
Y116830D01*
X804065D01*
Y117130D01*
X804215D01*
Y117429D01*
X804365D01*
Y117579D01*
X804514D01*
Y117729D01*
X804664D01*
Y117879D01*
X804814D01*
Y118029D01*
X805114D01*
Y118179D01*
X805414D01*
Y118328D01*
X806613D01*
Y118179D01*
X806912D01*
Y118029D01*
X807212D01*
Y117879D01*
X807362D01*
Y117729D01*
X807512D01*
Y117579D01*
X807662D01*
Y117429D01*
X807811D01*
Y117130D01*
X807961D01*
Y116830D01*
X808111D01*
Y114132D01*
X810809D01*
Y113982D01*
X811108D01*
Y113833D01*
X811408D01*
Y113683D01*
X811558D01*
Y113533D01*
X811708D01*
Y113383D01*
X811858D01*
Y113233D01*
X812008D01*
Y112934D01*
X812157D01*
Y112634D01*
X812307D01*
Y111435D01*
X812157D01*
Y111135D01*
X812008D01*
Y110835D01*
X811858D01*
Y110686D01*
X811708D01*
Y110536D01*
X811558D01*
Y110386D01*
X811408D01*
Y110236D01*
X811108D01*
Y110086D01*
X810809D01*
Y109936D01*
X808111D01*
Y105740D01*
X816503D01*
Y108438D01*
X816653D01*
Y108737D01*
X816803D01*
Y109037D01*
X816953D01*
Y109187D01*
X817103D01*
Y109337D01*
X817253D01*
Y109487D01*
X817402D01*
Y109637D01*
X817702D01*
Y109786D01*
X818002D01*
Y109936D01*
X819201D01*
Y109786D01*
X819501D01*
Y109637D01*
X819800D01*
Y109487D01*
X819950D01*
Y109337D01*
X820100D01*
Y109187D01*
X820250D01*
Y109037D01*
X820400D01*
Y108737D01*
X820549D01*
Y108438D01*
X820699D01*
Y105740D01*
X829092D01*
Y108438D01*
X829241D01*
Y108737D01*
X829391D01*
Y109037D01*
X829541D01*
Y109187D01*
X829691D01*
Y109337D01*
X829841D01*
Y109487D01*
X829991D01*
Y109637D01*
X830290D01*
Y109786D01*
X830590D01*
Y109936D01*
X833288D01*
Y114132D01*
X830590D01*
Y114282D01*
X830290D01*
Y114432D01*
X829991D01*
Y114582D01*
X829841D01*
Y114732D01*
X829691D01*
Y114882D01*
X829541D01*
Y115031D01*
X829391D01*
Y115331D01*
X829241D01*
Y115631D01*
X829092D01*
Y121026D01*
X829241D01*
Y121326D01*
X829391D01*
Y121625D01*
X829541D01*
Y121775D01*
X829691D01*
Y121925D01*
X829841D01*
Y122075D01*
X829991D01*
Y122225D01*
X830290D01*
Y122375D01*
X830590D01*
Y122524D01*
X835985D01*
Y122375D01*
D02*
G37*
G36*
X911515Y105590D02*
X911814D01*
Y105441D01*
X912114D01*
Y105291D01*
X912264D01*
Y105141D01*
X912414D01*
Y104991D01*
X912564D01*
Y104841D01*
X912713D01*
Y104541D01*
X912863D01*
Y104242D01*
X913013D01*
Y103043D01*
X912863D01*
Y102743D01*
X912713D01*
Y102443D01*
X912564D01*
Y102293D01*
X912414D01*
Y102144D01*
X912264D01*
Y101994D01*
X912114D01*
Y101844D01*
X911964D01*
Y101694D01*
X911515D01*
Y101544D01*
X906120D01*
Y101694D01*
X905820D01*
Y101844D01*
X905520D01*
Y101994D01*
X905370D01*
Y102144D01*
X905220D01*
Y102293D01*
X905071D01*
Y102443D01*
X904921D01*
Y102743D01*
X904771D01*
Y103043D01*
X904621D01*
Y103792D01*
Y103942D01*
Y104242D01*
X904771D01*
Y104541D01*
X904921D01*
Y104841D01*
X905071D01*
Y104991D01*
X905220D01*
Y105141D01*
X905370D01*
Y105291D01*
X905520D01*
Y105441D01*
X905820D01*
Y105590D01*
X906120D01*
Y105740D01*
X911515D01*
Y105590D01*
D02*
G37*
G36*
X852769D02*
X853069D01*
Y105441D01*
X853369D01*
Y105291D01*
X853519D01*
Y105141D01*
X853669D01*
Y104991D01*
X853819D01*
Y104841D01*
X853968D01*
Y104541D01*
X854118D01*
Y104242D01*
X854268D01*
Y103043D01*
X854118D01*
Y102743D01*
X853968D01*
Y102443D01*
X853819D01*
Y102293D01*
X853669D01*
Y102144D01*
X853519D01*
Y101994D01*
X853369D01*
Y101844D01*
X853069D01*
Y101694D01*
X852769D01*
Y101544D01*
X851571D01*
Y101694D01*
X851271D01*
Y101844D01*
X850971D01*
Y101994D01*
X850821D01*
Y102144D01*
X850671D01*
Y102293D01*
X850521D01*
Y102443D01*
X850372D01*
Y102743D01*
X850222D01*
Y103043D01*
X850072D01*
Y104242D01*
X850222D01*
Y104541D01*
X850372D01*
Y104841D01*
X850521D01*
Y104991D01*
X850671D01*
Y105141D01*
X850821D01*
Y105291D01*
X850971D01*
Y105441D01*
X851271D01*
Y105590D01*
X851571D01*
Y105740D01*
X852769D01*
Y105590D01*
D02*
G37*
G36*
X844377D02*
X844677D01*
Y105441D01*
X844977D01*
Y105291D01*
X845127D01*
Y105141D01*
X845276D01*
Y104991D01*
X845426D01*
Y104841D01*
X845576D01*
Y104541D01*
X845726D01*
Y104242D01*
X845876D01*
Y103043D01*
X845726D01*
Y102743D01*
X845576D01*
Y102443D01*
X845426D01*
Y102293D01*
X845276D01*
Y102144D01*
X845127D01*
Y101994D01*
X844977D01*
Y101844D01*
X844677D01*
Y101694D01*
X844377D01*
Y101544D01*
X843178D01*
Y101694D01*
X842879D01*
Y101844D01*
X842579D01*
Y101994D01*
X842429D01*
Y102144D01*
X842279D01*
Y102293D01*
X842129D01*
Y102443D01*
X841980D01*
Y102743D01*
X841830D01*
Y103043D01*
X841680D01*
Y104242D01*
X841830D01*
Y104541D01*
X841980D01*
Y104841D01*
X842129D01*
Y104991D01*
X842279D01*
Y105141D01*
X842429D01*
Y105291D01*
X842579D01*
Y105441D01*
X842879D01*
Y105590D01*
X843178D01*
Y105740D01*
X844377D01*
Y105590D01*
D02*
G37*
G36*
X882142Y101394D02*
X882442D01*
Y101244D01*
X882741D01*
Y101095D01*
X882891D01*
Y100945D01*
X883041D01*
Y100795D01*
X883191D01*
Y100645D01*
X883341D01*
Y100345D01*
X883491D01*
Y100045D01*
X883641D01*
Y98847D01*
X883491D01*
Y98547D01*
X883341D01*
Y98247D01*
X883191D01*
Y98097D01*
X883041D01*
Y97948D01*
X882891D01*
Y97798D01*
X882741D01*
Y97648D01*
X882442D01*
Y97498D01*
X882142D01*
Y97348D01*
X880943D01*
Y97498D01*
X880643D01*
Y97648D01*
X880344D01*
Y97798D01*
X880194D01*
Y97948D01*
X880044D01*
Y98097D01*
X879894D01*
Y98247D01*
X879744D01*
Y98547D01*
X879594D01*
Y98847D01*
X879445D01*
Y100045D01*
X879594D01*
Y100345D01*
X879744D01*
Y100645D01*
X879894D01*
Y100795D01*
X880044D01*
Y100945D01*
X880194D01*
Y101095D01*
X880344D01*
Y101244D01*
X880643D01*
Y101394D01*
X880943D01*
Y101544D01*
X882142D01*
Y101394D01*
D02*
G37*
G36*
X856965D02*
X857265D01*
Y101244D01*
X857565D01*
Y101095D01*
X857715D01*
Y100945D01*
X857865D01*
Y100795D01*
X858015D01*
Y100645D01*
X858164D01*
Y100345D01*
X858314D01*
Y100045D01*
X858464D01*
Y98847D01*
X858314D01*
Y98547D01*
X858164D01*
Y98247D01*
X858015D01*
Y98097D01*
X857865D01*
Y97948D01*
X857715D01*
Y97798D01*
X857565D01*
Y97648D01*
X857265D01*
Y97498D01*
X856965D01*
Y97348D01*
X855767D01*
Y97498D01*
X855467D01*
Y97648D01*
X855167D01*
Y97798D01*
X855017D01*
Y97948D01*
X854867D01*
Y98097D01*
X854718D01*
Y98247D01*
X854568D01*
Y98547D01*
X854418D01*
Y98847D01*
X854268D01*
Y100045D01*
X854418D01*
Y100345D01*
X854568D01*
Y100645D01*
X854718D01*
Y100795D01*
X854867D01*
Y100945D01*
X855017D01*
Y101095D01*
X855167D01*
Y101244D01*
X855467D01*
Y101394D01*
X855767D01*
Y101544D01*
X856965D01*
Y101394D01*
D02*
G37*
G36*
X848573D02*
X848873D01*
Y101244D01*
X849173D01*
Y101095D01*
X849323D01*
Y100945D01*
X849473D01*
Y100795D01*
X849622D01*
Y100645D01*
X849772D01*
Y100345D01*
X849922D01*
Y100045D01*
X850072D01*
Y98847D01*
X849922D01*
Y98547D01*
X849772D01*
Y98247D01*
X849622D01*
Y98097D01*
X849473D01*
Y97948D01*
X849323D01*
Y97798D01*
X849173D01*
Y97648D01*
X848873D01*
Y97498D01*
X848573D01*
Y97348D01*
X847374D01*
Y97498D01*
X847075D01*
Y97648D01*
X846775D01*
Y97798D01*
X846625D01*
Y97948D01*
X846475D01*
Y98097D01*
X846326D01*
Y98247D01*
X846176D01*
Y98547D01*
X846026D01*
Y98847D01*
X845876D01*
Y100045D01*
X846026D01*
Y100345D01*
X846176D01*
Y100645D01*
X846326D01*
Y100795D01*
X846475D01*
Y100945D01*
X846625D01*
Y101095D01*
X846775D01*
Y101244D01*
X847075D01*
Y101394D01*
X847374D01*
Y101544D01*
X848573D01*
Y101394D01*
D02*
G37*
G36*
X919907D02*
X920206D01*
Y101244D01*
X920506D01*
Y101095D01*
X920656D01*
Y100945D01*
X920806D01*
Y100795D01*
X920956D01*
Y100645D01*
X921106D01*
Y100345D01*
X921255D01*
Y100045D01*
X921405D01*
Y94651D01*
X921255D01*
Y94351D01*
X921106D01*
Y94051D01*
X920956D01*
Y93901D01*
X920806D01*
Y93751D01*
X920656D01*
Y93602D01*
X920506D01*
Y93452D01*
X920206D01*
Y93302D01*
X919907D01*
Y93152D01*
X918708D01*
Y93302D01*
X918408D01*
Y93452D01*
X918108D01*
Y93602D01*
X917959D01*
Y93751D01*
X917809D01*
Y93901D01*
X917659D01*
Y94051D01*
X917509D01*
Y94351D01*
X917359D01*
Y94651D01*
X917209D01*
Y100045D01*
X917359D01*
Y100345D01*
X917509D01*
Y100645D01*
X917659D01*
Y100795D01*
X917809D01*
Y100945D01*
X917959D01*
Y101095D01*
X918108D01*
Y101244D01*
X918408D01*
Y101394D01*
X918708D01*
Y101544D01*
X919907D01*
Y101394D01*
D02*
G37*
G36*
X911515Y97198D02*
X911814D01*
Y97048D01*
X912114D01*
Y96898D01*
X912264D01*
Y96749D01*
X912414D01*
Y96599D01*
X912564D01*
Y96449D01*
X912713D01*
Y96149D01*
X912863D01*
Y95849D01*
X913013D01*
Y94651D01*
X912863D01*
Y94351D01*
X912713D01*
Y94051D01*
X912564D01*
Y93901D01*
X912414D01*
Y93751D01*
X912264D01*
Y93602D01*
X912114D01*
Y93452D01*
X911814D01*
Y93302D01*
X911515D01*
Y93152D01*
X910316D01*
Y93302D01*
X909866D01*
Y93452D01*
X909716D01*
Y93602D01*
X909566D01*
Y93751D01*
X909417D01*
Y93901D01*
X909267D01*
Y94051D01*
X909117D01*
Y94351D01*
X908967D01*
Y94651D01*
X908817D01*
Y95849D01*
X908967D01*
Y96149D01*
X909117D01*
Y96449D01*
X909267D01*
Y96599D01*
X909417D01*
Y96749D01*
X909566D01*
Y96898D01*
X909716D01*
Y97048D01*
X910016D01*
Y97198D01*
X910316D01*
Y97348D01*
X911515D01*
Y97198D01*
D02*
G37*
G36*
X903122D02*
X903422D01*
Y97048D01*
X903722D01*
Y96898D01*
X903872D01*
Y96749D01*
X904022D01*
Y96599D01*
X904171D01*
Y96449D01*
X904321D01*
Y96149D01*
X904471D01*
Y95849D01*
X904621D01*
Y94651D01*
X904471D01*
Y94351D01*
X904321D01*
Y94051D01*
X904171D01*
Y93901D01*
X904022D01*
Y93751D01*
X903872D01*
Y93602D01*
X903722D01*
Y93452D01*
X903422D01*
Y93302D01*
X903122D01*
Y93152D01*
X901924D01*
Y93302D01*
X901474D01*
Y93452D01*
X901324D01*
Y93602D01*
X901174D01*
Y93751D01*
X901024D01*
Y93901D01*
X900874D01*
Y94051D01*
X900725D01*
Y94351D01*
X900575D01*
Y94651D01*
X900425D01*
Y95849D01*
X900575D01*
Y96149D01*
X900725D01*
Y96449D01*
X900874D01*
Y96599D01*
X901024D01*
Y96749D01*
X901174D01*
Y96898D01*
X901324D01*
Y97048D01*
X901624D01*
Y97198D01*
X901924D01*
Y97348D01*
X903122D01*
Y97198D01*
D02*
G37*
G36*
X894730Y109786D02*
X895030D01*
Y109637D01*
X895330D01*
Y109487D01*
X895480D01*
Y109337D01*
X895629D01*
Y109187D01*
X895779D01*
Y109037D01*
X895929D01*
Y108737D01*
X896079D01*
Y108438D01*
X896229D01*
Y105740D01*
X898926D01*
Y105590D01*
X899226D01*
Y105441D01*
X899526D01*
Y105291D01*
X899676D01*
Y105141D01*
X899826D01*
Y104991D01*
X899975D01*
Y104841D01*
X900125D01*
Y104541D01*
X900275D01*
Y104242D01*
X900425D01*
Y103043D01*
X900275D01*
Y102743D01*
X900125D01*
Y102443D01*
X899975D01*
Y102293D01*
X899826D01*
Y102144D01*
X899676D01*
Y101994D01*
X899526D01*
Y101844D01*
X899226D01*
Y101694D01*
X898926D01*
Y101544D01*
X896229D01*
Y90455D01*
X896079D01*
Y90155D01*
X895929D01*
Y89855D01*
X895779D01*
Y89705D01*
X895629D01*
Y89555D01*
X895480D01*
Y89405D01*
X895330D01*
Y89256D01*
X895030D01*
Y89106D01*
X894730D01*
Y88956D01*
X892033D01*
Y86258D01*
X891883D01*
Y85959D01*
X891733D01*
Y85659D01*
X891583D01*
Y85509D01*
X891433D01*
Y85359D01*
X891283D01*
Y85209D01*
X891134D01*
Y85059D01*
X890834D01*
Y84910D01*
X890534D01*
Y84760D01*
X883641D01*
Y82062D01*
X883491D01*
Y81763D01*
X883341D01*
Y81463D01*
X883191D01*
Y81313D01*
X883041D01*
Y81163D01*
X882891D01*
Y81013D01*
X882741D01*
Y80863D01*
X882442D01*
Y80714D01*
X882142D01*
Y80564D01*
X880943D01*
Y80714D01*
X880643D01*
Y80863D01*
X880344D01*
Y81013D01*
X880194D01*
Y81163D01*
X880044D01*
Y81313D01*
X879894D01*
Y81463D01*
X879744D01*
Y81763D01*
X879594D01*
Y82062D01*
X879445D01*
Y87457D01*
X879594D01*
Y87757D01*
X879744D01*
Y88057D01*
X879894D01*
Y88207D01*
X880044D01*
Y88356D01*
X880194D01*
Y88506D01*
X880344D01*
Y88656D01*
X880643D01*
Y88806D01*
X880943D01*
Y88956D01*
X883641D01*
Y95849D01*
X883791D01*
Y96149D01*
X883940D01*
Y96449D01*
X884090D01*
Y96599D01*
X884240D01*
Y96749D01*
X884390D01*
Y96898D01*
X884540D01*
Y97048D01*
X884839D01*
Y97198D01*
X885139D01*
Y97348D01*
X886338D01*
Y97198D01*
X886638D01*
Y97048D01*
X886937D01*
Y96898D01*
X887087D01*
Y96749D01*
X887237D01*
Y96599D01*
X887387D01*
Y96449D01*
X887537D01*
Y96149D01*
X887687D01*
Y95849D01*
X887837D01*
Y93152D01*
X892033D01*
Y97348D01*
X889335D01*
Y97498D01*
X889036D01*
Y97648D01*
X888736D01*
Y97798D01*
X888586D01*
Y97948D01*
X888436D01*
Y98097D01*
X888286D01*
Y98247D01*
X888136D01*
Y98547D01*
X887987D01*
Y98847D01*
X887837D01*
Y104242D01*
X887987D01*
Y104541D01*
X888136D01*
Y104841D01*
X888286D01*
Y104991D01*
X888436D01*
Y105141D01*
X888586D01*
Y105291D01*
X888736D01*
Y105441D01*
X889036D01*
Y105590D01*
X889335D01*
Y105740D01*
X892033D01*
Y108438D01*
X892183D01*
Y108737D01*
X892333D01*
Y109037D01*
X892482D01*
Y109187D01*
X892632D01*
Y109337D01*
X892782D01*
Y109487D01*
X892932D01*
Y109637D01*
X893232D01*
Y109786D01*
X893531D01*
Y109936D01*
X894730D01*
Y109786D01*
D02*
G37*
G36*
X852769Y97198D02*
X853069D01*
Y97048D01*
X853369D01*
Y96898D01*
X853519D01*
Y96749D01*
X853669D01*
Y96599D01*
X853819D01*
Y96449D01*
X853968D01*
Y96149D01*
X854118D01*
Y95849D01*
X854268D01*
Y94651D01*
X854118D01*
Y94351D01*
X853968D01*
Y94051D01*
X853819D01*
Y93901D01*
X853669D01*
Y93751D01*
X853519D01*
Y93602D01*
X853369D01*
Y93452D01*
X853069D01*
Y93302D01*
X852769D01*
Y93152D01*
X851571D01*
Y93302D01*
X851271D01*
Y93452D01*
X850971D01*
Y93602D01*
X850821D01*
Y93751D01*
X850671D01*
Y93901D01*
X850521D01*
Y94051D01*
X850372D01*
Y94351D01*
X850222D01*
Y94651D01*
X850072D01*
Y95849D01*
X850222D01*
Y96149D01*
X850372D01*
Y96449D01*
X850521D01*
Y96599D01*
X850671D01*
Y96749D01*
X850821D01*
Y96898D01*
X850971D01*
Y97048D01*
X851271D01*
Y97198D01*
X851571D01*
Y97348D01*
X852769D01*
Y97198D01*
D02*
G37*
G36*
X877946Y105590D02*
X878246D01*
Y105441D01*
X878545D01*
Y105291D01*
X878695D01*
Y105141D01*
X878845D01*
Y104991D01*
X878995D01*
Y104841D01*
X879145D01*
Y104541D01*
X879295D01*
Y104242D01*
X879445D01*
Y103043D01*
X879295D01*
Y102743D01*
X879145D01*
Y102443D01*
X878995D01*
Y102293D01*
X878845D01*
Y102144D01*
X878695D01*
Y101994D01*
X878545D01*
Y101844D01*
X878246D01*
Y101694D01*
X877946D01*
Y101544D01*
X875248D01*
Y97348D01*
X877946D01*
Y97198D01*
X878246D01*
Y97048D01*
X878545D01*
Y96898D01*
X878695D01*
Y96749D01*
X878845D01*
Y96599D01*
X878995D01*
Y96449D01*
X879145D01*
Y96149D01*
X879295D01*
Y95849D01*
X879445D01*
Y90455D01*
X879295D01*
Y90155D01*
X879145D01*
Y89855D01*
X878995D01*
Y89705D01*
X878845D01*
Y89555D01*
X878695D01*
Y89405D01*
X878545D01*
Y89256D01*
X878395D01*
Y89106D01*
X877946D01*
Y88956D01*
X871052D01*
Y84760D01*
X873750D01*
Y84610D01*
X874050D01*
Y84460D01*
X874349D01*
Y84310D01*
X874499D01*
Y84160D01*
X874649D01*
Y84010D01*
X874799D01*
Y83861D01*
X874949D01*
Y83561D01*
X875099D01*
Y83261D01*
X875248D01*
Y82062D01*
X875099D01*
Y81763D01*
X874949D01*
Y81463D01*
X874799D01*
Y81313D01*
X874649D01*
Y81163D01*
X874499D01*
Y81013D01*
X874349D01*
Y80863D01*
X874199D01*
Y80714D01*
X873750D01*
Y80564D01*
X868355D01*
Y80714D01*
X868055D01*
Y80863D01*
X867755D01*
Y81013D01*
X867606D01*
Y81163D01*
X867456D01*
Y81313D01*
X867306D01*
Y81463D01*
X867156D01*
Y81763D01*
X867006D01*
Y82062D01*
X866856D01*
Y84760D01*
X859963D01*
Y84910D01*
X859513D01*
Y85059D01*
X859363D01*
Y85209D01*
X859213D01*
Y85359D01*
X859064D01*
Y85509D01*
X858914D01*
Y85659D01*
X858764D01*
Y85959D01*
X858614D01*
Y86258D01*
X858464D01*
Y91653D01*
X858614D01*
Y91953D01*
X858764D01*
Y92253D01*
X858914D01*
Y92403D01*
X859064D01*
Y92552D01*
X859213D01*
Y92702D01*
X859363D01*
Y92852D01*
X859663D01*
Y93002D01*
X859963D01*
Y93152D01*
X866856D01*
Y95400D01*
Y95550D01*
Y100045D01*
X867006D01*
Y100345D01*
X867156D01*
Y100645D01*
X867306D01*
Y100795D01*
X867456D01*
Y100945D01*
X867606D01*
Y101095D01*
X867755D01*
Y101244D01*
X868055D01*
Y101394D01*
X868355D01*
Y101544D01*
X871052D01*
Y104242D01*
X871202D01*
Y104541D01*
X871352D01*
Y104841D01*
X871502D01*
Y104991D01*
X871652D01*
Y105141D01*
X871802D01*
Y105291D01*
X871952D01*
Y105441D01*
X872251D01*
Y105590D01*
X872551D01*
Y105740D01*
X877946D01*
Y105590D01*
D02*
G37*
G36*
X915711Y93002D02*
X916010D01*
Y92852D01*
X916310D01*
Y92702D01*
X916460D01*
Y92552D01*
X916610D01*
Y92403D01*
X916760D01*
Y92253D01*
X916909D01*
Y91953D01*
X917059D01*
Y91653D01*
X917209D01*
Y88956D01*
X919907D01*
Y88806D01*
X920206D01*
Y88656D01*
X920506D01*
Y88506D01*
X920656D01*
Y88356D01*
X920806D01*
Y88207D01*
X920956D01*
Y88057D01*
X921106D01*
Y87757D01*
X921255D01*
Y87457D01*
X921405D01*
Y73670D01*
X921255D01*
Y73370D01*
X921106D01*
Y73071D01*
X920956D01*
Y72921D01*
X920806D01*
Y72771D01*
X920656D01*
Y72621D01*
X920506D01*
Y72471D01*
X920206D01*
Y72321D01*
X919907D01*
Y72172D01*
X917209D01*
Y69474D01*
X917059D01*
Y69174D01*
X916909D01*
Y68875D01*
X916760D01*
Y68725D01*
X916610D01*
Y68575D01*
X916460D01*
Y68425D01*
X916310D01*
Y68275D01*
X916010D01*
Y68125D01*
X915711D01*
Y67976D01*
X914512D01*
Y68125D01*
X914062D01*
Y68275D01*
X913912D01*
Y68425D01*
X913763D01*
Y68575D01*
X913613D01*
Y68725D01*
X913463D01*
Y68875D01*
X913313D01*
Y69174D01*
X913163D01*
Y69474D01*
X913013D01*
Y72172D01*
X910316D01*
Y72321D01*
X909866D01*
Y72471D01*
X909716D01*
Y72621D01*
X909566D01*
Y72771D01*
X909417D01*
Y72921D01*
X909267D01*
Y73071D01*
X909117D01*
Y73221D01*
X908967D01*
Y73670D01*
X908817D01*
Y76368D01*
X900425D01*
Y72172D01*
X903122D01*
Y72022D01*
X903422D01*
Y71872D01*
X903722D01*
Y71722D01*
X903872D01*
Y71572D01*
X904022D01*
Y71422D01*
X904171D01*
Y71272D01*
X904321D01*
Y70973D01*
X904471D01*
Y70673D01*
X904621D01*
Y69474D01*
X904471D01*
Y69174D01*
X904321D01*
Y68875D01*
X904171D01*
Y68725D01*
X904022D01*
Y68575D01*
X903872D01*
Y68425D01*
X903722D01*
Y68275D01*
X903422D01*
Y68125D01*
X903122D01*
Y67976D01*
X896229D01*
Y63779D01*
X903122D01*
Y63629D01*
X903422D01*
Y63480D01*
X903722D01*
Y63330D01*
X903872D01*
Y63180D01*
X904022D01*
Y63030D01*
X904171D01*
Y62880D01*
X904321D01*
Y62580D01*
X904471D01*
Y62281D01*
X904621D01*
Y46995D01*
X919907D01*
Y46845D01*
X920206D01*
Y46695D01*
X920506D01*
Y46546D01*
X920656D01*
Y46396D01*
X920806D01*
Y46246D01*
X920956D01*
Y46096D01*
X921106D01*
Y45796D01*
X921255D01*
Y45497D01*
X921405D01*
Y44298D01*
X921255D01*
Y43998D01*
X921106D01*
Y43698D01*
X920956D01*
Y43548D01*
X920806D01*
Y43398D01*
X920656D01*
Y43249D01*
X920506D01*
Y43099D01*
X920206D01*
Y42949D01*
X919907D01*
Y42799D01*
X913013D01*
Y35905D01*
X912863D01*
Y35606D01*
X912713D01*
Y35306D01*
X912564D01*
Y35156D01*
X912414D01*
Y35006D01*
X912264D01*
Y34856D01*
X912114D01*
Y34707D01*
X911814D01*
Y34557D01*
X911515D01*
Y34407D01*
X910316D01*
Y34557D01*
X910016D01*
Y34707D01*
X909716D01*
Y34856D01*
X909566D01*
Y35006D01*
X909417D01*
Y35156D01*
X909267D01*
Y35306D01*
X909117D01*
Y35606D01*
X908967D01*
Y35905D01*
X908817D01*
Y42799D01*
X904621D01*
Y40101D01*
X904471D01*
Y39802D01*
X904321D01*
Y39502D01*
X904171D01*
Y39352D01*
X904022D01*
Y39202D01*
X903872D01*
Y39053D01*
X903722D01*
Y38903D01*
X903422D01*
Y38753D01*
X903122D01*
Y38603D01*
X901924D01*
Y38753D01*
X901624D01*
Y38903D01*
X901324D01*
Y39053D01*
X901174D01*
Y39202D01*
X901024D01*
Y39352D01*
X900874D01*
Y39502D01*
X900725D01*
Y39802D01*
X900575D01*
Y40101D01*
X900425D01*
Y42799D01*
X892033D01*
Y40101D01*
X891883D01*
Y39802D01*
X891733D01*
Y39502D01*
X891583D01*
Y39352D01*
X891433D01*
Y39202D01*
X891283D01*
Y39053D01*
X891134D01*
Y38903D01*
X890834D01*
Y38753D01*
X890534D01*
Y38603D01*
X889335D01*
Y38753D01*
X888886D01*
Y38903D01*
X888736D01*
Y39053D01*
X888586D01*
Y39202D01*
X888436D01*
Y39352D01*
X888286D01*
Y39502D01*
X888136D01*
Y39802D01*
X887987D01*
Y40101D01*
X887837D01*
Y42799D01*
X885139D01*
Y42949D01*
X884839D01*
Y43099D01*
X884540D01*
Y43249D01*
X884390D01*
Y43398D01*
X884240D01*
Y43548D01*
X884090D01*
Y43698D01*
X883940D01*
Y43998D01*
X883791D01*
Y44298D01*
X883641D01*
Y46995D01*
X876747D01*
Y47145D01*
X876298D01*
Y47295D01*
X876148D01*
Y47445D01*
X875998D01*
Y47594D01*
X875848D01*
Y47744D01*
X875698D01*
Y47894D01*
X875548D01*
Y48194D01*
X875398D01*
Y48494D01*
X875248D01*
Y51191D01*
X866856D01*
Y46995D01*
X869554D01*
Y46845D01*
X869854D01*
Y46695D01*
X870153D01*
Y46546D01*
X870303D01*
Y46396D01*
X870453D01*
Y46246D01*
X870603D01*
Y46096D01*
X870753D01*
Y45796D01*
X870902D01*
Y45497D01*
X871052D01*
Y40101D01*
X870902D01*
Y39802D01*
X870753D01*
Y39502D01*
X870603D01*
Y39352D01*
X870453D01*
Y39202D01*
X870303D01*
Y39053D01*
X870153D01*
Y38903D01*
X869854D01*
Y38753D01*
X869554D01*
Y38603D01*
X868355D01*
Y38753D01*
X868055D01*
Y38903D01*
X867755D01*
Y39053D01*
X867606D01*
Y39202D01*
X867456D01*
Y39352D01*
X867306D01*
Y39502D01*
X867156D01*
Y39802D01*
X867006D01*
Y40101D01*
X866856D01*
Y42799D01*
X864159D01*
Y42949D01*
X863859D01*
Y43099D01*
X863559D01*
Y43249D01*
X863410D01*
Y43398D01*
X863260D01*
Y43548D01*
X863110D01*
Y43698D01*
X862960D01*
Y43998D01*
X862810D01*
Y44298D01*
X862660D01*
Y51191D01*
X858464D01*
Y48494D01*
X858314D01*
Y48194D01*
X858164D01*
Y47894D01*
X858015D01*
Y47744D01*
X857865D01*
Y47594D01*
X857715D01*
Y47445D01*
X857565D01*
Y47295D01*
X857265D01*
Y47145D01*
X856965D01*
Y46995D01*
X855767D01*
Y47145D01*
X855467D01*
Y47295D01*
X855167D01*
Y47445D01*
X855017D01*
Y47594D01*
X854718D01*
Y47894D01*
X854568D01*
Y48194D01*
X854418D01*
Y48494D01*
X854268D01*
Y51191D01*
X847374D01*
Y51341D01*
X846925D01*
Y51491D01*
X846775D01*
Y51641D01*
X846625D01*
Y51791D01*
X846475D01*
Y51940D01*
X846326D01*
Y52090D01*
X846176D01*
Y52390D01*
X846026D01*
Y52690D01*
X845876D01*
Y53889D01*
X846026D01*
Y54188D01*
X846176D01*
Y54488D01*
X846326D01*
Y54638D01*
X846475D01*
Y54788D01*
X846625D01*
Y54938D01*
X846775D01*
Y55087D01*
X847075D01*
Y55237D01*
X847374D01*
Y55387D01*
X850072D01*
Y62281D01*
X850222D01*
Y62580D01*
X850372D01*
Y62880D01*
X850521D01*
Y63030D01*
X850671D01*
Y63180D01*
X850821D01*
Y63330D01*
X850971D01*
Y63480D01*
X851271D01*
Y63629D01*
X851571D01*
Y63779D01*
X862660D01*
Y66477D01*
X862810D01*
Y66777D01*
X862960D01*
Y67076D01*
X863110D01*
Y67226D01*
X863260D01*
Y67376D01*
X863410D01*
Y67526D01*
X863559D01*
Y67676D01*
X863859D01*
Y67826D01*
X864159D01*
Y67976D01*
X865358D01*
Y67826D01*
X865657D01*
Y67676D01*
X865957D01*
Y67526D01*
X866107D01*
Y67376D01*
X866257D01*
Y67226D01*
X866407D01*
Y67076D01*
X866557D01*
Y66777D01*
X866706D01*
Y66477D01*
X866856D01*
Y61082D01*
X866706D01*
Y60782D01*
X866557D01*
Y60483D01*
X866407D01*
Y60333D01*
X866257D01*
Y60183D01*
X866107D01*
Y60033D01*
X865957D01*
Y59883D01*
X865657D01*
Y59733D01*
X865358D01*
Y59583D01*
X858464D01*
Y55387D01*
X875248D01*
Y58085D01*
X875398D01*
Y58384D01*
X875548D01*
Y58684D01*
X875698D01*
Y58834D01*
X875848D01*
Y58984D01*
X875998D01*
Y59134D01*
X876148D01*
Y59284D01*
X876447D01*
Y59433D01*
X876747D01*
Y59583D01*
X877946D01*
Y59433D01*
X878246D01*
Y59284D01*
X878545D01*
Y59134D01*
X878695D01*
Y58984D01*
X878845D01*
Y58834D01*
X878995D01*
Y58684D01*
X879145D01*
Y58384D01*
X879295D01*
Y58085D01*
X879445D01*
Y55387D01*
X883641D01*
Y62281D01*
X883791D01*
Y62580D01*
X883940D01*
Y62880D01*
X884090D01*
Y63030D01*
X884240D01*
Y63180D01*
X884390D01*
Y63330D01*
X884540D01*
Y63480D01*
X884839D01*
Y63629D01*
X885139D01*
Y63779D01*
X892033D01*
Y72172D01*
X883641D01*
Y69474D01*
X883491D01*
Y69174D01*
X883341D01*
Y68875D01*
X883191D01*
Y68725D01*
X883041D01*
Y68575D01*
X882891D01*
Y68425D01*
X882741D01*
Y68275D01*
X882442D01*
Y68125D01*
X882142D01*
Y67976D01*
X872551D01*
Y68125D01*
X872101D01*
Y68275D01*
X871952D01*
Y68425D01*
X871802D01*
Y68575D01*
X871652D01*
Y68725D01*
X871502D01*
Y68875D01*
X871352D01*
Y69174D01*
X871202D01*
Y69474D01*
X871052D01*
Y74869D01*
X871202D01*
Y75169D01*
X871352D01*
Y75469D01*
X871502D01*
Y75618D01*
X871652D01*
Y75768D01*
X871802D01*
Y75918D01*
X871952D01*
Y76068D01*
X872251D01*
Y76218D01*
X872551D01*
Y76368D01*
X883641D01*
Y79065D01*
X883791D01*
Y79365D01*
X883940D01*
Y79665D01*
X884090D01*
Y79814D01*
X884240D01*
Y79964D01*
X884390D01*
Y80114D01*
X884540D01*
Y80264D01*
X884839D01*
Y80414D01*
X885139D01*
Y80564D01*
X886338D01*
Y80414D01*
X886638D01*
Y80264D01*
X886937D01*
Y80114D01*
X887087D01*
Y79964D01*
X887237D01*
Y79814D01*
X887387D01*
Y79665D01*
X887537D01*
Y79365D01*
X887687D01*
Y79065D01*
X887837D01*
Y76368D01*
X896229D01*
Y83261D01*
X896379D01*
Y83561D01*
X896529D01*
Y83861D01*
X896678D01*
Y84010D01*
X896828D01*
Y84160D01*
X896978D01*
Y84310D01*
X897128D01*
Y84460D01*
X897428D01*
Y84610D01*
X897727D01*
Y84760D01*
X904621D01*
Y87457D01*
X904771D01*
Y87757D01*
X904921D01*
Y88057D01*
X905071D01*
Y88207D01*
X905220D01*
Y88356D01*
X905370D01*
Y88506D01*
X905520D01*
Y88656D01*
X905820D01*
Y88806D01*
X906120D01*
Y88956D01*
X913013D01*
Y91653D01*
X913163D01*
Y91953D01*
X913313D01*
Y92253D01*
X913463D01*
Y92403D01*
X913613D01*
Y92552D01*
X913763D01*
Y92702D01*
X913912D01*
Y92852D01*
X914212D01*
Y93002D01*
X914512D01*
Y93152D01*
X915711D01*
Y93002D01*
D02*
G37*
G36*
X810809Y72022D02*
X811108D01*
Y71872D01*
X811408D01*
Y71722D01*
X811558D01*
Y71572D01*
X811708D01*
Y71422D01*
X811858D01*
Y71272D01*
X812008D01*
Y70973D01*
X812157D01*
Y70673D01*
X812307D01*
Y69474D01*
X812157D01*
Y69174D01*
X812008D01*
Y68875D01*
X811858D01*
Y68725D01*
X811708D01*
Y68575D01*
X811558D01*
Y68425D01*
X811408D01*
Y68275D01*
X811108D01*
Y68125D01*
X810809D01*
Y67976D01*
X809610D01*
Y68125D01*
X809310D01*
Y68275D01*
X809010D01*
Y68425D01*
X808860D01*
Y68575D01*
X808561D01*
Y68875D01*
X808411D01*
Y69174D01*
X808261D01*
Y69474D01*
X808111D01*
Y70673D01*
X808261D01*
Y70973D01*
X808411D01*
Y71122D01*
Y71272D01*
X808561D01*
Y71422D01*
X808711D01*
Y71572D01*
X808860D01*
Y71722D01*
X809010D01*
Y71872D01*
X809310D01*
Y72022D01*
X809610D01*
Y72172D01*
X810809D01*
Y72022D01*
D02*
G37*
G36*
X848573Y67826D02*
X848873D01*
Y67676D01*
X849173D01*
Y67526D01*
X849323D01*
Y67376D01*
X849473D01*
Y67226D01*
X849622D01*
Y67076D01*
X849772D01*
Y66777D01*
X849922D01*
Y66477D01*
X850072D01*
Y65278D01*
X849922D01*
Y64978D01*
X849772D01*
Y64679D01*
X849622D01*
Y64529D01*
X849473D01*
Y64379D01*
X849323D01*
Y64229D01*
X849173D01*
Y64079D01*
X848873D01*
Y63929D01*
X848573D01*
Y63779D01*
X847374D01*
Y63929D01*
X846925D01*
Y64079D01*
X846775D01*
Y64229D01*
X846625D01*
Y64379D01*
X846475D01*
Y64529D01*
X846326D01*
Y64679D01*
X846176D01*
Y64978D01*
X846026D01*
Y65278D01*
X845876D01*
Y66477D01*
X846026D01*
Y66777D01*
X846176D01*
Y67076D01*
X846326D01*
Y67226D01*
X846475D01*
Y67376D01*
X846625D01*
Y67526D01*
X846775D01*
Y67676D01*
X847075D01*
Y67826D01*
X847374D01*
Y67976D01*
X848573D01*
Y67826D01*
D02*
G37*
G36*
X806613D02*
X806912D01*
Y67676D01*
X807212D01*
Y67526D01*
X807362D01*
Y67376D01*
X807512D01*
Y67226D01*
X807662D01*
Y67076D01*
X807811D01*
Y66777D01*
X807961D01*
Y66477D01*
X808111D01*
Y63779D01*
X815005D01*
Y63629D01*
X815304D01*
Y63480D01*
X815604D01*
Y63330D01*
X815754D01*
Y63180D01*
X815904D01*
Y63030D01*
X816054D01*
Y62880D01*
X816204D01*
Y62580D01*
X816354D01*
Y62281D01*
X816503D01*
Y61082D01*
X816354D01*
Y60782D01*
X816204D01*
Y60483D01*
X816054D01*
Y60333D01*
X815904D01*
Y60183D01*
X815754D01*
Y60033D01*
X815604D01*
Y59883D01*
X815304D01*
Y59733D01*
X815005D01*
Y59583D01*
X805414D01*
Y59733D01*
X805114D01*
Y59883D01*
X804814D01*
Y60033D01*
X804664D01*
Y60183D01*
X804514D01*
Y60333D01*
X804365D01*
Y60483D01*
X804215D01*
Y60782D01*
X804065D01*
Y61082D01*
X803915D01*
Y66477D01*
X804065D01*
Y66777D01*
X804215D01*
Y67076D01*
X804365D01*
Y67226D01*
X804514D01*
Y67376D01*
X804664D01*
Y67526D01*
X804814D01*
Y67676D01*
X805114D01*
Y67826D01*
X805414D01*
Y67976D01*
X806613D01*
Y67826D01*
D02*
G37*
G36*
X798220Y93002D02*
X798520D01*
Y92852D01*
X798820D01*
Y92702D01*
X798970D01*
Y92552D01*
X799120D01*
Y92403D01*
X799269D01*
Y92253D01*
X799419D01*
Y91953D01*
X799569D01*
Y91653D01*
X799719D01*
Y88956D01*
X802417D01*
Y88806D01*
X802716D01*
Y88656D01*
X803016D01*
Y88506D01*
X803166D01*
Y88356D01*
X803316D01*
Y88207D01*
X803465D01*
Y88057D01*
X803615D01*
Y87757D01*
X803765D01*
Y87457D01*
X803915D01*
Y86258D01*
X803765D01*
Y85959D01*
X803615D01*
Y85659D01*
X803465D01*
Y85509D01*
X803316D01*
Y85359D01*
X803166D01*
Y85209D01*
X803016D01*
Y85059D01*
X802716D01*
Y84910D01*
X802417D01*
Y84760D01*
X799719D01*
Y80564D01*
X803915D01*
Y83261D01*
X804065D01*
Y83561D01*
X804215D01*
Y83861D01*
X804365D01*
Y84010D01*
X804514D01*
Y84160D01*
X804664D01*
Y84310D01*
X804814D01*
Y84460D01*
X805114D01*
Y84610D01*
X805414D01*
Y84760D01*
X806613D01*
Y84610D01*
X806912D01*
Y84460D01*
X807212D01*
Y84310D01*
X807362D01*
Y84160D01*
X807512D01*
Y84010D01*
X807662D01*
Y83861D01*
X807811D01*
Y83561D01*
X807961D01*
Y83261D01*
X808111D01*
Y80564D01*
X810809D01*
Y80414D01*
X811108D01*
Y80264D01*
X811408D01*
Y80114D01*
X811558D01*
Y79964D01*
X811708D01*
Y79814D01*
X811858D01*
Y79665D01*
X812008D01*
Y79365D01*
X812157D01*
Y79065D01*
X812307D01*
Y77866D01*
X812157D01*
Y77566D01*
X812008D01*
Y77267D01*
X811858D01*
Y77117D01*
X811708D01*
Y76967D01*
X811558D01*
Y76817D01*
X811408D01*
Y76667D01*
X811258D01*
Y76518D01*
X810809D01*
Y76368D01*
X799719D01*
Y72172D01*
X802417D01*
Y72022D01*
X802716D01*
Y71872D01*
X803016D01*
Y71722D01*
X803166D01*
Y71572D01*
X803316D01*
Y71422D01*
X803465D01*
Y71272D01*
X803615D01*
Y70973D01*
X803765D01*
Y70673D01*
X803915D01*
Y69474D01*
X803765D01*
Y69174D01*
X803615D01*
Y68875D01*
X803465D01*
Y68725D01*
X803316D01*
Y68575D01*
X803166D01*
Y68425D01*
X803016D01*
Y68275D01*
X802716D01*
Y68125D01*
X802417D01*
Y67976D01*
X799719D01*
Y61082D01*
X799569D01*
Y60782D01*
X799419D01*
Y60483D01*
X799269D01*
Y60333D01*
X799120D01*
Y60183D01*
X798970D01*
Y60033D01*
X798820D01*
Y59883D01*
X798520D01*
Y59733D01*
X798220D01*
Y59583D01*
X797021D01*
Y59733D01*
X796722D01*
Y59883D01*
X796422D01*
Y60033D01*
X796272D01*
Y60183D01*
X796122D01*
Y60333D01*
X795973D01*
Y60483D01*
X795823D01*
Y60782D01*
X795673D01*
Y61082D01*
X795523D01*
Y67976D01*
X792825D01*
Y68125D01*
X792526D01*
Y68275D01*
X792226D01*
Y68425D01*
X792076D01*
Y68575D01*
X791926D01*
Y68725D01*
X791776D01*
Y68875D01*
X791627D01*
Y69174D01*
X791477D01*
Y69474D01*
X791327D01*
Y70673D01*
X791477D01*
Y70973D01*
X791627D01*
Y71272D01*
X791776D01*
Y71422D01*
X791926D01*
Y71572D01*
X792076D01*
Y71722D01*
X792226D01*
Y71872D01*
X792526D01*
Y72022D01*
X792825D01*
Y72172D01*
X795523D01*
Y76368D01*
X791327D01*
Y73670D01*
X791177D01*
Y73370D01*
X791027D01*
Y73071D01*
X790877D01*
Y72921D01*
X790727D01*
Y72771D01*
X790577D01*
Y72621D01*
X790428D01*
Y72471D01*
X790128D01*
Y72321D01*
X789828D01*
Y72172D01*
X788629D01*
Y72321D01*
X788330D01*
Y72471D01*
X788030D01*
Y72621D01*
X787880D01*
Y72771D01*
X787730D01*
Y72921D01*
X787580D01*
Y73071D01*
X787430D01*
Y73370D01*
X787281D01*
Y73670D01*
X787131D01*
Y76368D01*
X784433D01*
Y76518D01*
X784134D01*
Y76667D01*
X783834D01*
Y76817D01*
X783684D01*
Y76967D01*
X783534D01*
Y77117D01*
X783384D01*
Y77267D01*
X783234D01*
Y77566D01*
X783084D01*
Y77866D01*
X782935D01*
Y83261D01*
X783084D01*
Y83561D01*
X783234D01*
Y83861D01*
X783384D01*
Y84010D01*
X783534D01*
Y84160D01*
X783684D01*
Y84310D01*
X783834D01*
Y84460D01*
X784134D01*
Y84610D01*
X784433D01*
Y84760D01*
X787131D01*
Y87457D01*
X787281D01*
Y87757D01*
X787430D01*
Y88057D01*
X787580D01*
Y88207D01*
X787730D01*
Y88356D01*
X787880D01*
Y88506D01*
X788030D01*
Y88656D01*
X788330D01*
Y88806D01*
X788629D01*
Y88956D01*
X791327D01*
Y91653D01*
X791477D01*
Y91953D01*
X791627D01*
Y92253D01*
X791776D01*
Y92403D01*
X791926D01*
Y92552D01*
X792076D01*
Y92702D01*
X792226D01*
Y92852D01*
X792526D01*
Y93002D01*
X792825D01*
Y93152D01*
X798220D01*
Y93002D01*
D02*
G37*
G36*
X785632Y72022D02*
X785932D01*
Y71872D01*
X786232D01*
Y71722D01*
X786382D01*
Y71572D01*
X786531D01*
Y71422D01*
X786681D01*
Y71272D01*
X786831D01*
Y70973D01*
X786981D01*
Y70673D01*
X787131D01*
Y67976D01*
X789828D01*
Y67826D01*
X790128D01*
Y67676D01*
X790428D01*
Y67526D01*
X790577D01*
Y67376D01*
X790727D01*
Y67226D01*
X790877D01*
Y67076D01*
X791027D01*
Y66777D01*
X791177D01*
Y66477D01*
X791327D01*
Y61082D01*
X791177D01*
Y60782D01*
X791027D01*
Y60483D01*
X790877D01*
Y60333D01*
X790727D01*
Y60183D01*
X790577D01*
Y60033D01*
X790428D01*
Y59883D01*
X790128D01*
Y59733D01*
X789828D01*
Y59583D01*
X788629D01*
Y59733D01*
X788330D01*
Y59883D01*
X788030D01*
Y60033D01*
X787880D01*
Y60183D01*
X787730D01*
Y60333D01*
X787580D01*
Y60483D01*
X787430D01*
Y60782D01*
X787281D01*
Y61082D01*
X787131D01*
Y63779D01*
X784433D01*
Y63929D01*
X784134D01*
Y64079D01*
X783834D01*
Y64229D01*
X783684D01*
Y64379D01*
X783534D01*
Y64529D01*
X783384D01*
Y64679D01*
X783234D01*
Y64978D01*
X783084D01*
Y65278D01*
X782935D01*
Y65728D01*
Y65877D01*
Y70673D01*
X783084D01*
Y70973D01*
X783234D01*
Y71272D01*
X783384D01*
Y71422D01*
X783534D01*
Y71572D01*
X783684D01*
Y71722D01*
X783834D01*
Y71872D01*
X784134D01*
Y72022D01*
X784433D01*
Y72172D01*
X785632D01*
Y72022D01*
D02*
G37*
G36*
X919907Y63629D02*
X920206D01*
Y63480D01*
X920506D01*
Y63330D01*
X920656D01*
Y63180D01*
X920806D01*
Y63030D01*
X920956D01*
Y62880D01*
X921106D01*
Y62580D01*
X921255D01*
Y62281D01*
X921405D01*
Y56886D01*
X921255D01*
Y56586D01*
X921106D01*
Y56286D01*
X920956D01*
Y56136D01*
X920806D01*
Y55987D01*
X920656D01*
Y55837D01*
X920506D01*
Y55687D01*
X920206D01*
Y55537D01*
X919907D01*
Y55387D01*
X918708D01*
Y55537D01*
X918408D01*
Y55687D01*
X918108D01*
Y55837D01*
X917959D01*
Y55987D01*
X917809D01*
Y56136D01*
X917659D01*
Y56286D01*
X917509D01*
Y56586D01*
X917359D01*
Y56886D01*
X917209D01*
Y59583D01*
X914512D01*
Y59733D01*
X914062D01*
Y59883D01*
X913912D01*
Y60033D01*
X913763D01*
Y60183D01*
X913613D01*
Y60333D01*
X913463D01*
Y60483D01*
X913313D01*
Y60782D01*
X913163D01*
Y61082D01*
X913013D01*
Y62281D01*
X913163D01*
Y62580D01*
X913313D01*
Y62880D01*
X913463D01*
Y63030D01*
X913613D01*
Y63180D01*
X913763D01*
Y63330D01*
X913912D01*
Y63480D01*
X914212D01*
Y63629D01*
X914512D01*
Y63779D01*
X919907D01*
Y63629D01*
D02*
G37*
G36*
X827593D02*
X827893D01*
Y63480D01*
X828192D01*
Y63330D01*
X828342D01*
Y63180D01*
X828492D01*
Y63030D01*
X828642D01*
Y62880D01*
X828792D01*
Y62580D01*
X828942D01*
Y62281D01*
X829092D01*
Y59583D01*
X831789D01*
Y59433D01*
X832089D01*
Y59284D01*
X832389D01*
Y59134D01*
X832538D01*
Y58984D01*
X832688D01*
Y58834D01*
X832838D01*
Y58684D01*
X832988D01*
Y58384D01*
X833138D01*
Y58085D01*
X833288D01*
Y55387D01*
X840181D01*
Y55237D01*
X840481D01*
Y55087D01*
X840781D01*
Y54938D01*
X840930D01*
Y54788D01*
X841080D01*
Y54638D01*
X841230D01*
Y54488D01*
X841380D01*
Y54188D01*
X841530D01*
Y53889D01*
X841680D01*
Y52690D01*
X841530D01*
Y52390D01*
X841380D01*
Y52090D01*
X841230D01*
Y51940D01*
X841080D01*
Y51791D01*
X840930D01*
Y51641D01*
X840781D01*
Y51491D01*
X840481D01*
Y51341D01*
X840181D01*
Y51191D01*
X830590D01*
Y51341D01*
X830290D01*
Y51491D01*
X829991D01*
Y51641D01*
X829841D01*
Y51791D01*
X829691D01*
Y51940D01*
X829541D01*
Y52090D01*
X829391D01*
Y52390D01*
X829241D01*
Y52690D01*
X829092D01*
Y55387D01*
X824895D01*
Y51191D01*
X827593D01*
Y51041D01*
X827893D01*
Y50891D01*
X828192D01*
Y50742D01*
X828342D01*
Y50592D01*
X828492D01*
Y50442D01*
X828642D01*
Y50292D01*
X828792D01*
Y49992D01*
X828942D01*
Y49693D01*
X829092D01*
Y48494D01*
X828942D01*
Y48194D01*
X828792D01*
Y47894D01*
X828642D01*
Y47744D01*
X828492D01*
Y47594D01*
X828342D01*
Y47445D01*
X828192D01*
Y47295D01*
X827893D01*
Y47145D01*
X827593D01*
Y46995D01*
X822198D01*
Y47145D01*
X821898D01*
Y47295D01*
X821599D01*
Y47445D01*
X821449D01*
Y47594D01*
X821299D01*
Y47744D01*
X821149D01*
Y47894D01*
X820999D01*
Y48194D01*
X820849D01*
Y48494D01*
X820699D01*
Y51191D01*
X818002D01*
Y51341D01*
X817552D01*
Y51491D01*
X817402D01*
Y51641D01*
X817253D01*
Y51791D01*
X817103D01*
Y51940D01*
X816953D01*
Y52090D01*
X816803D01*
Y52390D01*
X816653D01*
Y52690D01*
X816503D01*
Y53889D01*
X816653D01*
Y54188D01*
X816803D01*
Y54488D01*
X816953D01*
Y54638D01*
X817103D01*
Y54788D01*
X817253D01*
Y54938D01*
X817402D01*
Y55087D01*
X817702D01*
Y55237D01*
X818002D01*
Y55387D01*
X820699D01*
Y59134D01*
Y59284D01*
Y62281D01*
X820849D01*
Y62580D01*
X820999D01*
Y62880D01*
X821149D01*
Y63030D01*
X821299D01*
Y63180D01*
X821449D01*
Y63330D01*
X821599D01*
Y63480D01*
X821898D01*
Y63629D01*
X822198D01*
Y63779D01*
X827593D01*
Y63629D01*
D02*
G37*
G36*
X844377Y51041D02*
X844677D01*
Y50891D01*
X844977D01*
Y50742D01*
X845127D01*
Y50592D01*
X845276D01*
Y50442D01*
X845426D01*
Y50292D01*
X845576D01*
Y49992D01*
X845726D01*
Y49693D01*
X845876D01*
Y44298D01*
X845726D01*
Y43998D01*
X845576D01*
Y43698D01*
X845426D01*
Y43548D01*
X845276D01*
Y43398D01*
X845127D01*
Y43249D01*
X844977D01*
Y43099D01*
X844677D01*
Y42949D01*
X844377D01*
Y42799D01*
X843178D01*
Y42949D01*
X842879D01*
Y43099D01*
X842579D01*
Y43249D01*
X842429D01*
Y43398D01*
X842279D01*
Y43548D01*
X842129D01*
Y43698D01*
X841980D01*
Y43998D01*
X841830D01*
Y44298D01*
X841680D01*
Y44747D01*
Y44897D01*
Y49693D01*
X841830D01*
Y49992D01*
X841980D01*
Y50292D01*
X842129D01*
Y50442D01*
X842279D01*
Y50592D01*
X842429D01*
Y50742D01*
X842579D01*
Y50891D01*
X842879D01*
Y51041D01*
X843178D01*
Y51191D01*
X844377D01*
Y51041D01*
D02*
G37*
G36*
X877946Y42649D02*
X878246D01*
Y42499D01*
X878545D01*
Y42349D01*
X878695D01*
Y42200D01*
X878845D01*
Y42050D01*
X878995D01*
Y41900D01*
X879145D01*
Y41600D01*
X879295D01*
Y41300D01*
X879445D01*
Y40101D01*
X879295D01*
Y39802D01*
X879145D01*
Y39502D01*
X878995D01*
Y39352D01*
X878845D01*
Y39202D01*
X878695D01*
Y39053D01*
X878545D01*
Y38903D01*
X878246D01*
Y38753D01*
X877946D01*
Y38603D01*
X876747D01*
Y38753D01*
X876447D01*
Y38903D01*
X876148D01*
Y39053D01*
X875998D01*
Y39202D01*
X875848D01*
Y39352D01*
X875698D01*
Y39502D01*
X875548D01*
Y39802D01*
X875398D01*
Y40101D01*
X875248D01*
Y41300D01*
X875398D01*
Y41600D01*
X875548D01*
Y41900D01*
X875698D01*
Y42050D01*
X875848D01*
Y42200D01*
X875998D01*
Y42349D01*
X876148D01*
Y42499D01*
X876447D01*
Y42649D01*
X876747D01*
Y42799D01*
X877946D01*
Y42649D01*
D02*
G37*
G36*
X848573D02*
X848873D01*
Y42499D01*
X849173D01*
Y42349D01*
X849323D01*
Y42200D01*
X849473D01*
Y42050D01*
X849622D01*
Y41900D01*
X849772D01*
Y41600D01*
X849922D01*
Y41300D01*
X850072D01*
Y40101D01*
X849922D01*
Y39802D01*
X849772D01*
Y39502D01*
X849622D01*
Y39352D01*
X849473D01*
Y39202D01*
X849323D01*
Y39053D01*
X849173D01*
Y38903D01*
X848873D01*
Y38753D01*
X848573D01*
Y38603D01*
X847374D01*
Y38753D01*
X847075D01*
Y38903D01*
X846775D01*
Y39053D01*
X846625D01*
Y39202D01*
X846475D01*
Y39352D01*
X846326D01*
Y39502D01*
X846176D01*
Y39802D01*
X846026D01*
Y40101D01*
X845876D01*
Y41300D01*
X846026D01*
Y41600D01*
X846176D01*
Y41900D01*
X846326D01*
Y42050D01*
X846475D01*
Y42200D01*
X846625D01*
Y42349D01*
X846775D01*
Y42499D01*
X847075D01*
Y42649D01*
X847374D01*
Y42799D01*
X848573D01*
Y42649D01*
D02*
G37*
G36*
X835985Y46845D02*
X836285D01*
Y46695D01*
X836585D01*
Y46546D01*
X836734D01*
Y46396D01*
X836884D01*
Y46246D01*
X837034D01*
Y46096D01*
X837184D01*
Y45796D01*
X837334D01*
Y45497D01*
X837484D01*
Y44597D01*
Y44447D01*
Y40101D01*
X837334D01*
Y39802D01*
X837184D01*
Y39502D01*
X837034D01*
Y39352D01*
X836884D01*
Y39202D01*
X836734D01*
Y39053D01*
X836585D01*
Y38903D01*
X836285D01*
Y38753D01*
X835985D01*
Y38603D01*
X834786D01*
Y38753D01*
X834337D01*
Y38903D01*
X834187D01*
Y39053D01*
X834037D01*
Y39202D01*
X833887D01*
Y39352D01*
X833737D01*
Y39502D01*
X833587D01*
Y39802D01*
X833438D01*
Y40101D01*
X833288D01*
Y42799D01*
X830590D01*
Y42949D01*
X830290D01*
Y43099D01*
X829991D01*
Y43249D01*
X829841D01*
Y43398D01*
X829691D01*
Y43548D01*
X829541D01*
Y43698D01*
X829391D01*
Y43998D01*
X829241D01*
Y44298D01*
X829092D01*
Y45497D01*
X829241D01*
Y45796D01*
X829391D01*
Y46096D01*
X829541D01*
Y46246D01*
X829691D01*
Y46396D01*
X829841D01*
Y46546D01*
X829991D01*
Y46695D01*
X830290D01*
Y46845D01*
X830590D01*
Y46995D01*
X835985D01*
Y46845D01*
D02*
G37*
G36*
X886338Y38453D02*
X886638D01*
Y38303D01*
X886937D01*
Y38153D01*
X887087D01*
Y38003D01*
X887237D01*
Y37854D01*
X887387D01*
Y37704D01*
X887537D01*
Y37404D01*
X887687D01*
Y37104D01*
X887837D01*
Y35905D01*
X887687D01*
Y35606D01*
X887537D01*
Y35306D01*
X887387D01*
Y35156D01*
X887237D01*
Y35006D01*
X887087D01*
Y34856D01*
X886937D01*
Y34707D01*
X886638D01*
Y34557D01*
X886338D01*
Y34407D01*
X885139D01*
Y34557D01*
X884839D01*
Y34707D01*
X884540D01*
Y34856D01*
X884390D01*
Y35006D01*
X884240D01*
Y35156D01*
X884090D01*
Y35306D01*
X883940D01*
Y35606D01*
X883791D01*
Y35905D01*
X883641D01*
Y37104D01*
X883791D01*
Y37404D01*
X883940D01*
Y37704D01*
X884090D01*
Y37854D01*
X884240D01*
Y38003D01*
X884390D01*
Y38153D01*
X884540D01*
Y38303D01*
X884839D01*
Y38453D01*
X885139D01*
Y38603D01*
X886338D01*
Y38453D01*
D02*
G37*
G36*
X861162D02*
X861461D01*
Y38303D01*
X861761D01*
Y38153D01*
X861911D01*
Y38003D01*
X862061D01*
Y37854D01*
X862211D01*
Y37704D01*
X862361D01*
Y37404D01*
X862510D01*
Y37104D01*
X862660D01*
Y35905D01*
X862510D01*
Y35606D01*
X862361D01*
Y35306D01*
X862211D01*
Y35156D01*
X862061D01*
Y35006D01*
X861911D01*
Y34856D01*
X861761D01*
Y34707D01*
X861461D01*
Y34557D01*
X861162D01*
Y34407D01*
X859963D01*
Y34557D01*
X859663D01*
Y34707D01*
X859363D01*
Y34856D01*
X859213D01*
Y35006D01*
X859064D01*
Y35156D01*
X858914D01*
Y35306D01*
X858764D01*
Y35606D01*
X858614D01*
Y35905D01*
X858464D01*
Y37104D01*
X858614D01*
Y37404D01*
X858764D01*
Y37704D01*
X858914D01*
Y37854D01*
X859064D01*
Y38003D01*
X859213D01*
Y38153D01*
X859363D01*
Y38303D01*
X859663D01*
Y38453D01*
X859963D01*
Y38603D01*
X861162D01*
Y38453D01*
D02*
G37*
G36*
X919907D02*
X920206D01*
Y38303D01*
X920506D01*
Y38153D01*
X920656D01*
Y38003D01*
X920806D01*
Y37854D01*
X920956D01*
Y37704D01*
X921106D01*
Y37404D01*
X921255D01*
Y37104D01*
X921405D01*
Y27513D01*
X921255D01*
Y27214D01*
X921106D01*
Y26914D01*
X920956D01*
Y26764D01*
X920806D01*
Y26614D01*
X920656D01*
Y26464D01*
X920506D01*
Y26314D01*
X920206D01*
Y26165D01*
X919907D01*
Y26015D01*
X918708D01*
Y26165D01*
X918408D01*
Y26314D01*
X918108D01*
Y26464D01*
X917959D01*
Y26614D01*
X917809D01*
Y26764D01*
X917659D01*
Y26914D01*
X917509D01*
Y27214D01*
X917359D01*
Y27513D01*
X917209D01*
Y30211D01*
X914512D01*
Y30361D01*
X914212D01*
Y30510D01*
X913912D01*
Y30660D01*
X913763D01*
Y30810D01*
X913613D01*
Y30960D01*
X913463D01*
Y31110D01*
X913313D01*
Y31410D01*
X913163D01*
Y31709D01*
X913013D01*
Y32908D01*
X913163D01*
Y33208D01*
X913313D01*
Y33508D01*
X913463D01*
Y33658D01*
X913613D01*
Y33807D01*
X913763D01*
Y33957D01*
X913912D01*
Y34107D01*
X914212D01*
Y34257D01*
X914512D01*
Y34407D01*
X917209D01*
Y37104D01*
X917359D01*
Y37404D01*
X917509D01*
Y37704D01*
X917659D01*
Y37854D01*
X917809D01*
Y38003D01*
X917959D01*
Y38153D01*
X918108D01*
Y38303D01*
X918408D01*
Y38453D01*
X918708D01*
Y38603D01*
X919907D01*
Y38453D01*
D02*
G37*
G36*
X894730D02*
X895030D01*
Y38303D01*
X895330D01*
Y38153D01*
X895480D01*
Y38003D01*
X895629D01*
Y37854D01*
X895779D01*
Y37704D01*
X895929D01*
Y37404D01*
X896079D01*
Y37104D01*
X896229D01*
Y30211D01*
X900425D01*
Y32908D01*
X900575D01*
Y33208D01*
X900725D01*
Y33358D01*
Y33508D01*
X900874D01*
Y33658D01*
X901024D01*
Y33807D01*
X901174D01*
Y33957D01*
X901324D01*
Y34107D01*
X901624D01*
Y34257D01*
X901924D01*
Y34407D01*
X907318D01*
Y34257D01*
X907618D01*
Y34107D01*
X907918D01*
Y33957D01*
X908068D01*
Y33807D01*
X908218D01*
Y33658D01*
X908367D01*
Y33508D01*
X908517D01*
Y33208D01*
X908667D01*
Y32908D01*
X908817D01*
Y30211D01*
X911515D01*
Y30061D01*
X911814D01*
Y29911D01*
X912114D01*
Y29761D01*
X912264D01*
Y29611D01*
X912414D01*
Y29462D01*
X912564D01*
Y29312D01*
X912713D01*
Y29012D01*
X912863D01*
Y28712D01*
X913013D01*
Y27513D01*
X912863D01*
Y27214D01*
X912713D01*
Y26914D01*
X912564D01*
Y26764D01*
X912414D01*
Y26614D01*
X912264D01*
Y26464D01*
X912114D01*
Y26314D01*
X911814D01*
Y26165D01*
X911515D01*
Y26015D01*
X893531D01*
Y26165D01*
X893232D01*
Y26314D01*
X892932D01*
Y26464D01*
X892782D01*
Y26614D01*
X892632D01*
Y26764D01*
X892482D01*
Y26914D01*
X892333D01*
Y27214D01*
X892183D01*
Y27513D01*
X892033D01*
Y30211D01*
X889335D01*
Y30361D01*
X889036D01*
Y30510D01*
X888736D01*
Y30660D01*
X888586D01*
Y30810D01*
X888436D01*
Y30960D01*
X888286D01*
Y31110D01*
X888136D01*
Y31410D01*
X887987D01*
Y31709D01*
X887837D01*
Y32908D01*
X887987D01*
Y33208D01*
X888136D01*
Y33508D01*
X888286D01*
Y33658D01*
X888436D01*
Y33807D01*
X888586D01*
Y33957D01*
X888736D01*
Y34107D01*
X889036D01*
Y34257D01*
X889335D01*
Y34407D01*
X892033D01*
Y37104D01*
X892183D01*
Y37404D01*
X892333D01*
Y37704D01*
X892482D01*
Y37854D01*
X892632D01*
Y38003D01*
X892782D01*
Y38153D01*
X892932D01*
Y38303D01*
X893232D01*
Y38453D01*
X893531D01*
Y38603D01*
X894730D01*
Y38453D01*
D02*
G37*
G36*
X873750D02*
X874050D01*
Y38303D01*
X874349D01*
Y38153D01*
X874499D01*
Y38003D01*
X874649D01*
Y37854D01*
X874799D01*
Y37704D01*
X874949D01*
Y37404D01*
X875099D01*
Y37104D01*
X875248D01*
Y34407D01*
X882142D01*
Y34257D01*
X882442D01*
Y34107D01*
X882741D01*
Y33957D01*
X882891D01*
Y33807D01*
X883041D01*
Y33658D01*
X883191D01*
Y33508D01*
X883341D01*
Y33208D01*
X883491D01*
Y32908D01*
X883641D01*
Y31709D01*
X883491D01*
Y31410D01*
X883341D01*
Y31110D01*
X883191D01*
Y30960D01*
X883041D01*
Y30810D01*
X882891D01*
Y30660D01*
X882741D01*
Y30510D01*
X882442D01*
Y30361D01*
X882142D01*
Y30211D01*
X879445D01*
Y27513D01*
X879295D01*
Y27214D01*
X879145D01*
Y26914D01*
X878995D01*
Y26764D01*
X878845D01*
Y26614D01*
X878695D01*
Y26464D01*
X878545D01*
Y26314D01*
X878246D01*
Y26165D01*
X877946D01*
Y26015D01*
X872551D01*
Y26165D01*
X872251D01*
Y26314D01*
X871952D01*
Y26464D01*
X871802D01*
Y26614D01*
X871652D01*
Y26764D01*
X871502D01*
Y26914D01*
X871352D01*
Y27214D01*
X871202D01*
Y27513D01*
X871052D01*
Y30211D01*
X864159D01*
Y30361D01*
X863859D01*
Y30510D01*
X863559D01*
Y30660D01*
X863410D01*
Y30810D01*
X863260D01*
Y30960D01*
X863110D01*
Y31110D01*
X862960D01*
Y31410D01*
X862810D01*
Y31709D01*
X862660D01*
Y32908D01*
X862810D01*
Y33208D01*
X862960D01*
Y33508D01*
X863110D01*
Y33658D01*
X863260D01*
Y33807D01*
X863410D01*
Y33957D01*
X863559D01*
Y34107D01*
X863859D01*
Y34257D01*
X864159D01*
Y34407D01*
X871052D01*
Y37104D01*
X871202D01*
Y37404D01*
X871352D01*
Y37704D01*
X871502D01*
Y37854D01*
X871652D01*
Y38003D01*
X871802D01*
Y38153D01*
X871952D01*
Y38303D01*
X872251D01*
Y38453D01*
X872551D01*
Y38603D01*
X873750D01*
Y38453D01*
D02*
G37*
G36*
X861162Y30061D02*
X861461D01*
Y29911D01*
X861761D01*
Y29761D01*
X861911D01*
Y29611D01*
X862061D01*
Y29462D01*
X862211D01*
Y29312D01*
X862361D01*
Y29012D01*
X862510D01*
Y28712D01*
X862660D01*
Y27513D01*
X862510D01*
Y27214D01*
X862361D01*
Y26914D01*
X862211D01*
Y26764D01*
X862061D01*
Y26614D01*
X861911D01*
Y26464D01*
X861761D01*
Y26314D01*
X861461D01*
Y26165D01*
X861162D01*
Y26015D01*
X855767D01*
Y26165D01*
X855467D01*
Y26314D01*
X855167D01*
Y26464D01*
X855017D01*
Y26614D01*
X854867D01*
Y26764D01*
X854718D01*
Y26914D01*
X854568D01*
Y27214D01*
X854418D01*
Y27513D01*
X854268D01*
Y28712D01*
X854418D01*
Y29012D01*
X854568D01*
Y29312D01*
X854718D01*
Y29462D01*
X854867D01*
Y29611D01*
X855017D01*
Y29761D01*
X855167D01*
Y29911D01*
X855467D01*
Y30061D01*
X855767D01*
Y30211D01*
X861162D01*
Y30061D01*
D02*
G37*
G36*
X844377Y38453D02*
X844677D01*
Y38303D01*
X844977D01*
Y38153D01*
X845127D01*
Y38003D01*
X845276D01*
Y37854D01*
X845426D01*
Y37704D01*
X845576D01*
Y37404D01*
X845726D01*
Y37104D01*
X845876D01*
Y34407D01*
X848573D01*
Y34257D01*
X848873D01*
Y34107D01*
X849173D01*
Y33957D01*
X849323D01*
Y33807D01*
X849473D01*
Y33658D01*
X849622D01*
Y33508D01*
X849772D01*
Y33208D01*
X849922D01*
Y32908D01*
X850072D01*
Y31709D01*
X849922D01*
Y31410D01*
X849772D01*
Y31110D01*
X849622D01*
Y30960D01*
X849473D01*
Y30810D01*
X849323D01*
Y30660D01*
X849173D01*
Y30510D01*
X848873D01*
Y30361D01*
X848573D01*
Y30211D01*
X845876D01*
Y27513D01*
X845726D01*
Y27214D01*
X845576D01*
Y26914D01*
X845426D01*
Y26764D01*
X845276D01*
Y26614D01*
X845127D01*
Y26464D01*
X844977D01*
Y26314D01*
X844677D01*
Y26165D01*
X844377D01*
Y26015D01*
X834786D01*
Y26165D01*
X834486D01*
Y26314D01*
X834187D01*
Y26464D01*
X834037D01*
Y26614D01*
X833887D01*
Y26764D01*
X833737D01*
Y26914D01*
X833587D01*
Y27214D01*
X833438D01*
Y27513D01*
X833288D01*
Y28712D01*
X833438D01*
Y29012D01*
X833587D01*
Y29312D01*
X833737D01*
Y29462D01*
X833887D01*
Y29611D01*
X834037D01*
Y29761D01*
X834187D01*
Y29911D01*
X834486D01*
Y30061D01*
X834786D01*
Y30211D01*
X841680D01*
Y37104D01*
X841830D01*
Y37404D01*
X841980D01*
Y37704D01*
X842129D01*
Y37854D01*
X842279D01*
Y38003D01*
X842429D01*
Y38153D01*
X842579D01*
Y38303D01*
X842879D01*
Y38453D01*
X843178D01*
Y38603D01*
X844377D01*
Y38453D01*
D02*
G37*
G36*
X819201Y46845D02*
X819501D01*
Y46695D01*
X819800D01*
Y46546D01*
X819950D01*
Y46396D01*
X820100D01*
Y46246D01*
X820250D01*
Y46096D01*
X820400D01*
Y45796D01*
X820549D01*
Y45497D01*
X820699D01*
Y34407D01*
X824895D01*
Y37104D01*
X825045D01*
Y37404D01*
X825195D01*
Y37704D01*
X825345D01*
Y37854D01*
X825495D01*
Y38003D01*
X825645D01*
Y38153D01*
X825795D01*
Y38303D01*
X826094D01*
Y38453D01*
X826394D01*
Y38603D01*
X827593D01*
Y38453D01*
X827893D01*
Y38303D01*
X828192D01*
Y38153D01*
X828342D01*
Y38003D01*
X828492D01*
Y37854D01*
X828642D01*
Y37704D01*
X828792D01*
Y37404D01*
X828942D01*
Y37104D01*
X829092D01*
Y27513D01*
X828942D01*
Y27214D01*
X828792D01*
Y26914D01*
X828642D01*
Y26764D01*
X828492D01*
Y26614D01*
X828342D01*
Y26464D01*
X828192D01*
Y26314D01*
X827893D01*
Y26165D01*
X827593D01*
Y26015D01*
X826394D01*
Y26165D01*
X826094D01*
Y26314D01*
X825795D01*
Y26464D01*
X825645D01*
Y26614D01*
X825495D01*
Y26764D01*
X825345D01*
Y26914D01*
X825195D01*
Y27214D01*
X825045D01*
Y27513D01*
X824895D01*
Y30211D01*
X820699D01*
Y27513D01*
X820549D01*
Y27214D01*
X820400D01*
Y26914D01*
X820250D01*
Y26764D01*
X820100D01*
Y26614D01*
X819950D01*
Y26464D01*
X819800D01*
Y26314D01*
X819501D01*
Y26165D01*
X819201D01*
Y26015D01*
X818002D01*
Y26165D01*
X817702D01*
Y26314D01*
X817402D01*
Y26464D01*
X817253D01*
Y26614D01*
X817103D01*
Y26764D01*
X816953D01*
Y26914D01*
X816803D01*
Y27214D01*
X816653D01*
Y27513D01*
X816503D01*
Y45497D01*
X816653D01*
Y45796D01*
X816803D01*
Y46096D01*
X816953D01*
Y46246D01*
X817103D01*
Y46396D01*
X817253D01*
Y46546D01*
X817402D01*
Y46695D01*
X817702D01*
Y46845D01*
X818002D01*
Y46995D01*
X819201D01*
Y46845D01*
D02*
G37*
G36*
X810809Y55237D02*
X811108D01*
Y55087D01*
X811408D01*
Y54938D01*
X811558D01*
Y54788D01*
X811708D01*
Y54638D01*
X811858D01*
Y54488D01*
X812008D01*
Y54188D01*
X812157D01*
Y53889D01*
X812307D01*
Y27513D01*
X812157D01*
Y27214D01*
X812008D01*
Y26914D01*
X811858D01*
Y26764D01*
X811708D01*
Y26614D01*
X811558D01*
Y26464D01*
X811408D01*
Y26314D01*
X811108D01*
Y26165D01*
X810809D01*
Y26015D01*
X784433D01*
Y26165D01*
X784134D01*
Y26314D01*
X783834D01*
Y26464D01*
X783684D01*
Y26614D01*
X783534D01*
Y26764D01*
X783384D01*
Y26914D01*
X783234D01*
Y27214D01*
X783084D01*
Y27513D01*
X782935D01*
Y46845D01*
Y46995D01*
Y53889D01*
X783084D01*
Y54188D01*
X783234D01*
Y54488D01*
X783384D01*
Y54638D01*
X783534D01*
Y54788D01*
X783684D01*
Y54938D01*
X783834D01*
Y55087D01*
X784134D01*
Y55237D01*
X784433D01*
Y55387D01*
X810809D01*
Y55237D01*
D02*
G37*
%LPC*%
G36*
X917209Y160289D02*
X896229D01*
Y139309D01*
X917209D01*
Y148300D01*
Y148450D01*
Y160289D01*
D02*
G37*
%LPD*%
G36*
X911515Y155943D02*
X911814D01*
Y155793D01*
X912114D01*
Y155644D01*
X912264D01*
Y155494D01*
X912414D01*
Y155344D01*
X912564D01*
Y155194D01*
X912713D01*
Y154894D01*
X912863D01*
Y154595D01*
X913013D01*
Y145003D01*
X912863D01*
Y144704D01*
X912713D01*
Y144404D01*
X912564D01*
Y144254D01*
X912414D01*
Y144104D01*
X912264D01*
Y143954D01*
X912114D01*
Y143805D01*
X911814D01*
Y143655D01*
X911515D01*
Y143505D01*
X901924D01*
Y143655D01*
X901624D01*
Y143805D01*
X901324D01*
Y143954D01*
X901174D01*
Y144104D01*
X901024D01*
Y144254D01*
X900874D01*
Y144404D01*
X900725D01*
Y144704D01*
X900575D01*
Y145003D01*
X900425D01*
Y154595D01*
X900575D01*
Y154894D01*
X900725D01*
Y155194D01*
X900874D01*
Y155344D01*
X901024D01*
Y155494D01*
X901174D01*
Y155644D01*
X901324D01*
Y155793D01*
X901624D01*
Y155943D01*
X901924D01*
Y156093D01*
X911515D01*
Y155943D01*
D02*
G37*
%LPC*%
G36*
X808111Y160289D02*
X787131D01*
Y155494D01*
Y155344D01*
Y139309D01*
X808111D01*
Y160289D01*
D02*
G37*
%LPD*%
G36*
X802417Y155943D02*
X802716D01*
Y155793D01*
X803016D01*
Y155644D01*
X803166D01*
Y155494D01*
X803316D01*
Y155344D01*
X803465D01*
Y155194D01*
X803615D01*
Y154894D01*
X803765D01*
Y154744D01*
Y154595D01*
X803915D01*
Y145003D01*
X803765D01*
Y144704D01*
X803615D01*
Y144404D01*
X803465D01*
Y144254D01*
X803316D01*
Y144104D01*
X803166D01*
Y143954D01*
X803016D01*
Y143805D01*
X802716D01*
Y143655D01*
X802417D01*
Y143505D01*
X792825D01*
Y143655D01*
X792526D01*
Y143805D01*
X792226D01*
Y143954D01*
X792076D01*
Y144104D01*
X791926D01*
Y144254D01*
X791776D01*
Y144404D01*
X791627D01*
Y144704D01*
X791477D01*
Y145003D01*
X791327D01*
Y154595D01*
X791477D01*
Y154894D01*
X791627D01*
Y155194D01*
X791776D01*
Y155344D01*
X791926D01*
Y155494D01*
X792076D01*
Y155644D01*
X792226D01*
Y155793D01*
X792526D01*
Y155943D01*
X792825D01*
Y156093D01*
X802417D01*
Y155943D01*
D02*
G37*
%LPC*%
G36*
X883641Y126721D02*
X879445D01*
Y122524D01*
X883641D01*
Y126721D01*
D02*
G37*
G36*
X917209Y84760D02*
X913013D01*
Y84310D01*
Y84160D01*
Y80564D01*
X917209D01*
Y84760D01*
D02*
G37*
G36*
X900425Y59583D02*
X887837D01*
Y46995D01*
X900425D01*
Y53589D01*
Y53739D01*
Y59583D01*
D02*
G37*
%LPD*%
G36*
X894730Y55237D02*
X895030D01*
Y55087D01*
X895330D01*
Y54938D01*
X895480D01*
Y54788D01*
X895629D01*
Y54638D01*
X895779D01*
Y54488D01*
X895929D01*
Y54188D01*
X896079D01*
Y53889D01*
X896229D01*
Y52690D01*
X896079D01*
Y52390D01*
X895929D01*
Y52090D01*
X895779D01*
Y51940D01*
X895629D01*
Y51791D01*
X895480D01*
Y51641D01*
X895330D01*
Y51491D01*
X895030D01*
Y51341D01*
X894730D01*
Y51191D01*
X893531D01*
Y51341D01*
X893232D01*
Y51491D01*
X892932D01*
Y51641D01*
X892782D01*
Y51791D01*
X892632D01*
Y51940D01*
X892482D01*
Y52090D01*
X892333D01*
Y52390D01*
X892183D01*
Y52690D01*
X892033D01*
Y53889D01*
X892183D01*
Y54188D01*
X892333D01*
Y54488D01*
X892482D01*
Y54638D01*
X892632D01*
Y54788D01*
X892782D01*
Y54938D01*
X892932D01*
Y55087D01*
X893232D01*
Y55237D01*
X893531D01*
Y55387D01*
X894730D01*
Y55237D01*
D02*
G37*
%LPC*%
G36*
X795523Y84760D02*
X791327D01*
Y80564D01*
X795523D01*
Y84760D01*
D02*
G37*
G36*
X808111Y51191D02*
X787131D01*
Y30211D01*
X808111D01*
Y31560D01*
Y31709D01*
Y51191D01*
D02*
G37*
%LPD*%
G36*
X802417Y46845D02*
X802716D01*
Y46695D01*
X803016D01*
Y46546D01*
X803166D01*
Y46396D01*
X803316D01*
Y46246D01*
X803465D01*
Y46096D01*
X803615D01*
Y45796D01*
X803765D01*
Y45497D01*
X803915D01*
Y35905D01*
X803765D01*
Y35606D01*
X803615D01*
Y35306D01*
X803465D01*
Y35156D01*
X803316D01*
Y35006D01*
X803166D01*
Y34856D01*
X803016D01*
Y34707D01*
X802716D01*
Y34557D01*
X802417D01*
Y34407D01*
X792825D01*
Y34557D01*
X792526D01*
Y34707D01*
X792226D01*
Y34856D01*
X792076D01*
Y35006D01*
X791926D01*
Y35156D01*
X791776D01*
Y35306D01*
X791627D01*
Y35606D01*
X791477D01*
Y35905D01*
X791327D01*
Y45497D01*
X791477D01*
Y45796D01*
X791627D01*
Y46096D01*
X791776D01*
Y46246D01*
X791926D01*
Y46396D01*
X792076D01*
Y46546D01*
X792226D01*
Y46695D01*
X792526D01*
Y46845D01*
X792825D01*
Y46995D01*
X802417D01*
Y46845D01*
D02*
G37*
D10*
X729280Y562356D02*
G03*
X729280Y562356I-2840J0D01*
G01*
X291503Y726694D02*
G03*
X291503Y726694I-2540J0D01*
G01*
X248661Y288290D02*
G03*
X248661Y288290I-1000J0D01*
G01*
X774700Y256540D02*
Y269240D01*
X800100D01*
Y243840D02*
X927100D01*
Y269240D01*
X800100D02*
X927100D01*
X800100Y243840D02*
Y269240D01*
X774700Y243840D02*
X800100D01*
X774700D02*
Y256540D01*
X927100Y726440D02*
Y751840D01*
X723900Y726440D02*
X927100D01*
X723900D02*
Y751840D01*
X927100D01*
X749300Y726440D02*
Y751840D01*
X708660Y726440D02*
Y751840D01*
X480060Y726440D02*
X708660D01*
X480060D02*
Y751840D01*
X454660D02*
X683260D01*
X454660Y726440D02*
Y751840D01*
Y726440D02*
X683260D01*
X480060Y751840D02*
X708660D01*
X78720Y805301D02*
Y808244D01*
Y749844D02*
Y755332D01*
X34036Y818642D02*
X48768D01*
X-4507Y792410D02*
Y818318D01*
Y792410D02*
X-1968Y789870D01*
X9208D01*
X11494Y787584D01*
Y768788D02*
Y787584D01*
X7939Y765232D02*
X11494Y768788D01*
X-1460Y765232D02*
X7939D01*
X-3746Y762946D02*
X-1460Y765232D01*
X-3746Y740460D02*
Y762946D01*
X-16954Y776408D02*
X-10603D01*
X-9079Y777932D01*
Y782504D01*
X-8063Y783520D01*
X318D01*
X1335Y782504D01*
Y778948D02*
Y782504D01*
Y778948D02*
X3367Y776916D01*
X4128D01*
X11494D01*
X-18505Y818706D02*
X1270D01*
X34036Y740664D02*
X47752D01*
X-18505Y740460D02*
X1778D01*
X-18505D02*
Y818706D01*
X78720Y808244D02*
Y809716D01*
Y803829D02*
Y805301D01*
X115628Y491490D02*
X117475D01*
X113665Y495300D02*
X120015D01*
X116840Y499110D02*
Y501718D01*
X111125Y499110D02*
X122555D01*
X90228Y491490D02*
X92075D01*
X88265Y495300D02*
X94615D01*
X91440Y499110D02*
Y501718D01*
X85725Y499110D02*
X97155D01*
X64828Y491490D02*
X66675D01*
X62865Y495300D02*
X69215D01*
X66040Y499110D02*
Y501718D01*
X60325Y499110D02*
X71755D01*
X601345Y720090D02*
X603192D01*
X598805Y716280D02*
X605155D01*
X601980Y709862D02*
Y712470D01*
X596265D02*
X607695D01*
X626745Y720090D02*
X628592D01*
X624205Y716280D02*
X630555D01*
X627380Y709862D02*
Y712470D01*
X621665D02*
X633095D01*
X652145Y720090D02*
X653992D01*
X649605Y716280D02*
X655955D01*
X652780Y709862D02*
Y712470D01*
X647065D02*
X658495D01*
X40894Y297180D02*
Y311404D01*
X218440Y406146D02*
X232664D01*
X245110Y203200D02*
Y281940D01*
X271780D01*
X245110Y203200D02*
X271780D01*
Y281940D01*
X293370Y141605D02*
Y153035D01*
Y147320D02*
X295978D01*
X289560Y144145D02*
Y150495D01*
X285750Y146685D02*
Y148532D01*
X293370Y116205D02*
Y127635D01*
Y121920D02*
X295978D01*
X289560Y118745D02*
Y125095D01*
X285750Y121285D02*
Y123132D01*
X293370Y90805D02*
Y102235D01*
Y96520D02*
X295978D01*
X289560Y93345D02*
Y99695D01*
X285750Y95885D02*
Y97732D01*
X233426Y110236D02*
Y124460D01*
X77470Y699828D02*
Y701675D01*
X73660Y697865D02*
Y704215D01*
X67242Y701040D02*
X69850D01*
Y695325D02*
Y706755D01*
X77470Y674428D02*
Y676275D01*
X73660Y672465D02*
Y678815D01*
X67242Y675640D02*
X69850D01*
Y669925D02*
Y681355D01*
X77470Y649028D02*
Y650875D01*
X73660Y647065D02*
Y653415D01*
X67242Y650240D02*
X69850D01*
Y644525D02*
Y655955D01*
X749300Y243840D02*
Y269240D01*
X546100Y243840D02*
X749300D01*
X546100D02*
Y269240D01*
X749300D01*
X571500Y243840D02*
Y269240D01*
X92630Y220980D02*
X92710D01*
X181610Y403225D02*
Y414655D01*
X179002Y408940D02*
X181610D01*
X185420Y405765D02*
Y412115D01*
X189230Y407728D02*
Y409575D01*
X181610Y428625D02*
Y440055D01*
X179002Y434340D02*
X181610D01*
X185420Y431165D02*
Y437515D01*
X189230Y433128D02*
Y434975D01*
X181610Y454025D02*
Y465455D01*
X179002Y459740D02*
X181610D01*
X185420Y456565D02*
Y462915D01*
X189230Y458528D02*
Y460375D01*
X885190Y362585D02*
Y364432D01*
X889000Y360045D02*
Y366395D01*
X892810Y363220D02*
X895418D01*
X892810Y357505D02*
Y368935D01*
X885190Y387985D02*
Y389832D01*
X889000Y385445D02*
Y391795D01*
X892810Y388620D02*
X895418D01*
X892810Y382905D02*
Y394335D01*
X885190Y413385D02*
Y415232D01*
X889000Y410845D02*
Y417195D01*
X892810Y414020D02*
X895418D01*
X892810Y408305D02*
Y419735D01*
X131445Y847090D02*
X133292D01*
X128905Y843280D02*
X135255D01*
X132080Y836862D02*
Y839470D01*
X126365D02*
X137795D01*
X156845Y847090D02*
X158692D01*
X154305Y843280D02*
X160655D01*
X157480Y836862D02*
Y839470D01*
X151765D02*
X163195D01*
X182245Y847090D02*
X184092D01*
X179705Y843280D02*
X186055D01*
X182880Y836862D02*
Y839470D01*
X177165D02*
X188595D01*
X228600Y784606D02*
X242824D01*
X201676Y660654D02*
X215900D01*
X954786Y511556D02*
Y525780D01*
X528320Y462280D02*
Y465666D01*
Y463973D01*
X518163D01*
X519856Y462280D01*
Y470744D02*
X518163Y472437D01*
Y475822D01*
X519856Y477515D01*
X526627D01*
X528320Y475822D01*
Y472437D01*
X526627Y470744D01*
X519856D01*
X521549Y480901D02*
X526627D01*
X528320Y482593D01*
Y487672D01*
X521549D01*
X518163Y491057D02*
X528320D01*
X523242D01*
X521549Y492750D01*
Y496136D01*
X523242Y497828D01*
X528320D01*
X715431Y337820D02*
X708660D01*
X715431Y344591D01*
Y346284D01*
X713738Y347977D01*
X710353D01*
X708660Y346284D01*
X725588Y337820D02*
X718817D01*
X725588Y344591D01*
Y346284D01*
X723895Y347977D01*
X720509D01*
X718817Y346284D01*
X728973Y344591D02*
Y339513D01*
X730666Y337820D01*
X735745D01*
Y344591D01*
X740823Y337820D02*
Y346284D01*
Y342898D01*
X739130D01*
X742516D01*
X740823D01*
Y346284D01*
X742516Y347977D01*
X636691Y370840D02*
X629920D01*
X636691Y377611D01*
Y379304D01*
X634998Y380997D01*
X631613D01*
X629920Y379304D01*
X646848Y370840D02*
X640077D01*
X646848Y377611D01*
Y379304D01*
X645155Y380997D01*
X641769D01*
X640077Y379304D01*
X650233Y377611D02*
Y372533D01*
X651926Y370840D01*
X657005D01*
Y377611D01*
X662083Y370840D02*
Y379304D01*
Y375918D01*
X660390D01*
X663776D01*
X662083D01*
Y379304D01*
X663776Y380997D01*
X707811Y579120D02*
X701040D01*
X707811Y585891D01*
Y587584D01*
X706118Y589277D01*
X702733D01*
X701040Y587584D01*
X717968Y579120D02*
X711197D01*
X717968Y585891D01*
Y587584D01*
X716275Y589277D01*
X712889D01*
X711197Y587584D01*
X721353Y585891D02*
Y580813D01*
X723046Y579120D01*
X728125D01*
Y585891D01*
X733203Y579120D02*
Y587584D01*
Y584198D01*
X731510D01*
X734896D01*
X733203D01*
Y587584D01*
X734896Y589277D01*
X617220Y657860D02*
X620606D01*
X618913D01*
Y668017D01*
X617220Y666324D01*
X625684Y657860D02*
Y668017D01*
X629070Y664631D01*
X632455Y668017D01*
Y657860D01*
X552871Y585046D02*
X546100D01*
X552871Y591817D01*
Y593509D01*
X551178Y595202D01*
X547793D01*
X546100Y593509D01*
X563028Y585046D02*
X556257D01*
X563028Y591817D01*
Y593509D01*
X561335Y595202D01*
X557949D01*
X556257Y593509D01*
X566413Y581660D02*
Y591817D01*
X571492D01*
X573185Y590124D01*
Y586738D01*
X571492Y585046D01*
X566413D01*
X578263D02*
Y593509D01*
Y590124D01*
X576570D01*
X579956D01*
X578263D01*
Y593509D01*
X579956Y595202D01*
X680723Y513078D02*
Y500382D01*
X683262Y497842D01*
X688341D01*
X690880Y500382D01*
Y513078D01*
X695958Y497842D02*
X701037D01*
X698498D01*
Y513078D01*
X695958Y510538D01*
X659551Y582506D02*
X652780D01*
X659551Y589277D01*
Y590970D01*
X657858Y592662D01*
X654473D01*
X652780Y590970D01*
X669708Y582506D02*
X662937D01*
X669708Y589277D01*
Y590970D01*
X668015Y592662D01*
X664630D01*
X662937Y590970D01*
X673093Y579120D02*
Y589277D01*
X678172D01*
X679865Y587584D01*
Y584198D01*
X678172Y582506D01*
X673093D01*
X684943D02*
Y590970D01*
Y587584D01*
X683250D01*
X686636D01*
X684943D01*
Y590970D01*
X686636Y592662D01*
X939800Y609600D02*
Y612986D01*
Y611293D01*
X929643D01*
X931336Y609600D01*
X933029Y618064D02*
X938107D01*
X939800Y619757D01*
Y624835D01*
X933029D01*
X939800Y629913D02*
X931336D01*
X934722D01*
Y628221D01*
Y631606D01*
Y629913D01*
X931336D01*
X929643Y631606D01*
X840740Y411478D02*
X830583D01*
X835662Y406400D01*
Y413171D01*
X839047Y416557D02*
X840740Y418250D01*
Y421635D01*
X839047Y423328D01*
X832276D01*
X830583Y421635D01*
Y418250D01*
X832276Y416557D01*
X833969D01*
X835662Y418250D01*
Y423328D01*
X840740Y426713D02*
X833969D01*
Y431792D01*
X835662Y433485D01*
X840740D01*
Y438563D02*
X832276D01*
X835662D01*
Y436870D01*
Y440256D01*
Y438563D01*
X832276D01*
X830583Y440256D01*
X439424Y325122D02*
Y340358D01*
X447042D01*
X449581Y337818D01*
Y332740D01*
X447042Y330201D01*
X439424D01*
X444502D02*
X449581Y325122D01*
X464816Y340358D02*
X459738Y337818D01*
X454659Y332740D01*
Y327662D01*
X457198Y325122D01*
X462277D01*
X464816Y327662D01*
Y330201D01*
X462277Y332740D01*
X454659D01*
X787401Y226057D02*
X782322D01*
X784862D01*
Y213362D01*
X782322Y210823D01*
X779783D01*
X777244Y213362D01*
X800097Y210823D02*
Y226057D01*
X792479Y218440D01*
X802636D01*
X734057Y775965D02*
X728978D01*
X731517D01*
Y763269D01*
X728978Y760730D01*
X726439D01*
X723900Y763269D01*
X739135Y773426D02*
X741674Y775965D01*
X746753D01*
X749292Y773426D01*
Y770887D01*
X746753Y768347D01*
X744213D01*
X746753D01*
X749292Y765808D01*
Y763269D01*
X746753Y760730D01*
X741674D01*
X739135Y763269D01*
X22860Y340360D02*
Y343746D01*
Y342053D01*
X12703D01*
X14396Y340360D01*
X16089Y348824D02*
X21167D01*
X22860Y350517D01*
Y355595D01*
X16089D01*
X22860Y360673D02*
X14396D01*
X17782D01*
Y358981D01*
Y362366D01*
Y360673D01*
X14396D01*
X12703Y362366D01*
X228603Y266700D02*
X237067D01*
X238760Y268393D01*
Y271778D01*
X237067Y273471D01*
X228603D01*
X230296Y283628D02*
X228603Y281935D01*
Y278549D01*
X230296Y276857D01*
X231989D01*
X233682Y278549D01*
Y281935D01*
X235374Y283628D01*
X237067D01*
X238760Y281935D01*
Y278549D01*
X237067Y276857D01*
X228603Y287013D02*
X238760D01*
Y292092D01*
X237067Y293785D01*
X235374D01*
X233682Y292092D01*
Y287013D01*
Y292092D01*
X231989Y293785D01*
X230296D01*
X228603Y292092D01*
Y287013D01*
Y303941D02*
Y297170D01*
X233682D01*
X231989Y300556D01*
Y302248D01*
X233682Y303941D01*
X237067D01*
X238760Y302248D01*
Y298863D01*
X237067Y297170D01*
X231989Y307327D02*
X238760Y310713D01*
X231989Y314098D01*
X238760Y322562D02*
Y319176D01*
X237067Y317484D01*
X233682D01*
X231989Y319176D01*
Y322562D01*
X233682Y324255D01*
X235374D01*
Y317484D01*
X238760Y327640D02*
X231989D01*
Y332719D01*
X233682Y334412D01*
X238760D01*
X279403Y192191D02*
Y185420D01*
X284482D01*
X282789Y188806D01*
Y190498D01*
X284482Y192191D01*
X287867D01*
X289560Y190498D01*
Y187113D01*
X287867Y185420D01*
X282789Y195577D02*
X289560Y198962D01*
X282789Y202348D01*
X289560Y210812D02*
Y207426D01*
X287867Y205733D01*
X284482D01*
X282789Y207426D01*
Y210812D01*
X284482Y212505D01*
X286174D01*
Y205733D01*
X289560Y215890D02*
X282789D01*
Y220968D01*
X284482Y222661D01*
X289560D01*
X373383Y288711D02*
Y281940D01*
X378462D01*
X376769Y285326D01*
Y287018D01*
X378462Y288711D01*
X381847D01*
X383540Y287018D01*
Y283633D01*
X381847Y281940D01*
X376769Y292097D02*
X383540Y295482D01*
X376769Y298868D01*
X383540Y307332D02*
Y303946D01*
X381847Y302253D01*
X378462D01*
X376769Y303946D01*
Y307332D01*
X378462Y309025D01*
X380154D01*
Y302253D01*
X383540Y312410D02*
X376769D01*
Y317488D01*
X378462Y319181D01*
X383540D01*
X347131Y787400D02*
X340360D01*
X347131Y794171D01*
Y795864D01*
X345438Y797557D01*
X342053D01*
X340360Y795864D01*
X357288Y787400D02*
X350517D01*
X357288Y794171D01*
Y795864D01*
X355595Y797557D01*
X352210D01*
X350517Y795864D01*
X360673Y794171D02*
Y789093D01*
X362366Y787400D01*
X367445D01*
Y794171D01*
X372523Y787400D02*
Y795864D01*
Y792478D01*
X370830D01*
X374216D01*
X372523D01*
Y795864D01*
X374216Y797557D01*
X197271Y552026D02*
X190500D01*
X197271Y558797D01*
Y560490D01*
X195578Y562182D01*
X192193D01*
X190500Y560490D01*
X207428Y552026D02*
X200657D01*
X207428Y558797D01*
Y560490D01*
X205735Y562182D01*
X202349D01*
X200657Y560490D01*
X210813Y548640D02*
Y558797D01*
X215892D01*
X217585Y557104D01*
Y553718D01*
X215892Y552026D01*
X210813D01*
X222663D02*
Y560490D01*
Y557104D01*
X220970D01*
X224356D01*
X222663D01*
Y560490D01*
X224356Y562182D01*
X268391Y516466D02*
X261620D01*
X268391Y523237D01*
Y524930D01*
X266698Y526622D01*
X263313D01*
X261620Y524930D01*
X278548Y516466D02*
X271777D01*
X278548Y523237D01*
Y524930D01*
X276855Y526622D01*
X273470D01*
X271777Y524930D01*
X281933Y513080D02*
Y523237D01*
X287012D01*
X288705Y521544D01*
Y518158D01*
X287012Y516466D01*
X281933D01*
X293783D02*
Y524930D01*
Y521544D01*
X292090D01*
X295476D01*
X293783D01*
Y524930D01*
X295476Y526622D01*
X525780Y695957D02*
X532551Y689186D01*
X529166Y692571D01*
X532551Y695957D01*
X525780Y689186D01*
X537630Y697650D02*
Y695957D01*
X535937D01*
X539322D01*
X537630D01*
Y690878D01*
X539322Y689186D01*
X546093Y695957D02*
X549479D01*
X551172Y694264D01*
Y689186D01*
X546093D01*
X544401Y690878D01*
X546093Y692571D01*
X551172D01*
X554557Y689186D02*
X557943D01*
X556250D01*
Y699342D01*
X554557D01*
X564714Y697650D02*
Y695957D01*
X563021D01*
X566407D01*
X564714D01*
Y690878D01*
X566407Y689186D01*
X571485Y685800D02*
Y695957D01*
X576564D01*
X578256Y694264D01*
Y690878D01*
X576564Y689186D01*
X571485D01*
X899160Y335277D02*
Y328506D01*
Y331891D01*
X900853Y333584D01*
X902546Y335277D01*
X904238D01*
X914395Y328506D02*
X911010D01*
X909317Y330198D01*
Y333584D01*
X911010Y335277D01*
X914395D01*
X916088Y333584D01*
Y331891D01*
X909317D01*
X919473Y328506D02*
X924552D01*
X926245Y330198D01*
X924552Y331891D01*
X921166D01*
X919473Y333584D01*
X921166Y335277D01*
X926245D01*
X934708Y328506D02*
X931323D01*
X929630Y330198D01*
Y333584D01*
X931323Y335277D01*
X934708D01*
X936401Y333584D01*
Y331891D01*
X929630D01*
X941480Y336969D02*
Y335277D01*
X939787D01*
X943173D01*
X941480D01*
Y330198D01*
X943173Y328506D01*
X949944Y336969D02*
Y335277D01*
X948251D01*
X951636D01*
X949944D01*
Y330198D01*
X951636Y328506D01*
X956715Y325120D02*
Y335277D01*
X961793D01*
X963486Y333584D01*
Y330198D01*
X961793Y328506D01*
X956715D01*
X175260Y866137D02*
Y859366D01*
Y862751D01*
X176953Y864444D01*
X178646Y866137D01*
X180338D01*
X185417D02*
X192188Y859366D01*
X188802Y862751D01*
X192188Y866137D01*
X185417Y859366D01*
X197266Y867830D02*
Y866137D01*
X195573D01*
X198959D01*
X197266D01*
Y861058D01*
X198959Y859366D01*
X204037Y855980D02*
Y866137D01*
X209116D01*
X210809Y864444D01*
Y861058D01*
X209116Y859366D01*
X204037D01*
X93133Y684949D02*
Y683257D01*
X91440D01*
X94826D01*
X93133D01*
Y678178D01*
X94826Y676486D01*
X99904Y683257D02*
X106675Y676486D01*
X103289Y679871D01*
X106675Y683257D01*
X99904Y676486D01*
X111753Y684949D02*
Y683257D01*
X110061D01*
X113446D01*
X111753D01*
Y678178D01*
X113446Y676486D01*
X118525Y673100D02*
Y683257D01*
X123603D01*
X125296Y681564D01*
Y678178D01*
X123603Y676486D01*
X118525D01*
X152400Y515617D02*
Y508846D01*
Y512231D01*
X154093Y513924D01*
X155786Y515617D01*
X157478D01*
X165942Y505460D02*
X167635D01*
X169328Y507153D01*
Y515617D01*
X164249D01*
X162557Y513924D01*
Y510538D01*
X164249Y508846D01*
X169328D01*
X179485Y519002D02*
X172713D01*
Y513924D01*
X176099Y515617D01*
X177792D01*
X179485Y513924D01*
Y510538D01*
X177792Y508846D01*
X174406D01*
X172713Y510538D01*
X182870Y515617D02*
X186256Y508846D01*
X189641Y515617D01*
X194720Y517309D02*
Y515617D01*
X193027D01*
X196413D01*
X194720D01*
Y510538D01*
X196413Y508846D01*
X201491Y505460D02*
Y515617D01*
X206569D01*
X208262Y513924D01*
Y510538D01*
X206569Y508846D01*
X201491D01*
X348822Y115149D02*
Y121920D01*
X343744D01*
X345437Y118534D01*
Y116842D01*
X343744Y115149D01*
X340358D01*
X338666Y116842D01*
Y120227D01*
X340358Y121920D01*
X345437Y111763D02*
X338666Y108378D01*
X345437Y104992D01*
X347130Y99914D02*
X345437D01*
Y101607D01*
Y98221D01*
Y99914D01*
X340358D01*
X338666Y98221D01*
X335280Y93143D02*
X345437D01*
Y88064D01*
X343744Y86371D01*
X340358D01*
X338666Y88064D01*
Y93143D01*
X68580Y545249D02*
X70273Y546942D01*
X73658D01*
X75351Y545249D01*
Y543557D01*
X73658Y541864D01*
X71966D01*
X73658D01*
X75351Y540171D01*
Y538478D01*
X73658Y536786D01*
X70273D01*
X68580Y538478D01*
X78737Y543557D02*
X82122Y536786D01*
X85508Y543557D01*
X90586Y545249D02*
Y543557D01*
X88893D01*
X92279D01*
X90586D01*
Y538478D01*
X92279Y536786D01*
X97357Y533400D02*
Y543557D01*
X102436D01*
X104129Y541864D01*
Y538478D01*
X102436Y536786D01*
X97357D01*
X116840Y314960D02*
X120226D01*
X118533D01*
Y325117D01*
X116840Y323424D01*
X125304Y314960D02*
Y325117D01*
Y318346D02*
X130382Y321731D01*
X125304Y318346D02*
X130382Y314960D01*
X205740Y71120D02*
X209126D01*
X207433D01*
Y81277D01*
X205740Y79584D01*
X214204Y71120D02*
Y81277D01*
Y74506D02*
X219282Y77891D01*
X214204Y74506D02*
X219282Y71120D01*
X223520Y449580D02*
X226906D01*
X225213D01*
Y459737D01*
X223520Y458044D01*
X231984Y449580D02*
Y459737D01*
Y452966D02*
X237062Y456351D01*
X231984Y452966D02*
X237062Y449580D01*
X243840Y622300D02*
Y625686D01*
Y623993D01*
X233683D01*
X235376Y622300D01*
X243840Y630764D02*
X237069D01*
Y632457D01*
X238762Y634150D01*
X243840D01*
X238762D01*
X237069Y635842D01*
X238762Y637535D01*
X243840D01*
X167640Y652780D02*
X171026D01*
X169333D01*
Y662937D01*
X167640Y661244D01*
X176104Y652780D02*
Y662937D01*
Y656166D02*
X181182Y659551D01*
X176104Y656166D02*
X181182Y652780D01*
X284480Y772160D02*
X287866D01*
X286173D01*
Y782317D01*
X284480Y780624D01*
X292944Y772160D02*
Y782317D01*
Y775546D02*
X298022Y778931D01*
X292944Y775546D02*
X298022Y772160D01*
X942340Y459740D02*
X945726D01*
X944033D01*
Y469897D01*
X942340Y468204D01*
X950804Y459740D02*
Y469897D01*
Y463126D02*
X955882Y466511D01*
X950804Y463126D02*
X955882Y459740D01*
X444500Y294640D02*
Y298026D01*
Y296333D01*
X434343D01*
X436036Y294640D01*
Y303104D02*
X434343Y304797D01*
Y308182D01*
X436036Y309875D01*
X442807D01*
X444500Y308182D01*
Y304797D01*
X442807Y303104D01*
X436036D01*
X444500Y313261D02*
X434343D01*
X441114D02*
X437729Y318339D01*
X441114Y313261D02*
X444500Y318339D01*
X106680Y44871D02*
Y38100D01*
X99909Y44871D01*
X98216D01*
X96523Y43178D01*
Y39793D01*
X98216Y38100D01*
X106680Y55028D02*
Y48257D01*
X99909Y55028D01*
X98216D01*
X96523Y53335D01*
Y49949D01*
X98216Y48257D01*
X99909Y58413D02*
X104987D01*
X106680Y60106D01*
Y65185D01*
X99909D01*
X106680Y70263D02*
X98216D01*
X101602D01*
Y68570D01*
Y71956D01*
Y70263D01*
X98216D01*
X96523Y71956D01*
X502071Y138004D02*
X500378Y139697D01*
X496993D01*
X495300Y138004D01*
Y131233D01*
X496993Y129540D01*
X500378D01*
X502071Y131233D01*
Y134618D01*
X498686D01*
X507150Y136311D02*
X510535D01*
X512228Y134618D01*
Y129540D01*
X507150D01*
X505457Y131233D01*
X507150Y132926D01*
X512228D01*
X515613Y136311D02*
X518999Y129540D01*
X522385Y136311D01*
X525770Y129540D02*
X529156D01*
X527463D01*
Y136311D01*
X525770D01*
X534234Y129540D02*
Y136311D01*
X539313D01*
X541005Y134618D01*
Y129540D01*
X554548Y139697D02*
Y131233D01*
X556240Y129540D01*
X559626D01*
X561319Y131233D01*
Y139697D01*
X564704Y129540D02*
Y136311D01*
X569783D01*
X571475Y134618D01*
Y129540D01*
X574861Y136311D02*
Y129540D01*
Y132926D01*
X576554Y134618D01*
X578247Y136311D01*
X579939D01*
X585018D02*
Y131233D01*
X586711Y129540D01*
X591789D01*
Y136311D01*
X600253Y129540D02*
X596867D01*
X595174Y131233D01*
Y134618D01*
X596867Y136311D01*
X600253D01*
X601946Y134618D01*
Y132926D01*
X595174D01*
X502071Y91437D02*
X495300D01*
Y81280D01*
X502071D01*
X495300Y86358D02*
X498686D01*
X512228Y89744D02*
X510535Y91437D01*
X507150D01*
X505457Y89744D01*
Y82973D01*
X507150Y81280D01*
X510535D01*
X512228Y82973D01*
X522385Y91437D02*
X515613D01*
Y81280D01*
X522385D01*
X515613Y86358D02*
X518999D01*
X525770Y81280D02*
Y91437D01*
X532541Y81280D01*
Y91437D01*
X552855D02*
X546084D01*
Y86358D01*
X549469Y88051D01*
X551162D01*
X552855Y86358D01*
Y82973D01*
X551162Y81280D01*
X547776D01*
X546084Y82973D01*
X556240Y91437D02*
X563012D01*
Y89744D01*
X556240Y82973D01*
Y81280D01*
X566397Y89744D02*
X568090Y91437D01*
X571475D01*
X573168Y89744D01*
Y88051D01*
X571475Y86358D01*
X569783D01*
X571475D01*
X573168Y84666D01*
Y82973D01*
X571475Y81280D01*
X568090D01*
X566397Y82973D01*
X576554Y89744D02*
X578247Y91437D01*
X581632D01*
X583325Y89744D01*
Y82973D01*
X581632Y81280D01*
X578247D01*
X576554Y82973D01*
Y89744D01*
X596867Y81280D02*
Y88051D01*
X600253Y91437D01*
X603638Y88051D01*
Y81280D01*
Y86358D01*
X596867D01*
X607024Y88051D02*
Y81280D01*
Y84666D01*
X608717Y86358D01*
X610410Y88051D01*
X612102D01*
X623952Y91437D02*
Y81280D01*
X618873D01*
X617181Y82973D01*
Y86358D01*
X618873Y88051D01*
X623952D01*
X627337D02*
Y82973D01*
X629030Y81280D01*
X634109D01*
Y88051D01*
X637494Y81280D02*
X640880D01*
X639187D01*
Y88051D01*
X637494D01*
X645958Y81280D02*
Y88051D01*
X651036D01*
X652729Y86358D01*
Y81280D01*
X657808D02*
X661193D01*
X662886Y82973D01*
Y86358D01*
X661193Y88051D01*
X657808D01*
X656115Y86358D01*
Y82973D01*
X657808Y81280D01*
X676428Y91437D02*
Y81280D01*
X681507D01*
X683199Y82973D01*
Y84666D01*
Y86358D01*
X681507Y88051D01*
X676428D01*
X686585D02*
Y81280D01*
Y84666D01*
X688278Y86358D01*
X689970Y88051D01*
X691663D01*
X703513Y91437D02*
Y81280D01*
X698435D01*
X696742Y82973D01*
Y86358D01*
X698435Y88051D01*
X703513D01*
X502071Y115990D02*
X495300D01*
Y105833D01*
X502071D01*
X495300Y110911D02*
X498686D01*
X512228Y114297D02*
X510535Y115990D01*
X507150D01*
X505457Y114297D01*
Y107526D01*
X507150Y105833D01*
X510535D01*
X512228Y107526D01*
X522385Y115990D02*
X515613D01*
Y105833D01*
X522385D01*
X515613Y110911D02*
X518999D01*
X525770Y105833D02*
Y115990D01*
X532541Y105833D01*
Y115990D01*
X542698D02*
X535927D01*
Y110911D01*
X539313Y112604D01*
X541005D01*
X542698Y110911D01*
Y107526D01*
X541005Y105833D01*
X537620D01*
X535927Y107526D01*
X546084Y115990D02*
X552855D01*
Y114297D01*
X546084Y107526D01*
Y105833D01*
X556240Y114297D02*
X557933Y115990D01*
X561319D01*
X563012Y114297D01*
Y112604D01*
X561319Y110911D01*
X559626D01*
X561319D01*
X563012Y109218D01*
Y107526D01*
X561319Y105833D01*
X557933D01*
X556240Y107526D01*
X566397Y114297D02*
X568090Y115990D01*
X571475D01*
X573168Y114297D01*
Y107526D01*
X571475Y105833D01*
X568090D01*
X566397Y107526D01*
Y114297D01*
X576554Y104140D02*
X583325D01*
X586711Y115990D02*
Y105833D01*
X591789D01*
X593482Y107526D01*
Y109218D01*
Y110911D01*
X591789Y112604D01*
X586711D01*
X596867D02*
Y105833D01*
Y109218D01*
X598560Y110911D01*
X600253Y112604D01*
X601946D01*
X613795Y115990D02*
Y105833D01*
X608717D01*
X607024Y107526D01*
Y110911D01*
X608717Y112604D01*
X613795D01*
X617181Y114297D02*
X618873Y115990D01*
X622259D01*
X623952Y114297D01*
Y112604D01*
X622259Y110911D01*
X620566D01*
X622259D01*
X623952Y109218D01*
Y107526D01*
X622259Y105833D01*
X618873D01*
X617181Y107526D01*
X629030Y112604D02*
X632416D01*
X634109Y110911D01*
Y105833D01*
X629030D01*
X627337Y107526D01*
X629030Y109218D01*
X634109D01*
X637494Y104140D02*
X644265D01*
X647651Y105833D02*
X651036D01*
X649344D01*
Y115990D01*
X647651Y114297D01*
X656115D02*
X657808Y115990D01*
X661193D01*
X662886Y114297D01*
Y107526D01*
X661193Y105833D01*
X657808D01*
X656115Y107526D01*
Y114297D01*
X666272Y110911D02*
X673043D01*
X676428Y105833D02*
X679814D01*
X678121D01*
Y115990D01*
X676428Y114297D01*
X684892D02*
X686585Y115990D01*
X689970D01*
X691663Y114297D01*
Y112604D01*
X689970Y110911D01*
X691663Y109218D01*
Y107526D01*
X689970Y105833D01*
X686585D01*
X684892Y107526D01*
Y109218D01*
X686585Y110911D01*
X684892Y112604D01*
Y114297D01*
X686585Y110911D02*
X689970D01*
X695049D02*
X701820D01*
X711977Y105833D02*
X705206D01*
X711977Y112604D01*
Y114297D01*
X710284Y115990D01*
X706898D01*
X705206Y114297D01*
X715362D02*
X717055Y115990D01*
X720441D01*
X722133Y114297D01*
Y107526D01*
X720441Y105833D01*
X717055D01*
X715362Y107526D01*
Y114297D01*
X732290Y105833D02*
X725519D01*
X732290Y112604D01*
Y114297D01*
X730597Y115990D01*
X727212D01*
X725519Y114297D01*
X740754Y105833D02*
Y115990D01*
X735676Y110911D01*
X742447D01*
X464821Y800098D02*
X459743D01*
X462282D01*
Y787402D01*
X459743Y784863D01*
X457203D01*
X454664Y787402D01*
X480056Y784863D02*
X469899D01*
X480056Y795019D01*
Y797558D01*
X477517Y800098D01*
X472438D01*
X469899Y797558D01*
X858517Y463546D02*
X855977Y466085D01*
X850899D01*
X848360Y463546D01*
Y453389D01*
X850899Y450850D01*
X855977D01*
X858517Y453389D01*
X863595D02*
X866134Y450850D01*
X871213D01*
X873752Y453389D01*
Y463546D01*
X871213Y466085D01*
X866134D01*
X863595Y463546D01*
Y461007D01*
X866134Y458467D01*
X873752D01*
X703581Y657858D02*
X701042Y660397D01*
X695963D01*
X693424Y657858D01*
Y647702D01*
X695963Y645163D01*
X701042D01*
X703581Y647702D01*
X718816Y660397D02*
X713737Y657858D01*
X708659Y652780D01*
Y647702D01*
X711198Y645163D01*
X716277D01*
X718816Y647702D01*
Y650241D01*
X716277Y652780D01*
X708659D01*
X605787Y383536D02*
X603247Y386075D01*
X598169D01*
X595630Y383536D01*
Y373379D01*
X598169Y370840D01*
X603247D01*
X605787Y373379D01*
X610865Y383536D02*
X613404Y386075D01*
X618483D01*
X621022Y383536D01*
Y380997D01*
X618483Y378457D01*
X615943D01*
X618483D01*
X621022Y375918D01*
Y373379D01*
X618483Y370840D01*
X613404D01*
X610865Y373379D01*
X919477Y664206D02*
X916937Y666745D01*
X911859D01*
X909320Y664206D01*
Y654049D01*
X911859Y651510D01*
X916937D01*
X919477Y654049D01*
X924555Y664206D02*
X927094Y666745D01*
X932173D01*
X934712Y664206D01*
Y661667D01*
X932173Y659128D01*
X934712Y656588D01*
Y654049D01*
X932173Y651510D01*
X927094D01*
X924555Y654049D01*
Y656588D01*
X927094Y659128D01*
X924555Y661667D01*
Y664206D01*
X927094Y659128D02*
X932173D01*
X681733Y347976D02*
X679193Y350515D01*
X674115D01*
X671576Y347976D01*
Y337819D01*
X674115Y335280D01*
X679193D01*
X681733Y337819D01*
X694429Y335280D02*
Y350515D01*
X686811Y342897D01*
X696968D01*
X553720Y228598D02*
X548642D01*
X551181D01*
Y215902D01*
X548642Y213363D01*
X546102D01*
X543563Y215902D01*
X558798Y213363D02*
X563877D01*
X561338D01*
Y228598D01*
X558798Y226058D01*
X292096Y599442D02*
Y601982D01*
X287017Y607060D01*
X281939Y601982D01*
Y599442D01*
X287017Y607060D02*
Y614678D01*
X266704D02*
X276861D01*
X266704Y604521D01*
Y601982D01*
X269243Y599442D01*
X274322D01*
X276861Y601982D01*
X622303Y589277D02*
Y586738D01*
X627382Y581660D01*
X632460Y586738D01*
Y589277D01*
X627382Y581660D02*
Y574043D01*
X637538D02*
X642617D01*
X640078D01*
Y589277D01*
X637538Y586738D01*
X312423Y642624D02*
X325118D01*
X327658Y645163D01*
Y650242D01*
X325118Y652781D01*
X312423D01*
X327658Y668016D02*
Y657859D01*
X317501Y668016D01*
X314962D01*
X312423Y665477D01*
Y660398D01*
X314962Y657859D01*
X88907Y708658D02*
X99063D01*
X93985D01*
Y693422D01*
X104142D02*
Y708658D01*
X111759D01*
X114298Y706118D01*
Y701040D01*
X111759Y698501D01*
X104142D01*
X119377Y708658D02*
X129533D01*
Y706118D01*
X119377Y695962D01*
Y693422D01*
X117348Y871215D02*
X127505D01*
X122426D01*
Y855980D01*
X132583D02*
Y871215D01*
X140201D01*
X142740Y868676D01*
Y863597D01*
X140201Y861058D01*
X132583D01*
X157975Y871215D02*
X152896Y868676D01*
X147818Y863597D01*
Y858519D01*
X150357Y855980D01*
X155436D01*
X157975Y858519D01*
Y861058D01*
X155436Y863597D01*
X147818D01*
X942337Y431793D02*
Y421637D01*
Y426715D01*
X927103D01*
Y416558D02*
X942337D01*
Y408941D01*
X939798Y406402D01*
X934720D01*
X932181Y408941D01*
Y416558D01*
X942337Y391167D02*
Y401323D01*
X934720D01*
X937259Y396245D01*
Y393706D01*
X934720Y391167D01*
X929642D01*
X927103Y393706D01*
Y398784D01*
X929642Y401323D01*
X706122Y673107D02*
Y683263D01*
Y678185D01*
X721357D01*
Y688342D02*
X706122D01*
Y695959D01*
X708662Y698498D01*
X713740D01*
X716279Y695959D01*
Y688342D01*
X721357Y711194D02*
X706122D01*
X713740Y703577D01*
Y713733D01*
X151892Y499867D02*
X162049D01*
X156970D01*
Y484632D01*
X167127D02*
Y499867D01*
X174745D01*
X177284Y497328D01*
Y492249D01*
X174745Y489710D01*
X167127D01*
X182362Y497328D02*
X184901Y499867D01*
X189980D01*
X192519Y497328D01*
Y494789D01*
X189980Y492249D01*
X187440D01*
X189980D01*
X192519Y489710D01*
Y487171D01*
X189980Y484632D01*
X184901D01*
X182362Y487171D01*
X20327Y553717D02*
X30483D01*
X25405D01*
Y538483D01*
X35562D02*
Y553717D01*
X43179D01*
X45718Y551178D01*
Y546100D01*
X43179Y543561D01*
X35562D01*
X60953Y538483D02*
X50797D01*
X60953Y548639D01*
Y551178D01*
X58414Y553717D01*
X53336D01*
X50797Y551178D01*
X350518Y167634D02*
Y157478D01*
Y162556D01*
X335283D01*
Y152399D02*
X350518D01*
Y144782D01*
X347978Y142242D01*
X342900D01*
X340361Y144782D01*
Y152399D01*
X335283Y137164D02*
Y132086D01*
Y134625D01*
X350518D01*
X347978Y137164D01*
X64005Y167890D02*
X61466Y170429D01*
X56387D01*
X53848Y167890D01*
Y165351D01*
X56387Y162812D01*
X61466D01*
X64005Y160272D01*
Y157733D01*
X61466Y155194D01*
X56387D01*
X53848Y157733D01*
X69083Y170429D02*
Y155194D01*
X74161Y160272D01*
X79240Y155194D01*
Y170429D01*
X84318Y167890D02*
X86857Y170429D01*
X91936D01*
X94475Y167890D01*
Y165351D01*
X91936Y162812D01*
X89396D01*
X91936D01*
X94475Y160272D01*
Y157733D01*
X91936Y155194D01*
X86857D01*
X84318Y157733D01*
X238763Y193038D02*
X236224Y195578D01*
X231146D01*
X228607Y193038D01*
Y190499D01*
X231146Y187960D01*
X236224D01*
X238763Y185421D01*
Y182882D01*
X236224Y180343D01*
X231146D01*
X228607Y182882D01*
X243842Y195578D02*
Y180343D01*
X248920Y185421D01*
X253998Y180343D01*
Y195578D01*
X269233Y180343D02*
X259077D01*
X269233Y190499D01*
Y193038D01*
X266694Y195578D01*
X261616D01*
X259077Y193038D01*
X345443Y363218D02*
X342903Y365757D01*
X337825D01*
X335286Y363218D01*
Y360679D01*
X337825Y358140D01*
X342903D01*
X345443Y355601D01*
Y353062D01*
X342903Y350522D01*
X337825D01*
X335286Y353062D01*
X350521Y365757D02*
Y350522D01*
X355599Y355601D01*
X360678Y350522D01*
Y365757D01*
X365756Y350522D02*
X370834D01*
X368295D01*
Y365757D01*
X365756Y363218D01*
X185422Y642616D02*
X200658D01*
Y634998D01*
X198118Y632459D01*
X193040D01*
X190501Y634998D01*
Y642616D01*
Y637537D02*
X185422Y632459D01*
X187962Y627381D02*
X185422Y624842D01*
Y619763D01*
X187962Y617224D01*
X198118D01*
X200658Y619763D01*
Y624842D01*
X198118Y627381D01*
X195579D01*
X193040Y624842D01*
Y617224D01*
X273050Y794512D02*
Y809747D01*
X280667D01*
X283207Y807208D01*
Y802130D01*
X280667Y799590D01*
X273050D01*
X278128D02*
X283207Y794512D01*
X288285Y807208D02*
X290824Y809747D01*
X295903D01*
X298442Y807208D01*
Y804669D01*
X295903Y802130D01*
X298442Y799590D01*
Y797051D01*
X295903Y794512D01*
X290824D01*
X288285Y797051D01*
Y799590D01*
X290824Y802130D01*
X288285Y804669D01*
Y807208D01*
X290824Y802130D02*
X295903D01*
X157484Y680723D02*
Y695957D01*
X165102D01*
X167641Y693418D01*
Y688340D01*
X165102Y685801D01*
X157484D01*
X162563D02*
X167641Y680723D01*
X172719Y695957D02*
X182876D01*
Y693418D01*
X172719Y683262D01*
Y680723D01*
X965204Y477523D02*
Y492757D01*
X972822D01*
X975361Y490218D01*
Y485140D01*
X972822Y482601D01*
X965204D01*
X970283D02*
X975361Y477523D01*
X990596Y492757D02*
X980439D01*
Y485140D01*
X985518Y487679D01*
X988057D01*
X990596Y485140D01*
Y480062D01*
X988057Y477523D01*
X982978D01*
X980439Y480062D01*
X596898Y647704D02*
X581662D01*
Y655322D01*
X584202Y657861D01*
X589280D01*
X591819Y655322D01*
Y647704D01*
Y652783D02*
X596898Y657861D01*
Y670557D02*
X581662D01*
X589280Y662939D01*
Y673096D01*
X218948Y483870D02*
Y499105D01*
X226565D01*
X229105Y496566D01*
Y491488D01*
X226565Y488948D01*
X218948D01*
X224026D02*
X229105Y483870D01*
X234183Y496566D02*
X236722Y499105D01*
X241801D01*
X244340Y496566D01*
Y494027D01*
X241801Y491488D01*
X239261D01*
X241801D01*
X244340Y488948D01*
Y486409D01*
X241801Y483870D01*
X236722D01*
X234183Y486409D01*
X236224Y68583D02*
Y83818D01*
X243842D01*
X246381Y81278D01*
Y76200D01*
X243842Y73661D01*
X236224D01*
X241303D02*
X246381Y68583D01*
X261616D02*
X251459D01*
X261616Y78739D01*
Y81278D01*
X259077Y83818D01*
X253998D01*
X251459Y81278D01*
X114808Y349250D02*
Y364485D01*
X122425D01*
X124965Y361946D01*
Y356867D01*
X122425Y354328D01*
X114808D01*
X119886D02*
X124965Y349250D01*
X130043D02*
X135121D01*
X132582D01*
Y364485D01*
X130043Y361946D01*
X126997Y401326D02*
X111762D01*
Y408943D01*
X114302Y411483D01*
X119380D01*
X121919Y408943D01*
Y401326D01*
X114302Y426717D02*
X111762Y424178D01*
Y419100D01*
X114302Y416561D01*
X116841D01*
X119380Y419100D01*
Y424178D01*
X121919Y426717D01*
X124458D01*
X126997Y424178D01*
Y419100D01*
X124458Y416561D01*
X126997Y431796D02*
Y436874D01*
Y434335D01*
X111762D01*
X114302Y431796D01*
X38103Y233682D02*
Y248918D01*
X45721D01*
X48260Y246378D01*
Y241300D01*
X45721Y238761D01*
X38103D01*
X53338Y233682D02*
X58417D01*
X55878D01*
Y248918D01*
X53338Y246378D01*
X198123Y734069D02*
X213358D01*
Y744226D01*
X198123Y759461D02*
Y749304D01*
X213358D01*
Y759461D01*
X205740Y749304D02*
Y754382D01*
X198123Y764539D02*
X213358D01*
Y772157D01*
X210818Y774696D01*
X200662D01*
X198123Y772157D01*
Y764539D01*
Y789931D02*
X200662Y784853D01*
X205740Y779774D01*
X210818D01*
X213358Y782313D01*
Y787392D01*
X210818Y789931D01*
X208279D01*
X205740Y787392D01*
Y779774D01*
X248918Y716271D02*
X233682D01*
Y706114D01*
X248918Y690879D02*
Y701036D01*
X233682D01*
Y690879D01*
X241300Y701036D02*
Y695957D01*
X248918Y685801D02*
X233682D01*
Y678183D01*
X236222Y675644D01*
X246378D01*
X248918Y678183D01*
Y685801D01*
Y660409D02*
Y670566D01*
X241300D01*
X243839Y665487D01*
Y662948D01*
X241300Y660409D01*
X236222D01*
X233682Y662948D01*
Y668027D01*
X236222Y670566D01*
X910590Y554731D02*
Y539496D01*
X920747D01*
X935982Y554731D02*
X925825D01*
Y539496D01*
X935982D01*
X925825Y547113D02*
X930903D01*
X941060Y554731D02*
Y539496D01*
X948678D01*
X951217Y542035D01*
Y552192D01*
X948678Y554731D01*
X941060D01*
X963913Y539496D02*
Y554731D01*
X956295Y547113D01*
X966452D01*
X246383Y355609D02*
X261618D01*
Y365766D01*
X246383Y381001D02*
Y370844D01*
X261618D01*
Y381001D01*
X254000Y370844D02*
Y375923D01*
X246383Y386079D02*
X261618D01*
Y393697D01*
X259078Y396236D01*
X248922D01*
X246383Y393697D01*
Y386079D01*
X248922Y401314D02*
X246383Y403853D01*
Y408932D01*
X248922Y411471D01*
X251461D01*
X254000Y408932D01*
Y406393D01*
Y408932D01*
X256539Y411471D01*
X259078D01*
X261618Y408932D01*
Y403853D01*
X259078Y401314D01*
X38109Y287017D02*
Y271782D01*
X48266D01*
X63501Y287017D02*
X53344D01*
Y271782D01*
X63501D01*
X53344Y279400D02*
X58422D01*
X68579Y287017D02*
Y271782D01*
X76197D01*
X78736Y274322D01*
Y284478D01*
X76197Y287017D01*
X68579D01*
X93971Y271782D02*
X83814D01*
X93971Y281939D01*
Y284478D01*
X91432Y287017D01*
X86353D01*
X83814Y284478D01*
X198128Y152397D02*
Y137163D01*
X208285D01*
X223520Y152397D02*
X213363D01*
Y137163D01*
X223520D01*
X213363Y144780D02*
X218442D01*
X228598Y152397D02*
Y137163D01*
X236216D01*
X238755Y139702D01*
Y149858D01*
X236216Y152397D01*
X228598D01*
X243833Y137163D02*
X248912D01*
X246373D01*
Y152397D01*
X243833Y149858D01*
X542544Y553207D02*
Y537972D01*
X552701D01*
X557779D02*
X562857D01*
X560318D01*
Y553207D01*
X557779Y550668D01*
X17781Y848357D02*
X12702D01*
X15242D01*
Y835662D01*
X12702Y833122D01*
X10163D01*
X7624Y835662D01*
X33016Y848357D02*
X22859D01*
Y840740D01*
X27938Y843279D01*
X30477D01*
X33016Y840740D01*
Y835662D01*
X30477Y833122D01*
X25398D01*
X22859Y835662D01*
X236222Y529593D02*
X233682Y527054D01*
Y521975D01*
X236222Y519436D01*
X246378D01*
X248918Y521975D01*
Y527054D01*
X246378Y529593D01*
X248918Y534671D02*
Y539750D01*
Y537210D01*
X233682D01*
X236222Y534671D01*
X248918Y557524D02*
Y547367D01*
X238761Y557524D01*
X236222D01*
X233682Y554985D01*
Y549906D01*
X236222Y547367D01*
X195582Y577852D02*
X193043Y575313D01*
Y570234D01*
X195582Y567695D01*
X205738D01*
X208277Y570234D01*
Y575313D01*
X205738Y577852D01*
X208277Y582930D02*
Y588009D01*
Y585470D01*
X193043D01*
X195582Y582930D01*
X208277Y595626D02*
Y600705D01*
Y598166D01*
X193043D01*
X195582Y595626D01*
X349253Y779778D02*
X346714Y782318D01*
X341635D01*
X339096Y779778D01*
Y769622D01*
X341635Y767083D01*
X346714D01*
X349253Y769622D01*
X354331Y767083D02*
X359410D01*
X356870D01*
Y782318D01*
X354331Y779778D01*
X367027D02*
X369566Y782318D01*
X374645D01*
X377184Y779778D01*
Y769622D01*
X374645Y767083D01*
X369566D01*
X367027Y769622D01*
Y779778D01*
X665481Y657858D02*
X662942Y660397D01*
X657863D01*
X655324Y657858D01*
Y647702D01*
X657863Y645163D01*
X662942D01*
X665481Y647702D01*
X670559Y660397D02*
X680716D01*
Y657858D01*
X670559Y647702D01*
Y645163D01*
X546102Y622301D02*
X543563Y619762D01*
Y614683D01*
X546102Y612144D01*
X556258D01*
X558797Y614683D01*
Y619762D01*
X556258Y622301D01*
X543563Y637536D02*
Y627379D01*
X551180D01*
X548641Y632458D01*
Y634997D01*
X551180Y637536D01*
X556258D01*
X558797Y634997D01*
Y629918D01*
X556258Y627379D01*
X60961Y335278D02*
X58422Y337817D01*
X53343D01*
X50804Y335278D01*
Y325122D01*
X53343Y322583D01*
X58422D01*
X60961Y325122D01*
X76196Y322583D02*
X66039D01*
X76196Y332739D01*
Y335278D01*
X73657Y337817D01*
X68578D01*
X66039Y335278D01*
X132080Y30478D02*
X129541Y33017D01*
X124462D01*
X121923Y30478D01*
Y20322D01*
X124462Y17782D01*
X129541D01*
X132080Y20322D01*
X137158Y17782D02*
X142237D01*
X139698D01*
Y33017D01*
X137158Y30478D01*
D11*
X611278Y640080D02*
G03*
X611278Y640080I-916J0D01*
G01*
X303176Y596138D02*
G03*
X303176Y596138I-916J0D01*
G01*
D12*
X354725Y336323D02*
G03*
X354725Y336323I-1270J0D01*
G01*
D13*
X180308Y220726D02*
G03*
X180308Y220726I-2000J0D01*
G01*
D14*
X65294Y144780D02*
G03*
X65294Y144780I-2048J0D01*
G01*
X551942Y528701D02*
G03*
X551942Y528701I-762J0D01*
G01*
X33546Y392160D02*
G03*
X33546Y392160I-1796J0D01*
G01*
X659130Y466090D02*
X664210D01*
X659130D02*
Y471170D01*
X660143Y544560D02*
X665223D01*
X660143Y539480D02*
Y544560D01*
X736485Y539047D02*
Y544127D01*
X731405D02*
X736485D01*
X731520Y467360D02*
X736600D01*
Y472440D01*
X434848Y295940D02*
X444500D01*
X434848Y318740D02*
X444500D01*
X186660Y652780D02*
Y662432D01*
X163860Y652780D02*
Y662432D01*
X567690Y612394D02*
Y622046D01*
X585470Y612394D02*
Y622046D01*
X620014Y674340D02*
X629666D01*
X620014Y651540D02*
X629666D01*
X676910Y612394D02*
Y622046D01*
X659130Y612394D02*
Y622046D01*
X694690Y612394D02*
Y622046D01*
X712470Y612394D02*
Y622046D01*
X274574Y547370D02*
X284226D01*
X274574Y529590D02*
X284226D01*
X51816Y291800D02*
X79756D01*
X51562Y317800D02*
X79502D01*
X213060Y367284D02*
Y395224D01*
X239060Y367538D02*
Y395478D01*
X958820Y459994D02*
Y469646D01*
X936020Y459994D02*
Y469646D01*
X234950Y581914D02*
Y591566D01*
X217170Y581914D02*
Y591566D01*
X194564Y129840D02*
X222504D01*
X194818Y103840D02*
X222758D01*
X137414Y41910D02*
X147066D01*
X137414Y59690D02*
X147066D01*
X609854Y344170D02*
X619506D01*
X609854Y361950D02*
X619506D01*
X685800Y308610D02*
X695452D01*
X685800Y326390D02*
X695452D01*
X908050Y617474D02*
Y627126D01*
X925830Y617474D02*
Y627126D01*
X864870Y416814D02*
Y426466D01*
X847090Y416814D02*
Y426466D01*
X96398Y111908D02*
Y115972D01*
X96525Y120036D02*
Y123592D01*
X78740Y123698D02*
X114300D01*
X78740Y111760D02*
X114300D01*
X71120Y142240D02*
X121920D01*
X71120Y91440D02*
X121920D01*
X88138Y118110D02*
X92202D01*
Y116078D02*
Y120142D01*
X78740Y123698D02*
Y127254D01*
X114300Y123698D02*
Y127254D01*
Y108458D02*
Y111760D01*
X78740Y108458D02*
Y111760D01*
X52070Y107950D02*
Y125730D01*
X140970Y107950D02*
Y125730D01*
X223220Y745744D02*
Y773684D01*
X249220Y745998D02*
Y773938D01*
X221280Y671576D02*
Y699516D01*
X195280Y671322D02*
Y699262D01*
X561467Y492245D02*
Y503434D01*
X540893Y492245D02*
Y503434D01*
X287274Y763300D02*
X296926D01*
X287274Y786100D02*
X296926D01*
X916178Y505160D02*
X944118D01*
X915924Y531160D02*
X943864D01*
X217200Y449834D02*
Y459486D01*
X240000Y449834D02*
Y459486D01*
X113060Y315214D02*
Y324866D01*
X135860Y315214D02*
Y324866D01*
X236474Y618520D02*
X246126D01*
X236474Y641320D02*
X246126D01*
X205994Y87600D02*
X215646D01*
X205994Y64800D02*
X215646D01*
X56134Y341630D02*
X65786D01*
X56134Y359410D02*
X65786D01*
X35052Y398018D02*
X102108D01*
X35052D02*
Y435102D01*
X102108D01*
Y398018D02*
Y435102D01*
X353314Y763270D02*
X362966D01*
X353314Y745490D02*
X362966D01*
D15*
X25400Y529590D02*
X132080D01*
Y501650D02*
Y529590D01*
X128270Y501650D02*
X132080D01*
X25400D02*
Y529590D01*
Y501650D02*
X52070D01*
X586740Y681990D02*
X693420D01*
X586740D02*
Y709930D01*
X590550D01*
X693420Y681990D02*
Y709930D01*
X666750D02*
X693420D01*
X295910Y161290D02*
Y187960D01*
X323850D01*
X295910Y81280D02*
Y85090D01*
Y81280D02*
X323850D01*
Y187960D01*
X39370Y609600D02*
Y716280D01*
X67310D01*
Y712470D02*
Y716280D01*
X39370Y609600D02*
X67310D01*
Y636270D01*
X179070Y368300D02*
Y394970D01*
X151130Y368300D02*
X179070D01*
Y471170D02*
Y474980D01*
X151130D02*
X179070D01*
X151130Y368300D02*
Y474980D01*
X923290Y347980D02*
Y454660D01*
X895350Y347980D02*
X923290D01*
X895350D02*
Y351790D01*
Y454660D02*
X923290D01*
X895350Y427990D02*
Y454660D01*
X116840Y808990D02*
X223520D01*
X116840D02*
Y836930D01*
X120650D01*
X223520Y808990D02*
Y836930D01*
X196850D02*
X223520D01*
D16*
X303949Y619602D02*
Y721502D01*
Y619602D02*
X331635D01*
Y721502D01*
X303949D02*
X331635D01*
D17*
X340360Y264739D02*
X365671D01*
Y324541D01*
X340360D02*
X365671D01*
X340360Y264739D02*
Y324541D01*
D18*
X15630Y175980D02*
X105130D01*
X159630Y245110D02*
Y265980D01*
X15630D02*
X159630D01*
X15630Y175980D02*
Y265980D01*
X159630Y175980D02*
Y198882D01*
X147574Y175980D02*
X159630D01*
X812292Y274828D02*
X808701Y278419D01*
Y282010D01*
X812292D01*
X815883Y278419D01*
X813190Y281112D01*
X809599Y277521D01*
X817678Y280214D02*
X819474Y282010D01*
X818576Y281112D01*
X813190Y286499D01*
Y284703D01*
X786892Y274828D02*
X783301Y278419D01*
Y282010D01*
X786892D01*
X790483Y278419D01*
X787790Y281112D01*
X784199Y277521D01*
X787790Y284703D02*
Y286499D01*
X789585Y288294D01*
X791381Y288294D01*
X794972Y284703D01*
X794972Y282908D01*
X793176Y281112D01*
X791381D01*
X787790Y284703D01*
X837692Y274084D02*
X834101Y277675D01*
Y281266D01*
X837692D01*
X841283Y277675D01*
X838590Y280368D01*
X834999Y276777D01*
X846669Y283061D02*
X843078Y279471D01*
Y286652D01*
X842181Y287550D01*
X840385Y287550D01*
X838590Y285755D01*
Y283959D01*
X863092Y274084D02*
X859501Y277675D01*
Y281266D01*
X863092D01*
X866683Y277675D01*
X863990Y280368D01*
X860399Y276777D01*
X863990Y283959D02*
Y285755D01*
X865785Y287550D01*
X867581Y287550D01*
X868478Y286652D01*
Y284857D01*
X867581Y283959D01*
X868478Y284857D01*
X870274Y284857D01*
X871172Y283959D01*
X871172Y282164D01*
X869376Y280368D01*
X867581D01*
X888492Y274084D02*
X884901Y277675D01*
Y281266D01*
X888492D01*
X892083Y277675D01*
X889390Y280368D01*
X885799Y276777D01*
X896572Y282164D02*
X891185Y287550D01*
X891185Y282164D01*
X894776Y285755D01*
X913892Y274084D02*
X910301Y277675D01*
Y281266D01*
X913892D01*
X917483Y277675D01*
X914790Y280368D01*
X911199Y276777D01*
X917483Y288448D02*
X913892Y284857D01*
X916585Y282164D01*
X917483Y284857D01*
X918381Y285755D01*
X920176D01*
X921972Y283959D01*
X921972Y282164D01*
X920176Y280368D01*
X918381D01*
X904188Y710697D02*
X909574Y705310D01*
X912267Y708003D01*
X912267Y709799D01*
X908676Y713390D01*
X906881Y713390D01*
X904188Y710697D01*
X910472Y715185D02*
Y716981D01*
X912267Y718776D01*
X914063Y718776D01*
X917654Y715185D01*
X917654Y713390D01*
X915858Y711594D01*
X914063D01*
X910472Y715185D01*
X881328Y712776D02*
X886714Y707390D01*
X889407Y710083D01*
X889407Y711879D01*
X885816Y715470D01*
X884021Y715470D01*
X881328Y712776D01*
X892100D02*
X893896Y714572D01*
X892998Y713674D01*
X887612Y719061D01*
Y717265D01*
X854150Y710744D02*
X859536Y705358D01*
X862229Y708051D01*
X862229Y709847D01*
X858638Y713438D01*
X856843Y713438D01*
X854150Y710744D01*
X868513Y714335D02*
X864922Y710744D01*
Y717926D01*
X864025Y718824D01*
X862229Y718824D01*
X860434Y717029D01*
Y715233D01*
X825448Y705156D02*
X830834Y699770D01*
X833527Y702463D01*
X833527Y704259D01*
X829936Y707850D01*
X828141Y707850D01*
X825448Y705156D01*
X831732Y709645D02*
Y711441D01*
X833527Y713236D01*
X835323Y713236D01*
X836220Y712338D01*
Y710543D01*
X835323Y709645D01*
X836220Y710543D01*
X838016Y710543D01*
X838914Y709645D01*
X838914Y707850D01*
X837118Y706054D01*
X835323D01*
X837118Y715032D02*
Y716827D01*
X838914Y718622D01*
X838914Y720418D01*
X804112Y710236D02*
X809498Y704850D01*
X812191Y707543D01*
X812191Y709339D01*
X808600Y712930D01*
X806805Y712930D01*
X804112Y710236D01*
X817578Y712930D02*
X812191Y718316D01*
X812191Y712930D01*
X815782Y716521D01*
X749248Y704413D02*
X754634Y699026D01*
X757327Y701719D01*
X757327Y703515D01*
X753736Y707106D01*
X751941Y707106D01*
X749248Y704413D01*
X758225Y713390D02*
X757327Y710697D01*
X757327Y707106D01*
X759123Y705310D01*
X760918D01*
X762714Y707106D01*
X762714Y708901D01*
X761816Y709799D01*
X760020Y709799D01*
X757327Y707106D01*
X760918Y714287D02*
Y716083D01*
X762714Y717878D01*
X762714Y719674D01*
X726388Y710697D02*
X731774Y705311D01*
X734467Y708004D01*
X734467Y709799D01*
X730876Y713390D01*
X729081Y713390D01*
X726388Y710697D01*
X731774Y716083D02*
X735365Y719674D01*
X736263Y718776D01*
Y711595D01*
X737160Y710697D01*
X777188Y704413D02*
X782574Y699026D01*
X785267Y701719D01*
X785267Y703515D01*
X781676Y707106D01*
X779881Y707106D01*
X777188Y704413D01*
X786165Y713390D02*
X782574Y709799D01*
X785267Y707106D01*
X786165Y709799D01*
X787063Y710697D01*
X788858D01*
X790654Y708901D01*
X790654Y707106D01*
X788858Y705310D01*
X787063D01*
X788858Y714287D02*
Y716083D01*
X790654Y717878D01*
X790654Y719674D01*
X459096Y707394D02*
X457301Y707394D01*
X455505Y705599D01*
Y703803D01*
X456403Y702905D01*
X458199Y702905D01*
X459994Y704701D01*
X461789Y704701D01*
X462687Y703803D01*
X462687Y702008D01*
X460892Y700212D01*
X459096D01*
X464483Y712780D02*
X462687Y712781D01*
X460892Y710985D01*
Y709190D01*
X464483Y705599D01*
X466278D01*
X468074Y707394D01*
X468074Y709190D01*
X465380Y715474D02*
X470767Y710087D01*
X474358Y713678D01*
X482464Y707394D02*
X480669Y707394D01*
X478873Y705599D01*
Y703803D01*
X479771Y702905D01*
X481567Y702905D01*
X483362Y704701D01*
X485157Y704701D01*
X486055Y703803D01*
X486055Y702008D01*
X484260Y700212D01*
X482464D01*
X483362Y710087D02*
X488748Y704701D01*
X491442Y707394D01*
X491442Y709190D01*
X487851Y712780D01*
X486055Y712781D01*
X483362Y710087D01*
X494135D02*
X490544Y713678D01*
Y717269D01*
X494135D01*
X497726Y713678D01*
X495033Y716371D01*
X491442Y712781D01*
X502666Y693928D02*
X499075Y697519D01*
Y701110D01*
X502666D01*
X506257Y697519D01*
X503564Y700212D01*
X499973Y696621D01*
X508052Y699314D02*
X502666Y704701D01*
X505359Y707394D01*
X507155Y707394D01*
X508950Y705599D01*
Y703803D01*
X506257Y701110D01*
X508052Y702905D02*
X511643Y702905D01*
Y713678D02*
X508052Y710087D01*
X513439Y704701D01*
X517030Y708292D01*
X510746Y707394D02*
X512541Y709190D01*
X517030Y719065D02*
X513439Y715474D01*
X516132Y712780D01*
X517928Y714576D01*
X516132Y712780D01*
X518825Y710087D01*
X534026Y707394D02*
X532231Y707394D01*
X530435Y705599D01*
Y703803D01*
X534026Y700212D01*
X535822D01*
X537617Y702008D01*
X537617Y703803D01*
X535822Y705599D01*
X534026Y703803D01*
X540310Y704701D02*
X534924Y710087D01*
X543901Y708292D01*
X538515Y713678D01*
X540310Y715474D02*
X545697Y710087D01*
X548390Y712781D01*
X548390Y714576D01*
X544799Y718167D01*
X543004D01*
X540310Y715474D01*
X556462Y705599D02*
X561848Y700212D01*
X564541Y702905D01*
X564541Y704701D01*
X560950Y708292D01*
X559155Y708292D01*
X556462Y705599D01*
X567234D02*
X569030Y707394D01*
X568132Y706496D01*
X562746Y711883D01*
Y710087D01*
X567234Y714576D02*
Y716371D01*
X569030Y718167D01*
X570825D01*
X571723Y717269D01*
Y715474D01*
X570825Y714576D01*
X571723Y715474D01*
X573518Y715474D01*
X574416Y714576D01*
X574416Y712781D01*
X572621Y710985D01*
X570825D01*
X581354Y706426D02*
X586740Y701040D01*
X589433Y703733D01*
X589433Y705529D01*
X585842Y709120D01*
X584047Y709120D01*
X581354Y706426D01*
X592126D02*
X593922Y708222D01*
X593024Y707324D01*
X587638Y712711D01*
Y710915D01*
X600206Y714506D02*
X596615Y710915D01*
Y718097D01*
X595717Y718995D01*
X593922D01*
X592126Y717199D01*
Y715404D01*
X603198Y700212D02*
X608584Y694826D01*
X611277Y697519D01*
X611277Y699314D01*
X607686Y702905D01*
X605891Y702905D01*
X603198Y700212D01*
X613970D02*
X615766Y702008D01*
X614868Y701110D01*
X609482Y706496D01*
Y704701D01*
X618459D02*
X620255Y706496D01*
X619357Y705599D01*
X613970Y710985D01*
Y709190D01*
X618459Y713678D02*
Y715474D01*
X620255Y717269D01*
X620255Y719065D01*
X628852Y699314D02*
X634238Y693928D01*
X636931Y696621D01*
X636931Y698417D01*
X633340Y702008D01*
X631545Y702008D01*
X628852Y699314D01*
X639624D02*
X641420Y701110D01*
X640522Y700212D01*
X635136Y705599D01*
Y703803D01*
X639624Y708292D02*
Y710087D01*
X641420Y711883D01*
X643215D01*
X646806Y708292D01*
X646806Y706496D01*
X645011Y704701D01*
X643215D01*
X639624Y708292D01*
X645011Y713678D02*
Y715474D01*
X646806Y717269D01*
X646806Y719065D01*
X656538Y703803D02*
X661924Y698417D01*
X664617Y701110D01*
X664617Y702905D01*
X661026Y706496D01*
X659231Y706496D01*
X656538Y703803D01*
X666413Y704701D02*
X668208D01*
X670004Y706496D01*
X670004Y708292D01*
X666413Y711883D01*
X664617Y711883D01*
X662822Y710087D01*
Y708292D01*
X663719Y707394D01*
X665515Y707394D01*
X668208Y710087D01*
Y713678D02*
Y715474D01*
X670004Y717269D01*
X670004Y719065D01*
X687780Y710087D02*
X693166Y704701D01*
X695859Y707394D01*
X695859Y709190D01*
X692268Y712780D01*
X690473Y712781D01*
X687780Y710087D01*
X694064Y714576D02*
Y716371D01*
X695859Y718167D01*
X697655Y718167D01*
X698552Y717269D01*
Y715474D01*
X700348Y715474D01*
X701246Y714576D01*
X701246Y712781D01*
X699450Y710985D01*
X697655D01*
X696757Y711883D01*
Y713678D01*
X694961Y713678D01*
X694064Y714576D01*
X696757Y713678D02*
X698552Y715474D01*
X609600Y278656D02*
X604214Y284042D01*
X606907Y286736D01*
X608702Y286736D01*
X610498Y284940D01*
X610498Y283145D01*
X607804Y280452D01*
X609600Y282247D02*
X613191Y282247D01*
Y293020D02*
X609600Y289429D01*
X614986Y284042D01*
X618577Y287633D01*
X612293Y286736D02*
X614089Y288531D01*
X619475Y297509D02*
X617680D01*
X615884Y295713D01*
Y293918D01*
X616782Y293020D01*
X618577Y293020D01*
X620373Y294815D01*
X622168Y294815D01*
X623066Y293918D01*
X623066Y292122D01*
X621271Y290327D01*
X619475D01*
X623964Y303793D02*
X620373Y300202D01*
X625759Y294815D01*
X629350Y298406D01*
X623066Y297509D02*
X624861Y299304D01*
X625759Y305588D02*
X629350Y309179D01*
X627555Y307384D01*
X632941Y301997D01*
X731214Y284042D02*
X734805Y280452D01*
X738395D01*
X738395Y284042D01*
X734805Y287633D01*
X741986Y284042D02*
X743782Y285838D01*
X742884Y284940D01*
X739293Y288531D01*
X738395Y287633D01*
X746475Y288531D02*
X742884Y292122D01*
X745577Y294815D01*
X747373D01*
X750066Y292122D01*
X710302Y286736D02*
X708507Y286736D01*
X706711Y284940D01*
Y283145D01*
X710302Y279554D01*
X712098D01*
X713893Y281349D01*
X713893Y283145D01*
X712098Y284940D01*
X710302Y283145D01*
X716586Y284042D02*
X711200Y289429D01*
X720177Y287633D01*
X714791Y293020D01*
X716586Y294815D02*
X721973Y289429D01*
X724666Y292122D01*
X724666Y293918D01*
X721075Y297509D01*
X719280D01*
X716586Y294815D01*
X684902Y286736D02*
X683107Y286736D01*
X681311Y284940D01*
Y283145D01*
X684902Y279554D01*
X686698D01*
X688493Y281349D01*
X688493Y283145D01*
X686698Y284940D01*
X684902Y283145D01*
X691186Y284042D02*
X685800Y289429D01*
X694777Y287633D01*
X689391Y293020D01*
X691186Y294815D02*
X696573Y289429D01*
X699266Y292122D01*
X699266Y293918D01*
X695675Y297509D01*
X693880D01*
X691186Y294815D01*
X658605Y287633D02*
X655014Y284042D01*
X657707Y281349D01*
X658605Y284042D01*
X659502Y284940D01*
X661298D01*
X663093Y283145D01*
X663093Y281349D01*
X661298Y279554D01*
X659502D01*
X662196Y287633D02*
X667582Y285838D01*
X665786Y291224D01*
X630511Y283145D02*
Y284940D01*
X632307Y286736D01*
X634102Y286736D01*
X635000Y285838D01*
Y284042D01*
X634102Y283145D01*
X635000Y284042D01*
X636795Y284042D01*
X637693Y283145D01*
X637693Y281349D01*
X635898Y279554D01*
X634102D01*
X636796Y287633D02*
X642182Y285838D01*
X640386Y291224D01*
X641284Y293918D02*
Y295713D01*
X643080Y297509D01*
X644875D01*
X645773Y296611D01*
Y294815D01*
X644875Y293918D01*
X645773Y294815D01*
X647568Y294815D01*
X648466Y293918D01*
X648466Y292122D01*
X646671Y290327D01*
X644875D01*
X576274Y281836D02*
X578069Y283632D01*
X577171Y282734D01*
X582558Y277348D01*
X581660Y276450D01*
X583456Y278246D01*
Y289018D02*
X581660Y287223D01*
Y285427D01*
X585251Y281836D01*
X587046D01*
X588842Y283632D01*
Y285427D01*
X585251Y289018D01*
X583456Y289018D01*
X591535Y286325D02*
X586149Y291712D01*
X588842Y294405D01*
X590637D01*
X592433Y292609D01*
X592433Y290814D01*
X589740Y288121D01*
X591535Y289916D02*
X595126Y289916D01*
Y300689D02*
X591535Y297098D01*
X596922Y291712D01*
X600512Y295302D01*
X594228Y294405D02*
X596024Y296200D01*
X600512Y306075D02*
X596922Y302484D01*
X599615Y299791D01*
X601410Y301587D01*
X599615Y299791D01*
X602308Y297098D01*
X558800Y278656D02*
X553414Y284042D01*
X562391Y282247D01*
X557005Y287633D01*
X563289Y292122D02*
X561493Y292122D01*
X559698Y290327D01*
Y288531D01*
X563289Y284940D01*
X565084D01*
X566880Y286736D01*
X566880Y288531D01*
M02*
