G04*
G04 #@! TF.GenerationSoftware,Altium Limited,Altium Designer,24.1.2 (44)*
G04*
G04 Layer_Color=2752767*
%FSLAX44Y44*%
%MOMM*%
G71*
G04*
G04 #@! TF.SameCoordinates,264AB7AF-67A9-449C-BE9F-4602C0ED76BB*
G04*
G04*
G04 #@! TF.FilePolarity,Positive*
G04*
G01*
G75*
%ADD18C,0.1270*%
%ADD59C,0.1693*%
D18*
X787400Y251460D02*
X789940Y254000D01*
X792480D01*
X789940Y256540D01*
X792480Y259080D01*
X789940D01*
X787400Y261620D01*
X784860Y259080D01*
X782320D01*
X784860Y256540D01*
X782320Y254000D01*
X784860D01*
X787400Y251460D01*
X812800D02*
X815340Y254000D01*
X817880D01*
X815340Y256540D01*
X817880Y259080D01*
X815340D01*
X812800Y261620D01*
X810260Y259080D01*
X807720D01*
X810260Y256540D01*
X807720Y254000D01*
X810260D01*
X812800Y251460D01*
X838200D02*
X840740Y254000D01*
X843280D01*
X840740Y256540D01*
X843280Y259080D01*
X840740D01*
X838200Y261620D01*
X835660Y259080D01*
X833120D01*
X835660Y256540D01*
X833120Y254000D01*
X835660D01*
X838200Y251460D01*
X863600D02*
X866140Y254000D01*
X868680D01*
X866140Y256540D01*
X868680Y259080D01*
X866140D01*
X863600Y261620D01*
X861060Y259080D01*
X858520D01*
X861060Y256540D01*
X858520Y254000D01*
X861060D01*
X863600Y251460D01*
X889000D02*
X891540Y254000D01*
X894080D01*
X891540Y256540D01*
X894080Y259080D01*
X891540D01*
X889000Y261620D01*
X886460Y259080D01*
X883920D01*
X886460Y256540D01*
X883920Y254000D01*
X886460D01*
X889000Y251460D01*
X914400D02*
X916940Y254000D01*
X919480D01*
X916940Y256540D01*
X919480Y259080D01*
X916940D01*
X914400Y261620D01*
X911860Y259080D01*
X909320D01*
X911860Y256540D01*
X909320Y254000D01*
X911860D01*
X914400Y251460D01*
Y734060D02*
X916940Y736600D01*
X919480D01*
X916940Y739140D01*
X919480Y741680D01*
X916940D01*
X914400Y744220D01*
X911860Y741680D01*
X909320D01*
X911860Y739140D01*
X909320Y736600D01*
X911860D01*
X914400Y734060D01*
X889000D02*
X891540Y736600D01*
X894080D01*
X891540Y739140D01*
X894080Y741680D01*
X891540D01*
X889000Y744220D01*
X886460Y741680D01*
X883920D01*
X886460Y739140D01*
X883920Y736600D01*
X886460D01*
X889000Y734060D01*
X863600D02*
X866140Y736600D01*
X868680D01*
X866140Y739140D01*
X868680Y741680D01*
X866140D01*
X863600Y744220D01*
X861060Y741680D01*
X858520D01*
X861060Y739140D01*
X858520Y736600D01*
X861060D01*
X863600Y734060D01*
X838200D02*
X840740Y736600D01*
X843280D01*
X840740Y739140D01*
X843280Y741680D01*
X840740D01*
X838200Y744220D01*
X835660Y741680D01*
X833120D01*
X835660Y739140D01*
X833120Y736600D01*
X835660D01*
X838200Y734060D01*
X812800D02*
X815340Y736600D01*
X817880D01*
X815340Y739140D01*
X817880Y741680D01*
X815340D01*
X812800Y744220D01*
X810260Y741680D01*
X807720D01*
X810260Y739140D01*
X807720Y736600D01*
X810260D01*
X812800Y734060D01*
X787400D02*
X789940Y736600D01*
X792480D01*
X789940Y739140D01*
X792480Y741680D01*
X789940D01*
X787400Y744220D01*
X784860Y741680D01*
X782320D01*
X784860Y739140D01*
X782320Y736600D01*
X784860D01*
X787400Y734060D01*
X762000D02*
X764540Y736600D01*
X767080D01*
X764540Y739140D01*
X767080Y741680D01*
X764540D01*
X762000Y744220D01*
X759460Y741680D01*
X756920D01*
X759460Y739140D01*
X756920Y736600D01*
X759460D01*
X762000Y734060D01*
X736600D02*
X739140Y736600D01*
X741680D01*
X739140Y739140D01*
X741680Y741680D01*
X739140D01*
X736600Y744220D01*
X734060Y741680D01*
X731520D01*
X734060Y739140D01*
X731520Y736600D01*
X734060D01*
X736600Y734060D01*
X695960D02*
X698500Y736600D01*
X701040D01*
X698500Y739140D01*
X701040Y741680D01*
X698500D01*
X695960Y744220D01*
X693420Y741680D01*
X690880D01*
X693420Y739140D01*
X690880Y736600D01*
X693420D01*
X695960Y734060D01*
X670560D02*
X673100Y736600D01*
X675640D01*
X673100Y739140D01*
X675640Y741680D01*
X673100D01*
X670560Y744220D01*
X668020Y741680D01*
X665480D01*
X668020Y739140D01*
X665480Y736600D01*
X668020D01*
X670560Y734060D01*
X645160D02*
X647700Y736600D01*
X650240D01*
X647700Y739140D01*
X650240Y741680D01*
X647700D01*
X645160Y744220D01*
X642620Y741680D01*
X640080D01*
X642620Y739140D01*
X640080Y736600D01*
X642620D01*
X645160Y734060D01*
X619760D02*
X622300Y736600D01*
X624840D01*
X622300Y739140D01*
X624840Y741680D01*
X622300D01*
X619760Y744220D01*
X617220Y741680D01*
X614680D01*
X617220Y739140D01*
X614680Y736600D01*
X617220D01*
X619760Y734060D01*
X594360D02*
X596900Y736600D01*
X599440D01*
X596900Y739140D01*
X599440Y741680D01*
X596900D01*
X594360Y744220D01*
X591820Y741680D01*
X589280D01*
X591820Y739140D01*
X589280Y736600D01*
X591820D01*
X594360Y734060D01*
X568960D02*
X571500Y736600D01*
X574040D01*
X571500Y739140D01*
X574040Y741680D01*
X571500D01*
X568960Y744220D01*
X566420Y741680D01*
X563880D01*
X566420Y739140D01*
X563880Y736600D01*
X566420D01*
X568960Y734060D01*
X543560D02*
X546100Y736600D01*
X548640D01*
X546100Y739140D01*
X548640Y741680D01*
X546100D01*
X543560Y744220D01*
X541020Y741680D01*
X538480D01*
X541020Y739140D01*
X538480Y736600D01*
X541020D01*
X543560Y734060D01*
X518160D02*
X520700Y736600D01*
X523240D01*
X520700Y739140D01*
X523240Y741680D01*
X520700D01*
X518160Y744220D01*
X515620Y741680D01*
X513080D01*
X515620Y739140D01*
X513080Y736600D01*
X515620D01*
X518160Y734060D01*
X492760D02*
X495300Y736600D01*
X497840D01*
X495300Y739140D01*
X497840Y741680D01*
X495300D01*
X492760Y744220D01*
X490220Y741680D01*
X487680D01*
X490220Y739140D01*
X487680Y736600D01*
X490220D01*
X492760Y734060D01*
X467360D02*
X469900Y736600D01*
X472440D01*
X469900Y739140D01*
X472440Y741680D01*
X469900D01*
X467360Y744220D01*
X464820Y741680D01*
X462280D01*
X464820Y739140D01*
X462280Y736600D01*
X464820D01*
X467360Y734060D01*
X14921Y814440D02*
Y811900D01*
X20001D01*
Y814440D01*
X22541D01*
Y819520D01*
X20001D01*
Y822060D01*
X14921D01*
Y819520D01*
X12382D01*
Y814440D01*
X14921D01*
X62421D02*
Y811900D01*
X67502D01*
Y814440D01*
X70041D01*
Y819520D01*
X67502D01*
Y822060D01*
X62421D01*
Y819520D01*
X59882D01*
Y814440D01*
X62421D01*
Y740040D02*
Y737500D01*
X67502D01*
Y740040D01*
X70041D01*
Y745120D01*
X67502D01*
Y747660D01*
X62421D01*
Y745120D01*
X59882D01*
Y740040D01*
X62421D01*
X68899Y758501D02*
X71438D01*
X73979Y761041D01*
X76519Y758501D01*
X79058D01*
Y761041D01*
X76519Y763581D01*
X79058Y766121D01*
Y768661D01*
X76519D01*
X73979Y766121D01*
X71438Y768661D01*
X68899D01*
Y766121D01*
X71438Y763581D01*
X68899Y761041D01*
Y758501D01*
Y774501D02*
X71438D01*
X73979Y777041D01*
X76519Y774501D01*
X79058D01*
Y777041D01*
X76519Y779581D01*
X79058Y782121D01*
Y784661D01*
X76519D01*
X73979Y782121D01*
X71438Y784661D01*
X68899D01*
Y782121D01*
X71438Y779581D01*
X68899Y777041D01*
Y774501D01*
X56862Y766502D02*
X59401D01*
X61941Y769042D01*
X64482Y766502D01*
X67021D01*
Y769042D01*
X64482Y771582D01*
X67021Y774122D01*
Y776662D01*
X64482D01*
X61941Y774122D01*
X59401Y776662D01*
X56862D01*
Y774122D01*
X59401Y771582D01*
X56862Y769042D01*
Y766502D01*
Y782502D02*
X59401D01*
X61941Y785042D01*
X64482Y782502D01*
X67021D01*
Y785042D01*
X64482Y787582D01*
X67021Y790122D01*
Y792662D01*
X64482D01*
X61941Y790122D01*
X59401Y792662D01*
X56862D01*
Y790122D01*
X59401Y787582D01*
X56862Y785042D01*
Y782502D01*
X68899Y790500D02*
X71438D01*
X73979Y793040D01*
X76519Y790500D01*
X79058D01*
Y793040D01*
X76519Y795580D01*
X79058Y798120D01*
Y800660D01*
X76519D01*
X73979Y798120D01*
X71438Y800660D01*
X68899D01*
Y798120D01*
X71438Y795580D01*
X68899Y793040D01*
Y790500D01*
X14921Y740040D02*
Y737500D01*
X20001D01*
Y740040D01*
X22541D01*
Y745120D01*
X20001D01*
Y747660D01*
X14921D01*
Y745120D01*
X12382D01*
Y740040D01*
X14921D01*
X60960Y510540D02*
Y520700D01*
X71120D01*
Y510540D01*
X60960D01*
X35560D02*
Y520700D01*
X45720D01*
Y510540D01*
X35560D01*
X111760D02*
Y520700D01*
X121920D01*
Y510540D01*
X111760D01*
X86360D02*
Y520700D01*
X96520D01*
Y510540D01*
X86360D01*
X647700Y690880D02*
Y701040D01*
X657860D01*
Y690880D01*
X647700D01*
X673100D02*
Y701040D01*
X683260D01*
Y690880D01*
X673100D01*
X596900D02*
Y701040D01*
X607060D01*
Y690880D01*
X596900D01*
X622300D02*
Y701040D01*
X632460D01*
Y690880D01*
X622300D01*
X347980Y302260D02*
X350520Y307340D01*
X347980Y312420D01*
X353060Y309880D01*
X358140Y312420D01*
X355600Y307340D01*
X358140Y302260D01*
X353060Y304800D01*
X347980Y302260D01*
Y276860D02*
X350520Y281940D01*
X347980Y287020D01*
X353060Y284480D01*
X358140Y287020D01*
X355600Y281940D01*
X358140Y276860D01*
X353060Y279400D01*
X347980Y276860D01*
X259080Y213360D02*
X261620Y215900D01*
X264160D01*
X261620Y218440D01*
X264160Y220980D01*
X261620D01*
X259080Y223520D01*
X256540Y220980D01*
X254000D01*
X256540Y218440D01*
X254000Y215900D01*
X256540D01*
X259080Y213360D01*
Y238760D02*
X261620Y241300D01*
X264160D01*
X261620Y243840D01*
X264160Y246380D01*
X261620D01*
X259080Y248920D01*
X256540Y246380D01*
X254000D01*
X256540Y243840D01*
X254000Y241300D01*
X256540D01*
X259080Y238760D01*
Y264160D02*
X261620Y266700D01*
X264160D01*
X261620Y269240D01*
X264160Y271780D01*
X261620D01*
X259080Y274320D01*
X256540Y271780D01*
X254000D01*
X256540Y269240D01*
X254000Y266700D01*
X256540D01*
X259080Y264160D01*
X304800Y116840D02*
Y127000D01*
X314960D01*
Y116840D01*
X304800D01*
Y91440D02*
Y101600D01*
X314960D01*
Y91440D01*
X304800D01*
Y167640D02*
Y177800D01*
X314960D01*
Y167640D01*
X304800D01*
Y142240D02*
Y152400D01*
X314960D01*
Y142240D01*
X304800D01*
X48260Y645160D02*
Y655320D01*
X58420D01*
Y645160D01*
X48260D01*
Y619760D02*
Y629920D01*
X58420D01*
Y619760D01*
X48260D01*
Y695960D02*
Y706120D01*
X58420D01*
Y695960D01*
X48260D01*
Y670560D02*
Y680720D01*
X58420D01*
Y670560D01*
X48260D01*
X736600Y251460D02*
X739140Y254000D01*
X741680D01*
X739140Y256540D01*
X741680Y259080D01*
X739140D01*
X736600Y261620D01*
X734060Y259080D01*
X731520D01*
X734060Y256540D01*
X731520Y254000D01*
X734060D01*
X736600Y251460D01*
X711200D02*
X713740Y254000D01*
X716280D01*
X713740Y256540D01*
X716280Y259080D01*
X713740D01*
X711200Y261620D01*
X708660Y259080D01*
X706120D01*
X708660Y256540D01*
X706120Y254000D01*
X708660D01*
X711200Y251460D01*
X685800D02*
X688340Y254000D01*
X690880D01*
X688340Y256540D01*
X690880Y259080D01*
X688340D01*
X685800Y261620D01*
X683260Y259080D01*
X680720D01*
X683260Y256540D01*
X680720Y254000D01*
X683260D01*
X685800Y251460D01*
X660400D02*
X662940Y254000D01*
X665480D01*
X662940Y256540D01*
X665480Y259080D01*
X662940D01*
X660400Y261620D01*
X657860Y259080D01*
X655320D01*
X657860Y256540D01*
X655320Y254000D01*
X657860D01*
X660400Y251460D01*
X635000D02*
X637540Y254000D01*
X640080D01*
X637540Y256540D01*
X640080Y259080D01*
X637540D01*
X635000Y261620D01*
X632460Y259080D01*
X629920D01*
X632460Y256540D01*
X629920Y254000D01*
X632460D01*
X635000Y251460D01*
X609600D02*
X612140Y254000D01*
X614680D01*
X612140Y256540D01*
X614680Y259080D01*
X612140D01*
X609600Y261620D01*
X607060Y259080D01*
X604520D01*
X607060Y256540D01*
X604520Y254000D01*
X607060D01*
X609600Y251460D01*
X584200D02*
X586740Y254000D01*
X589280D01*
X586740Y256540D01*
X589280Y259080D01*
X586740D01*
X584200Y261620D01*
X581660Y259080D01*
X579120D01*
X581660Y256540D01*
X579120Y254000D01*
X581660D01*
X584200Y251460D01*
X558800D02*
X561340Y254000D01*
X563880D01*
X561340Y256540D01*
X563880Y259080D01*
X561340D01*
X558800Y261620D01*
X556260Y259080D01*
X553720D01*
X556260Y256540D01*
X553720Y254000D01*
X556260D01*
X558800Y251460D01*
X127400Y169400D02*
X122320Y179560D01*
X132480D01*
X127400Y169400D01*
X160020Y429260D02*
Y439420D01*
X170180D01*
Y429260D01*
X160020D01*
Y454660D02*
Y464820D01*
X170180D01*
Y454660D01*
X160020D01*
Y378460D02*
Y388620D01*
X170180D01*
Y378460D01*
X160020D01*
Y403860D02*
Y414020D01*
X170180D01*
Y403860D01*
X160020D01*
X904240Y408940D02*
Y419100D01*
X914400D01*
Y408940D01*
X904240D01*
Y434340D02*
Y444500D01*
X914400D01*
Y434340D01*
X904240D01*
Y358140D02*
Y368300D01*
X914400D01*
Y358140D01*
X904240D01*
Y383540D02*
Y393700D01*
X914400D01*
Y383540D01*
X904240D01*
X177800Y817880D02*
Y828040D01*
X187960D01*
Y817880D01*
X177800D01*
X203200D02*
Y828040D01*
X213360D01*
Y817880D01*
X203200D01*
X127000D02*
Y828040D01*
X137160D01*
Y817880D01*
X127000D01*
X152400D02*
Y828040D01*
X162560D01*
Y817880D01*
X152400D01*
X467360Y306070D02*
X472440Y311150D01*
X477520Y306070D01*
X472440Y300990D01*
X467360Y306070D01*
X871220Y752602D02*
X876300Y757682D01*
X881380Y752602D01*
X876300Y747522D01*
X871220Y752602D01*
X868680Y769620D02*
X873760Y774700D01*
X878840Y769620D01*
X873760Y764540D01*
X868680Y769620D01*
X881110Y274050D02*
X886190Y279130D01*
X891270Y274050D01*
X886190Y268970D01*
X881110Y274050D01*
X891540Y281940D02*
X896620Y287020D01*
X901700Y281940D01*
X896620Y276860D01*
X891540Y281940D01*
X467360Y289560D02*
X472440Y294640D01*
X477520Y289560D01*
X472440Y284480D01*
X467360Y289560D01*
X797560Y783971D02*
X802640Y789051D01*
X807720Y783971D01*
X802640Y778891D01*
X797560Y783971D01*
Y806958D02*
X802640Y812038D01*
X807720Y806958D01*
X802640Y801878D01*
X797560Y806958D01*
X612140Y581660D02*
X617220Y586740D01*
X622300Y581660D01*
X617220Y576580D01*
X612140Y581660D01*
X276860Y731520D02*
X281940Y736600D01*
X287020Y731520D01*
X281940Y726440D01*
X276860Y731520D01*
X708660Y563880D02*
X713740Y568960D01*
X718820Y563880D01*
X713740Y558800D01*
X708660Y563880D01*
X740410Y239395D02*
X745490Y244475D01*
X750570Y239395D01*
X745490Y234315D01*
X740410Y239395D01*
X723900Y238760D02*
X728980Y243840D01*
X734060Y238760D01*
X728980Y233680D01*
X723900Y238760D01*
X579120Y586740D02*
X584200Y591820D01*
X589280Y586740D01*
X584200Y581660D01*
X579120Y586740D01*
X391160Y779780D02*
X396240Y784860D01*
X401320Y779780D01*
X396240Y774700D01*
X391160Y779780D01*
X393700Y759460D02*
X398780Y764540D01*
X403860Y759460D01*
X398780Y754380D01*
X393700Y759460D01*
X449580Y260985D02*
X454660Y266065D01*
X459740Y260985D01*
X454660Y255905D01*
X449580Y260985D01*
X452120Y277495D02*
X457200Y282575D01*
X462280Y277495D01*
X457200Y272415D01*
X452120Y277495D01*
X296195Y308461D02*
X301275Y313541D01*
X306355Y308461D01*
X301275Y303381D01*
X296195Y308461D01*
X632460Y642620D02*
X637540Y647700D01*
X642620Y642620D01*
X637540Y637540D01*
X632460Y642620D01*
X701040Y645160D02*
X706120Y650240D01*
X711200Y645160D01*
X706120Y640080D01*
X701040Y645160D01*
X662940D02*
X668020Y650240D01*
X673100Y645160D01*
X668020Y640080D01*
X662940Y645160D01*
X698500Y444500D02*
X703580Y449580D01*
X708660Y444500D01*
X703580Y439420D01*
X698500Y444500D01*
X688340Y566420D02*
X693420Y571500D01*
X698500Y566420D01*
X693420Y561340D01*
X688340Y566420D01*
X335459Y736421D02*
X340539Y741501D01*
X345619Y736421D01*
X340539Y731341D01*
X335459Y736421D01*
X256540Y299720D02*
X261620Y304800D01*
X266700Y299720D01*
X261620Y294640D01*
X256540Y299720D01*
X271780Y284480D02*
X276860Y289560D01*
X281940Y284480D01*
X276860Y279400D01*
X271780Y284480D01*
X307340Y294640D02*
X312420Y299720D01*
X317500Y294640D01*
X312420Y289560D01*
X307340Y294640D01*
X109220Y50800D02*
X114300Y55880D01*
X119380Y50800D01*
X114300Y45720D01*
X109220Y50800D01*
X190500Y58420D02*
X195580Y63500D01*
X200660Y58420D01*
X195580Y53340D01*
X190500Y58420D01*
X501406Y235194D02*
X506486Y240274D01*
X511566Y235194D01*
X506486Y230114D01*
X501406Y235194D01*
X513080Y223520D02*
X518160Y228600D01*
X523240Y223520D01*
X518160Y218440D01*
X513080Y223520D01*
X640080Y353060D02*
X645160Y358140D01*
X650240Y353060D01*
X645160Y347980D01*
X640080Y353060D01*
X241300Y589534D02*
X246380Y594614D01*
X251460Y589534D01*
X246380Y584454D01*
X241300Y589534D01*
Y576580D02*
X246380Y581660D01*
X251460Y576580D01*
X246380Y571500D01*
X241300Y576580D01*
X243840Y469900D02*
X248920Y474980D01*
X254000Y469900D01*
X248920Y464820D01*
X243840Y469900D01*
X30480Y304800D02*
X35560Y309880D01*
X40640Y304800D01*
X35560Y299720D01*
X30480Y304800D01*
X25400Y350520D02*
X30480Y355600D01*
X35560Y350520D01*
X30480Y345440D01*
X25400Y350520D01*
Y383540D02*
X30480Y388620D01*
X35560Y383540D01*
X30480Y378460D01*
X25400Y383540D01*
D59*
X157480Y220980D02*
G03*
X157480Y220980I-5080J0D01*
G01*
X97480D02*
G03*
X97480Y220980I-5080J0D01*
G01*
M02*
