G04*
G04 #@! TF.GenerationSoftware,Altium Limited,Altium Designer,24.1.2 (44)*
G04*
G04 Layer_Color=255*
%FSLAX44Y44*%
%MOMM*%
G71*
G04*
G04 #@! TF.SameCoordinates,264AB7AF-67A9-449C-BE9F-4602C0ED76BB*
G04*
G04*
G04 #@! TF.FilePolarity,Positive*
G04*
G01*
G75*
%ADD50C,1.5240*%
%ADD51O,2.4000X1.2000*%
%ADD52C,1.2000*%
%ADD53C,1.7780*%
%ADD54C,1.6200*%
%ADD55C,1.6500*%
%ADD56O,2.0000X3.8000*%
%ADD57O,3.3000X1.8000*%
D50*
X787400Y256540D02*
D03*
X812800D02*
D03*
X838200D02*
D03*
X863600D02*
D03*
X889000D02*
D03*
X914400D02*
D03*
Y739140D02*
D03*
X889000D02*
D03*
X863600D02*
D03*
X838200D02*
D03*
X812800D02*
D03*
X787400D02*
D03*
X762000D02*
D03*
X736600D02*
D03*
X695960D02*
D03*
X670560D02*
D03*
X645160D02*
D03*
X619760D02*
D03*
X594360D02*
D03*
X568960D02*
D03*
X543560D02*
D03*
X518160D02*
D03*
X492760D02*
D03*
X467360D02*
D03*
X736600Y256540D02*
D03*
X711200D02*
D03*
X685800D02*
D03*
X660400D02*
D03*
X635000D02*
D03*
X609600D02*
D03*
X584200D02*
D03*
X558800D02*
D03*
D51*
X17462Y816980D02*
D03*
X64962D02*
D03*
Y742580D02*
D03*
X17462D02*
D03*
D52*
X73979Y763581D02*
D03*
Y779581D02*
D03*
X61941Y771582D02*
D03*
Y787582D02*
D03*
X73979Y795580D02*
D03*
D53*
X66040Y515620D02*
D03*
X40640D02*
D03*
X116840D02*
D03*
X91440D02*
D03*
X652780Y695960D02*
D03*
X678180D02*
D03*
X601980D02*
D03*
X627380D02*
D03*
X309880Y121920D02*
D03*
Y96520D02*
D03*
Y172720D02*
D03*
Y147320D02*
D03*
X53340Y650240D02*
D03*
Y624840D02*
D03*
Y701040D02*
D03*
Y675640D02*
D03*
X165100Y434340D02*
D03*
Y459740D02*
D03*
Y383540D02*
D03*
Y408940D02*
D03*
X909320Y414020D02*
D03*
Y439420D02*
D03*
Y363220D02*
D03*
Y388620D02*
D03*
X182880Y822960D02*
D03*
X208280D02*
D03*
X132080D02*
D03*
X157480D02*
D03*
D54*
X353060Y307340D02*
D03*
Y281940D02*
D03*
D55*
X259080Y218440D02*
D03*
Y243840D02*
D03*
Y269240D02*
D03*
D56*
X152400Y220980D02*
D03*
X92400D02*
D03*
D57*
X127400Y174480D02*
D03*
M02*
