G04*
G04 #@! TF.GenerationSoftware,Altium Limited,Altium Designer,24.1.2 (44)*
G04*
G04 Layer_Color=128*
%FSLAX25Y25*%
%MOIN*%
G70*
G04*
G04 #@! TF.SameCoordinates,DF6D4255-D543-4343-BE3F-48429236DA3E*
G04*
G04*
G04 #@! TF.FilePolarity,Positive*
G04*
G01*
G75*
%ADD13C,0.00500*%
D13*
X43811Y161693D02*
X47748D01*
X45779Y159724D02*
Y163661D01*
X29638Y180000D02*
X34362D01*
X32000Y177638D02*
Y182362D01*
X53260Y180000D02*
X57984D01*
X55622Y177638D02*
Y182362D01*
X34000Y136000D02*
X38000D01*
X36000Y134000D02*
Y138000D01*
X44000Y136000D02*
X48000D01*
X46000Y134000D02*
Y138000D01*
X14000Y136000D02*
X18000D01*
X16000Y134000D02*
Y138000D01*
X24000Y136000D02*
X28000D01*
X26000Y134000D02*
Y138000D01*
X168000Y29000D02*
X172000D01*
X170000Y27000D02*
Y31000D01*
X168000Y19000D02*
X172000D01*
X170000Y17000D02*
Y21000D01*
X168000Y49000D02*
X172000D01*
X170000Y47000D02*
Y51000D01*
X168000Y39000D02*
X172000D01*
X170000Y37000D02*
Y41000D01*
X107992Y126000D02*
X112008D01*
X110000Y123992D02*
Y128008D01*
X107992Y136000D02*
X112008D01*
X110000Y133992D02*
Y138008D01*
X167992Y92000D02*
X172008D01*
X170000Y89992D02*
Y94008D01*
X177992Y92000D02*
X182008D01*
X180000Y89992D02*
Y94008D01*
X330000Y25000D02*
X334000D01*
X332000Y23000D02*
Y27000D01*
X330000Y15000D02*
X334000D01*
X332000Y13000D02*
Y17000D01*
X330000Y45000D02*
X334000D01*
X332000Y43000D02*
Y47000D01*
X330000Y35000D02*
X334000D01*
X332000Y33000D02*
Y37000D01*
X95350Y87000D02*
X96650D01*
X96000Y86350D02*
Y87650D01*
X99350Y78000D02*
X100650D01*
X100000Y77350D02*
Y78650D01*
X127350Y47000D02*
X128650D01*
X128000Y46350D02*
Y47650D01*
X127350Y61000D02*
X128650D01*
X128000Y60350D02*
Y61650D01*
X179350Y173000D02*
X180650D01*
X180000Y172350D02*
Y173650D01*
X85350Y157000D02*
X86650D01*
X86000Y156350D02*
Y157650D01*
X73350Y90000D02*
X74650D01*
X74000Y89350D02*
Y90650D01*
X305350Y37000D02*
X306650D01*
X306000Y36350D02*
Y37650D01*
X277350Y38000D02*
X278650D01*
X278000Y37350D02*
Y38650D01*
X247350Y38000D02*
X248650D01*
X248000Y37350D02*
Y38650D01*
X217350Y38000D02*
X218650D01*
X218000Y37350D02*
Y38650D01*
X148350Y92000D02*
X149650D01*
X149000Y91350D02*
Y92650D01*
X46350Y21000D02*
X47650D01*
X47000Y20350D02*
Y21650D01*
M02*
