G04*
G04 #@! TF.GenerationSoftware,Altium Limited,Altium Designer,24.1.2 (44)*
G04*
G04 Layer_Color=65535*
%FSLAX25Y25*%
%MOIN*%
G70*
G04*
G04 #@! TF.SameCoordinates,DF6D4255-D543-4343-BE3F-48429236DA3E*
G04*
G04*
G04 #@! TF.FilePolarity,Positive*
G04*
G01*
G75*
%ADD10C,0.01575*%
%ADD11C,0.01181*%
%ADD12C,0.02000*%
%ADD13C,0.00500*%
%ADD14C,0.01000*%
%ADD15C,0.01500*%
%ADD16C,0.00787*%
%ADD17C,0.00600*%
%ADD18C,0.00787*%
D10*
X66610Y179900D02*
G03*
X66610Y179900I-787J0D01*
G01*
D11*
X96794Y89300D02*
G03*
X96794Y89300I-394J0D01*
G01*
D12*
X87764Y93500D02*
G03*
X87764Y93500I-492J0D01*
G01*
X110345Y114589D02*
G03*
X110345Y114589I-500J0D01*
G01*
X159089Y92155D02*
G03*
X159089Y92155I-500J0D01*
G01*
D13*
X53722Y162284D02*
X58469D01*
Y171300D01*
X1776Y162284D02*
Y197716D01*
X58469D01*
Y189500D02*
Y197716D01*
X1776Y162284D02*
X37012D01*
D14*
X32091Y180000D02*
X32122D01*
X23750Y129500D02*
X28250D01*
X26000D02*
Y130527D01*
X24750Y128000D02*
X27250D01*
X25523Y126500D02*
X26250D01*
X33750Y129500D02*
X38250D01*
X36000D02*
Y130527D01*
X34750Y128000D02*
X37250D01*
X35523Y126500D02*
X36250D01*
X43750Y129500D02*
X48250D01*
X46000D02*
Y130527D01*
X44750Y128000D02*
X47250D01*
X45523Y126500D02*
X46250D01*
X163500Y36750D02*
Y41250D01*
Y39000D02*
X164527D01*
X162000Y37750D02*
Y40250D01*
X160500Y38750D02*
Y39477D01*
X163500Y26750D02*
Y31250D01*
Y29000D02*
X164527D01*
X162000Y27750D02*
Y30250D01*
X160500Y28750D02*
Y29477D01*
X163500Y16750D02*
Y21250D01*
Y19000D02*
X164527D01*
X162000Y17750D02*
Y20250D01*
X160500Y18750D02*
Y19477D01*
X130900Y172400D02*
Y178000D01*
X302400Y77100D02*
X308000D01*
X274400Y78000D02*
X280000D01*
X244400Y78100D02*
X250000D01*
X215400D02*
X221000D01*
X341500Y44523D02*
Y45250D01*
X340000Y43750D02*
Y46250D01*
X337473Y45000D02*
X338500D01*
Y42750D02*
Y47250D01*
X341500Y34523D02*
Y35250D01*
X340000Y33750D02*
Y36250D01*
X337473Y35000D02*
X338500D01*
Y32750D02*
Y37250D01*
X341500Y24523D02*
Y25250D01*
X340000Y23750D02*
Y26250D01*
X337473Y25000D02*
X338500D01*
Y22750D02*
Y27250D01*
X303666Y29999D02*
X301000D01*
Y27999D01*
X302333Y28666D01*
X302999D01*
X303666Y27999D01*
Y26666D01*
X302999Y26000D01*
X301666D01*
X301000Y26666D01*
X304999Y29332D02*
X305665Y29999D01*
X306998D01*
X307664Y29332D01*
Y26666D01*
X306998Y26000D01*
X305665D01*
X304999Y26666D01*
Y29332D01*
X276000D02*
X276666Y29999D01*
X277999D01*
X278666Y29332D01*
Y28666D01*
X277999Y27999D01*
X277333D01*
X277999D01*
X278666Y27333D01*
Y26666D01*
X277999Y26000D01*
X276666D01*
X276000Y26666D01*
X279999Y29332D02*
X280665Y29999D01*
X281998D01*
X282664Y29332D01*
Y26666D01*
X281998Y26000D01*
X280665D01*
X279999Y26666D01*
Y29332D01*
X283997D02*
X284664Y29999D01*
X285997D01*
X286663Y29332D01*
Y26666D01*
X285997Y26000D01*
X284664D01*
X283997Y26666D01*
Y29332D01*
X241000Y26000D02*
X242333D01*
X241666D01*
Y29999D01*
X241000Y29332D01*
X244332Y26000D02*
Y29999D01*
Y27333D02*
X246332Y28666D01*
X244332Y27333D02*
X246332Y26000D01*
X206000D02*
X207333D01*
X206666D01*
Y29999D01*
X206000Y29332D01*
X209332D02*
X209999Y29999D01*
X211332D01*
X211998Y29332D01*
Y26666D01*
X211332Y26000D01*
X209999D01*
X209332Y26666D01*
Y29332D01*
X213331Y26000D02*
Y29999D01*
Y27333D02*
X215330Y28666D01*
X213331Y27333D02*
X215330Y26000D01*
X123666Y164999D02*
X121000D01*
Y162999D01*
X122333Y163666D01*
X122999D01*
X123666Y162999D01*
Y161667D01*
X122999Y161000D01*
X121667D01*
X121000Y161667D01*
X124999Y163666D02*
X126332Y161000D01*
X127664Y163666D01*
X133663Y161000D02*
X134995D01*
X135662Y161667D01*
Y162999D01*
X134995Y163666D01*
X133663D01*
X132996Y162999D01*
Y161667D01*
X133663Y161000D01*
X136995D02*
Y163666D01*
X138994D01*
X139661Y162999D01*
Y161000D01*
X339000Y66000D02*
Y67333D01*
Y66666D01*
X335001D01*
X335668Y66000D01*
X339000Y69332D02*
X335001D01*
X337667D02*
X336334Y71332D01*
X337667Y69332D02*
X339000Y71332D01*
X336334Y77330D02*
X339000D01*
X337667D01*
X337001Y77996D01*
X336334Y78663D01*
Y79329D01*
X339000Y83328D02*
Y81995D01*
X338334Y81328D01*
X337001D01*
X336334Y81995D01*
Y83328D01*
X337001Y83994D01*
X337667D01*
Y81328D01*
X339000Y85327D02*
Y87326D01*
X338334Y87993D01*
X337667Y87326D01*
Y85994D01*
X337001Y85327D01*
X336334Y85994D01*
Y87993D01*
X339000Y89326D02*
Y90659D01*
Y89992D01*
X336334D01*
Y89326D01*
X339000Y92658D02*
Y94657D01*
X338334Y95324D01*
X337667Y94657D01*
Y93325D01*
X337001Y92658D01*
X336334Y93325D01*
Y95324D01*
X335668Y97323D02*
X336334D01*
Y96657D01*
Y97990D01*
Y97323D01*
X338334D01*
X339000Y97990D01*
Y100655D02*
Y101988D01*
X338334Y102655D01*
X337001D01*
X336334Y101988D01*
Y100655D01*
X337001Y99989D01*
X338334D01*
X339000Y100655D01*
X336334Y103988D02*
X339000D01*
X337667D01*
X337001Y104654D01*
X336334Y105321D01*
Y105987D01*
X141003Y19999D02*
Y16000D01*
X144002D01*
X143002Y17999D01*
Y18999D01*
X144002Y19999D01*
X146001D01*
X147001Y18999D01*
Y17000D01*
X146001Y16000D01*
X141003Y25997D02*
Y21998D01*
X144002D01*
X143002Y23997D01*
Y24997D01*
X144002Y25997D01*
X146001D01*
X147001Y24997D01*
Y22998D01*
X146001Y21998D01*
X141003Y31995D02*
Y27996D01*
X144002D01*
X143002Y29996D01*
Y30995D01*
X144002Y31995D01*
X146001D01*
X147001Y30995D01*
Y28996D01*
X146001Y27996D01*
X147001Y40992D02*
Y42991D01*
X146001Y43991D01*
X144002D01*
X143002Y42991D01*
Y40992D01*
X144002Y39992D01*
X146001D01*
X147001Y40992D01*
X143002Y45990D02*
X146001D01*
X147001Y46990D01*
Y49989D01*
X143002D01*
X142002Y52988D02*
X143002D01*
Y51988D01*
Y53988D01*
Y52988D01*
X146001D01*
X147001Y53988D01*
X149000Y56987D02*
X143002D01*
Y59986D01*
X144002Y60985D01*
X146001D01*
X147001Y59986D01*
Y56987D01*
X143002Y62985D02*
X146001D01*
X147001Y63985D01*
Y66983D01*
X143002D01*
X142002Y69982D02*
X143002D01*
Y68983D01*
Y70982D01*
Y69982D01*
X146001D01*
X147001Y70982D01*
X124999Y131998D02*
X121000D01*
Y128999D01*
X122999Y129999D01*
X123999D01*
X124999Y128999D01*
Y127000D01*
X123999Y126000D01*
X122000D01*
X121000Y127000D01*
X130997Y131998D02*
X126998D01*
Y128999D01*
X128997Y129999D01*
X129997D01*
X130997Y128999D01*
Y127000D01*
X129997Y126000D01*
X127998D01*
X126998Y127000D01*
X136995Y131998D02*
X132996D01*
Y128999D01*
X134995Y129999D01*
X135995D01*
X136995Y128999D01*
Y127000D01*
X135995Y126000D01*
X133996D01*
X132996Y127000D01*
X145992Y126000D02*
X147991D01*
X148991Y127000D01*
Y128999D01*
X147991Y129999D01*
X145992D01*
X144992Y128999D01*
Y127000D01*
X145992Y126000D01*
X150990D02*
Y129999D01*
X153989D01*
X154989Y128999D01*
Y126000D01*
X156988D02*
X160987Y129999D01*
X163986Y126000D02*
X165985D01*
X166985Y127000D01*
Y128999D01*
X165985Y129999D01*
X163986D01*
X162986Y128999D01*
Y127000D01*
X163986Y126000D01*
X169984D02*
Y130998D01*
Y128999D01*
X168984D01*
X170984D01*
X169984D01*
Y130998D01*
X170984Y131998D01*
X174983Y126000D02*
Y130998D01*
Y128999D01*
X173983D01*
X175982D01*
X174983D01*
Y130998D01*
X175982Y131998D01*
X64999Y141998D02*
X61000D01*
Y138999D01*
X62999Y139999D01*
X63999D01*
X64999Y138999D01*
Y137000D01*
X63999Y136000D01*
X62000D01*
X61000Y137000D01*
X66998Y139999D02*
X68997Y136000D01*
X70997Y139999D01*
X209999Y142998D02*
X206000D01*
Y137000D01*
X209999D01*
X206000Y139999D02*
X207999D01*
X215997Y141998D02*
X214997Y142998D01*
X212998D01*
X211998Y141998D01*
Y137999D01*
X212998Y137000D01*
X214997D01*
X215997Y137999D01*
X221995Y142998D02*
X217996D01*
Y137000D01*
X221995D01*
X217996Y139999D02*
X219995D01*
X223994Y137000D02*
Y142998D01*
X227993Y137000D01*
Y142998D01*
X233991D02*
X229992D01*
Y139999D01*
X231992Y140998D01*
X232991D01*
X233991Y139999D01*
Y137999D01*
X232991Y137000D01*
X230992D01*
X229992Y137999D01*
X235990Y142998D02*
X239989D01*
Y141998D01*
X235990Y137999D01*
Y137000D01*
X241988Y141998D02*
X242988Y142998D01*
X244987D01*
X245987Y141998D01*
Y140998D01*
X244987Y139999D01*
X243988D01*
X244987D01*
X245987Y138999D01*
Y137999D01*
X244987Y137000D01*
X242988D01*
X241988Y137999D01*
X247986Y141998D02*
X248986Y142998D01*
X250985D01*
X251985Y141998D01*
Y137999D01*
X250985Y137000D01*
X248986D01*
X247986Y137999D01*
Y141998D01*
X253984Y136000D02*
X257983D01*
X259982Y142998D02*
Y137000D01*
X262982D01*
X263981Y137999D01*
Y138999D01*
Y139999D01*
X262982Y140998D01*
X259982D01*
X265981D02*
Y137000D01*
Y138999D01*
X266980Y139999D01*
X267980Y140998D01*
X268980D01*
X275977Y142998D02*
Y137000D01*
X272978D01*
X271979Y137999D01*
Y139999D01*
X272978Y140998D01*
X275977D01*
X277977Y137000D02*
X279976D01*
X278976D01*
Y142998D01*
X277977Y141998D01*
X283975Y140998D02*
X285974D01*
X286974Y139999D01*
Y137000D01*
X283975D01*
X282975Y137999D01*
X283975Y138999D01*
X286974D01*
X288973Y136000D02*
X292972D01*
X294971Y137999D02*
X295971Y137000D01*
X297970D01*
X298970Y137999D01*
Y141998D01*
X297970Y142998D01*
X295971D01*
X294971Y141998D01*
Y140998D01*
X295971Y139999D01*
X298970D01*
X300969D02*
X304968D01*
X309966Y137000D02*
Y142998D01*
X306967Y139999D01*
X310966D01*
X312965D02*
X316964D01*
X322962Y137000D02*
X318964D01*
X322962Y140998D01*
Y141998D01*
X321962Y142998D01*
X319963D01*
X318964Y141998D01*
X324961D02*
X325961Y142998D01*
X327961D01*
X328960Y141998D01*
Y137999D01*
X327961Y137000D01*
X325961D01*
X324961Y137999D01*
Y141998D01*
X334958Y137000D02*
X330960D01*
X334958Y140998D01*
Y141998D01*
X333959Y142998D01*
X331959D01*
X330960Y141998D01*
X339957Y137000D02*
Y142998D01*
X336958Y139999D01*
X340956D01*
X215997Y155998D02*
X214997Y156998D01*
X212998D01*
X211998Y155998D01*
Y152000D01*
X212998Y151000D01*
X214997D01*
X215997Y152000D01*
Y153999D01*
X213997D01*
X218996Y154999D02*
X220995D01*
X221995Y153999D01*
Y151000D01*
X218996D01*
X217996Y152000D01*
X218996Y152999D01*
X221995D01*
X223994Y154999D02*
X225993Y151000D01*
X227993Y154999D01*
X229992Y151000D02*
X231992D01*
X230992D01*
Y154999D01*
X229992D01*
X234991Y151000D02*
Y154999D01*
X237990D01*
X238989Y153999D01*
Y151000D01*
X246987Y156998D02*
Y152000D01*
X247986Y151000D01*
X249986D01*
X250985Y152000D01*
Y156998D01*
X252985Y151000D02*
Y154999D01*
X255984D01*
X256983Y153999D01*
Y151000D01*
X258983Y154999D02*
Y151000D01*
Y152999D01*
X259982Y153999D01*
X260982Y154999D01*
X261982D01*
X264981D02*
Y152000D01*
X265981Y151000D01*
X268980D01*
Y154999D01*
X273978Y151000D02*
X271979D01*
X270979Y152000D01*
Y153999D01*
X271979Y154999D01*
X273978D01*
X274978Y153999D01*
Y152999D01*
X270979D01*
X282975Y152000D02*
X283975Y151000D01*
X285974D01*
X286974Y152000D01*
Y155998D01*
X285974Y156998D01*
X283975D01*
X282975Y155998D01*
Y154999D01*
X283975Y153999D01*
X286974D01*
X288973D02*
X292972D01*
X297970Y151000D02*
Y156998D01*
X294971Y153999D01*
X298970D01*
X300969D02*
X304968D01*
X310966Y151000D02*
X306967D01*
X310966Y154999D01*
Y155998D01*
X309966Y156998D01*
X307967D01*
X306967Y155998D01*
X312965D02*
X313965Y156998D01*
X315964D01*
X316964Y155998D01*
Y152000D01*
X315964Y151000D01*
X313965D01*
X312965Y152000D01*
Y155998D01*
X322962Y151000D02*
X318964D01*
X322962Y154999D01*
Y155998D01*
X321962Y156998D01*
X319963D01*
X318964Y155998D01*
X327961Y151000D02*
Y156998D01*
X324961Y153999D01*
X328960D01*
X214999Y171998D02*
X211000D01*
Y166000D01*
X214999D01*
X211000Y168999D02*
X212999D01*
X220997Y170998D02*
X219997Y171998D01*
X217998D01*
X216998Y170998D01*
Y167000D01*
X217998Y166000D01*
X219997D01*
X220997Y167000D01*
X226995Y171998D02*
X222996D01*
Y166000D01*
X226995D01*
X222996Y168999D02*
X224995D01*
X228994Y166000D02*
Y171998D01*
X232993Y166000D01*
Y171998D01*
X244989D02*
X240990D01*
Y168999D01*
X242990Y169999D01*
X243989D01*
X244989Y168999D01*
Y167000D01*
X243989Y166000D01*
X241990D01*
X240990Y167000D01*
X246988Y171998D02*
X250987D01*
Y170998D01*
X246988Y167000D01*
Y166000D01*
X252986Y170998D02*
X253986Y171998D01*
X255985D01*
X256985Y170998D01*
Y169999D01*
X255985Y168999D01*
X254986D01*
X255985D01*
X256985Y167999D01*
Y167000D01*
X255985Y166000D01*
X253986D01*
X252986Y167000D01*
X258984Y170998D02*
X259984Y171998D01*
X261983D01*
X262983Y170998D01*
Y167000D01*
X261983Y166000D01*
X259984D01*
X258984Y167000D01*
Y170998D01*
X270981Y171998D02*
X274979D01*
X272980D01*
Y166000D01*
X276979D02*
X278978D01*
X277978D01*
Y169999D01*
X276979D01*
X281977Y166000D02*
Y169999D01*
X282977D01*
X283976Y168999D01*
Y166000D01*
Y168999D01*
X284976Y169999D01*
X285976Y168999D01*
Y166000D01*
X290974D02*
X288975D01*
X287975Y167000D01*
Y168999D01*
X288975Y169999D01*
X290974D01*
X291974Y168999D01*
Y167999D01*
X287975D01*
X293973Y169999D02*
Y166000D01*
Y167999D01*
X294973Y168999D01*
X295972Y169999D01*
X296972D01*
X305969Y171998D02*
Y166000D01*
X308968D01*
X309968Y167000D01*
Y167999D01*
Y168999D01*
X308968Y169999D01*
X305969D01*
X312967Y166000D02*
X314966D01*
X315966Y167000D01*
Y168999D01*
X314966Y169999D01*
X312967D01*
X311967Y168999D01*
Y167000D01*
X312967Y166000D01*
X318965Y169999D02*
X320964D01*
X321964Y168999D01*
Y166000D01*
X318965D01*
X317965Y167000D01*
X318965Y167999D01*
X321964D01*
X323963Y169999D02*
Y166000D01*
Y167999D01*
X324963Y168999D01*
X325963Y169999D01*
X326962D01*
X333960Y171998D02*
Y166000D01*
X330961D01*
X329961Y167000D01*
Y168999D01*
X330961Y169999D01*
X333960D01*
X80000Y103998D02*
Y99000D01*
X81000Y98000D01*
X82999D01*
X83999Y99000D01*
Y103998D01*
X85998Y98000D02*
X87997D01*
X86998D01*
Y103998D01*
X85998Y102998D01*
X326800Y60798D02*
X330799D01*
X328799D01*
Y54800D01*
X332798D02*
Y60798D01*
X335797D01*
X336797Y59798D01*
Y57799D01*
X335797Y56799D01*
X332798D01*
X338796Y59798D02*
X339796Y60798D01*
X341795D01*
X342795Y59798D01*
Y58799D01*
X341795Y57799D01*
X340795D01*
X341795D01*
X342795Y56799D01*
Y55800D01*
X341795Y54800D01*
X339796D01*
X338796Y55800D01*
X161000Y64798D02*
X164999D01*
X162999D01*
Y58800D01*
X166998D02*
Y64798D01*
X169997D01*
X170997Y63798D01*
Y61799D01*
X169997Y60799D01*
X166998D01*
X176995Y58800D02*
X172996D01*
X176995Y62799D01*
Y63798D01*
X175995Y64798D01*
X173996D01*
X172996Y63798D01*
X8002Y157999D02*
X12001D01*
X10002D01*
Y152001D01*
X14000D02*
Y157999D01*
X16999D01*
X17999Y156999D01*
Y155000D01*
X16999Y154000D01*
X14000D01*
X19998Y152001D02*
X21998D01*
X20998D01*
Y157999D01*
X19998Y156999D01*
X162099Y105398D02*
X161099Y106398D01*
X159100D01*
X158100Y105398D01*
Y104399D01*
X159100Y103399D01*
X161099D01*
X162099Y102399D01*
Y101400D01*
X161099Y100400D01*
X159100D01*
X158100Y101400D01*
X164098Y106398D02*
Y100400D01*
X166097Y102399D01*
X168097Y100400D01*
Y106398D01*
X174095Y100400D02*
X170096D01*
X174095Y104399D01*
Y105398D01*
X173095Y106398D01*
X171096D01*
X170096Y105398D01*
X109599Y151198D02*
X108599Y152198D01*
X106600D01*
X105600Y151198D01*
Y150199D01*
X106600Y149199D01*
X108599D01*
X109599Y148199D01*
Y147200D01*
X108599Y146200D01*
X106600D01*
X105600Y147200D01*
X111598Y152198D02*
Y146200D01*
X113597Y148199D01*
X115597Y146200D01*
Y152198D01*
X117596Y146200D02*
X119596D01*
X118596D01*
Y152198D01*
X117596Y151198D01*
X302200Y65500D02*
Y71498D01*
X305199D01*
X306199Y70498D01*
Y68499D01*
X305199Y67499D01*
X302200D01*
X304199D02*
X306199Y65500D01*
X308198Y71498D02*
X312197D01*
Y70498D01*
X308198Y66500D01*
Y65500D01*
X274200D02*
Y71498D01*
X277199D01*
X278199Y70498D01*
Y68499D01*
X277199Y67499D01*
X274200D01*
X276199D02*
X278199Y65500D01*
X284197Y71498D02*
X282197Y70498D01*
X280198Y68499D01*
Y66500D01*
X281198Y65500D01*
X283197D01*
X284197Y66500D01*
Y67499D01*
X283197Y68499D01*
X280198D01*
X214200Y65500D02*
Y71498D01*
X217199D01*
X218199Y70498D01*
Y68499D01*
X217199Y67499D01*
X214200D01*
X216199D02*
X218199Y65500D01*
X224197Y71498D02*
X220198D01*
Y68499D01*
X222197Y69499D01*
X223197D01*
X224197Y68499D01*
Y66500D01*
X223197Y65500D01*
X221198D01*
X220198Y66500D01*
X244200Y65500D02*
Y71498D01*
X247199D01*
X248199Y70498D01*
Y68499D01*
X247199Y67499D01*
X244200D01*
X246199D02*
X248199Y65500D01*
X253197D02*
Y71498D01*
X250198Y68499D01*
X254197D01*
X44200Y80450D02*
Y86448D01*
X47199D01*
X48199Y85448D01*
Y83449D01*
X47199Y82449D01*
X44200D01*
X46199D02*
X48199Y80450D01*
X50198Y85448D02*
X51198Y86448D01*
X53197D01*
X54197Y85448D01*
Y84449D01*
X53197Y83449D01*
X52197D01*
X53197D01*
X54197Y82449D01*
Y81450D01*
X53197Y80450D01*
X51198D01*
X50198Y81450D01*
X44200Y113400D02*
Y119398D01*
X47199D01*
X48199Y118398D01*
Y116399D01*
X47199Y115399D01*
X44200D01*
X46199D02*
X48199Y113400D01*
X54197D02*
X50198D01*
X54197Y117399D01*
Y118398D01*
X53197Y119398D01*
X51198D01*
X50198Y118398D01*
X150500Y180800D02*
Y186798D01*
X153499D01*
X154499Y185798D01*
Y183799D01*
X153499Y182799D01*
X150500D01*
X152499D02*
X154499Y180800D01*
X156498D02*
X158497D01*
X157498D01*
Y186798D01*
X156498Y185798D01*
X10001Y184001D02*
Y189999D01*
X13000D01*
X14000Y188999D01*
Y187000D01*
X13000Y186000D01*
X10001D01*
X15999Y184001D02*
X17999D01*
X16999D01*
Y189999D01*
X15999Y188999D01*
X213600Y105498D02*
Y99500D01*
X217599D01*
X223597Y105498D02*
X219598D01*
Y99500D01*
X223597D01*
X219598Y102499D02*
X221597D01*
X225596Y105498D02*
Y99500D01*
X228595D01*
X229595Y100500D01*
Y104498D01*
X228595Y105498D01*
X225596D01*
X235593D02*
X231594D01*
Y102499D01*
X233594Y103499D01*
X234593D01*
X235593Y102499D01*
Y100500D01*
X234593Y99500D01*
X232594D01*
X231594Y100500D01*
X242600Y105498D02*
Y99500D01*
X246599D01*
X252597Y105498D02*
X248598D01*
Y99500D01*
X252597D01*
X248598Y102499D02*
X250597D01*
X254596Y105498D02*
Y99500D01*
X257595D01*
X258595Y100500D01*
Y104498D01*
X257595Y105498D01*
X254596D01*
X263593Y99500D02*
Y105498D01*
X260594Y102499D01*
X264593D01*
X300600Y104498D02*
Y98500D01*
X304599D01*
X310597Y104498D02*
X306598D01*
Y98500D01*
X310597D01*
X306598Y101499D02*
X308597D01*
X312596Y104498D02*
Y98500D01*
X315595D01*
X316595Y99500D01*
Y103498D01*
X315595Y104498D01*
X312596D01*
X318594Y103498D02*
X319594Y104498D01*
X321593D01*
X322593Y103498D01*
Y102499D01*
X321593Y101499D01*
X320594D01*
X321593D01*
X322593Y100499D01*
Y99500D01*
X321593Y98500D01*
X319594D01*
X318594Y99500D01*
X272600Y105398D02*
Y99400D01*
X276599D01*
X282597Y105398D02*
X278598D01*
Y99400D01*
X282597D01*
X278598Y102399D02*
X280597D01*
X284596Y105398D02*
Y99400D01*
X287595D01*
X288595Y100400D01*
Y104398D01*
X287595Y105398D01*
X284596D01*
X294593Y99400D02*
X290594D01*
X294593Y103399D01*
Y104398D01*
X293593Y105398D01*
X291594D01*
X290594Y104398D01*
X113500Y189398D02*
Y183400D01*
X117499D01*
X123497Y189398D02*
X119498D01*
Y183400D01*
X123497D01*
X119498Y186399D02*
X121497D01*
X125496Y189398D02*
Y183400D01*
X128495D01*
X129495Y184400D01*
Y188398D01*
X128495Y189398D01*
X125496D01*
X131494Y183400D02*
X133493D01*
X132494D01*
Y189398D01*
X131494Y188398D01*
X132499Y103998D02*
X131499Y104998D01*
X129500D01*
X128500Y103998D01*
Y100000D01*
X129500Y99000D01*
X131499D01*
X132499Y100000D01*
X134498Y103998D02*
X135498Y104998D01*
X137497D01*
X138497Y103998D01*
Y102999D01*
X137497Y101999D01*
X136497D01*
X137497D01*
X138497Y100999D01*
Y100000D01*
X137497Y99000D01*
X135498D01*
X134498Y100000D01*
X48160Y52498D02*
X47161Y53498D01*
X45162D01*
X44162Y52498D01*
Y48500D01*
X45162Y47500D01*
X47161D01*
X48160Y48500D01*
X54159Y47500D02*
X50160D01*
X54159Y51499D01*
Y52498D01*
X53159Y53498D01*
X51160D01*
X50160Y52498D01*
X86999Y188398D02*
X85999Y189398D01*
X84000D01*
X83000Y188398D01*
Y184400D01*
X84000Y183400D01*
X85999D01*
X86999Y184400D01*
X88998Y183400D02*
X90997D01*
X89998D01*
Y189398D01*
X88998Y188398D01*
D15*
X10000Y130500D02*
X20500D01*
X10000D02*
Y141500D01*
X50500Y130500D02*
X52000D01*
Y141500D01*
X10000D02*
X52000D01*
X164500Y44500D02*
Y55000D01*
X175500D01*
X164500Y13000D02*
Y14500D01*
Y13000D02*
X175500D01*
Y55000D01*
X326500Y9000D02*
Y51000D01*
X337500D01*
Y49500D02*
Y51000D01*
X326500Y9000D02*
X337500D01*
Y19500D01*
D16*
X91700Y71100D02*
X104298D01*
X91702Y92900D02*
X104300D01*
D17*
X89500Y170000D02*
Y173800D01*
X82500Y170000D02*
Y173800D01*
X115600Y180118D02*
X126600D01*
X115700Y169882D02*
X126700D01*
X156100Y168512D02*
X159900D01*
X156100Y177488D02*
X159900D01*
X134100Y88500D02*
X137900D01*
X134100Y95500D02*
X137900D01*
X43512Y100000D02*
Y103800D01*
X52488Y100000D02*
Y103800D01*
X43512Y67050D02*
Y70850D01*
X52488Y67050D02*
Y70850D01*
X310118Y81400D02*
Y92400D01*
X299882Y81300D02*
Y92300D01*
X282118Y82300D02*
Y93300D01*
X271882Y82200D02*
Y93200D01*
X252118Y82400D02*
Y93400D01*
X241882Y82300D02*
Y93300D01*
X223118Y82400D02*
Y93400D01*
X212882Y82300D02*
Y93300D01*
X243512Y52100D02*
Y55900D01*
X252488Y52100D02*
Y55900D01*
X301512Y52100D02*
Y55900D01*
X310488Y52100D02*
Y55900D01*
X213512Y52100D02*
Y55900D01*
X222488Y52100D02*
Y55900D01*
X273512Y52100D02*
Y55900D01*
X282488Y52100D02*
Y55900D01*
X50662Y34100D02*
Y37900D01*
X43662Y34100D02*
Y37900D01*
D18*
X105035Y142772D02*
X115000D01*
X105035Y119228D02*
Y142772D01*
Y119228D02*
X115000D01*
Y142772D01*
X186772Y87000D02*
Y96965D01*
X163228D02*
X186772D01*
X163228Y87000D02*
Y96965D01*
Y87000D02*
X186772D01*
M02*
