G04*
G04 #@! TF.GenerationSoftware,Altium Limited,Altium Designer,24.1.2 (44)*
G04*
G04 Layer_Physical_Order=2*
G04 Layer_Color=16711680*
%FSLAX25Y25*%
%MOIN*%
G70*
G04*
G04 #@! TF.SameCoordinates,DF6D4255-D543-4343-BE3F-48429236DA3E*
G04*
G04*
G04 #@! TF.FilePolarity,Positive*
G04*
G01*
G75*
%ADD17C,0.00600*%
%ADD31O,0.12992X0.07087*%
%ADD32O,0.07874X0.14961*%
%ADD33C,0.07000*%
%ADD34C,0.06378*%
%ADD35C,0.02500*%
G36*
X347961Y2039D02*
X2039D01*
Y197961D01*
X347961D01*
Y2039D01*
D02*
G37*
%LPC*%
G36*
X32500Y188457D02*
Y180500D01*
X36980D01*
Y183543D01*
X36810Y184832D01*
X36312Y186033D01*
X35521Y187064D01*
X34490Y187856D01*
X33289Y188353D01*
X32500Y188457D01*
D02*
G37*
G36*
X31500D02*
X30711Y188353D01*
X29510Y187856D01*
X28479Y187064D01*
X27687Y186033D01*
X27190Y184832D01*
X27020Y183543D01*
Y180500D01*
X31500D01*
Y188457D01*
D02*
G37*
G36*
X36980Y179500D02*
X32500D01*
Y171543D01*
X33289Y171647D01*
X34490Y172144D01*
X35521Y172936D01*
X36312Y173967D01*
X36810Y175168D01*
X36980Y176457D01*
Y179500D01*
D02*
G37*
G36*
X31500D02*
X27020D01*
Y176457D01*
X27190Y175168D01*
X27687Y173967D01*
X28479Y172936D01*
X29510Y172144D01*
X30711Y171647D01*
X31500Y171543D01*
Y179500D01*
D02*
G37*
G36*
X55622Y188523D02*
X54333Y188353D01*
X53132Y187856D01*
X52101Y187064D01*
X51310Y186033D01*
X50812Y184832D01*
X50642Y183543D01*
Y176457D01*
X50812Y175168D01*
X51310Y173967D01*
X52101Y172936D01*
X53132Y172144D01*
X54333Y171647D01*
X55622Y171477D01*
X56911Y171647D01*
X58112Y172144D01*
X59143Y172936D01*
X59935Y173967D01*
X60432Y175168D01*
X60602Y176457D01*
Y183543D01*
X60432Y184832D01*
X59935Y186033D01*
X59143Y187064D01*
X58112Y187856D01*
X56911Y188353D01*
X55622Y188523D01*
D02*
G37*
G36*
X48732Y166275D02*
X46279D01*
Y162193D01*
X53249D01*
X53159Y162879D01*
X52701Y163984D01*
X51973Y164933D01*
X51024Y165662D01*
X49918Y166119D01*
X48732Y166275D01*
D02*
G37*
G36*
X45279D02*
X42827D01*
X41641Y166119D01*
X40536Y165662D01*
X39586Y164933D01*
X38858Y163984D01*
X38400Y162879D01*
X38310Y162193D01*
X45279D01*
Y166275D01*
D02*
G37*
G36*
X53249Y161193D02*
X46279D01*
Y157110D01*
X48732D01*
X49918Y157267D01*
X51024Y157724D01*
X51973Y158453D01*
X52701Y159402D01*
X53159Y160507D01*
X53249Y161193D01*
D02*
G37*
G36*
X45279D02*
X38310D01*
X38400Y160507D01*
X38858Y159402D01*
X39586Y158453D01*
X40536Y157724D01*
X41641Y157267D01*
X42827Y157110D01*
X45279D01*
Y161193D01*
D02*
G37*
G36*
X46592Y140500D02*
X46500D01*
Y136500D01*
X50500D01*
Y136592D01*
X50193Y137737D01*
X49601Y138763D01*
X48763Y139601D01*
X47737Y140193D01*
X46592Y140500D01*
D02*
G37*
G36*
X45500D02*
X45408D01*
X44263Y140193D01*
X43237Y139601D01*
X42399Y138763D01*
X41807Y137737D01*
X41500Y136592D01*
Y136500D01*
X45500D01*
Y140500D01*
D02*
G37*
G36*
X36592D02*
X36500D01*
Y136500D01*
X40500D01*
Y136592D01*
X40193Y137737D01*
X39601Y138763D01*
X38763Y139601D01*
X37737Y140193D01*
X36592Y140500D01*
D02*
G37*
G36*
X35500D02*
X35408D01*
X34263Y140193D01*
X33237Y139601D01*
X32399Y138763D01*
X31807Y137737D01*
X31500Y136592D01*
Y136500D01*
X35500D01*
Y140500D01*
D02*
G37*
G36*
X26592D02*
X26500D01*
Y136500D01*
X30500D01*
Y136592D01*
X30193Y137737D01*
X29601Y138763D01*
X28763Y139601D01*
X27737Y140193D01*
X26592Y140500D01*
D02*
G37*
G36*
X25500D02*
X25408D01*
X24263Y140193D01*
X23237Y139601D01*
X22399Y138763D01*
X21807Y137737D01*
X21500Y136592D01*
Y136500D01*
X25500D01*
Y140500D01*
D02*
G37*
G36*
X110552Y140189D02*
X109449D01*
X108383Y139903D01*
X107428Y139352D01*
X106648Y138572D01*
X106096Y137617D01*
X105811Y136551D01*
Y135449D01*
X106096Y134383D01*
X106648Y133428D01*
X107428Y132648D01*
X108383Y132097D01*
X109449Y131811D01*
X110552D01*
X111617Y132097D01*
X112572Y132648D01*
X113352Y133428D01*
X113903Y134383D01*
X114189Y135449D01*
Y136551D01*
X113903Y137617D01*
X113352Y138572D01*
X112572Y139352D01*
X111617Y139903D01*
X110552Y140189D01*
D02*
G37*
G36*
X50500Y135500D02*
X46500D01*
Y131500D01*
X46592D01*
X47737Y131807D01*
X48763Y132399D01*
X49601Y133237D01*
X50193Y134263D01*
X50500Y135408D01*
Y135500D01*
D02*
G37*
G36*
X45500D02*
X41500D01*
Y135408D01*
X41807Y134263D01*
X42399Y133237D01*
X43237Y132399D01*
X44263Y131807D01*
X45408Y131500D01*
X45500D01*
Y135500D01*
D02*
G37*
G36*
X40500D02*
X36500D01*
Y131500D01*
X36592D01*
X37737Y131807D01*
X38763Y132399D01*
X39601Y133237D01*
X40193Y134263D01*
X40500Y135408D01*
Y135500D01*
D02*
G37*
G36*
X35500D02*
X31500D01*
Y135408D01*
X31807Y134263D01*
X32399Y133237D01*
X33237Y132399D01*
X34263Y131807D01*
X35408Y131500D01*
X35500D01*
Y135500D01*
D02*
G37*
G36*
X30500D02*
X26500D01*
Y131500D01*
X26592D01*
X27737Y131807D01*
X28763Y132399D01*
X29601Y133237D01*
X30193Y134263D01*
X30500Y135408D01*
Y135500D01*
D02*
G37*
G36*
X25500D02*
X21500D01*
Y135408D01*
X21807Y134263D01*
X22399Y133237D01*
X23237Y132399D01*
X24263Y131807D01*
X25408Y131500D01*
X25500D01*
Y135500D01*
D02*
G37*
G36*
X16592Y140500D02*
X15408D01*
X14263Y140193D01*
X13237Y139601D01*
X12399Y138763D01*
X11807Y137737D01*
X11500Y136592D01*
Y135408D01*
X11807Y134263D01*
X12399Y133237D01*
X13237Y132399D01*
X14263Y131807D01*
X15408Y131500D01*
X16592D01*
X17737Y131807D01*
X18763Y132399D01*
X19601Y133237D01*
X20193Y134263D01*
X20500Y135408D01*
Y136592D01*
X20193Y137737D01*
X19601Y138763D01*
X18763Y139601D01*
X17737Y140193D01*
X16592Y140500D01*
D02*
G37*
G36*
X110552Y130189D02*
X109449D01*
X108383Y129903D01*
X107428Y129352D01*
X106648Y128572D01*
X106096Y127617D01*
X105811Y126551D01*
Y125449D01*
X106096Y124383D01*
X106648Y123428D01*
X107428Y122648D01*
X108383Y122097D01*
X109449Y121811D01*
X110552D01*
X111617Y122097D01*
X112572Y122648D01*
X113352Y123428D01*
X113903Y124383D01*
X114189Y125449D01*
Y126551D01*
X113903Y127617D01*
X113352Y128572D01*
X112572Y129352D01*
X111617Y129903D01*
X110552Y130189D01*
D02*
G37*
G36*
X180552Y96189D02*
X179448D01*
X178383Y95903D01*
X177428Y95352D01*
X176648Y94572D01*
X176096Y93617D01*
X175811Y92551D01*
Y91448D01*
X176096Y90383D01*
X176648Y89428D01*
X177428Y88648D01*
X178383Y88096D01*
X179448Y87811D01*
X180552D01*
X181617Y88096D01*
X182572Y88648D01*
X183352Y89428D01*
X183904Y90383D01*
X184189Y91448D01*
Y92551D01*
X183904Y93617D01*
X183352Y94572D01*
X182572Y95352D01*
X181617Y95903D01*
X180552Y96189D01*
D02*
G37*
G36*
X170552D02*
X169448D01*
X168383Y95903D01*
X167428Y95352D01*
X166648Y94572D01*
X166096Y93617D01*
X165811Y92551D01*
Y91448D01*
X166096Y90383D01*
X166648Y89428D01*
X167428Y88648D01*
X168383Y88096D01*
X169448Y87811D01*
X170552D01*
X171617Y88096D01*
X172572Y88648D01*
X173352Y89428D01*
X173904Y90383D01*
X174189Y91448D01*
Y92551D01*
X173904Y93617D01*
X173352Y94572D01*
X172572Y95352D01*
X171617Y95903D01*
X170552Y96189D01*
D02*
G37*
G36*
X96448Y89250D02*
X95552D01*
X94726Y88907D01*
X94093Y88275D01*
X93750Y87448D01*
Y86552D01*
X94093Y85725D01*
X94311Y85507D01*
Y85428D01*
X94063Y85180D01*
X93775Y84750D01*
X93674Y84243D01*
Y83000D01*
X93775Y82493D01*
X94063Y82063D01*
X97750Y78376D01*
Y77552D01*
X98093Y76726D01*
X98725Y76092D01*
X99552Y75750D01*
X100448D01*
X101275Y76092D01*
X101908Y76726D01*
X102250Y77552D01*
Y78448D01*
X101908Y79274D01*
X101275Y79908D01*
X100448Y80250D01*
X99625D01*
X96325Y83549D01*
Y83694D01*
X96574Y83942D01*
X96861Y84372D01*
X96962Y84879D01*
Y84963D01*
X97275Y85093D01*
X97908Y85725D01*
X98250Y86552D01*
Y87448D01*
X97908Y88275D01*
X97275Y88907D01*
X96448Y89250D01*
D02*
G37*
G36*
X332592Y49500D02*
X332500D01*
Y45500D01*
X336500D01*
Y45592D01*
X336193Y46737D01*
X335601Y47763D01*
X334763Y48601D01*
X333737Y49193D01*
X332592Y49500D01*
D02*
G37*
G36*
X331500D02*
X331408D01*
X330263Y49193D01*
X329237Y48601D01*
X328399Y47763D01*
X327807Y46737D01*
X327500Y45592D01*
Y45500D01*
X331500D01*
Y49500D01*
D02*
G37*
G36*
X128448Y63250D02*
X127552D01*
X126725Y62907D01*
X126093Y62274D01*
X125750Y61448D01*
Y60552D01*
X126093Y59725D01*
X126674Y59144D01*
Y48856D01*
X126093Y48274D01*
X125750Y47448D01*
Y46552D01*
X126093Y45726D01*
X126725Y45092D01*
X127552Y44750D01*
X128448D01*
X129274Y45092D01*
X129908Y45726D01*
X130250Y46552D01*
Y47448D01*
X129908Y48274D01*
X129325Y48856D01*
Y59144D01*
X129908Y59725D01*
X130250Y60552D01*
Y61448D01*
X129908Y62274D01*
X129274Y62907D01*
X128448Y63250D01*
D02*
G37*
G36*
X170592Y53500D02*
X169408D01*
X168263Y53193D01*
X167237Y52601D01*
X166399Y51763D01*
X165807Y50737D01*
X165500Y49592D01*
Y48408D01*
X165807Y47263D01*
X166399Y46237D01*
X167237Y45399D01*
X168263Y44807D01*
X169408Y44500D01*
X170592D01*
X171737Y44807D01*
X172763Y45399D01*
X173601Y46237D01*
X174193Y47263D01*
X174500Y48408D01*
Y49592D01*
X174193Y50737D01*
X173601Y51763D01*
X172763Y52601D01*
X171737Y53193D01*
X170592Y53500D01*
D02*
G37*
G36*
X336500Y44500D02*
X332500D01*
Y40500D01*
X332592D01*
X333737Y40807D01*
X334763Y41399D01*
X335601Y42237D01*
X336193Y43263D01*
X336500Y44408D01*
Y44500D01*
D02*
G37*
G36*
X331500D02*
X327500D01*
Y44408D01*
X327807Y43263D01*
X328399Y42237D01*
X329237Y41399D01*
X330263Y40807D01*
X331408Y40500D01*
X331500D01*
Y44500D01*
D02*
G37*
G36*
X170592Y43500D02*
X170500D01*
Y39500D01*
X174500D01*
Y39592D01*
X174193Y40737D01*
X173601Y41763D01*
X172763Y42601D01*
X171737Y43193D01*
X170592Y43500D01*
D02*
G37*
G36*
X169500D02*
X169408D01*
X168263Y43193D01*
X167237Y42601D01*
X166399Y41763D01*
X165807Y40737D01*
X165500Y39592D01*
Y39500D01*
X169500D01*
Y43500D01*
D02*
G37*
G36*
X332592Y39500D02*
X332500D01*
Y35500D01*
X336500D01*
Y35592D01*
X336193Y36737D01*
X335601Y37763D01*
X334763Y38601D01*
X333737Y39193D01*
X332592Y39500D01*
D02*
G37*
G36*
X331500D02*
X331408D01*
X330263Y39193D01*
X329237Y38601D01*
X328399Y37763D01*
X327807Y36737D01*
X327500Y35592D01*
Y35500D01*
X331500D01*
Y39500D01*
D02*
G37*
G36*
X174500Y38500D02*
X170500D01*
Y34500D01*
X170592D01*
X171737Y34807D01*
X172763Y35399D01*
X173601Y36237D01*
X174193Y37263D01*
X174500Y38408D01*
Y38500D01*
D02*
G37*
G36*
X169500D02*
X165500D01*
Y38408D01*
X165807Y37263D01*
X166399Y36237D01*
X167237Y35399D01*
X168263Y34807D01*
X169408Y34500D01*
X169500D01*
Y38500D01*
D02*
G37*
G36*
X336500Y34500D02*
X332500D01*
Y30500D01*
X332592D01*
X333737Y30807D01*
X334763Y31399D01*
X335601Y32237D01*
X336193Y33263D01*
X336500Y34408D01*
Y34500D01*
D02*
G37*
G36*
X331500D02*
X327500D01*
Y34408D01*
X327807Y33263D01*
X328399Y32237D01*
X329237Y31399D01*
X330263Y30807D01*
X331408Y30500D01*
X331500D01*
Y34500D01*
D02*
G37*
G36*
X170592Y33500D02*
X170500D01*
Y29500D01*
X174500D01*
Y29592D01*
X174193Y30737D01*
X173601Y31763D01*
X172763Y32601D01*
X171737Y33193D01*
X170592Y33500D01*
D02*
G37*
G36*
X169500D02*
X169408D01*
X168263Y33193D01*
X167237Y32601D01*
X166399Y31763D01*
X165807Y30737D01*
X165500Y29592D01*
Y29500D01*
X169500D01*
Y33500D01*
D02*
G37*
G36*
X332592Y29500D02*
X332500D01*
Y25500D01*
X336500D01*
Y25592D01*
X336193Y26737D01*
X335601Y27763D01*
X334763Y28601D01*
X333737Y29193D01*
X332592Y29500D01*
D02*
G37*
G36*
X331500D02*
X331408D01*
X330263Y29193D01*
X329237Y28601D01*
X328399Y27763D01*
X327807Y26737D01*
X327500Y25592D01*
Y25500D01*
X331500D01*
Y29500D01*
D02*
G37*
G36*
X174500Y28500D02*
X170500D01*
Y24500D01*
X170592D01*
X171737Y24807D01*
X172763Y25399D01*
X173601Y26237D01*
X174193Y27263D01*
X174500Y28408D01*
Y28500D01*
D02*
G37*
G36*
X169500D02*
X165500D01*
Y28408D01*
X165807Y27263D01*
X166399Y26237D01*
X167237Y25399D01*
X168263Y24807D01*
X169408Y24500D01*
X169500D01*
Y28500D01*
D02*
G37*
G36*
X336500Y24500D02*
X332500D01*
Y20500D01*
X332592D01*
X333737Y20807D01*
X334763Y21399D01*
X335601Y22237D01*
X336193Y23263D01*
X336500Y24408D01*
Y24500D01*
D02*
G37*
G36*
X331500D02*
X327500D01*
Y24408D01*
X327807Y23263D01*
X328399Y22237D01*
X329237Y21399D01*
X330263Y20807D01*
X331408Y20500D01*
X331500D01*
Y24500D01*
D02*
G37*
G36*
X170592Y23500D02*
X170500D01*
Y19500D01*
X174500D01*
Y19592D01*
X174193Y20737D01*
X173601Y21763D01*
X172763Y22601D01*
X171737Y23193D01*
X170592Y23500D01*
D02*
G37*
G36*
X169500D02*
X169408D01*
X168263Y23193D01*
X167237Y22601D01*
X166399Y21763D01*
X165807Y20737D01*
X165500Y19592D01*
Y19500D01*
X169500D01*
Y23500D01*
D02*
G37*
G36*
X174500Y18500D02*
X170500D01*
Y14500D01*
X170592D01*
X171737Y14807D01*
X172763Y15399D01*
X173601Y16237D01*
X174193Y17263D01*
X174500Y18408D01*
Y18500D01*
D02*
G37*
G36*
X169500D02*
X165500D01*
Y18408D01*
X165807Y17263D01*
X166399Y16237D01*
X167237Y15399D01*
X168263Y14807D01*
X169408Y14500D01*
X169500D01*
Y18500D01*
D02*
G37*
G36*
X332592Y19500D02*
X331408D01*
X330263Y19193D01*
X329237Y18601D01*
X328399Y17763D01*
X327807Y16737D01*
X327500Y15592D01*
Y14408D01*
X327807Y13263D01*
X328399Y12237D01*
X329237Y11399D01*
X330263Y10807D01*
X331408Y10500D01*
X332592D01*
X333737Y10807D01*
X334763Y11399D01*
X335601Y12237D01*
X336193Y13263D01*
X336500Y14408D01*
Y15592D01*
X336193Y16737D01*
X335601Y17763D01*
X334763Y18601D01*
X333737Y19193D01*
X332592Y19500D01*
D02*
G37*
%LPD*%
D17*
X95636Y86637D02*
X96000Y87000D01*
X95636Y84879D02*
Y86637D01*
X95000Y84243D02*
X95636Y84879D01*
X95000Y83000D02*
Y84243D01*
Y83000D02*
X100000Y78000D01*
X128000Y47000D02*
Y61000D01*
D31*
X45779Y161693D02*
D03*
D32*
X32000Y180000D02*
D03*
X55622D02*
D03*
D33*
X36000Y136000D02*
D03*
X46000D02*
D03*
X16000D02*
D03*
X26000D02*
D03*
X170000Y29000D02*
D03*
Y19000D02*
D03*
Y49000D02*
D03*
Y39000D02*
D03*
X332000Y25000D02*
D03*
Y15000D02*
D03*
Y45000D02*
D03*
Y35000D02*
D03*
D34*
X110000Y126000D02*
D03*
Y136000D02*
D03*
X170000Y92000D02*
D03*
X180000D02*
D03*
D35*
X96000Y87000D02*
D03*
X100000Y78000D02*
D03*
X128000Y47000D02*
D03*
Y61000D02*
D03*
X180000Y173000D02*
D03*
X86000Y157000D02*
D03*
X74000Y90000D02*
D03*
X306000Y37000D02*
D03*
X278000Y38000D02*
D03*
X248000D02*
D03*
X218000D02*
D03*
X149000Y92000D02*
D03*
X47000Y21000D02*
D03*
M02*
