G04*
G04 #@! TF.GenerationSoftware,Altium Limited,Altium Designer,24.1.2 (44)*
G04*
G04 Layer_Color=32896*
%FSLAX25Y25*%
%MOIN*%
G70*
G04*
G04 #@! TF.SameCoordinates,8322A510-022E-4162-8CB1-5861A19C918E*
G04*
G04*
G04 #@! TF.FilePolarity,Positive*
G04*
G01*
G75*
%ADD17C,0.00600*%
D17*
X82500Y168200D02*
X89500D01*
X82500Y165200D02*
Y168200D01*
X89500Y165200D02*
Y168200D01*
X82500Y175600D02*
X89500D01*
Y178600D01*
X82500Y175600D02*
Y178600D01*
X89500Y168200D02*
Y175600D01*
X82500Y178600D02*
X89500D01*
X82500Y168200D02*
Y175600D01*
Y165200D02*
X89500D01*
X82500Y168200D02*
X89500D01*
X82500Y165200D02*
Y168200D01*
X89500Y165200D02*
Y168200D01*
X82500Y175600D02*
X89500D01*
Y178600D01*
X82500Y175600D02*
Y178600D01*
X89500Y168200D02*
Y175600D01*
X82500Y178600D02*
X89500D01*
X82500Y168200D02*
Y175600D01*
Y165200D02*
X89500D01*
X114300Y171500D02*
Y178500D01*
X117300D02*
X124700D01*
X127700Y171500D02*
Y178500D01*
X117300Y171500D02*
X124700D01*
Y178500D02*
X127700D01*
X124700Y171500D02*
X127700D01*
X124700D02*
Y178500D01*
X114300Y171500D02*
X117300D01*
X114300Y178500D02*
X117300D01*
Y171500D02*
Y178500D01*
X114300Y171500D02*
Y178500D01*
X117300D02*
X124700D01*
X127700Y171500D02*
Y178500D01*
X117300Y171500D02*
X124700D01*
Y178500D02*
X127700D01*
X124700Y171500D02*
X127700D01*
X124700D02*
Y178500D01*
X114300Y171500D02*
X117300D01*
X114300Y178500D02*
X117300D01*
Y171500D02*
Y178500D01*
X164700Y169500D02*
Y176500D01*
X151300Y169500D02*
Y176500D01*
Y169500D02*
X154300D01*
X151300Y176500D02*
X154300D01*
Y169500D02*
Y176500D01*
X161700D02*
X164700D01*
X161700Y169500D02*
X164700D01*
X161700D02*
Y176500D01*
X164700Y169500D02*
Y176500D01*
X151300Y169500D02*
Y176500D01*
Y169500D02*
X154300D01*
X151300Y176500D02*
X154300D01*
Y169500D02*
Y176500D01*
X161700D02*
X164700D01*
X161700Y169500D02*
X164700D01*
X161700D02*
Y176500D01*
X132300Y88500D02*
Y95500D01*
X129300D02*
X132300D01*
X129300Y88500D02*
X132300D01*
X139700D02*
Y95500D01*
Y88500D02*
X142700D01*
X139700Y95500D02*
X142700D01*
X132300Y88500D02*
X139700D01*
X142700D02*
Y95500D01*
X132300D02*
X139700D01*
X129300Y88500D02*
Y95500D01*
X132300Y88500D02*
Y95500D01*
X129300D02*
X132300D01*
X129300Y88500D02*
X132300D01*
X139700D02*
Y95500D01*
Y88500D02*
X142700D01*
X139700Y95500D02*
X142700D01*
X132300Y88500D02*
X139700D01*
X142700D02*
Y95500D01*
X132300D02*
X139700D01*
X129300Y88500D02*
Y95500D01*
X44500Y95200D02*
X51500D01*
X44500Y108600D02*
X51500D01*
X44500Y105600D02*
Y108600D01*
X51500Y105600D02*
Y108600D01*
X44500Y105600D02*
X51500D01*
Y95200D02*
Y98200D01*
X44500Y95200D02*
Y98200D01*
X51500D01*
X44500Y95200D02*
X51500D01*
X44500Y108600D02*
X51500D01*
X44500Y105600D02*
Y108600D01*
X51500Y105600D02*
Y108600D01*
X44500Y105600D02*
X51500D01*
Y95200D02*
Y98200D01*
X44500Y95200D02*
Y98200D01*
X51500D01*
X44500Y62250D02*
X51500D01*
X44500Y75650D02*
X51500D01*
X44500Y72650D02*
Y75650D01*
X51500Y72650D02*
Y75650D01*
X44500Y72650D02*
X51500D01*
Y62250D02*
Y65250D01*
X44500Y62250D02*
Y65250D01*
X51500D01*
X44500Y62250D02*
X51500D01*
X44500Y75650D02*
X51500D01*
X44500Y72650D02*
Y75650D01*
X51500Y72650D02*
Y75650D01*
X44500Y72650D02*
X51500D01*
Y62250D02*
Y65250D01*
X44500Y62250D02*
Y65250D01*
X51500D01*
X301500Y93700D02*
X308500D01*
Y83300D02*
Y90700D01*
X301500Y80300D02*
X308500D01*
X301500Y83300D02*
Y90700D01*
X308500Y80300D02*
Y83300D01*
X301500Y80300D02*
Y83300D01*
X308500D01*
X301500Y90700D02*
Y93700D01*
X308500Y90700D02*
Y93700D01*
X301500Y90700D02*
X308500D01*
X301500Y93700D02*
X308500D01*
Y83300D02*
Y90700D01*
X301500Y80300D02*
X308500D01*
X301500Y83300D02*
Y90700D01*
X308500Y80300D02*
Y83300D01*
X301500Y80300D02*
Y83300D01*
X308500D01*
X301500Y90700D02*
Y93700D01*
X308500Y90700D02*
Y93700D01*
X301500Y90700D02*
X308500D01*
X273500Y94600D02*
X280500D01*
Y84200D02*
Y91600D01*
X273500Y81200D02*
X280500D01*
X273500Y84200D02*
Y91600D01*
X280500Y81200D02*
Y84200D01*
X273500Y81200D02*
Y84200D01*
X280500D01*
X273500Y91600D02*
Y94600D01*
X280500Y91600D02*
Y94600D01*
X273500Y91600D02*
X280500D01*
X273500Y94600D02*
X280500D01*
Y84200D02*
Y91600D01*
X273500Y81200D02*
X280500D01*
X273500Y84200D02*
Y91600D01*
X280500Y81200D02*
Y84200D01*
X273500Y81200D02*
Y84200D01*
X280500D01*
X273500Y91600D02*
Y94600D01*
X280500Y91600D02*
Y94600D01*
X273500Y91600D02*
X280500D01*
X243500Y94700D02*
X250500D01*
Y84300D02*
Y91700D01*
X243500Y81300D02*
X250500D01*
X243500Y84300D02*
Y91700D01*
X250500Y81300D02*
Y84300D01*
X243500Y81300D02*
Y84300D01*
X250500D01*
X243500Y91700D02*
Y94700D01*
X250500Y91700D02*
Y94700D01*
X243500Y91700D02*
X250500D01*
X243500Y94700D02*
X250500D01*
Y84300D02*
Y91700D01*
X243500Y81300D02*
X250500D01*
X243500Y84300D02*
Y91700D01*
X250500Y81300D02*
Y84300D01*
X243500Y81300D02*
Y84300D01*
X250500D01*
X243500Y91700D02*
Y94700D01*
X250500Y91700D02*
Y94700D01*
X243500Y91700D02*
X250500D01*
X214500Y94700D02*
X221500D01*
Y84300D02*
Y91700D01*
X214500Y81300D02*
X221500D01*
X214500Y84300D02*
Y91700D01*
X221500Y81300D02*
Y84300D01*
X214500Y81300D02*
Y84300D01*
X221500D01*
X214500Y91700D02*
Y94700D01*
X221500Y91700D02*
Y94700D01*
X214500Y91700D02*
X221500D01*
X214500Y94700D02*
X221500D01*
Y84300D02*
Y91700D01*
X214500Y81300D02*
X221500D01*
X214500Y84300D02*
Y91700D01*
X221500Y81300D02*
Y84300D01*
X214500Y81300D02*
Y84300D01*
X221500D01*
X214500Y91700D02*
Y94700D01*
X221500Y91700D02*
Y94700D01*
X214500Y91700D02*
X221500D01*
X244500Y47300D02*
X251500D01*
X244500Y60700D02*
X251500D01*
X244500Y57700D02*
Y60700D01*
X251500Y57700D02*
Y60700D01*
X244500Y57700D02*
X251500D01*
Y47300D02*
Y50300D01*
X244500Y47300D02*
Y50300D01*
X251500D01*
X244500Y47300D02*
X251500D01*
X244500Y60700D02*
X251500D01*
X244500Y57700D02*
Y60700D01*
X251500Y57700D02*
Y60700D01*
X244500Y57700D02*
X251500D01*
Y47300D02*
Y50300D01*
X244500Y47300D02*
Y50300D01*
X251500D01*
X302500Y47300D02*
X309500D01*
X302500Y60700D02*
X309500D01*
X302500Y57700D02*
Y60700D01*
X309500Y57700D02*
Y60700D01*
X302500Y57700D02*
X309500D01*
Y47300D02*
Y50300D01*
X302500Y47300D02*
Y50300D01*
X309500D01*
X302500Y47300D02*
X309500D01*
X302500Y60700D02*
X309500D01*
X302500Y57700D02*
Y60700D01*
X309500Y57700D02*
Y60700D01*
X302500Y57700D02*
X309500D01*
Y47300D02*
Y50300D01*
X302500Y47300D02*
Y50300D01*
X309500D01*
X214500Y47300D02*
X221500D01*
X214500Y60700D02*
X221500D01*
X214500Y57700D02*
Y60700D01*
X221500Y57700D02*
Y60700D01*
X214500Y57700D02*
X221500D01*
Y47300D02*
Y50300D01*
X214500Y47300D02*
Y50300D01*
X221500D01*
X214500Y47300D02*
X221500D01*
X214500Y60700D02*
X221500D01*
X214500Y57700D02*
Y60700D01*
X221500Y57700D02*
Y60700D01*
X214500Y57700D02*
X221500D01*
Y47300D02*
Y50300D01*
X214500Y47300D02*
Y50300D01*
X221500D01*
X274500Y47300D02*
X281500D01*
X274500Y60700D02*
X281500D01*
X274500Y57700D02*
Y60700D01*
X281500Y57700D02*
Y60700D01*
X274500Y57700D02*
X281500D01*
Y47300D02*
Y50300D01*
X274500Y47300D02*
Y50300D01*
X281500D01*
X274500Y47300D02*
X281500D01*
X274500Y60700D02*
X281500D01*
X274500Y57700D02*
Y60700D01*
X281500Y57700D02*
Y60700D01*
X274500Y57700D02*
X281500D01*
Y47300D02*
Y50300D01*
X274500Y47300D02*
Y50300D01*
X281500D01*
X43662Y32300D02*
X50662D01*
X43662Y29300D02*
Y32300D01*
X50662Y29300D02*
Y32300D01*
X43662Y39700D02*
X50662D01*
Y42700D01*
X43662Y39700D02*
Y42700D01*
X50662Y32300D02*
Y39700D01*
X43662Y42700D02*
X50662D01*
X43662Y32300D02*
Y39700D01*
Y29300D02*
X50662D01*
X43662Y32300D02*
X50662D01*
X43662Y29300D02*
Y32300D01*
X50662Y29300D02*
Y32300D01*
X43662Y39700D02*
X50662D01*
Y42700D01*
X43662Y39700D02*
Y42700D01*
X50662Y32300D02*
Y39700D01*
X43662Y42700D02*
X50662D01*
X43662Y32300D02*
Y39700D01*
Y29300D02*
X50662D01*
M02*
