G04*
G04 #@! TF.GenerationSoftware,Altium Limited,Altium Designer,24.1.2 (44)*
G04*
G04 Layer_Color=16711935*
%FSLAX44Y44*%
%MOMM*%
G71*
G04*
G04 #@! TF.SameCoordinates,2C86CFE1-E18B-4F6B-AC91-37C5E2943870*
G04*
G04*
G04 #@! TF.FilePolarity,Negative*
G04*
G01*
G75*
%ADD30C,0.0000*%
%ADD41C,1.7272*%
%ADD42O,2.6032X1.4032*%
%ADD43C,1.4032*%
%ADD44C,1.9812*%
%ADD45C,1.8232*%
%ADD46C,1.8532*%
%ADD47O,2.2032X4.0032*%
%ADD48O,3.5032X2.0032*%
%ADD49C,0.8382*%
D30*
X361671Y307340D02*
G03*
X361671Y307340I-8611J0D01*
G01*
Y281940D02*
G03*
X361671Y281940I-8611J0D01*
G01*
D41*
X787400Y256540D02*
D03*
X812800D02*
D03*
X838200D02*
D03*
X863600D02*
D03*
X889000D02*
D03*
X914400D02*
D03*
Y739140D02*
D03*
X889000D02*
D03*
X863600D02*
D03*
X838200D02*
D03*
X812800D02*
D03*
X787400D02*
D03*
X762000D02*
D03*
X736600D02*
D03*
X695960D02*
D03*
X670560D02*
D03*
X645160D02*
D03*
X619760D02*
D03*
X594360D02*
D03*
X568960D02*
D03*
X543560D02*
D03*
X518160D02*
D03*
X492760D02*
D03*
X467360D02*
D03*
X736600Y256540D02*
D03*
X711200D02*
D03*
X685800D02*
D03*
X660400D02*
D03*
X635000D02*
D03*
X609600D02*
D03*
X584200D02*
D03*
X558800D02*
D03*
D42*
X17462Y816980D02*
D03*
X64962D02*
D03*
Y742580D02*
D03*
X17462D02*
D03*
D43*
X73979Y763581D02*
D03*
Y779581D02*
D03*
X61941Y771582D02*
D03*
Y787582D02*
D03*
X73979Y795580D02*
D03*
D44*
X66040Y515620D02*
D03*
X40640D02*
D03*
X116840D02*
D03*
X91440D02*
D03*
X652780Y695960D02*
D03*
X678180D02*
D03*
X601980D02*
D03*
X627380D02*
D03*
X309880Y121920D02*
D03*
Y96520D02*
D03*
Y172720D02*
D03*
Y147320D02*
D03*
X53340Y650240D02*
D03*
Y624840D02*
D03*
Y701040D02*
D03*
Y675640D02*
D03*
X165100Y434340D02*
D03*
Y459740D02*
D03*
Y383540D02*
D03*
Y408940D02*
D03*
X909320Y414020D02*
D03*
Y439420D02*
D03*
Y363220D02*
D03*
Y388620D02*
D03*
X182880Y822960D02*
D03*
X208280D02*
D03*
X132080D02*
D03*
X157480D02*
D03*
D45*
X353060Y307340D02*
D03*
Y281940D02*
D03*
D46*
X259080Y218440D02*
D03*
Y243840D02*
D03*
Y269240D02*
D03*
D47*
X152400Y220980D02*
D03*
X92400D02*
D03*
D48*
X127400Y174480D02*
D03*
D49*
X472440Y306070D02*
D03*
X876300Y752602D02*
D03*
X873760Y769620D02*
D03*
X886190Y274050D02*
D03*
X896620Y281940D02*
D03*
X472440Y289560D02*
D03*
X802640Y783971D02*
D03*
Y806958D02*
D03*
X617220Y581660D02*
D03*
X281940Y731520D02*
D03*
X713740Y563880D02*
D03*
X745490Y239395D02*
D03*
X728980Y238760D02*
D03*
X584200Y586740D02*
D03*
X396240Y779780D02*
D03*
X398780Y759460D02*
D03*
X454660Y260985D02*
D03*
X457200Y277495D02*
D03*
X301275Y308461D02*
D03*
X637540Y642620D02*
D03*
X706120Y645160D02*
D03*
X668020D02*
D03*
X703580Y444500D02*
D03*
X693420Y566420D02*
D03*
X340539Y736421D02*
D03*
X261620Y299720D02*
D03*
X276860Y284480D02*
D03*
X312420Y294640D02*
D03*
X114300Y50800D02*
D03*
X195580Y58420D02*
D03*
X506486Y235194D02*
D03*
X518160Y223520D02*
D03*
X645160Y353060D02*
D03*
X246380Y589534D02*
D03*
Y576580D02*
D03*
X248920Y469900D02*
D03*
X35560Y304800D02*
D03*
X30480Y350520D02*
D03*
Y383540D02*
D03*
M02*
