M48
;Layer_Color=9474304
;FILE_FORMAT=4:4
METRIC,LZ
;TYPE=PLATED
T01F00S00C0.3302
T02F00S00C0.8000
T05F00S00C1.0160
T06F00S00C1.0201
T07F00S00C1.1000
%
T01
X001143Y000508
X0019558Y0005842
X0072898Y0023876
X0074549Y00239395
X0088619Y0027405
X0089662Y0028194
X0064516Y0035306
X0070358Y004445
X0047244Y0030607
Y0028956
X004572Y00277495
X0045466Y00260985
X00506486Y00235194
X0051816Y0022352
X0031242Y0029464
X00301275Y00308461
X0026162Y0029972
X0027686Y0028448
X0024892Y004699
X0003048Y0038354
Y0035052
X0003556Y003048
X0024638Y0057658
Y00589534
X0028194Y0073152
X00340539Y00736421
X0039878Y0075946
X0039624Y0077978
X0063754Y0064262
X0066802Y0064516
X0070612
X0071374Y0056388
X0069342Y0056642
X0061722Y0058166
X005842Y0058674
X0080264Y00783971
Y00806958
X0087376Y0076962
X008763Y00752602
T02
X00061941Y00771582
Y00787582
X00073979Y0079558
Y00779581
Y00763581
T05
X0030988Y0009652
Y0012192
X0090932Y0036322
Y0038862
Y0041402
Y0043942
X001651Y0043434
Y0045974
Y0040894
Y0038354
X0030988Y0017272
Y0014732
X0011684Y0051562
X0009144
X0006604
X0004064
X0005334Y0062484
Y0065024
Y0067564
Y0070104
X0013208Y0082296
X0015748
X0018288
X0020828
X0060198Y0069596
X0062738
X0065278
X0067818
T06
X0035306Y0028194
Y0030734
T07
X005588Y0025654
X005842
X006096
X00635
X006604
X006858
X007112
X007366
X007874
X008128
X008382
X008636
X00889
X009144
X0025908Y0024384
Y0021844
Y0026924
X0046736Y0073914
X0049276
X0051816
X0054356
X0056896
X0059436
X0061976
X0064516
X0067056
X0069596
X007366
X00762
X007874
X008128
X008382
X008636
X00889
X009144
M30
